M48
;GenerationSoftware,Autodesk,EAGLE,9.3.0*%
;CreationDate,2019-03-29T21:01:05Z*%
FMAT,2
ICI,OFF
METRIC,TZ,000.000
T3C0.700
T2C0.813
T1C0.914
%
G90
M71
T1
X4445Y23495
X4445Y26035
X6985Y23495
X6985Y26035
X9525Y23495
X9525Y26035
X12065Y26035
X12065Y23495
T2
X15875Y26035
X17780Y24765
X15875Y23495
X4445Y19685
X4445Y17145
X12065Y17145
X12065Y19685
X4445Y14605
X4445Y12065
X12065Y14605
X12065Y12065
T3
X4445Y8890
X15875Y19685
X6985Y8890
X4445Y28575
X1905Y8890
X14605Y9525
X6985Y28575
M30