M48
; DRILL file {KiCad 6.0.6-3a73a75311~116~ubuntu22.04.1} date Mon 11 Jul 2022 09:36:48 PM EDT
; FORMAT={-:-/ absolute / metric / decimal}
; #@! TF.CreationDate,2022-07-11T21:36:48-04:00
; #@! TF.GenerationSoftware,Kicad,Pcbnew,6.0.6-3a73a75311~116~ubuntu22.04.1
; #@! TF.FileFunction,MixedPlating,1,2
FMAT,2
METRIC
; #@! TA.AperFunction,Plated,PTH,ComponentDrill
T1C1.000
; #@! TA.AperFunction,Plated,PTH,ComponentDrill
T2C1.100
; #@! TA.AperFunction,Plated,PTH,ComponentDrill
T3C1.300
; #@! TA.AperFunction,NonPlated,NPTH,ComponentDrill
T4C3.000
; #@! TA.AperFunction,NonPlated,NPTH,ComponentDrill
T5C3.500
%
G90
G05
T1
X-70.56Y-13.76
X-70.56Y-29.0
X-68.02Y-13.76
X-68.02Y-29.0
X-65.48Y-13.76
X-65.48Y-29.0
X-62.94Y-13.76
X-62.94Y-29.0
X-60.4Y-13.76
X-60.4Y-29.0
X-57.86Y-13.76
X-57.86Y-29.0
X-55.32Y-13.76
X-55.32Y-29.0
X-52.78Y-13.76
X-52.78Y-29.0
X-51.5Y-2.5
X-51.5Y-5.04
X-51.5Y-7.58
X-51.5Y-10.12
X-50.24Y-13.76
X-50.24Y-29.0
X-47.7Y-13.76
X-47.7Y-29.0
X-45.16Y-13.76
X-45.16Y-29.0
X-42.62Y-13.76
X-42.62Y-29.0
X-40.08Y-13.76
X-40.08Y-29.0
X-37.54Y-13.76
X-37.54Y-29.0
X-35.0Y-13.76
X-35.0Y-29.0
T2
X-66.05Y-38.25
X-66.05Y-42.75
X-66.05Y-48.75
X-66.05Y-53.25
X-59.55Y-38.25
X-59.55Y-42.75
X-59.55Y-48.75
X-59.55Y-53.25
X-24.54Y-29.73
X-22.0Y-29.73
X-20.25Y-48.75
X-20.25Y-53.25
X-19.46Y-29.73
X-13.75Y-48.75
X-13.75Y-53.25
T3
X-5.5Y-9.0
X-5.5Y-14.0
X-5.5Y-22.0
X-5.5Y-27.0
T4
X-77.7Y-2.3
X-77.7Y-33.7
X-2.3Y-2.3
X-2.3Y-33.7
T5
X-22.0Y-13.07
T0
M30
