M48
; DRILL file {KiCad 6.0.2+dfsg-1} date Sat 02 Jul 2022 03:06:16 PM EDT
; FORMAT={-:-/ absolute / metric / decimal}
; #@! TF.CreationDate,2022-07-02T15:06:16-04:00
; #@! TF.GenerationSoftware,Kicad,Pcbnew,6.0.2+dfsg-1
; #@! TF.FileFunction,MixedPlating,1,2
FMAT,2
METRIC
; #@! TA.AperFunction,Plated,PTH,ComponentDrill
T1C1.000
; #@! TA.AperFunction,Plated,PTH,ComponentDrill
T2C1.100
; #@! TA.AperFunction,Plated,PTH,ComponentDrill
T3C1.300
; #@! TA.AperFunction,NonPlated,NPTH,ComponentDrill
T4C3.000
; #@! TA.AperFunction,NonPlated,NPTH,ComponentDrill
T5C3.500
%
G90
G05
T1
X9.44Y-13.76
X9.44Y-29.0
X11.98Y-13.76
X11.98Y-29.0
X14.52Y-13.76
X14.52Y-29.0
X17.06Y-13.76
X17.06Y-29.0
X19.6Y-13.76
X19.6Y-29.0
X22.14Y-13.76
X22.14Y-29.0
X24.68Y-13.76
X24.68Y-29.0
X25.0Y-2.0
X25.0Y-4.54
X25.0Y-7.08
X25.0Y-9.62
X27.22Y-13.76
X27.22Y-29.0
X29.76Y-13.76
X29.76Y-29.0
X32.3Y-13.76
X32.3Y-29.0
X34.84Y-13.76
X34.84Y-29.0
X37.38Y-13.76
X37.38Y-29.0
X39.92Y-13.76
X39.92Y-29.0
X42.46Y-13.76
X42.46Y-29.0
X45.0Y-13.76
X45.0Y-29.0
T2
X13.95Y-38.25
X13.95Y-42.75
X13.95Y-48.75
X13.95Y-53.25
X20.45Y-38.25
X20.45Y-42.75
X20.45Y-48.75
X20.45Y-53.25
X59.75Y-48.75
X59.75Y-53.25
X66.25Y-48.75
X66.25Y-53.25
X70.5Y-14.46
X70.5Y-17.0
X70.5Y-19.54
T3
X43.5Y-5.5
X48.5Y-5.5
X55.5Y-5.5
X60.5Y-5.5
T4
X2.3Y-2.3
X2.3Y-33.7
X77.7Y-2.3
X77.7Y-33.7
T5
X53.84Y-17.0
T0
M30
