%TF.GenerationSoftware,KiCad,Pcbnew,6.0.2+dfsg-1*%
%TF.CreationDate,2022-07-02T14:21:15-04:00*%
%TF.ProjectId,UVLEDController,55564c45-4443-46f6-9e74-726f6c6c6572,rev?*%
%TF.SameCoordinates,PX7270e00PY1c9c380*%
%TF.FileFunction,Copper,L1,Top*%
%TF.FilePolarity,Positive*%
%FSLAX46Y46*%
G04 Gerber Fmt 4.6, Leading zero omitted, Abs format (unit mm)*
G04 Created by KiCad (PCBNEW 6.0.2+dfsg-1) date 2022-07-02 14:21:15*
%MOMM*%
%LPD*%
G01*
G04 APERTURE LIST*
G04 Aperture macros list*
%AMRoundRect*
0 Rectangle with rounded corners*
0 $1 Rounding radius*
0 $2 $3 $4 $5 $6 $7 $8 $9 X,Y pos of 4 corners*
0 Add a 4 corners polygon primitive as box body*
4,1,4,$2,$3,$4,$5,$6,$7,$8,$9,$2,$3,0*
0 Add four circle primitives for the rounded corners*
1,1,$1+$1,$2,$3*
1,1,$1+$1,$4,$5*
1,1,$1+$1,$6,$7*
1,1,$1+$1,$8,$9*
0 Add four rect primitives between the rounded corners*
20,1,$1+$1,$2,$3,$4,$5,0*
20,1,$1+$1,$4,$5,$6,$7,0*
20,1,$1+$1,$6,$7,$8,$9,0*
20,1,$1+$1,$8,$9,$2,$3,0*%
G04 Aperture macros list end*
%ADD10C,0.300000*%
%TA.AperFunction,NonConductor*%
%ADD11C,0.300000*%
%TD*%
%TA.AperFunction,SMDPad,CuDef*%
%ADD12RoundRect,0.250000X0.450000X-0.350000X0.450000X0.350000X-0.450000X0.350000X-0.450000X-0.350000X0*%
%TD*%
%TA.AperFunction,ComponentPad*%
%ADD13C,2.000000*%
%TD*%
%TA.AperFunction,ComponentPad*%
%ADD14R,2.600000X2.600000*%
%TD*%
%TA.AperFunction,ComponentPad*%
%ADD15C,2.600000*%
%TD*%
%TA.AperFunction,ComponentPad*%
%ADD16R,1.700000X1.700000*%
%TD*%
%TA.AperFunction,ComponentPad*%
%ADD17O,1.700000X1.700000*%
%TD*%
%TA.AperFunction,ComponentPad*%
%ADD18R,1.600000X1.600000*%
%TD*%
%TA.AperFunction,ComponentPad*%
%ADD19O,1.600000X1.600000*%
%TD*%
%TA.AperFunction,ComponentPad*%
%ADD20R,2.000000X1.905000*%
%TD*%
%TA.AperFunction,ComponentPad*%
%ADD21O,2.000000X1.905000*%
%TD*%
%TA.AperFunction,Conductor*%
%ADD22C,0.450000*%
%TD*%
%TA.AperFunction,Conductor*%
%ADD23C,2.000000*%
%TD*%
G04 APERTURE END LIST*
D10*
D11*
X9214285Y-17794761D02*
X9880952Y-19794761D01*
X10547619Y-17794761D01*
X12071428Y-19794761D02*
X12071428Y-18747142D01*
X11976190Y-18556666D01*
X11785714Y-18461428D01*
X11404761Y-18461428D01*
X11214285Y-18556666D01*
X12071428Y-19699523D02*
X11880952Y-19794761D01*
X11404761Y-19794761D01*
X11214285Y-19699523D01*
X11119047Y-19509047D01*
X11119047Y-19318571D01*
X11214285Y-19128095D01*
X11404761Y-19032857D01*
X11880952Y-19032857D01*
X12071428Y-18937619D01*
X13023809Y-19794761D02*
X13023809Y-18461428D01*
X13023809Y-18842380D02*
X13119047Y-18651904D01*
X13214285Y-18556666D01*
X13404761Y-18461428D01*
X13595238Y-18461428D01*
X14261904Y-18461428D02*
X14261904Y-19794761D01*
X14261904Y-18651904D02*
X14357142Y-18556666D01*
X14547619Y-18461428D01*
X14833333Y-18461428D01*
X15023809Y-18556666D01*
X15119047Y-18747142D01*
X15119047Y-19794761D01*
X16833333Y-19699523D02*
X16642857Y-19794761D01*
X16261904Y-19794761D01*
X16071428Y-19699523D01*
X15976190Y-19509047D01*
X15976190Y-18747142D01*
X16071428Y-18556666D01*
X16261904Y-18461428D01*
X16642857Y-18461428D01*
X16833333Y-18556666D01*
X16928571Y-18747142D01*
X16928571Y-18937619D01*
X15976190Y-19128095D01*
X17785714Y-19794761D02*
X17785714Y-18461428D01*
X17785714Y-18842380D02*
X17880952Y-18651904D01*
X17976190Y-18556666D01*
X18166666Y-18461428D01*
X18357142Y-18461428D01*
X19023809Y-19794761D02*
X19023809Y-18461428D01*
X19023809Y-17794761D02*
X18928571Y-17890000D01*
X19023809Y-17985238D01*
X19119047Y-17890000D01*
X19023809Y-17794761D01*
X19023809Y-17985238D01*
X19785714Y-18461428D02*
X20833333Y-18461428D01*
X19785714Y-19794761D01*
X20833333Y-19794761D01*
X22357142Y-19699523D02*
X22166666Y-19794761D01*
X21785714Y-19794761D01*
X21595238Y-19699523D01*
X21500000Y-19509047D01*
X21500000Y-18747142D01*
X21595238Y-18556666D01*
X21785714Y-18461428D01*
X22166666Y-18461428D01*
X22357142Y-18556666D01*
X22452380Y-18747142D01*
X22452380Y-18937619D01*
X21500000Y-19128095D01*
X24166666Y-19794761D02*
X24166666Y-17794761D01*
X24166666Y-19699523D02*
X23976190Y-19794761D01*
X23595238Y-19794761D01*
X23404761Y-19699523D01*
X23309523Y-19604285D01*
X23214285Y-19413809D01*
X23214285Y-18842380D01*
X23309523Y-18651904D01*
X23404761Y-18556666D01*
X23595238Y-18461428D01*
X23976190Y-18461428D01*
X24166666Y-18556666D01*
X26642857Y-17794761D02*
X26642857Y-19413809D01*
X26738095Y-19604285D01*
X26833333Y-19699523D01*
X27023809Y-19794761D01*
X27404761Y-19794761D01*
X27595238Y-19699523D01*
X27690476Y-19604285D01*
X27785714Y-19413809D01*
X27785714Y-17794761D01*
X28452380Y-17794761D02*
X29119047Y-19794761D01*
X29785714Y-17794761D01*
X11357142Y-21967142D02*
X12023809Y-21967142D01*
X12309523Y-23014761D02*
X11357142Y-23014761D01*
X11357142Y-21014761D01*
X12309523Y-21014761D01*
X12976190Y-23014761D02*
X14023809Y-21681428D01*
X12976190Y-21681428D02*
X14023809Y-23014761D01*
X14785714Y-21681428D02*
X14785714Y-23681428D01*
X14785714Y-21776666D02*
X14976190Y-21681428D01*
X15357142Y-21681428D01*
X15547619Y-21776666D01*
X15642857Y-21871904D01*
X15738095Y-22062380D01*
X15738095Y-22633809D01*
X15642857Y-22824285D01*
X15547619Y-22919523D01*
X15357142Y-23014761D01*
X14976190Y-23014761D01*
X14785714Y-22919523D01*
X16880952Y-23014761D02*
X16690476Y-22919523D01*
X16595238Y-22824285D01*
X16500000Y-22633809D01*
X16500000Y-22062380D01*
X16595238Y-21871904D01*
X16690476Y-21776666D01*
X16880952Y-21681428D01*
X17166666Y-21681428D01*
X17357142Y-21776666D01*
X17452380Y-21871904D01*
X17547619Y-22062380D01*
X17547619Y-22633809D01*
X17452380Y-22824285D01*
X17357142Y-22919523D01*
X17166666Y-23014761D01*
X16880952Y-23014761D01*
X18309523Y-22919523D02*
X18500000Y-23014761D01*
X18880952Y-23014761D01*
X19071428Y-22919523D01*
X19166666Y-22729047D01*
X19166666Y-22633809D01*
X19071428Y-22443333D01*
X18880952Y-22348095D01*
X18595238Y-22348095D01*
X18404761Y-22252857D01*
X18309523Y-22062380D01*
X18309523Y-21967142D01*
X18404761Y-21776666D01*
X18595238Y-21681428D01*
X18880952Y-21681428D01*
X19071428Y-21776666D01*
X20880952Y-21681428D02*
X20880952Y-23014761D01*
X20023809Y-21681428D02*
X20023809Y-22729047D01*
X20119047Y-22919523D01*
X20309523Y-23014761D01*
X20595238Y-23014761D01*
X20785714Y-22919523D01*
X20880952Y-22824285D01*
X21833333Y-23014761D02*
X21833333Y-21681428D01*
X21833333Y-22062380D02*
X21928571Y-21871904D01*
X22023809Y-21776666D01*
X22214285Y-21681428D01*
X22404761Y-21681428D01*
X23071428Y-23014761D02*
X23071428Y-21681428D01*
X23071428Y-21014761D02*
X22976190Y-21110000D01*
X23071428Y-21205238D01*
X23166666Y-21110000D01*
X23071428Y-21014761D01*
X23071428Y-21205238D01*
X23833333Y-21681428D02*
X24880952Y-21681428D01*
X23833333Y-23014761D01*
X24880952Y-23014761D01*
X26404761Y-22919523D02*
X26214285Y-23014761D01*
X25833333Y-23014761D01*
X25642857Y-22919523D01*
X25547619Y-22729047D01*
X25547619Y-21967142D01*
X25642857Y-21776666D01*
X25833333Y-21681428D01*
X26214285Y-21681428D01*
X26404761Y-21776666D01*
X26500000Y-21967142D01*
X26500000Y-22157619D01*
X25547619Y-22348095D01*
X27357142Y-23014761D02*
X27357142Y-21681428D01*
X27357142Y-22062380D02*
X27452380Y-21871904D01*
X27547619Y-21776666D01*
X27738095Y-21681428D01*
X27928571Y-21681428D01*
D12*
%TO.P,R1,1*%
%TO.N,Net-(A1-Pad12)*%
X74750000Y-17750000D03*
%TO.P,R1,2*%
%TO.N,GND*%
X74750000Y-15750000D03*
%TD*%
D13*
%TO.P,SW_DN1,1,1*%
%TO.N,GND*%
X88500000Y-21372000D03*
X82000000Y-21372000D03*
%TO.P,SW_DN1,2,2*%
%TO.N,Net-(A1-Pad5)*%
X82000000Y-25872000D03*
X88500000Y-25872000D03*
%TD*%
%TO.P,SW_SEL1,1,1*%
%TO.N,GND*%
X98250000Y-16750000D03*
X91750000Y-16750000D03*
%TO.P,SW_SEL1,2,2*%
%TO.N,Net-(A1-Pad7)*%
X91750000Y-21250000D03*
X98250000Y-21250000D03*
%TD*%
%TO.P,SW_UP1,1,1*%
%TO.N,GND*%
X88500000Y-12228000D03*
X82000000Y-12228000D03*
%TO.P,SW_UP1,2,2*%
%TO.N,Net-(A1-Pad6)*%
X88500000Y-16728000D03*
X82000000Y-16728000D03*
%TD*%
D14*
%TO.P,J1,1,Pin_1*%
%TO.N,Net-(A1-Pad30)*%
X55500000Y-5500000D03*
D15*
%TO.P,J1,2,Pin_2*%
%TO.N,Net-(J1-Pad2)*%
X60500000Y-5500000D03*
%TD*%
D16*
%TO.P,J3,1,Pin_1*%
%TO.N,GND*%
X25000000Y-2000000D03*
D17*
%TO.P,J3,2,Pin_2*%
%TO.N,Net-(A1-Pad27)*%
X25000000Y-4540000D03*
%TO.P,J3,3,Pin_3*%
%TO.N,Net-(A1-Pad23)*%
X25000000Y-7080000D03*
%TO.P,J3,4,Pin_4*%
%TO.N,Net-(A1-Pad24)*%
X25000000Y-9620000D03*
%TD*%
D14*
%TO.P,J2,1,Pin_1*%
%TO.N,Net-(A1-Pad30)*%
X43500000Y-5500000D03*
D15*
%TO.P,J2,2,Pin_2*%
%TO.N,GND*%
X48500000Y-5500000D03*
%TD*%
D18*
%TO.P,A1,1,D1/TX*%
%TO.N,unconnected-(A1-Pad1)*%
X45000000Y-29000000D03*
D19*
%TO.P,A1,2,D0/RX*%
%TO.N,unconnected-(A1-Pad2)*%
X42460000Y-29000000D03*
%TO.P,A1,3,~{RESET}*%
%TO.N,unconnected-(A1-Pad3)*%
X39920000Y-29000000D03*
%TO.P,A1,4,GND*%
%TO.N,GND*%
X37380000Y-29000000D03*
%TO.P,A1,5,D2*%
%TO.N,Net-(A1-Pad5)*%
X34840000Y-29000000D03*
%TO.P,A1,6,D3*%
%TO.N,Net-(A1-Pad6)*%
X32300000Y-29000000D03*
%TO.P,A1,7,D4*%
%TO.N,Net-(A1-Pad7)*%
X29760000Y-29000000D03*
%TO.P,A1,8,D5*%
%TO.N,unconnected-(A1-Pad8)*%
X27220000Y-29000000D03*
%TO.P,A1,9,D6*%
%TO.N,unconnected-(A1-Pad9)*%
X24680000Y-29000000D03*
%TO.P,A1,10,D7*%
%TO.N,unconnected-(A1-Pad10)*%
X22140000Y-29000000D03*
%TO.P,A1,11,D8*%
%TO.N,unconnected-(A1-Pad11)*%
X19600000Y-29000000D03*
%TO.P,A1,12,D9*%
%TO.N,Net-(A1-Pad12)*%
X17060000Y-29000000D03*
%TO.P,A1,13,D10*%
%TO.N,unconnected-(A1-Pad13)*%
X14520000Y-29000000D03*
%TO.P,A1,14,D11*%
%TO.N,unconnected-(A1-Pad14)*%
X11980000Y-29000000D03*
%TO.P,A1,15,D12*%
%TO.N,unconnected-(A1-Pad15)*%
X9440000Y-29000000D03*
%TO.P,A1,16,D13*%
%TO.N,unconnected-(A1-Pad16)*%
X9440000Y-13760000D03*
%TO.P,A1,17,3V3*%
%TO.N,unconnected-(A1-Pad17)*%
X11980000Y-13760000D03*
%TO.P,A1,18,AREF*%
%TO.N,unconnected-(A1-Pad18)*%
X14520000Y-13760000D03*
%TO.P,A1,19,A0*%
%TO.N,unconnected-(A1-Pad19)*%
X17060000Y-13760000D03*
%TO.P,A1,20,A1*%
%TO.N,unconnected-(A1-Pad20)*%
X19600000Y-13760000D03*
%TO.P,A1,21,A2*%
%TO.N,unconnected-(A1-Pad21)*%
X22140000Y-13760000D03*
%TO.P,A1,22,A3*%
%TO.N,unconnected-(A1-Pad22)*%
X24680000Y-13760000D03*
%TO.P,A1,23,A4*%
%TO.N,Net-(A1-Pad23)*%
X27220000Y-13760000D03*
%TO.P,A1,24,A5*%
%TO.N,Net-(A1-Pad24)*%
X29760000Y-13760000D03*
%TO.P,A1,25,A6*%
%TO.N,unconnected-(A1-Pad25)*%
X32300000Y-13760000D03*
%TO.P,A1,26,A7*%
%TO.N,unconnected-(A1-Pad26)*%
X34840000Y-13760000D03*
%TO.P,A1,27,+5V*%
%TO.N,Net-(A1-Pad27)*%
X37380000Y-13760000D03*
%TO.P,A1,28,~{RESET}*%
%TO.N,unconnected-(A1-Pad28)*%
X39920000Y-13760000D03*
%TO.P,A1,29,GND*%
%TO.N,GND*%
X42460000Y-13760000D03*
%TO.P,A1,30,VIN*%
%TO.N,Net-(A1-Pad30)*%
X45000000Y-13760000D03*
%TD*%
D20*
%TO.P,Q1,1,G*%
%TO.N,Net-(A1-Pad12)*%
X70500000Y-19540000D03*
D21*
%TO.P,Q1,2,D*%
%TO.N,Net-(J1-Pad2)*%
X70500000Y-17000000D03*
%TO.P,Q1,3,S*%
%TO.N,GND*%
X70500000Y-14460000D03*
%TD*%
D22*
%TO.N,Net-(A1-Pad5)*%
X82142000Y-25872000D02*
X37968000Y-25872000D01*
X88642000Y-25872000D02*
X82142000Y-25872000D01*
X37968000Y-25872000D02*
X34840000Y-29000000D01*
%TO.N,Net-(A1-Pad6)*%
X88582000Y-16728000D02*
X81272000Y-16728000D01*
X80272000Y-16728000D02*
X73750000Y-23250000D01*
X82082000Y-16728000D02*
X80272000Y-16728000D01*
X38050000Y-23250000D02*
X32300000Y-29000000D01*
X73750000Y-23250000D02*
X38050000Y-23250000D01*
%TO.N,Net-(A1-Pad7)*%
X50002000Y-28748000D02*
X90748000Y-28748000D01*
X29760000Y-29000000D02*
X32760000Y-32000000D01*
X32760000Y-32000000D02*
X46750000Y-32000000D01*
X91746000Y-27750000D02*
X91746000Y-21250000D01*
X46750000Y-32000000D02*
X50002000Y-28748000D01*
X91746000Y-21250000D02*
X98246000Y-21250000D01*
X90748000Y-28748000D02*
X91746000Y-27750000D01*
%TO.N,Net-(A1-Pad12)*%
X74750000Y-17750000D02*
X72960000Y-19540000D01*
X31500000Y-27250000D02*
X18250000Y-27250000D01*
X39210000Y-19540000D02*
X31500000Y-27250000D01*
X72960000Y-19540000D02*
X70500000Y-19540000D01*
X18250000Y-27250000D02*
X17060000Y-28440000D01*
X17060000Y-28440000D02*
X17060000Y-29000000D01*
X70500000Y-19540000D02*
X39210000Y-19540000D01*
%TO.N,Net-(A1-Pad23)*%
X27220000Y-12720000D02*
X26000000Y-11500000D01*
X23500000Y-11500000D02*
X23000000Y-11000000D01*
X27220000Y-13760000D02*
X27220000Y-12720000D01*
X23000000Y-8000000D02*
X23920000Y-7080000D01*
X26000000Y-11500000D02*
X23500000Y-11500000D01*
X23000000Y-11000000D02*
X23000000Y-8000000D01*
X23920000Y-7080000D02*
X25000000Y-7080000D01*
%TO.N,Net-(A1-Pad24)*%
X29760000Y-10760000D02*
X28620000Y-9620000D01*
X29760000Y-13760000D02*
X29760000Y-10760000D01*
X28620000Y-9620000D02*
X25000000Y-9620000D01*
%TO.N,Net-(A1-Pad27)*%
X30290000Y-4540000D02*
X37380000Y-11630000D01*
X25000000Y-4540000D02*
X30290000Y-4540000D01*
X37380000Y-11630000D02*
X37380000Y-13760000D01*
D23*
%TO.N,Net-(A1-Pad30)*%
X43500000Y-7500000D02*
X43500000Y-5500000D01*
X55500000Y-7750000D02*
X54000000Y-9250000D01*
X45000000Y-9000000D02*
X45000000Y-13760000D01*
X45250000Y-9250000D02*
X43500000Y-7500000D01*
X54000000Y-9250000D02*
X45250000Y-9250000D01*
X55500000Y-5500000D02*
X55500000Y-7750000D01*
%TO.N,Net-(J1-Pad2)*%
X60500000Y-14500000D02*
X63000000Y-17000000D01*
X63000000Y-17000000D02*
X70500000Y-17000000D01*
X60500000Y-5500000D02*
X60500000Y-14500000D01*
%TD*%
%TA.AperFunction,Conductor*%
%TO.N,GND*%
G36*
X23849396Y-528002D02*
G01*
X23895889Y-581658D01*
X23905993Y-651932D01*
X23876499Y-716512D01*
X23856840Y-734826D01*
X23794276Y-781715D01*
X23781715Y-794276D01*
X23705214Y-896351D01*
X23696676Y-911946D01*
X23651522Y-1032394D01*
X23647895Y-1047649D01*
X23642369Y-1098514D01*
X23642000Y-1105328D01*
X23642000Y-1727885D01*
X23646475Y-1743124D01*
X23647865Y-1744329D01*
X23655548Y-1746000D01*
X26339884Y-1746000D01*
X26355123Y-1741525D01*
X26356328Y-1740135D01*
X26357999Y-1732452D01*
X26357999Y-1105331D01*
X26357629Y-1098510D01*
X26352105Y-1047648D01*
X26348479Y-1032396D01*
X26303324Y-911946D01*
X26294786Y-896351D01*
X26218285Y-794276D01*
X26205724Y-781715D01*
X26143160Y-734826D01*
X26100645Y-677967D01*
X26095619Y-607149D01*
X26129679Y-544855D01*
X26192010Y-510865D01*
X26218725Y-508000D01*
X76361623Y-508000D01*
X76429744Y-528002D01*
X76476237Y-581658D01*
X76486341Y-651932D01*
X76456847Y-716512D01*
X76435684Y-735936D01*
X76405808Y-757642D01*
X76402644Y-760698D01*
X76402641Y-760700D01*
X76367872Y-794276D01*
X76203748Y-952769D01*
X76030812Y-1174118D01*
X76028616Y-1177922D01*
X76028611Y-1177929D01*
X75914794Y-1375067D01*
X75890364Y-1417381D01*
X75785138Y-1677824D01*
X75784073Y-1682097D01*
X75784072Y-1682099D01*
X75750379Y-1817236D01*
X75717183Y-1950376D01*
X75687822Y-2229733D01*
X75687975Y-2234121D01*
X75687975Y-2234127D01*
X75689143Y-2267548D01*
X75697625Y-2510458D01*
X75698387Y-2514781D01*
X75698388Y-2514788D01*
X75722164Y-2649624D01*
X75746402Y-2787087D01*
X75833203Y-3054235D01*
X75835131Y-3058188D01*
X75835133Y-3058193D01*
X75857304Y-3103649D01*
X75956340Y-3306702D01*
X75958795Y-3310341D01*
X75958798Y-3310347D01*
X75990250Y-3356976D01*
X76113415Y-3539576D01*
X76116360Y-3542847D01*
X76116361Y-3542848D01*
X76177169Y-3610382D01*
X76301371Y-3748322D01*
X76304733Y-3751143D01*
X76304734Y-3751144D01*
X76346867Y-3786498D01*
X76516550Y-3928879D01*
X76754764Y-4077731D01*
X77011375Y-4191982D01*
X77015603Y-4193194D01*
X77015602Y-4193194D01*
X77179491Y-4240188D01*
X77281390Y-4269407D01*
X77285740Y-4270018D01*
X77285743Y-4270019D01*
X77388690Y-4284487D01*
X77559552Y-4308500D01*
X77770146Y-4308500D01*
X77772332Y-4308347D01*
X77772336Y-4308347D01*
X77975827Y-4294118D01*
X77975832Y-4294117D01*
X77980212Y-4293811D01*
X78254970Y-4235409D01*
X78259099Y-4233906D01*
X78259103Y-4233905D01*
X78514781Y-4140846D01*
X78514785Y-4140844D01*
X78518926Y-4139337D01*
X78766942Y-4007464D01*
X78770503Y-4004877D01*
X78990629Y-3844947D01*
X78990632Y-3844944D01*
X78994192Y-3842358D01*
X79012276Y-3824895D01*
X79103772Y-3736538D01*
X79196252Y-3647231D01*
X79369188Y-3425882D01*
X79371384Y-3422078D01*
X79371389Y-3422071D01*
X79507435Y-3186431D01*
X79509636Y-3182619D01*
X79614862Y-2922176D01*
X79648544Y-2787087D01*
X79681753Y-2653893D01*
X79681754Y-2653888D01*
X79682817Y-2649624D01*
X79712178Y-2370267D01*
X79708323Y-2259865D01*
X79702529Y-2093939D01*
X79702528Y-2093933D01*
X79702375Y-2089542D01*
X79678608Y-1954749D01*
X79654360Y-1817236D01*
X79653598Y-1812913D01*
X79566797Y-1545765D01*
X79443660Y-1293298D01*
X79441205Y-1289659D01*
X79441202Y-1289653D01*
X79312274Y-1098510D01*
X79286585Y-1060424D01*
X79279557Y-1052618D01*
X79101566Y-854940D01*
X79098629Y-851678D01*
X78954241Y-730522D01*
X78914914Y-671412D01*
X78913788Y-600424D01*
X78951219Y-540097D01*
X79015324Y-509583D01*
X79035232Y-508000D01*
X96361623Y-508000D01*
X96429744Y-528002D01*
X96476237Y-581658D01*
X96486341Y-651932D01*
X96456847Y-716512D01*
X96435684Y-735936D01*
X96405808Y-757642D01*
X96402644Y-760698D01*
X96402641Y-760700D01*
X96367872Y-794276D01*
X96203748Y-952769D01*
X96030812Y-1174118D01*
X96028616Y-1177922D01*
X96028611Y-1177929D01*
X95914794Y-1375067D01*
X95890364Y-1417381D01*
X95785138Y-1677824D01*
X95784073Y-1682097D01*
X95784072Y-1682099D01*
X95750379Y-1817236D01*
X95717183Y-1950376D01*
X95687822Y-2229733D01*
X95687975Y-2234121D01*
X95687975Y-2234127D01*
X95689143Y-2267548D01*
X95697625Y-2510458D01*
X95698387Y-2514781D01*
X95698388Y-2514788D01*
X95722164Y-2649624D01*
X95746402Y-2787087D01*
X95833203Y-3054235D01*
X95835131Y-3058188D01*
X95835133Y-3058193D01*
X95857304Y-3103649D01*
X95956340Y-3306702D01*
X95958795Y-3310341D01*
X95958798Y-3310347D01*
X95990250Y-3356976D01*
X96113415Y-3539576D01*
X96116360Y-3542847D01*
X96116361Y-3542848D01*
X96177169Y-3610382D01*
X96301371Y-3748322D01*
X96304733Y-3751143D01*
X96304734Y-3751144D01*
X96346867Y-3786498D01*
X96516550Y-3928879D01*
X96754764Y-4077731D01*
X97011375Y-4191982D01*
X97015603Y-4193194D01*
X97015602Y-4193194D01*
X97179491Y-4240188D01*
X97281390Y-4269407D01*
X97285740Y-4270018D01*
X97285743Y-4270019D01*
X97388690Y-4284487D01*
X97559552Y-4308500D01*
X97770146Y-4308500D01*
X97772332Y-4308347D01*
X97772336Y-4308347D01*
X97975827Y-4294118D01*
X97975832Y-4294117D01*
X97980212Y-4293811D01*
X98254970Y-4235409D01*
X98259099Y-4233906D01*
X98259103Y-4233905D01*
X98514781Y-4140846D01*
X98514785Y-4140844D01*
X98518926Y-4139337D01*
X98766942Y-4007464D01*
X98770503Y-4004877D01*
X98990629Y-3844947D01*
X98990632Y-3844944D01*
X98994192Y-3842358D01*
X99012276Y-3824895D01*
X99103772Y-3736538D01*
X99196252Y-3647231D01*
X99266711Y-3557047D01*
X99324411Y-3515682D01*
X99395316Y-3512079D01*
X99456914Y-3547382D01*
X99489647Y-3610382D01*
X99492000Y-3634621D01*
X99492000Y-15815020D01*
X99471998Y-15883141D01*
X99455095Y-15904115D01*
X98622022Y-16737188D01*
X98614408Y-16751132D01*
X98614539Y-16752965D01*
X98618790Y-16759580D01*
X99455095Y-17595885D01*
X99489121Y-17658197D01*
X99492000Y-17684980D01*
X99492000Y-20053644D01*
X99471998Y-20121765D01*
X99418342Y-20168258D01*
X99348068Y-20178362D01*
X99284169Y-20149455D01*
X99256290Y-20125644D01*
X99139416Y-20025824D01*
X99135208Y-20023245D01*
X99135202Y-20023241D01*
X98941183Y-19904346D01*
X98936963Y-19901760D01*
X98932393Y-19899867D01*
X98932389Y-19899865D01*
X98722167Y-19812789D01*
X98722165Y-19812788D01*
X98717594Y-19810895D01*
X98637391Y-19791640D01*
X98491524Y-19756620D01*
X98491518Y-19756619D01*
X98486711Y-19755465D01*
X98250000Y-19736835D01*
X98013289Y-19755465D01*
X98008482Y-19756619D01*
X98008476Y-19756620D01*
X97862609Y-19791640D01*
X97782406Y-19810895D01*
X97777835Y-19812788D01*
X97777833Y-19812789D01*
X97567611Y-19899865D01*
X97567607Y-19899867D01*
X97563037Y-19901760D01*
X97558817Y-19904346D01*
X97364798Y-20023241D01*
X97364792Y-20023245D01*
X97360584Y-20025824D01*
X97180031Y-20180031D01*
X97176823Y-20183787D01*
X97068681Y-20310405D01*
X97025824Y-20360584D01*
X97023237Y-20364806D01*
X96967147Y-20456335D01*
X96914500Y-20503967D01*
X96859715Y-20516500D01*
X93140285Y-20516500D01*
X93072164Y-20496498D01*
X93032853Y-20456335D01*
X92976763Y-20364806D01*
X92974176Y-20360584D01*
X92931319Y-20310405D01*
X92823177Y-20183787D01*
X92819969Y-20180031D01*
X92639416Y-20025824D01*
X92635208Y-20023245D01*
X92635202Y-20023241D01*
X92441183Y-19904346D01*
X92436963Y-19901760D01*
X92432393Y-19899867D01*
X92432389Y-19899865D01*
X92222167Y-19812789D01*
X92222165Y-19812788D01*
X92217594Y-19810895D01*
X92137391Y-19791640D01*
X91991524Y-19756620D01*
X91991518Y-19756619D01*
X91986711Y-19755465D01*
X91750000Y-19736835D01*
X91513289Y-19755465D01*
X91508482Y-19756619D01*
X91508476Y-19756620D01*
X91362609Y-19791640D01*
X91282406Y-19810895D01*
X91277835Y-19812788D01*
X91277833Y-19812789D01*
X91067611Y-19899865D01*
X91067607Y-19899867D01*
X91063037Y-19901760D01*
X91058817Y-19904346D01*
X90864798Y-20023241D01*
X90864792Y-20023245D01*
X90860584Y-20025824D01*
X90680031Y-20180031D01*
X90525824Y-20360584D01*
X90523245Y-20364792D01*
X90523241Y-20364798D01*
X90415489Y-20540634D01*
X90401760Y-20563037D01*
X90310895Y-20782406D01*
X90309740Y-20787218D01*
X90256833Y-21007592D01*
X90255465Y-21013289D01*
X90245560Y-21139137D01*
X90220276Y-21205476D01*
X90163138Y-21247616D01*
X90092288Y-21252175D01*
X90030220Y-21217706D01*
X89996640Y-21155153D01*
X89995208Y-21145191D01*
X89995203Y-21145192D01*
X89992885Y-21130554D01*
X89939783Y-20909373D01*
X89936734Y-20899988D01*
X89849687Y-20689837D01*
X89845205Y-20681042D01*
X89742568Y-20513555D01*
X89732110Y-20504093D01*
X89723334Y-20507876D01*
X88872022Y-21359188D01*
X88864408Y-21373132D01*
X88864539Y-21374965D01*
X88868790Y-21381580D01*
X89720290Y-22233080D01*
X89732670Y-22239840D01*
X89740320Y-22234113D01*
X89845205Y-22062958D01*
X89849687Y-22054163D01*
X89936734Y-21844012D01*
X89939783Y-21834627D01*
X89992885Y-21613446D01*
X89994428Y-21603699D01*
X90003938Y-21482863D01*
X90029223Y-21416522D01*
X90086361Y-21374382D01*
X90157211Y-21369823D01*
X90219279Y-21404292D01*
X90252859Y-21466845D01*
X90254302Y-21476886D01*
X90255077Y-21481779D01*
X90255465Y-21486711D01*
X90310895Y-21717594D01*
X90312788Y-21722165D01*
X90312789Y-21722167D01*
X90363259Y-21844012D01*
X90401760Y-21936963D01*
X90404346Y-21941183D01*
X90523241Y-22135202D01*
X90523245Y-22135208D01*
X90525824Y-22139416D01*
X90680031Y-22319969D01*
X90860584Y-22474176D01*
X90944864Y-22525823D01*
X90952336Y-22530402D01*
X90999967Y-22583050D01*
X91012500Y-22637834D01*
X91012500Y-27393983D01*
X90992498Y-27462104D01*
X90975596Y-27483078D01*
X90481080Y-27977595D01*
X90418767Y-28011620D01*
X90391984Y-28014500D01*
X50067174Y-28014500D01*
X50048223Y-28013067D01*
X50035007Y-28011056D01*
X50035004Y-28011056D01*
X50027774Y-28009956D01*
X50020483Y-28010549D01*
X50020480Y-28010549D01*
X49977013Y-28014085D01*
X49966798Y-28014500D01*
X49959174Y-28014500D01*
X49931934Y-28017676D01*
X49927614Y-28018103D01*
X49899609Y-28020381D01*
X49864593Y-28023229D01*
X49864589Y-28023230D01*
X49857296Y-28023823D01*
X49850332Y-28026079D01*
X49844817Y-28027181D01*
X49839378Y-28028467D01*
X49832110Y-28029314D01*
X49825232Y-28031811D01*
X49825226Y-28031812D01*
X49765803Y-28053382D01*
X49761700Y-28054792D01*
X49694580Y-28076535D01*
X49688317Y-28080335D01*
X49683201Y-28082678D01*
X49678212Y-28085176D01*
X49671333Y-28087673D01*
X49665212Y-28091686D01*
X49665210Y-28091687D01*
X49612357Y-28126339D01*
X49608638Y-28128685D01*
X49548355Y-28165267D01*
X49540245Y-28172429D01*
X49540230Y-28172412D01*
X49536921Y-28175345D01*
X49534413Y-28177442D01*
X49528294Y-28181454D01*
X49523261Y-28186767D01*
X49476851Y-28235758D01*
X49474474Y-28238200D01*
X46483080Y-31229595D01*
X46420768Y-31263621D01*
X46393985Y-31266500D01*
X33116016Y-31266500D01*
X33047895Y-31246498D01*
X33026921Y-31229595D01*
X32317109Y-30519783D01*
X32283083Y-30457471D01*
X32288148Y-30386656D01*
X32330695Y-30329820D01*
X32395223Y-30305167D01*
X32424588Y-30302598D01*
X32522606Y-30294023D01*
X32522611Y-30294022D01*
X32528087Y-30293543D01*
X32533400Y-30292119D01*
X32533402Y-30292119D01*
X32743933Y-30235707D01*
X32743935Y-30235706D01*
X32749243Y-30234284D01*
X32755235Y-30231490D01*
X32951762Y-30139849D01*
X32951767Y-30139846D01*
X32956749Y-30137523D01*
X33098458Y-30038297D01*
X33139789Y-30009357D01*
X33139792Y-30009355D01*
X33144300Y-30006198D01*
X33306198Y-29844300D01*
X33437523Y-29656749D01*
X33439846Y-29651767D01*
X33439849Y-29651762D01*
X33455805Y-29617543D01*
X33502722Y-29564258D01*
X33570999Y-29544797D01*
X33638959Y-29565339D01*
X33684195Y-29617543D01*
X33700151Y-29651762D01*
X33700154Y-29651767D01*
X33702477Y-29656749D01*
X33833802Y-29844300D01*
X33995700Y-30006198D01*
X34000208Y-30009355D01*
X34000211Y-30009357D01*
X34041542Y-30038297D01*
X34183251Y-30137523D01*
X34188233Y-30139846D01*
X34188238Y-30139849D01*
X34384765Y-30231490D01*
X34390757Y-30234284D01*
X34396065Y-30235706D01*
X34396067Y-30235707D01*
X34606598Y-30292119D01*
X34606600Y-30292119D01*
X34611913Y-30293543D01*
X34840000Y-30313498D01*
X35068087Y-30293543D01*
X35073400Y-30292119D01*
X35073402Y-30292119D01*
X35283933Y-30235707D01*
X35283935Y-30235706D01*
X35289243Y-30234284D01*
X35295235Y-30231490D01*
X35491762Y-30139849D01*
X35491767Y-30139846D01*
X35496749Y-30137523D01*
X35638458Y-30038297D01*
X35679789Y-30009357D01*
X35679792Y-30009355D01*
X35684300Y-30006198D01*
X35846198Y-29844300D01*
X35977523Y-29656749D01*
X35979846Y-29651767D01*
X35979849Y-29651762D01*
X35996081Y-29616951D01*
X36042998Y-29563666D01*
X36111275Y-29544205D01*
X36179235Y-29564747D01*
X36224471Y-29616951D01*
X36240586Y-29651511D01*
X36246069Y-29661007D01*
X36371028Y-29839467D01*
X36378084Y-29847875D01*
X36532125Y-30001916D01*
X36540533Y-30008972D01*
X36718993Y-30133931D01*
X36728489Y-30139414D01*
X36925947Y-30231490D01*
X36936239Y-30235236D01*
X37108503Y-30281394D01*
X37122599Y-30281058D01*
X37126000Y-30273116D01*
X37126000Y-28872000D01*
X37146002Y-28803879D01*
X37199658Y-28757386D01*
X37252000Y-28746000D01*
X37508000Y-28746000D01*
X37576121Y-28766002D01*
X37622614Y-28819658D01*
X37634000Y-28872000D01*
X37634000Y-30267967D01*
X37637973Y-30281498D01*
X37646522Y-30282727D01*
X37823761Y-30235236D01*
X37834053Y-30231490D01*
X38031511Y-30139414D01*
X38041007Y-30133931D01*
X38219467Y-30008972D01*
X38227875Y-30001916D01*
X38381916Y-29847875D01*
X38388972Y-29839467D01*
X38513931Y-29661007D01*
X38519414Y-29651511D01*
X38535529Y-29616951D01*
X38582446Y-29563666D01*
X38650723Y-29544205D01*
X38718683Y-29564747D01*
X38763919Y-29616951D01*
X38780151Y-29651762D01*
X38780154Y-29651767D01*
X38782477Y-29656749D01*
X38913802Y-29844300D01*
X39075700Y-30006198D01*
X39080208Y-30009355D01*
X39080211Y-30009357D01*
X39121542Y-30038297D01*
X39263251Y-30137523D01*
X39268233Y-30139846D01*
X39268238Y-30139849D01*
X39464765Y-30231490D01*
X39470757Y-30234284D01*
X39476065Y-30235706D01*
X39476067Y-30235707D01*
X39686598Y-30292119D01*
X39686600Y-30292119D01*
X39691913Y-30293543D01*
X39920000Y-30313498D01*
X40148087Y-30293543D01*
X40153400Y-30292119D01*
X40153402Y-30292119D01*
X40363933Y-30235707D01*
X40363935Y-30235706D01*
X40369243Y-30234284D01*
X40375235Y-30231490D01*
X40571762Y-30139849D01*
X40571767Y-30139846D01*
X40576749Y-30137523D01*
X40718458Y-30038297D01*
X40759789Y-30009357D01*
X40759792Y-30009355D01*
X40764300Y-30006198D01*
X40926198Y-29844300D01*
X41057523Y-29656749D01*
X41059846Y-29651767D01*
X41059849Y-29651762D01*
X41075805Y-29617543D01*
X41122722Y-29564258D01*
X41190999Y-29544797D01*
X41258959Y-29565339D01*
X41304195Y-29617543D01*
X41320151Y-29651762D01*
X41320154Y-29651767D01*
X41322477Y-29656749D01*
X41453802Y-29844300D01*
X41615700Y-30006198D01*
X41620208Y-30009355D01*
X41620211Y-30009357D01*
X41661542Y-30038297D01*
X41803251Y-30137523D01*
X41808233Y-30139846D01*
X41808238Y-30139849D01*
X42004765Y-30231490D01*
X42010757Y-30234284D01*
X42016065Y-30235706D01*
X42016067Y-30235707D01*
X42226598Y-30292119D01*
X42226600Y-30292119D01*
X42231913Y-30293543D01*
X42460000Y-30313498D01*
X42688087Y-30293543D01*
X42693400Y-30292119D01*
X42693402Y-30292119D01*
X42903933Y-30235707D01*
X42903935Y-30235706D01*
X42909243Y-30234284D01*
X42915235Y-30231490D01*
X43111762Y-30139849D01*
X43111767Y-30139846D01*
X43116749Y-30137523D01*
X43258458Y-30038297D01*
X43299789Y-30009357D01*
X43299792Y-30009355D01*
X43304300Y-30006198D01*
X43466198Y-29844300D01*
X43469357Y-29839789D01*
X43472892Y-29835576D01*
X43474026Y-29836527D01*
X43524071Y-29796529D01*
X43594690Y-29789224D01*
X43658049Y-29821258D01*
X43694030Y-29882462D01*
X43697082Y-29899517D01*
X43698255Y-29910316D01*
X43749385Y-30046705D01*
X43836739Y-30163261D01*
X43953295Y-30250615D01*
X44089684Y-30301745D01*
X44151866Y-30308500D01*
X45848134Y-30308500D01*
X45910316Y-30301745D01*
X46046705Y-30250615D01*
X46163261Y-30163261D01*
X46250615Y-30046705D01*
X46301745Y-29910316D01*
X46308500Y-29848134D01*
X46308500Y-28151866D01*
X46301745Y-28089684D01*
X46250615Y-27953295D01*
X46163261Y-27836739D01*
X46046705Y-27749385D01*
X45910316Y-27698255D01*
X45848134Y-27691500D01*
X44151866Y-27691500D01*
X44089684Y-27698255D01*
X43953295Y-27749385D01*
X43836739Y-27836739D01*
X43749385Y-27953295D01*
X43698255Y-28089684D01*
X43697083Y-28100474D01*
X43696197Y-28102606D01*
X43695575Y-28105222D01*
X43695152Y-28105121D01*
X43669845Y-28166035D01*
X43611483Y-28206463D01*
X43540529Y-28208922D01*
X43479510Y-28172629D01*
X43472511Y-28163969D01*
X43469354Y-28160207D01*
X43466198Y-28155700D01*
X43304300Y-27993802D01*
X43299792Y-27990645D01*
X43299789Y-27990643D01*
X43187352Y-27911914D01*
X43116749Y-27862477D01*
X43111767Y-27860154D01*
X43111762Y-27860151D01*
X42914225Y-27768039D01*
X42914224Y-27768039D01*
X42909243Y-27765716D01*
X42903935Y-27764294D01*
X42903933Y-27764293D01*
X42693402Y-27707881D01*
X42693400Y-27707881D01*
X42688087Y-27706457D01*
X42460000Y-27686502D01*
X42231913Y-27706457D01*
X42226600Y-27707881D01*
X42226598Y-27707881D01*
X42016067Y-27764293D01*
X42016065Y-27764294D01*
X42010757Y-27765716D01*
X42005776Y-27768039D01*
X42005775Y-27768039D01*
X41808238Y-27860151D01*
X41808233Y-27860154D01*
X41803251Y-27862477D01*
X41732648Y-27911914D01*
X41620211Y-27990643D01*
X41620208Y-27990645D01*
X41615700Y-27993802D01*
X41453802Y-28155700D01*
X41450645Y-28160208D01*
X41450643Y-28160211D01*
X41418257Y-28206463D01*
X41322477Y-28343251D01*
X41320154Y-28348233D01*
X41320151Y-28348238D01*
X41304195Y-28382457D01*
X41257278Y-28435742D01*
X41189001Y-28455203D01*
X41121041Y-28434661D01*
X41075805Y-28382457D01*
X41059849Y-28348238D01*
X41059846Y-28348233D01*
X41057523Y-28343251D01*
X40961743Y-28206463D01*
X40929357Y-28160211D01*
X40929355Y-28160208D01*
X40926198Y-28155700D01*
X40764300Y-27993802D01*
X40759792Y-27990645D01*
X40759789Y-27990643D01*
X40647352Y-27911914D01*
X40576749Y-27862477D01*
X40571767Y-27860154D01*
X40571762Y-27860151D01*
X40374225Y-27768039D01*
X40374224Y-27768039D01*
X40369243Y-27765716D01*
X40363935Y-27764294D01*
X40363933Y-27764293D01*
X40153402Y-27707881D01*
X40153400Y-27707881D01*
X40148087Y-27706457D01*
X39920000Y-27686502D01*
X39691913Y-27706457D01*
X39686600Y-27707881D01*
X39686598Y-27707881D01*
X39476067Y-27764293D01*
X39476065Y-27764294D01*
X39470757Y-27765716D01*
X39465776Y-27768039D01*
X39465775Y-27768039D01*
X39268238Y-27860151D01*
X39268233Y-27860154D01*
X39263251Y-27862477D01*
X39192648Y-27911914D01*
X39080211Y-27990643D01*
X39080208Y-27990645D01*
X39075700Y-27993802D01*
X38913802Y-28155700D01*
X38910645Y-28160208D01*
X38910643Y-28160211D01*
X38878257Y-28206463D01*
X38782477Y-28343251D01*
X38780154Y-28348233D01*
X38780151Y-28348238D01*
X38763919Y-28383049D01*
X38717002Y-28436334D01*
X38648725Y-28455795D01*
X38580765Y-28435253D01*
X38535529Y-28383049D01*
X38519414Y-28348489D01*
X38513931Y-28338993D01*
X38388972Y-28160533D01*
X38381916Y-28152125D01*
X38227875Y-27998084D01*
X38219467Y-27991028D01*
X38041007Y-27866069D01*
X38031511Y-27860586D01*
X37834053Y-27768510D01*
X37823761Y-27764764D01*
X37613312Y-27708375D01*
X37602520Y-27706472D01*
X37474760Y-27695294D01*
X37408642Y-27669430D01*
X37367003Y-27611927D01*
X37363062Y-27541040D01*
X37396647Y-27480678D01*
X38234920Y-26642405D01*
X38297232Y-26608379D01*
X38324015Y-26605500D01*
X80609715Y-26605500D01*
X80677836Y-26625502D01*
X80717147Y-26665665D01*
X80731304Y-26688767D01*
X80775824Y-26761416D01*
X80930031Y-26941969D01*
X81110584Y-27096176D01*
X81114792Y-27098755D01*
X81114798Y-27098759D01*
X81308817Y-27217654D01*
X81313037Y-27220240D01*
X81317607Y-27222133D01*
X81317611Y-27222135D01*
X81527833Y-27309211D01*
X81532406Y-27311105D01*
X81612609Y-27330360D01*
X81758476Y-27365380D01*
X81758482Y-27365381D01*
X81763289Y-27366535D01*
X82000000Y-27385165D01*
X82236711Y-27366535D01*
X82241518Y-27365381D01*
X82241524Y-27365380D01*
X82387391Y-27330360D01*
X82467594Y-27311105D01*
X82472167Y-27309211D01*
X82682389Y-27222135D01*
X82682393Y-27222133D01*
X82686963Y-27220240D01*
X82691183Y-27217654D01*
X82885202Y-27098759D01*
X82885208Y-27098755D01*
X82889416Y-27096176D01*
X83069969Y-26941969D01*
X83224176Y-26761416D01*
X83268696Y-26688767D01*
X83282853Y-26665665D01*
X83335500Y-26618033D01*
X83390285Y-26605500D01*
X87109715Y-26605500D01*
X87177836Y-26625502D01*
X87217147Y-26665665D01*
X87231304Y-26688767D01*
X87275824Y-26761416D01*
X87430031Y-26941969D01*
X87610584Y-27096176D01*
X87614792Y-27098755D01*
X87614798Y-27098759D01*
X87808817Y-27217654D01*
X87813037Y-27220240D01*
X87817607Y-27222133D01*
X87817611Y-27222135D01*
X88027833Y-27309211D01*
X88032406Y-27311105D01*
X88112609Y-27330360D01*
X88258476Y-27365380D01*
X88258482Y-27365381D01*
X88263289Y-27366535D01*
X88500000Y-27385165D01*
X88736711Y-27366535D01*
X88741518Y-27365381D01*
X88741524Y-27365380D01*
X88887391Y-27330360D01*
X88967594Y-27311105D01*
X88972167Y-27309211D01*
X89182389Y-27222135D01*
X89182393Y-27222133D01*
X89186963Y-27220240D01*
X89191183Y-27217654D01*
X89385202Y-27098759D01*
X89385208Y-27098755D01*
X89389416Y-27096176D01*
X89569969Y-26941969D01*
X89724176Y-26761416D01*
X89726755Y-26757208D01*
X89726759Y-26757202D01*
X89845654Y-26563183D01*
X89848240Y-26558963D01*
X89858659Y-26533811D01*
X89937211Y-26344167D01*
X89937212Y-26344165D01*
X89939105Y-26339594D01*
X89994535Y-26108711D01*
X90013165Y-25872000D01*
X89994535Y-25635289D01*
X89939105Y-25404406D01*
X89921623Y-25362200D01*
X89850135Y-25189611D01*
X89850133Y-25189607D01*
X89848240Y-25185037D01*
X89817612Y-25135057D01*
X89726759Y-24986798D01*
X89726755Y-24986792D01*
X89724176Y-24982584D01*
X89569969Y-24802031D01*
X89389416Y-24647824D01*
X89385208Y-24645245D01*
X89385202Y-24645241D01*
X89191183Y-24526346D01*
X89186963Y-24523760D01*
X89182393Y-24521867D01*
X89182389Y-24521865D01*
X88972167Y-24434789D01*
X88972165Y-24434788D01*
X88967594Y-24432895D01*
X88887391Y-24413640D01*
X88741524Y-24378620D01*
X88741518Y-24378619D01*
X88736711Y-24377465D01*
X88500000Y-24358835D01*
X88263289Y-24377465D01*
X88258482Y-24378619D01*
X88258476Y-24378620D01*
X88112609Y-24413640D01*
X88032406Y-24432895D01*
X88027835Y-24434788D01*
X88027833Y-24434789D01*
X87817611Y-24521865D01*
X87817607Y-24521867D01*
X87813037Y-24523760D01*
X87808817Y-24526346D01*
X87614798Y-24645241D01*
X87614792Y-24645245D01*
X87610584Y-24647824D01*
X87430031Y-24802031D01*
X87275824Y-24982584D01*
X87273237Y-24986806D01*
X87217147Y-25078335D01*
X87164500Y-25125967D01*
X87109715Y-25138500D01*
X83390285Y-25138500D01*
X83322164Y-25118498D01*
X83282853Y-25078335D01*
X83226763Y-24986806D01*
X83224176Y-24982584D01*
X83069969Y-24802031D01*
X82889416Y-24647824D01*
X82885208Y-24645245D01*
X82885202Y-24645241D01*
X82691183Y-24526346D01*
X82686963Y-24523760D01*
X82682393Y-24521867D01*
X82682389Y-24521865D01*
X82472167Y-24434789D01*
X82472165Y-24434788D01*
X82467594Y-24432895D01*
X82387391Y-24413640D01*
X82241524Y-24378620D01*
X82241518Y-24378619D01*
X82236711Y-24377465D01*
X82000000Y-24358835D01*
X81763289Y-24377465D01*
X81758482Y-24378619D01*
X81758476Y-24378620D01*
X81612609Y-24413640D01*
X81532406Y-24432895D01*
X81527835Y-24434788D01*
X81527833Y-24434789D01*
X81317611Y-24521865D01*
X81317607Y-24521867D01*
X81313037Y-24523760D01*
X81308817Y-24526346D01*
X81114798Y-24645241D01*
X81114792Y-24645245D01*
X81110584Y-24647824D01*
X80930031Y-24802031D01*
X80775824Y-24982584D01*
X80773237Y-24986806D01*
X80717147Y-25078335D01*
X80664500Y-25125967D01*
X80609715Y-25138500D01*
X38033166Y-25138500D01*
X38014216Y-25137067D01*
X38001007Y-25135057D01*
X38001003Y-25135057D01*
X37993773Y-25133957D01*
X37986481Y-25134550D01*
X37986478Y-25134550D01*
X37943021Y-25138085D01*
X37932806Y-25138500D01*
X37925174Y-25138500D01*
X37921555Y-25138922D01*
X37921536Y-25138923D01*
X37897931Y-25141675D01*
X37893565Y-25142107D01*
X37866246Y-25144329D01*
X37830596Y-25147229D01*
X37830594Y-25147229D01*
X37823296Y-25147823D01*
X37816327Y-25150081D01*
X37810807Y-25151184D01*
X37805382Y-25152466D01*
X37798110Y-25153314D01*
X37731790Y-25177387D01*
X37727644Y-25178810D01*
X37667542Y-25198280D01*
X37667538Y-25198282D01*
X37660580Y-25200536D01*
X37654328Y-25204330D01*
X37649212Y-25206672D01*
X37644211Y-25209176D01*
X37637333Y-25211673D01*
X37631216Y-25215683D01*
X37631211Y-25215686D01*
X37578346Y-25250347D01*
X37574624Y-25252695D01*
X37514355Y-25289267D01*
X37506245Y-25296429D01*
X37506230Y-25296412D01*
X37502921Y-25299345D01*
X37500413Y-25301442D01*
X37494294Y-25305454D01*
X37489261Y-25310767D01*
X37442851Y-25359758D01*
X37440474Y-25362200D01*
X36268864Y-26533811D01*
X35135502Y-27667173D01*
X35073190Y-27701198D01*
X35035426Y-27703599D01*
X34940493Y-27695294D01*
X34935223Y-27694833D01*
X34869105Y-27668970D01*
X34827465Y-27611467D01*
X34823524Y-27540579D01*
X34857109Y-27480217D01*
X38316920Y-24020405D01*
X38379232Y-23986379D01*
X38406015Y-23983500D01*
X73684834Y-23983500D01*
X73703784Y-23984933D01*
X73716993Y-23986943D01*
X73716997Y-23986943D01*
X73724227Y-23988043D01*
X73731519Y-23987450D01*
X73731522Y-23987450D01*
X73774979Y-23983915D01*
X73785194Y-23983500D01*
X73792826Y-23983500D01*
X73796445Y-23983078D01*
X73796464Y-23983077D01*
X73820069Y-23980325D01*
X73824435Y-23979893D01*
X73851754Y-23977671D01*
X73887404Y-23974771D01*
X73887406Y-23974771D01*
X73894704Y-23974177D01*
X73901673Y-23971919D01*
X73907193Y-23970816D01*
X73912618Y-23969534D01*
X73919890Y-23968686D01*
X73986210Y-23944613D01*
X73990356Y-23943190D01*
X74050458Y-23923720D01*
X74050462Y-23923718D01*
X74057420Y-23921464D01*
X74063672Y-23917670D01*
X74068788Y-23915328D01*
X74073789Y-23912824D01*
X74080667Y-23910327D01*
X74086784Y-23906317D01*
X74086789Y-23906314D01*
X74139654Y-23871653D01*
X74143376Y-23869305D01*
X74198848Y-23835644D01*
X74198849Y-23835643D01*
X74203645Y-23832733D01*
X74211755Y-23825571D01*
X74211770Y-23825588D01*
X74215080Y-23822654D01*
X74217587Y-23820558D01*
X74223706Y-23816546D01*
X74275166Y-23762224D01*
X74277544Y-23759782D01*
X75432656Y-22604670D01*
X81132160Y-22604670D01*
X81137887Y-22612320D01*
X81309042Y-22717205D01*
X81317837Y-22721687D01*
X81527988Y-22808734D01*
X81537373Y-22811783D01*
X81758554Y-22864885D01*
X81768301Y-22866428D01*
X81995070Y-22884275D01*
X82004930Y-22884275D01*
X82231699Y-22866428D01*
X82241446Y-22864885D01*
X82462627Y-22811783D01*
X82472012Y-22808734D01*
X82682163Y-22721687D01*
X82690958Y-22717205D01*
X82858445Y-22614568D01*
X82867400Y-22604670D01*
X87632160Y-22604670D01*
X87637887Y-22612320D01*
X87809042Y-22717205D01*
X87817837Y-22721687D01*
X88027988Y-22808734D01*
X88037373Y-22811783D01*
X88258554Y-22864885D01*
X88268301Y-22866428D01*
X88495070Y-22884275D01*
X88504930Y-22884275D01*
X88731699Y-22866428D01*
X88741446Y-22864885D01*
X88962627Y-22811783D01*
X88972012Y-22808734D01*
X89182163Y-22721687D01*
X89190958Y-22717205D01*
X89358445Y-22614568D01*
X89367907Y-22604110D01*
X89364124Y-22595334D01*
X88512812Y-21744022D01*
X88498868Y-21736408D01*
X88497035Y-21736539D01*
X88490420Y-21740790D01*
X87638920Y-22592290D01*
X87632160Y-22604670D01*
X82867400Y-22604670D01*
X82867907Y-22604110D01*
X82864124Y-22595334D01*
X82012812Y-21744022D01*
X81998868Y-21736408D01*
X81997035Y-21736539D01*
X81990420Y-21740790D01*
X81138920Y-22592290D01*
X81132160Y-22604670D01*
X75432656Y-22604670D01*
X76660396Y-21376930D01*
X80487725Y-21376930D01*
X80505572Y-21603699D01*
X80507115Y-21613446D01*
X80560217Y-21834627D01*
X80563266Y-21844012D01*
X80650313Y-22054163D01*
X80654795Y-22062958D01*
X80757432Y-22230445D01*
X80767890Y-22239907D01*
X80776666Y-22236124D01*
X81627978Y-21384812D01*
X81634356Y-21373132D01*
X82364408Y-21373132D01*
X82364539Y-21374965D01*
X82368790Y-21381580D01*
X83220290Y-22233080D01*
X83232670Y-22239840D01*
X83240320Y-22234113D01*
X83345205Y-22062958D01*
X83349687Y-22054163D01*
X83436734Y-21844012D01*
X83439783Y-21834627D01*
X83492885Y-21613446D01*
X83494428Y-21603699D01*
X83512275Y-21376930D01*
X86987725Y-21376930D01*
X87005572Y-21603699D01*
X87007115Y-21613446D01*
X87060217Y-21834627D01*
X87063266Y-21844012D01*
X87150313Y-22054163D01*
X87154795Y-22062958D01*
X87257432Y-22230445D01*
X87267890Y-22239907D01*
X87276666Y-22236124D01*
X88127978Y-21384812D01*
X88135592Y-21370868D01*
X88135461Y-21369035D01*
X88131210Y-21362420D01*
X87279710Y-20510920D01*
X87267330Y-20504160D01*
X87259680Y-20509887D01*
X87154795Y-20681042D01*
X87150313Y-20689837D01*
X87063266Y-20899988D01*
X87060217Y-20909373D01*
X87007115Y-21130554D01*
X87005572Y-21140301D01*
X86987725Y-21367070D01*
X86987725Y-21376930D01*
X83512275Y-21376930D01*
X83512275Y-21367070D01*
X83494428Y-21140301D01*
X83492885Y-21130554D01*
X83439783Y-20909373D01*
X83436734Y-20899988D01*
X83349687Y-20689837D01*
X83345205Y-20681042D01*
X83242568Y-20513555D01*
X83232110Y-20504093D01*
X83223334Y-20507876D01*
X82372022Y-21359188D01*
X82364408Y-21373132D01*
X81634356Y-21373132D01*
X81635592Y-21370868D01*
X81635461Y-21369035D01*
X81631210Y-21362420D01*
X80779710Y-20510920D01*
X80767330Y-20504160D01*
X80759680Y-20509887D01*
X80654795Y-20681042D01*
X80650313Y-20689837D01*
X80563266Y-20899988D01*
X80560217Y-20909373D01*
X80507115Y-21130554D01*
X80505572Y-21140301D01*
X80487725Y-21367070D01*
X80487725Y-21376930D01*
X76660396Y-21376930D01*
X77897436Y-20139890D01*
X81132093Y-20139890D01*
X81135876Y-20148666D01*
X81987188Y-20999978D01*
X82001132Y-21007592D01*
X82002965Y-21007461D01*
X82009580Y-21003210D01*
X82861080Y-20151710D01*
X82867534Y-20139890D01*
X87632093Y-20139890D01*
X87635876Y-20148666D01*
X88487188Y-20999978D01*
X88501132Y-21007592D01*
X88502965Y-21007461D01*
X88509580Y-21003210D01*
X89361080Y-20151710D01*
X89367840Y-20139330D01*
X89362113Y-20131680D01*
X89190958Y-20026795D01*
X89182163Y-20022313D01*
X88972012Y-19935266D01*
X88962627Y-19932217D01*
X88741446Y-19879115D01*
X88731699Y-19877572D01*
X88504930Y-19859725D01*
X88495070Y-19859725D01*
X88268301Y-19877572D01*
X88258554Y-19879115D01*
X88037373Y-19932217D01*
X88027988Y-19935266D01*
X87817837Y-20022313D01*
X87809042Y-20026795D01*
X87641555Y-20129432D01*
X87632093Y-20139890D01*
X82867534Y-20139890D01*
X82867840Y-20139330D01*
X82862113Y-20131680D01*
X82690958Y-20026795D01*
X82682163Y-20022313D01*
X82472012Y-19935266D01*
X82462627Y-19932217D01*
X82241446Y-19879115D01*
X82231699Y-19877572D01*
X82004930Y-19859725D01*
X81995070Y-19859725D01*
X81768301Y-19877572D01*
X81758554Y-19879115D01*
X81537373Y-19932217D01*
X81527988Y-19935266D01*
X81317837Y-20022313D01*
X81309042Y-20026795D01*
X81141555Y-20129432D01*
X81132093Y-20139890D01*
X77897436Y-20139890D01*
X80527574Y-17509751D01*
X80589886Y-17475725D01*
X80660701Y-17480790D01*
X80717537Y-17523337D01*
X80724090Y-17532995D01*
X80775824Y-17617416D01*
X80930031Y-17797969D01*
X81110584Y-17952176D01*
X81114792Y-17954755D01*
X81114798Y-17954759D01*
X81176497Y-17992568D01*
X81313037Y-18076240D01*
X81317607Y-18078133D01*
X81317611Y-18078135D01*
X81527833Y-18165211D01*
X81532406Y-18167105D01*
X81571756Y-18176552D01*
X81758476Y-18221380D01*
X81758482Y-18221381D01*
X81763289Y-18222535D01*
X82000000Y-18241165D01*
X82236711Y-18222535D01*
X82241518Y-18221381D01*
X82241524Y-18221380D01*
X82428244Y-18176552D01*
X82467594Y-18167105D01*
X82472167Y-18165211D01*
X82682389Y-18078135D01*
X82682393Y-18078133D01*
X82686963Y-18076240D01*
X82823503Y-17992568D01*
X82885202Y-17954759D01*
X82885208Y-17954755D01*
X82889416Y-17952176D01*
X83069969Y-17797969D01*
X83224176Y-17617416D01*
X83282853Y-17521665D01*
X83335500Y-17474033D01*
X83390285Y-17461500D01*
X87109715Y-17461500D01*
X87177836Y-17481502D01*
X87217147Y-17521665D01*
X87275824Y-17617416D01*
X87430031Y-17797969D01*
X87610584Y-17952176D01*
X87614792Y-17954755D01*
X87614798Y-17954759D01*
X87676497Y-17992568D01*
X87813037Y-18076240D01*
X87817607Y-18078133D01*
X87817611Y-18078135D01*
X88027833Y-18165211D01*
X88032406Y-18167105D01*
X88071756Y-18176552D01*
X88258476Y-18221380D01*
X88258482Y-18221381D01*
X88263289Y-18222535D01*
X88500000Y-18241165D01*
X88736711Y-18222535D01*
X88741518Y-18221381D01*
X88741524Y-18221380D01*
X88928244Y-18176552D01*
X88967594Y-18167105D01*
X88972167Y-18165211D01*
X89182389Y-18078135D01*
X89182393Y-18078133D01*
X89186963Y-18076240D01*
X89323503Y-17992568D01*
X89339655Y-17982670D01*
X90882160Y-17982670D01*
X90887887Y-17990320D01*
X91059042Y-18095205D01*
X91067837Y-18099687D01*
X91277988Y-18186734D01*
X91287373Y-18189783D01*
X91508554Y-18242885D01*
X91518301Y-18244428D01*
X91745070Y-18262275D01*
X91754930Y-18262275D01*
X91981699Y-18244428D01*
X91991446Y-18242885D01*
X92212627Y-18189783D01*
X92222012Y-18186734D01*
X92432163Y-18099687D01*
X92440958Y-18095205D01*
X92608445Y-17992568D01*
X92617400Y-17982670D01*
X97382160Y-17982670D01*
X97387887Y-17990320D01*
X97559042Y-18095205D01*
X97567837Y-18099687D01*
X97777988Y-18186734D01*
X97787373Y-18189783D01*
X98008554Y-18242885D01*
X98018301Y-18244428D01*
X98245070Y-18262275D01*
X98254930Y-18262275D01*
X98481699Y-18244428D01*
X98491446Y-18242885D01*
X98712627Y-18189783D01*
X98722012Y-18186734D01*
X98932163Y-18099687D01*
X98940958Y-18095205D01*
X99108445Y-17992568D01*
X99117907Y-17982110D01*
X99114124Y-17973334D01*
X98262812Y-17122022D01*
X98248868Y-17114408D01*
X98247035Y-17114539D01*
X98240420Y-17118790D01*
X97388920Y-17970290D01*
X97382160Y-17982670D01*
X92617400Y-17982670D01*
X92617907Y-17982110D01*
X92614124Y-17973334D01*
X91762812Y-17122022D01*
X91748868Y-17114408D01*
X91747035Y-17114539D01*
X91740420Y-17118790D01*
X90888920Y-17970290D01*
X90882160Y-17982670D01*
X89339655Y-17982670D01*
X89385202Y-17954759D01*
X89385208Y-17954755D01*
X89389416Y-17952176D01*
X89569969Y-17797969D01*
X89724176Y-17617416D01*
X89726755Y-17613208D01*
X89726759Y-17613202D01*
X89845654Y-17419183D01*
X89848240Y-17414963D01*
X89862610Y-17380272D01*
X89937211Y-17200167D01*
X89937212Y-17200165D01*
X89939105Y-17195594D01*
X89994535Y-16964711D01*
X89998773Y-16910864D01*
X90024059Y-16844522D01*
X90081197Y-16802383D01*
X90152047Y-16797824D01*
X90214115Y-16832293D01*
X90247694Y-16894847D01*
X90249997Y-16910864D01*
X90255572Y-16981699D01*
X90257115Y-16991446D01*
X90310217Y-17212627D01*
X90313266Y-17222012D01*
X90400313Y-17432163D01*
X90404795Y-17440958D01*
X90507432Y-17608445D01*
X90517890Y-17617907D01*
X90526666Y-17614124D01*
X91377978Y-16762812D01*
X91384356Y-16751132D01*
X92114408Y-16751132D01*
X92114539Y-16752965D01*
X92118790Y-16759580D01*
X92970290Y-17611080D01*
X92982670Y-17617840D01*
X92990320Y-17612113D01*
X93095205Y-17440958D01*
X93099687Y-17432163D01*
X93186734Y-17222012D01*
X93189783Y-17212627D01*
X93242885Y-16991446D01*
X93244428Y-16981699D01*
X93262275Y-16754930D01*
X96737725Y-16754930D01*
X96755572Y-16981699D01*
X96757115Y-16991446D01*
X96810217Y-17212627D01*
X96813266Y-17222012D01*
X96900313Y-17432163D01*
X96904795Y-17440958D01*
X97007432Y-17608445D01*
X97017890Y-17617907D01*
X97026666Y-17614124D01*
X97877978Y-16762812D01*
X97885592Y-16748868D01*
X97885461Y-16747035D01*
X97881210Y-16740420D01*
X97029710Y-15888920D01*
X97017330Y-15882160D01*
X97009680Y-15887887D01*
X96904795Y-16059042D01*
X96900313Y-16067837D01*
X96813266Y-16277988D01*
X96810217Y-16287373D01*
X96757115Y-16508554D01*
X96755572Y-16518301D01*
X96737725Y-16745070D01*
X96737725Y-16754930D01*
X93262275Y-16754930D01*
X93262275Y-16745070D01*
X93244428Y-16518301D01*
X93242885Y-16508554D01*
X93189783Y-16287373D01*
X93186734Y-16277988D01*
X93099687Y-16067837D01*
X93095205Y-16059042D01*
X92992568Y-15891555D01*
X92982110Y-15882093D01*
X92973334Y-15885876D01*
X92122022Y-16737188D01*
X92114408Y-16751132D01*
X91384356Y-16751132D01*
X91385592Y-16748868D01*
X91385461Y-16747035D01*
X91381210Y-16740420D01*
X90529710Y-15888920D01*
X90517330Y-15882160D01*
X90509680Y-15887887D01*
X90404795Y-16059042D01*
X90400313Y-16067837D01*
X90313266Y-16277988D01*
X90310217Y-16287373D01*
X90257115Y-16508554D01*
X90255572Y-16518300D01*
X90251728Y-16567137D01*
X90226442Y-16633478D01*
X90169304Y-16675617D01*
X90098454Y-16680176D01*
X90036386Y-16645707D01*
X90002807Y-16583153D01*
X90000505Y-16567140D01*
X89994535Y-16491289D01*
X89990017Y-16472468D01*
X89940260Y-16265218D01*
X89939105Y-16260406D01*
X89937211Y-16255833D01*
X89850135Y-16045611D01*
X89850133Y-16045607D01*
X89848240Y-16041037D01*
X89821666Y-15997672D01*
X89726759Y-15842798D01*
X89726755Y-15842792D01*
X89724176Y-15838584D01*
X89569969Y-15658031D01*
X89405885Y-15517890D01*
X90882093Y-15517890D01*
X90885876Y-15526666D01*
X91737188Y-16377978D01*
X91751132Y-16385592D01*
X91752965Y-16385461D01*
X91759580Y-16381210D01*
X92611080Y-15529710D01*
X92617534Y-15517890D01*
X97382093Y-15517890D01*
X97385876Y-15526666D01*
X98237188Y-16377978D01*
X98251132Y-16385592D01*
X98252965Y-16385461D01*
X98259580Y-16381210D01*
X99111080Y-15529710D01*
X99117840Y-15517330D01*
X99112113Y-15509680D01*
X98940958Y-15404795D01*
X98932163Y-15400313D01*
X98722012Y-15313266D01*
X98712627Y-15310217D01*
X98491446Y-15257115D01*
X98481699Y-15255572D01*
X98254930Y-15237725D01*
X98245070Y-15237725D01*
X98018301Y-15255572D01*
X98008554Y-15257115D01*
X97787373Y-15310217D01*
X97777988Y-15313266D01*
X97567837Y-15400313D01*
X97559042Y-15404795D01*
X97391555Y-15507432D01*
X97382093Y-15517890D01*
X92617534Y-15517890D01*
X92617840Y-15517330D01*
X92612113Y-15509680D01*
X92440958Y-15404795D01*
X92432163Y-15400313D01*
X92222012Y-15313266D01*
X92212627Y-15310217D01*
X91991446Y-15257115D01*
X91981699Y-15255572D01*
X91754930Y-15237725D01*
X91745070Y-15237725D01*
X91518301Y-15255572D01*
X91508554Y-15257115D01*
X91287373Y-15310217D01*
X91277988Y-15313266D01*
X91067837Y-15400313D01*
X91059042Y-15404795D01*
X90891555Y-15507432D01*
X90882093Y-15517890D01*
X89405885Y-15517890D01*
X89389416Y-15503824D01*
X89385208Y-15501245D01*
X89385202Y-15501241D01*
X89191183Y-15382346D01*
X89186963Y-15379760D01*
X89182393Y-15377867D01*
X89182389Y-15377865D01*
X88972167Y-15290789D01*
X88972165Y-15290788D01*
X88967594Y-15288895D01*
X88854331Y-15261703D01*
X88741524Y-15234620D01*
X88741518Y-15234619D01*
X88736711Y-15233465D01*
X88500000Y-15214835D01*
X88263289Y-15233465D01*
X88258482Y-15234619D01*
X88258476Y-15234620D01*
X88145669Y-15261703D01*
X88032406Y-15288895D01*
X88027835Y-15290788D01*
X88027833Y-15290789D01*
X87817611Y-15377865D01*
X87817607Y-15377867D01*
X87813037Y-15379760D01*
X87808817Y-15382346D01*
X87614798Y-15501241D01*
X87614792Y-15501245D01*
X87610584Y-15503824D01*
X87430031Y-15658031D01*
X87275824Y-15838584D01*
X87253313Y-15875319D01*
X87217147Y-15934335D01*
X87164500Y-15981967D01*
X87109715Y-15994500D01*
X83390285Y-15994500D01*
X83322164Y-15974498D01*
X83282853Y-15934335D01*
X83246687Y-15875319D01*
X83224176Y-15838584D01*
X83069969Y-15658031D01*
X82889416Y-15503824D01*
X82885208Y-15501245D01*
X82885202Y-15501241D01*
X82691183Y-15382346D01*
X82686963Y-15379760D01*
X82682393Y-15377867D01*
X82682389Y-15377865D01*
X82472167Y-15290789D01*
X82472165Y-15290788D01*
X82467594Y-15288895D01*
X82354331Y-15261703D01*
X82241524Y-15234620D01*
X82241518Y-15234619D01*
X82236711Y-15233465D01*
X82000000Y-15214835D01*
X81763289Y-15233465D01*
X81758482Y-15234619D01*
X81758476Y-15234620D01*
X81645669Y-15261703D01*
X81532406Y-15288895D01*
X81527835Y-15290788D01*
X81527833Y-15290789D01*
X81317611Y-15377865D01*
X81317607Y-15377867D01*
X81313037Y-15379760D01*
X81308817Y-15382346D01*
X81114798Y-15501241D01*
X81114792Y-15501245D01*
X81110584Y-15503824D01*
X80930031Y-15658031D01*
X80775824Y-15838584D01*
X80753313Y-15875319D01*
X80717147Y-15934335D01*
X80664500Y-15981967D01*
X80609715Y-15994500D01*
X80337172Y-15994500D01*
X80318224Y-15993067D01*
X80311391Y-15992028D01*
X80305005Y-15991056D01*
X80305003Y-15991056D01*
X80297773Y-15989956D01*
X80290482Y-15990549D01*
X80290479Y-15990549D01*
X80247012Y-15994085D01*
X80236797Y-15994500D01*
X80229174Y-15994500D01*
X80201962Y-15997672D01*
X80197591Y-15998105D01*
X80134596Y-16003229D01*
X80134594Y-16003229D01*
X80127296Y-16003823D01*
X80120326Y-16006081D01*
X80114808Y-16007184D01*
X80109383Y-16008466D01*
X80102110Y-16009314D01*
X80035790Y-16033387D01*
X80031644Y-16034810D01*
X79971542Y-16054280D01*
X79971538Y-16054282D01*
X79964580Y-16056536D01*
X79958328Y-16060330D01*
X79953212Y-16062672D01*
X79948211Y-16065176D01*
X79941333Y-16067673D01*
X79935216Y-16071683D01*
X79935211Y-16071686D01*
X79882346Y-16106347D01*
X79878624Y-16108695D01*
X79823152Y-16142356D01*
X79818355Y-16145267D01*
X79810245Y-16152429D01*
X79810230Y-16152412D01*
X79806920Y-16155346D01*
X79804413Y-16157442D01*
X79798294Y-16161454D01*
X79793262Y-16166766D01*
X79746834Y-16215776D01*
X79744456Y-16218218D01*
X73483080Y-22479595D01*
X73420768Y-22513621D01*
X73393985Y-22516500D01*
X38115166Y-22516500D01*
X38096216Y-22515067D01*
X38083007Y-22513057D01*
X38083003Y-22513057D01*
X38075773Y-22511957D01*
X38068481Y-22512550D01*
X38068478Y-22512550D01*
X38025021Y-22516085D01*
X38014806Y-22516500D01*
X38007174Y-22516500D01*
X38003555Y-22516922D01*
X38003536Y-22516923D01*
X37979931Y-22519675D01*
X37975565Y-22520107D01*
X37948246Y-22522329D01*
X37912596Y-22525229D01*
X37912594Y-22525229D01*
X37905296Y-22525823D01*
X37898327Y-22528081D01*
X37892807Y-22529184D01*
X37887382Y-22530466D01*
X37880110Y-22531314D01*
X37813790Y-22555387D01*
X37809644Y-22556810D01*
X37749542Y-22576280D01*
X37749538Y-22576282D01*
X37742580Y-22578536D01*
X37736328Y-22582330D01*
X37731212Y-22584672D01*
X37726211Y-22587176D01*
X37719333Y-22589673D01*
X37713216Y-22593683D01*
X37713211Y-22593686D01*
X37660346Y-22628347D01*
X37656624Y-22630695D01*
X37601152Y-22664356D01*
X37596355Y-22667267D01*
X37588245Y-22674429D01*
X37588230Y-22674412D01*
X37584920Y-22677346D01*
X37582413Y-22679442D01*
X37576294Y-22683454D01*
X37571262Y-22688766D01*
X37524834Y-22737776D01*
X37522456Y-22740218D01*
X35046989Y-25215686D01*
X32595502Y-27667173D01*
X32533190Y-27701199D01*
X32495425Y-27703599D01*
X32386027Y-27694028D01*
X32319909Y-27668165D01*
X32278270Y-27610661D01*
X32274329Y-27539774D01*
X32307914Y-27479412D01*
X39476921Y-20310405D01*
X39539233Y-20276379D01*
X39566016Y-20273500D01*
X68865500Y-20273500D01*
X68933621Y-20293502D01*
X68980114Y-20347158D01*
X68991500Y-20399500D01*
X68991500Y-20540634D01*
X68998255Y-20602816D01*
X69049385Y-20739205D01*
X69136739Y-20855761D01*
X69253295Y-20943115D01*
X69389684Y-20994245D01*
X69451866Y-21001000D01*
X71548134Y-21001000D01*
X71610316Y-20994245D01*
X71746705Y-20943115D01*
X71863261Y-20855761D01*
X71950615Y-20739205D01*
X72001745Y-20602816D01*
X72008500Y-20540634D01*
X72008500Y-20399500D01*
X72028502Y-20331379D01*
X72082158Y-20284886D01*
X72134500Y-20273500D01*
X72894834Y-20273500D01*
X72913784Y-20274933D01*
X72926993Y-20276943D01*
X72926997Y-20276943D01*
X72934227Y-20278043D01*
X72941519Y-20277450D01*
X72941522Y-20277450D01*
X72984979Y-20273915D01*
X72995194Y-20273500D01*
X73002826Y-20273500D01*
X73006445Y-20273078D01*
X73006464Y-20273077D01*
X73030069Y-20270325D01*
X73034435Y-20269893D01*
X73061754Y-20267671D01*
X73097404Y-20264771D01*
X73097406Y-20264771D01*
X73104704Y-20264177D01*
X73111673Y-20261919D01*
X73117193Y-20260816D01*
X73122618Y-20259534D01*
X73129890Y-20258686D01*
X73196210Y-20234613D01*
X73200356Y-20233190D01*
X73260458Y-20213720D01*
X73260462Y-20213718D01*
X73267420Y-20211464D01*
X73273672Y-20207670D01*
X73278788Y-20205328D01*
X73283789Y-20202824D01*
X73290667Y-20200327D01*
X73296784Y-20196317D01*
X73296789Y-20196314D01*
X73349654Y-20161653D01*
X73353376Y-20159305D01*
X73408848Y-20125644D01*
X73408849Y-20125643D01*
X73413645Y-20122733D01*
X73421755Y-20115571D01*
X73421770Y-20115588D01*
X73425079Y-20112655D01*
X73427587Y-20110558D01*
X73433706Y-20106546D01*
X73485149Y-20052242D01*
X73487526Y-20049800D01*
X74641920Y-18895405D01*
X74704232Y-18861380D01*
X74731015Y-18858500D01*
X75250400Y-18858500D01*
X75253646Y-18858163D01*
X75253650Y-18858163D01*
X75349308Y-18848238D01*
X75349312Y-18848237D01*
X75356166Y-18847526D01*
X75362702Y-18845345D01*
X75362704Y-18845345D01*
X75516998Y-18793868D01*
X75523946Y-18791550D01*
X75674348Y-18698478D01*
X75799305Y-18573303D01*
X75846453Y-18496815D01*
X75888275Y-18428968D01*
X75888276Y-18428966D01*
X75892115Y-18422738D01*
X75929761Y-18309239D01*
X75945632Y-18261389D01*
X75945632Y-18261387D01*
X75947797Y-18254861D01*
X75949201Y-18241165D01*
X75958172Y-18153598D01*
X75958500Y-18150400D01*
X75958500Y-17349600D01*
X75954519Y-17311228D01*
X75948238Y-17250692D01*
X75948237Y-17250688D01*
X75947526Y-17243834D01*
X75937115Y-17212627D01*
X75893868Y-17083002D01*
X75891550Y-17076054D01*
X75798478Y-16925652D01*
X75767619Y-16894847D01*
X75711537Y-16838862D01*
X75677458Y-16776579D01*
X75682461Y-16705759D01*
X75711382Y-16660671D01*
X75793739Y-16578171D01*
X75802751Y-16566760D01*
X75887816Y-16428757D01*
X75893963Y-16415576D01*
X75945138Y-16261290D01*
X75948005Y-16247914D01*
X75957672Y-16153562D01*
X75958000Y-16147146D01*
X75958000Y-16022115D01*
X75953525Y-16006876D01*
X75952135Y-16005671D01*
X75944452Y-16004000D01*
X73560116Y-16004000D01*
X73544877Y-16008475D01*
X73543672Y-16009865D01*
X73542001Y-16017548D01*
X73542001Y-16147095D01*
X73542338Y-16153614D01*
X73552257Y-16249206D01*
X73555149Y-16262600D01*
X73606588Y-16416784D01*
X73612761Y-16429962D01*
X73698063Y-16567807D01*
X73707099Y-16579208D01*
X73788462Y-16660430D01*
X73822541Y-16722713D01*
X73817538Y-16793533D01*
X73788617Y-16838620D01*
X73705870Y-16921512D01*
X73705866Y-16921517D01*
X73700695Y-16926697D01*
X73696855Y-16932927D01*
X73696854Y-16932928D01*
X73630793Y-17040099D01*
X73607885Y-17077262D01*
X73552203Y-17245139D01*
X73541500Y-17349600D01*
X73541500Y-17868983D01*
X73521498Y-17937104D01*
X73504596Y-17958078D01*
X72693080Y-18769595D01*
X72630767Y-18803620D01*
X72603984Y-18806500D01*
X72134500Y-18806500D01*
X72066379Y-18786498D01*
X72019886Y-18732842D01*
X72008500Y-18680500D01*
X72008500Y-18539366D01*
X72001745Y-18477184D01*
X71950615Y-18340795D01*
X71863261Y-18224239D01*
X71746705Y-18136885D01*
X71738300Y-18133734D01*
X71738298Y-18133733D01*
X71737067Y-18133272D01*
X71736024Y-18132488D01*
X71730425Y-18129423D01*
X71730867Y-18128615D01*
X71680302Y-18090632D01*
X71655600Y-18024071D01*
X71670806Y-17954722D01*
X71683929Y-17935313D01*
X71739526Y-17867628D01*
X71739528Y-17867625D01*
X71742734Y-17863722D01*
X71864841Y-17653922D01*
X71878666Y-17617907D01*
X71950018Y-17432028D01*
X71950020Y-17432021D01*
X71951833Y-17427298D01*
X71958250Y-17396582D01*
X71962813Y-17380292D01*
X71964870Y-17374485D01*
X71976140Y-17311220D01*
X71976848Y-17307559D01*
X72000239Y-17195594D01*
X72001474Y-17189680D01*
X72002360Y-17170160D01*
X72004182Y-17153791D01*
X72007001Y-17137963D01*
X72007743Y-17077262D01*
X72008146Y-17044274D01*
X72008267Y-17040099D01*
X72012257Y-16952238D01*
X72012257Y-16952231D01*
X72012486Y-16947183D01*
X72010557Y-16930509D01*
X72009731Y-16914489D01*
X72009776Y-16910864D01*
X72009936Y-16897737D01*
X71997282Y-16815038D01*
X71996669Y-16810479D01*
X71994708Y-16793533D01*
X71984585Y-16706044D01*
X71978037Y-16682905D01*
X71974729Y-16667663D01*
X71973596Y-16660256D01*
X71959719Y-16617798D01*
X71958253Y-16612990D01*
X71948401Y-16578171D01*
X71918490Y-16472468D01*
X71916356Y-16467892D01*
X71916354Y-16467886D01*
X71818038Y-16257046D01*
X71818036Y-16257042D01*
X71815901Y-16252464D01*
X71679456Y-16051693D01*
X71512668Y-15875319D01*
X71508368Y-15872031D01*
X71441492Y-15820901D01*
X71399524Y-15763637D01*
X71395179Y-15692773D01*
X71429835Y-15630810D01*
X71441140Y-15620979D01*
X71445491Y-15617628D01*
X71599067Y-15477885D01*
X73542000Y-15477885D01*
X73546475Y-15493124D01*
X73547865Y-15494329D01*
X73555548Y-15496000D01*
X74477885Y-15496000D01*
X74493124Y-15491525D01*
X74494329Y-15490135D01*
X74496000Y-15482452D01*
X74496000Y-15477885D01*
X75004000Y-15477885D01*
X75008475Y-15493124D01*
X75009865Y-15494329D01*
X75017548Y-15496000D01*
X75939884Y-15496000D01*
X75955123Y-15491525D01*
X75956328Y-15490135D01*
X75957999Y-15482452D01*
X75957999Y-15352905D01*
X75957662Y-15346386D01*
X75947743Y-15250794D01*
X75944851Y-15237400D01*
X75893412Y-15083216D01*
X75887239Y-15070038D01*
X75801937Y-14932193D01*
X75792901Y-14920792D01*
X75678171Y-14806261D01*
X75666760Y-14797249D01*
X75528757Y-14712184D01*
X75515576Y-14706037D01*
X75361290Y-14654862D01*
X75347914Y-14651995D01*
X75253562Y-14642328D01*
X75247145Y-14642000D01*
X75022115Y-14642000D01*
X75006876Y-14646475D01*
X75005671Y-14647865D01*
X75004000Y-14655548D01*
X75004000Y-15477885D01*
X74496000Y-15477885D01*
X74496000Y-14660116D01*
X74491525Y-14644877D01*
X74490135Y-14643672D01*
X74482452Y-14642001D01*
X74252905Y-14642001D01*
X74246386Y-14642338D01*
X74150794Y-14652257D01*
X74137400Y-14655149D01*
X73983216Y-14706588D01*
X73970038Y-14712761D01*
X73832193Y-14798063D01*
X73820792Y-14807099D01*
X73706261Y-14921829D01*
X73697249Y-14933240D01*
X73612184Y-15071243D01*
X73606037Y-15084424D01*
X73554862Y-15238710D01*
X73551995Y-15252086D01*
X73542328Y-15346438D01*
X73542000Y-15352855D01*
X73542000Y-15477885D01*
X71599067Y-15477885D01*
X71615480Y-15462950D01*
X71622506Y-15455417D01*
X71764945Y-15275056D01*
X71770650Y-15266469D01*
X71881714Y-15065278D01*
X71885944Y-15055866D01*
X71962659Y-14839232D01*
X71965293Y-14829261D01*
X71982647Y-14731837D01*
X71981187Y-14718540D01*
X71966630Y-14714000D01*
X69031904Y-14714000D01*
X69018560Y-14717918D01*
X69016573Y-14732194D01*
X69026110Y-14794515D01*
X69028499Y-14804543D01*
X69099898Y-15022988D01*
X69103895Y-15032497D01*
X69210011Y-15236344D01*
X69215505Y-15245069D01*
X69249126Y-15289847D01*
X69274032Y-15356331D01*
X69259040Y-15425727D01*
X69208910Y-15476001D01*
X69148366Y-15491500D01*
X63677031Y-15491500D01*
X63608910Y-15471498D01*
X63587936Y-15454595D01*
X62321504Y-14188163D01*
X69017353Y-14188163D01*
X69018813Y-14201460D01*
X69033370Y-14206000D01*
X70227885Y-14206000D01*
X70243124Y-14201525D01*
X70244329Y-14200135D01*
X70246000Y-14192452D01*
X70246000Y-14187885D01*
X70754000Y-14187885D01*
X70758475Y-14203124D01*
X70759865Y-14204329D01*
X70767548Y-14206000D01*
X71968096Y-14206000D01*
X71981440Y-14202082D01*
X71983427Y-14187806D01*
X71973890Y-14125485D01*
X71971501Y-14115457D01*
X71900102Y-13897012D01*
X71896105Y-13887503D01*
X71789989Y-13683656D01*
X71784495Y-13674931D01*
X71646507Y-13491148D01*
X71639664Y-13483441D01*
X71615835Y-13460670D01*
X81132160Y-13460670D01*
X81137887Y-13468320D01*
X81309042Y-13573205D01*
X81317837Y-13577687D01*
X81527988Y-13664734D01*
X81537373Y-13667783D01*
X81758554Y-13720885D01*
X81768301Y-13722428D01*
X81995070Y-13740275D01*
X82004930Y-13740275D01*
X82231699Y-13722428D01*
X82241446Y-13720885D01*
X82462627Y-13667783D01*
X82472012Y-13664734D01*
X82682163Y-13577687D01*
X82690958Y-13573205D01*
X82858445Y-13470568D01*
X82867400Y-13460670D01*
X87632160Y-13460670D01*
X87637887Y-13468320D01*
X87809042Y-13573205D01*
X87817837Y-13577687D01*
X88027988Y-13664734D01*
X88037373Y-13667783D01*
X88258554Y-13720885D01*
X88268301Y-13722428D01*
X88495070Y-13740275D01*
X88504930Y-13740275D01*
X88731699Y-13722428D01*
X88741446Y-13720885D01*
X88962627Y-13667783D01*
X88972012Y-13664734D01*
X89182163Y-13577687D01*
X89190958Y-13573205D01*
X89358445Y-13470568D01*
X89367907Y-13460110D01*
X89364124Y-13451334D01*
X88512812Y-12600022D01*
X88498868Y-12592408D01*
X88497035Y-12592539D01*
X88490420Y-12596790D01*
X87638920Y-13448290D01*
X87632160Y-13460670D01*
X82867400Y-13460670D01*
X82867907Y-13460110D01*
X82864124Y-13451334D01*
X82012812Y-12600022D01*
X81998868Y-12592408D01*
X81997035Y-12592539D01*
X81990420Y-12596790D01*
X81138920Y-13448290D01*
X81132160Y-13460670D01*
X71615835Y-13460670D01*
X71473509Y-13324661D01*
X71465499Y-13318174D01*
X71275653Y-13188670D01*
X71266679Y-13183571D01*
X71058231Y-13086813D01*
X71048544Y-13083250D01*
X70827092Y-13021835D01*
X70816970Y-13019904D01*
X70772013Y-13015099D01*
X70757392Y-13017747D01*
X70754000Y-13030124D01*
X70754000Y-14187885D01*
X70246000Y-14187885D01*
X70246000Y-13029588D01*
X70241675Y-13014859D01*
X70229889Y-13012798D01*
X70218296Y-13013751D01*
X70208134Y-13015433D01*
X69985229Y-13071422D01*
X69975481Y-13074741D01*
X69764711Y-13166385D01*
X69755636Y-13171251D01*
X69562673Y-13296085D01*
X69554502Y-13302378D01*
X69384520Y-13457050D01*
X69377494Y-13464583D01*
X69235055Y-13644944D01*
X69229350Y-13653531D01*
X69118286Y-13854722D01*
X69114056Y-13864134D01*
X69037341Y-14080768D01*
X69034707Y-14090739D01*
X69017353Y-14188163D01*
X62321504Y-14188163D01*
X62045405Y-13912064D01*
X62011379Y-13849752D01*
X62008500Y-13822969D01*
X62008500Y-12232930D01*
X80487725Y-12232930D01*
X80505572Y-12459699D01*
X80507115Y-12469446D01*
X80560217Y-12690627D01*
X80563266Y-12700012D01*
X80650313Y-12910163D01*
X80654795Y-12918958D01*
X80757432Y-13086445D01*
X80767890Y-13095907D01*
X80776666Y-13092124D01*
X81627978Y-12240812D01*
X81634356Y-12229132D01*
X82364408Y-12229132D01*
X82364539Y-12230965D01*
X82368790Y-12237580D01*
X83220290Y-13089080D01*
X83232670Y-13095840D01*
X83240320Y-13090113D01*
X83345205Y-12918958D01*
X83349687Y-12910163D01*
X83436734Y-12700012D01*
X83439783Y-12690627D01*
X83492885Y-12469446D01*
X83494428Y-12459699D01*
X83512275Y-12232930D01*
X86987725Y-12232930D01*
X87005572Y-12459699D01*
X87007115Y-12469446D01*
X87060217Y-12690627D01*
X87063266Y-12700012D01*
X87150313Y-12910163D01*
X87154795Y-12918958D01*
X87257432Y-13086445D01*
X87267890Y-13095907D01*
X87276666Y-13092124D01*
X88127978Y-12240812D01*
X88134356Y-12229132D01*
X88864408Y-12229132D01*
X88864539Y-12230965D01*
X88868790Y-12237580D01*
X89720290Y-13089080D01*
X89732670Y-13095840D01*
X89740320Y-13090113D01*
X89845205Y-12918958D01*
X89849687Y-12910163D01*
X89936734Y-12700012D01*
X89939783Y-12690627D01*
X89992885Y-12469446D01*
X89994428Y-12459699D01*
X90012275Y-12232930D01*
X90012275Y-12223070D01*
X89994428Y-11996301D01*
X89992885Y-11986554D01*
X89939783Y-11765373D01*
X89936734Y-11755988D01*
X89849687Y-11545837D01*
X89845205Y-11537042D01*
X89742568Y-11369555D01*
X89732110Y-11360093D01*
X89723334Y-11363876D01*
X88872022Y-12215188D01*
X88864408Y-12229132D01*
X88134356Y-12229132D01*
X88135592Y-12226868D01*
X88135461Y-12225035D01*
X88131210Y-12218420D01*
X87279710Y-11366920D01*
X87267330Y-11360160D01*
X87259680Y-11365887D01*
X87154795Y-11537042D01*
X87150313Y-11545837D01*
X87063266Y-11755988D01*
X87060217Y-11765373D01*
X87007115Y-11986554D01*
X87005572Y-11996301D01*
X86987725Y-12223070D01*
X86987725Y-12232930D01*
X83512275Y-12232930D01*
X83512275Y-12223070D01*
X83494428Y-11996301D01*
X83492885Y-11986554D01*
X83439783Y-11765373D01*
X83436734Y-11755988D01*
X83349687Y-11545837D01*
X83345205Y-11537042D01*
X83242568Y-11369555D01*
X83232110Y-11360093D01*
X83223334Y-11363876D01*
X82372022Y-12215188D01*
X82364408Y-12229132D01*
X81634356Y-12229132D01*
X81635592Y-12226868D01*
X81635461Y-12225035D01*
X81631210Y-12218420D01*
X80779710Y-11366920D01*
X80767330Y-11360160D01*
X80759680Y-11365887D01*
X80654795Y-11537042D01*
X80650313Y-11545837D01*
X80563266Y-11755988D01*
X80560217Y-11765373D01*
X80507115Y-11986554D01*
X80505572Y-11996301D01*
X80487725Y-12223070D01*
X80487725Y-12232930D01*
X62008500Y-12232930D01*
X62008500Y-10995890D01*
X81132093Y-10995890D01*
X81135876Y-11004666D01*
X81987188Y-11855978D01*
X82001132Y-11863592D01*
X82002965Y-11863461D01*
X82009580Y-11859210D01*
X82861080Y-11007710D01*
X82867534Y-10995890D01*
X87632093Y-10995890D01*
X87635876Y-11004666D01*
X88487188Y-11855978D01*
X88501132Y-11863592D01*
X88502965Y-11863461D01*
X88509580Y-11859210D01*
X89361080Y-11007710D01*
X89367840Y-10995330D01*
X89362113Y-10987680D01*
X89190958Y-10882795D01*
X89182163Y-10878313D01*
X88972012Y-10791266D01*
X88962627Y-10788217D01*
X88741446Y-10735115D01*
X88731699Y-10733572D01*
X88504930Y-10715725D01*
X88495070Y-10715725D01*
X88268301Y-10733572D01*
X88258554Y-10735115D01*
X88037373Y-10788217D01*
X88027988Y-10791266D01*
X87817837Y-10878313D01*
X87809042Y-10882795D01*
X87641555Y-10985432D01*
X87632093Y-10995890D01*
X82867534Y-10995890D01*
X82867840Y-10995330D01*
X82862113Y-10987680D01*
X82690958Y-10882795D01*
X82682163Y-10878313D01*
X82472012Y-10791266D01*
X82462627Y-10788217D01*
X82241446Y-10735115D01*
X82231699Y-10733572D01*
X82004930Y-10715725D01*
X81995070Y-10715725D01*
X81768301Y-10733572D01*
X81758554Y-10735115D01*
X81537373Y-10788217D01*
X81527988Y-10791266D01*
X81317837Y-10878313D01*
X81309042Y-10882795D01*
X81141555Y-10985432D01*
X81132093Y-10995890D01*
X62008500Y-10995890D01*
X62008500Y-6534994D01*
X62028529Y-6466831D01*
X62033983Y-6458353D01*
X62093797Y-6365361D01*
X62204199Y-6120278D01*
X62214698Y-6083051D01*
X62275893Y-5866072D01*
X62275894Y-5866069D01*
X62277163Y-5861568D01*
X62295043Y-5721019D01*
X62310688Y-5598045D01*
X62310688Y-5598041D01*
X62311086Y-5594915D01*
X62311368Y-5584171D01*
X62312477Y-5541779D01*
X62313571Y-5500000D01*
X62293650Y-5231937D01*
X62277151Y-5159020D01*
X62235361Y-4974331D01*
X62235360Y-4974326D01*
X62234327Y-4969763D01*
X62136902Y-4719238D01*
X62003518Y-4485864D01*
X61837105Y-4274769D01*
X61641317Y-4090591D01*
X61443407Y-3953295D01*
X61424299Y-3940039D01*
X61424296Y-3940037D01*
X61420457Y-3937374D01*
X61403231Y-3928879D01*
X61183564Y-3820551D01*
X61183561Y-3820550D01*
X61179376Y-3818486D01*
X61148196Y-3808505D01*
X60963504Y-3749385D01*
X60923370Y-3736538D01*
X60918763Y-3735788D01*
X60918760Y-3735787D01*
X60705337Y-3701029D01*
X60658063Y-3693330D01*
X60527719Y-3691624D01*
X60393961Y-3689873D01*
X60393958Y-3689873D01*
X60389284Y-3689812D01*
X60122937Y-3726060D01*
X60118451Y-3727368D01*
X60118449Y-3727368D01*
X60053726Y-3746233D01*
X59864874Y-3801278D01*
X59860621Y-3803238D01*
X59860620Y-3803239D01*
X59852848Y-3806822D01*
X59620763Y-3913815D01*
X59594230Y-3931211D01*
X59399881Y-4058631D01*
X59399876Y-4058635D01*
X59395968Y-4061197D01*
X59195426Y-4240188D01*
X59023544Y-4446854D01*
X58884096Y-4676656D01*
X58882287Y-4680970D01*
X58882285Y-4680974D01*
X58859728Y-4734767D01*
X58780148Y-4924545D01*
X58713981Y-5185077D01*
X58687050Y-5452526D01*
X58687274Y-5457192D01*
X58687274Y-5457197D01*
X58693374Y-5584171D01*
X58699947Y-5721019D01*
X58752388Y-5984656D01*
X58843220Y-6237646D01*
X58845432Y-6241762D01*
X58845433Y-6241765D01*
X58968241Y-6470321D01*
X58968245Y-6470327D01*
X58970450Y-6474431D01*
X58971932Y-6476415D01*
X58991500Y-6543555D01*
X58991500Y-14475984D01*
X58991451Y-14479502D01*
X58990816Y-14502252D01*
X58988666Y-14579205D01*
X58998853Y-14655548D01*
X58999058Y-14657086D01*
X58999759Y-14663647D01*
X59005633Y-14736654D01*
X59006060Y-14741965D01*
X59013897Y-14773870D01*
X59016426Y-14787258D01*
X59020771Y-14819820D01*
X59022232Y-14824661D01*
X59022233Y-14824663D01*
X59043478Y-14895029D01*
X59045219Y-14901390D01*
X59063963Y-14977706D01*
X59075666Y-15005276D01*
X59076801Y-15007951D01*
X59081438Y-15020761D01*
X59090933Y-15052208D01*
X59093151Y-15056756D01*
X59093154Y-15056763D01*
X59125371Y-15122818D01*
X59128107Y-15128820D01*
X59158812Y-15201156D01*
X59167671Y-15215223D01*
X59176319Y-15228956D01*
X59182945Y-15240860D01*
X59197346Y-15270388D01*
X59200265Y-15274525D01*
X59200265Y-15274526D01*
X59242641Y-15334597D01*
X59246301Y-15340086D01*
X59272914Y-15382346D01*
X59288167Y-15406567D01*
X59291508Y-15410356D01*
X59291512Y-15410362D01*
X59309898Y-15431217D01*
X59318344Y-15441912D01*
X59337274Y-15468747D01*
X59356909Y-15490250D01*
X59396625Y-15529966D01*
X59402044Y-15535736D01*
X59445350Y-15584858D01*
X59445353Y-15584861D01*
X59448698Y-15588655D01*
X59452606Y-15591865D01*
X59452607Y-15591866D01*
X59480989Y-15615179D01*
X59490108Y-15623449D01*
X61916325Y-18049666D01*
X61918779Y-18052188D01*
X61955134Y-18090632D01*
X61987332Y-18124681D01*
X62049757Y-18172408D01*
X62054892Y-18176552D01*
X62114720Y-18227470D01*
X62119045Y-18230089D01*
X62119050Y-18230093D01*
X62142824Y-18244491D01*
X62154071Y-18252163D01*
X62180174Y-18272120D01*
X62184632Y-18274510D01*
X62184633Y-18274511D01*
X62249401Y-18309239D01*
X62255126Y-18312504D01*
X62322358Y-18353221D01*
X62352817Y-18365527D01*
X62365158Y-18371307D01*
X62394109Y-18386831D01*
X62398890Y-18388477D01*
X62398894Y-18388479D01*
X62468401Y-18412412D01*
X62474579Y-18414722D01*
X62494420Y-18422738D01*
X62547429Y-18444155D01*
X62552369Y-18445277D01*
X62552368Y-18445277D01*
X62579460Y-18451432D01*
X62592559Y-18455163D01*
X62623631Y-18465862D01*
X62701100Y-18479243D01*
X62707504Y-18480523D01*
X62784144Y-18497935D01*
X62816953Y-18499999D01*
X62830453Y-18501585D01*
X62862836Y-18507179D01*
X62866793Y-18507359D01*
X62866796Y-18507359D01*
X62890506Y-18508436D01*
X62890525Y-18508436D01*
X62891925Y-18508500D01*
X62948108Y-18508500D01*
X62956019Y-18508749D01*
X63026413Y-18513178D01*
X63067992Y-18509101D01*
X63080288Y-18508500D01*
X68865500Y-18508500D01*
X68933621Y-18528502D01*
X68980114Y-18582158D01*
X68991500Y-18634500D01*
X68991500Y-18680500D01*
X68971498Y-18748621D01*
X68917842Y-18795114D01*
X68865500Y-18806500D01*
X55537794Y-18806500D01*
X55469673Y-18786498D01*
X55423180Y-18732842D01*
X55413076Y-18662568D01*
X55443062Y-18597422D01*
X55456449Y-18582158D01*
X55516943Y-18513178D01*
X55632915Y-18380938D01*
X55632919Y-18380932D01*
X55635633Y-18377838D01*
X55639997Y-18371308D01*
X55787602Y-18150400D01*
X55800115Y-18131673D01*
X55805373Y-18121012D01*
X55896949Y-17935313D01*
X55931059Y-17866145D01*
X56015491Y-17617416D01*
X56024896Y-17589710D01*
X56024897Y-17589706D01*
X56026224Y-17585797D01*
X56036724Y-17533012D01*
X56083180Y-17299465D01*
X56083181Y-17299459D01*
X56083983Y-17295426D01*
X56087365Y-17243834D01*
X56103076Y-17004119D01*
X56103346Y-17000000D01*
X56098134Y-16920479D01*
X56084253Y-16708686D01*
X56084252Y-16708679D01*
X56083983Y-16704574D01*
X56079677Y-16682922D01*
X56027030Y-16418253D01*
X56027028Y-16418247D01*
X56026224Y-16414203D01*
X56016468Y-16385461D01*
X55932385Y-16137761D01*
X55932384Y-16137760D01*
X55931059Y-16133855D01*
X55811570Y-15891555D01*
X55801942Y-15872031D01*
X55801939Y-15872026D01*
X55800115Y-15868327D01*
X55760744Y-15809405D01*
X55637926Y-15625593D01*
X55637922Y-15625588D01*
X55635633Y-15622162D01*
X55632919Y-15619068D01*
X55632915Y-15619062D01*
X55443136Y-15402662D01*
X55440427Y-15399573D01*
X55437338Y-15396864D01*
X55220938Y-15207085D01*
X55220932Y-15207081D01*
X55217838Y-15204367D01*
X55214412Y-15202078D01*
X55214407Y-15202074D01*
X54995590Y-15055866D01*
X54971673Y-15039885D01*
X54967974Y-15038061D01*
X54967969Y-15038058D01*
X54768023Y-14939456D01*
X54706145Y-14908941D01*
X54702239Y-14907615D01*
X54429710Y-14815104D01*
X54429706Y-14815103D01*
X54425797Y-14813776D01*
X54421753Y-14812972D01*
X54421747Y-14812970D01*
X54139465Y-14756820D01*
X54139459Y-14756819D01*
X54135426Y-14756017D01*
X54131321Y-14755748D01*
X54131314Y-14755747D01*
X53844119Y-14736924D01*
X53840000Y-14736654D01*
X53835881Y-14736924D01*
X53548686Y-14755747D01*
X53548679Y-14755748D01*
X53544574Y-14756017D01*
X53540541Y-14756819D01*
X53540535Y-14756820D01*
X53258253Y-14812970D01*
X53258247Y-14812972D01*
X53254203Y-14813776D01*
X53250294Y-14815103D01*
X53250290Y-14815104D01*
X52977761Y-14907615D01*
X52973855Y-14908941D01*
X52911977Y-14939456D01*
X52712031Y-15038058D01*
X52712026Y-15038061D01*
X52708327Y-15039885D01*
X52684410Y-15055866D01*
X52465593Y-15202074D01*
X52465588Y-15202078D01*
X52462162Y-15204367D01*
X52459068Y-15207081D01*
X52459062Y-15207085D01*
X52242662Y-15396864D01*
X52239573Y-15399573D01*
X52236864Y-15402662D01*
X52047085Y-15619062D01*
X52047081Y-15619068D01*
X52044367Y-15622162D01*
X52042078Y-15625588D01*
X52042074Y-15625593D01*
X51919256Y-15809405D01*
X51879885Y-15868327D01*
X51878061Y-15872026D01*
X51878058Y-15872031D01*
X51868430Y-15891555D01*
X51748941Y-16133855D01*
X51747616Y-16137760D01*
X51747615Y-16137761D01*
X51663533Y-16385461D01*
X51653776Y-16414203D01*
X51652972Y-16418247D01*
X51652970Y-16418253D01*
X51600324Y-16682922D01*
X51596017Y-16704574D01*
X51595748Y-16708679D01*
X51595747Y-16708686D01*
X51581866Y-16920479D01*
X51576654Y-17000000D01*
X51576924Y-17004119D01*
X51592636Y-17243834D01*
X51596017Y-17295426D01*
X51596819Y-17299459D01*
X51596820Y-17299465D01*
X51643276Y-17533012D01*
X51653776Y-17585797D01*
X51655103Y-17589706D01*
X51655104Y-17589710D01*
X51664509Y-17617416D01*
X51748941Y-17866145D01*
X51783051Y-17935313D01*
X51874628Y-18121012D01*
X51879885Y-18131673D01*
X51892398Y-18150400D01*
X52040004Y-18371308D01*
X52044367Y-18377838D01*
X52047081Y-18380932D01*
X52047085Y-18380938D01*
X52163057Y-18513178D01*
X52223552Y-18582158D01*
X52236938Y-18597422D01*
X52266815Y-18661826D01*
X52257129Y-18732159D01*
X52210956Y-18786091D01*
X52142206Y-18806500D01*
X39275174Y-18806500D01*
X39256223Y-18805067D01*
X39243007Y-18803056D01*
X39243004Y-18803056D01*
X39235774Y-18801956D01*
X39228483Y-18802549D01*
X39228480Y-18802549D01*
X39185013Y-18806085D01*
X39174798Y-18806500D01*
X39167174Y-18806500D01*
X39139934Y-18809676D01*
X39135614Y-18810103D01*
X39107609Y-18812381D01*
X39072593Y-18815229D01*
X39072589Y-18815230D01*
X39065296Y-18815823D01*
X39058332Y-18818079D01*
X39052817Y-18819181D01*
X39047378Y-18820467D01*
X39040110Y-18821314D01*
X39033232Y-18823811D01*
X39033226Y-18823812D01*
X38973803Y-18845382D01*
X38969700Y-18846792D01*
X38902580Y-18868535D01*
X38896317Y-18872335D01*
X38891201Y-18874678D01*
X38886212Y-18877176D01*
X38879333Y-18879673D01*
X38873212Y-18883686D01*
X38873210Y-18883687D01*
X38820357Y-18918339D01*
X38816638Y-18920685D01*
X38756355Y-18957267D01*
X38748245Y-18964429D01*
X38748230Y-18964412D01*
X38744920Y-18967346D01*
X38742413Y-18969442D01*
X38736294Y-18973454D01*
X38731262Y-18978766D01*
X38684834Y-19027776D01*
X38682456Y-19030218D01*
X34949510Y-22763165D01*
X31233080Y-26479595D01*
X31170768Y-26513621D01*
X31143985Y-26516500D01*
X18315166Y-26516500D01*
X18296216Y-26515067D01*
X18283007Y-26513057D01*
X18283003Y-26513057D01*
X18275773Y-26511957D01*
X18268481Y-26512550D01*
X18268477Y-26512550D01*
X18225019Y-26516085D01*
X18214805Y-26516500D01*
X18207174Y-26516500D01*
X18203540Y-26516924D01*
X18203534Y-26516924D01*
X18191039Y-26518381D01*
X18179942Y-26519675D01*
X18175594Y-26520105D01*
X18105295Y-26525823D01*
X18098327Y-26528080D01*
X18092828Y-26529179D01*
X18087383Y-26530466D01*
X18080110Y-26531314D01*
X18016540Y-26554389D01*
X18013791Y-26555387D01*
X18009630Y-26556815D01*
X17949546Y-26576279D01*
X17949543Y-26576280D01*
X17942580Y-26578536D01*
X17936323Y-26582333D01*
X17931198Y-26584679D01*
X17926211Y-26587176D01*
X17919333Y-26589673D01*
X17913216Y-26593683D01*
X17913211Y-26593686D01*
X17860346Y-26628347D01*
X17856624Y-26630695D01*
X17801152Y-26664356D01*
X17796355Y-26667267D01*
X17788245Y-26674429D01*
X17788230Y-26674412D01*
X17784921Y-26677345D01*
X17782413Y-26679442D01*
X17776294Y-26683454D01*
X17771261Y-26688767D01*
X17724851Y-26737758D01*
X17722511Y-26740163D01*
X16752384Y-27710291D01*
X16695902Y-27742902D01*
X16655204Y-27753807D01*
X16616067Y-27764293D01*
X16616065Y-27764294D01*
X16610757Y-27765716D01*
X16605776Y-27768039D01*
X16605775Y-27768039D01*
X16408238Y-27860151D01*
X16408233Y-27860154D01*
X16403251Y-27862477D01*
X16332648Y-27911914D01*
X16220211Y-27990643D01*
X16220208Y-27990645D01*
X16215700Y-27993802D01*
X16053802Y-28155700D01*
X16050645Y-28160208D01*
X16050643Y-28160211D01*
X16018257Y-28206463D01*
X15922477Y-28343251D01*
X15920154Y-28348233D01*
X15920151Y-28348238D01*
X15904195Y-28382457D01*
X15857278Y-28435742D01*
X15789001Y-28455203D01*
X15721041Y-28434661D01*
X15675805Y-28382457D01*
X15659849Y-28348238D01*
X15659846Y-28348233D01*
X15657523Y-28343251D01*
X15561743Y-28206463D01*
X15529357Y-28160211D01*
X15529355Y-28160208D01*
X15526198Y-28155700D01*
X15364300Y-27993802D01*
X15359792Y-27990645D01*
X15359789Y-27990643D01*
X15247352Y-27911914D01*
X15176749Y-27862477D01*
X15171767Y-27860154D01*
X15171762Y-27860151D01*
X14974225Y-27768039D01*
X14974224Y-27768039D01*
X14969243Y-27765716D01*
X14963935Y-27764294D01*
X14963933Y-27764293D01*
X14753402Y-27707881D01*
X14753400Y-27707881D01*
X14748087Y-27706457D01*
X14520000Y-27686502D01*
X14291913Y-27706457D01*
X14286600Y-27707881D01*
X14286598Y-27707881D01*
X14076067Y-27764293D01*
X14076065Y-27764294D01*
X14070757Y-27765716D01*
X14065776Y-27768039D01*
X14065775Y-27768039D01*
X13868238Y-27860151D01*
X13868233Y-27860154D01*
X13863251Y-27862477D01*
X13792648Y-27911914D01*
X13680211Y-27990643D01*
X13680208Y-27990645D01*
X13675700Y-27993802D01*
X13513802Y-28155700D01*
X13510645Y-28160208D01*
X13510643Y-28160211D01*
X13478257Y-28206463D01*
X13382477Y-28343251D01*
X13380154Y-28348233D01*
X13380151Y-28348238D01*
X13364195Y-28382457D01*
X13317278Y-28435742D01*
X13249001Y-28455203D01*
X13181041Y-28434661D01*
X13135805Y-28382457D01*
X13119849Y-28348238D01*
X13119846Y-28348233D01*
X13117523Y-28343251D01*
X13021743Y-28206463D01*
X12989357Y-28160211D01*
X12989355Y-28160208D01*
X12986198Y-28155700D01*
X12824300Y-27993802D01*
X12819792Y-27990645D01*
X12819789Y-27990643D01*
X12707352Y-27911914D01*
X12636749Y-27862477D01*
X12631767Y-27860154D01*
X12631762Y-27860151D01*
X12434225Y-27768039D01*
X12434224Y-27768039D01*
X12429243Y-27765716D01*
X12423935Y-27764294D01*
X12423933Y-27764293D01*
X12213402Y-27707881D01*
X12213400Y-27707881D01*
X12208087Y-27706457D01*
X11980000Y-27686502D01*
X11751913Y-27706457D01*
X11746600Y-27707881D01*
X11746598Y-27707881D01*
X11536067Y-27764293D01*
X11536065Y-27764294D01*
X11530757Y-27765716D01*
X11525776Y-27768039D01*
X11525775Y-27768039D01*
X11328238Y-27860151D01*
X11328233Y-27860154D01*
X11323251Y-27862477D01*
X11252648Y-27911914D01*
X11140211Y-27990643D01*
X11140208Y-27990645D01*
X11135700Y-27993802D01*
X10973802Y-28155700D01*
X10970645Y-28160208D01*
X10970643Y-28160211D01*
X10938257Y-28206463D01*
X10842477Y-28343251D01*
X10840154Y-28348233D01*
X10840151Y-28348238D01*
X10824195Y-28382457D01*
X10777278Y-28435742D01*
X10709001Y-28455203D01*
X10641041Y-28434661D01*
X10595805Y-28382457D01*
X10579849Y-28348238D01*
X10579846Y-28348233D01*
X10577523Y-28343251D01*
X10481743Y-28206463D01*
X10449357Y-28160211D01*
X10449355Y-28160208D01*
X10446198Y-28155700D01*
X10284300Y-27993802D01*
X10279792Y-27990645D01*
X10279789Y-27990643D01*
X10167352Y-27911914D01*
X10096749Y-27862477D01*
X10091767Y-27860154D01*
X10091762Y-27860151D01*
X9894225Y-27768039D01*
X9894224Y-27768039D01*
X9889243Y-27765716D01*
X9883935Y-27764294D01*
X9883933Y-27764293D01*
X9673402Y-27707881D01*
X9673400Y-27707881D01*
X9668087Y-27706457D01*
X9440000Y-27686502D01*
X9211913Y-27706457D01*
X9206600Y-27707881D01*
X9206598Y-27707881D01*
X8996067Y-27764293D01*
X8996065Y-27764294D01*
X8990757Y-27765716D01*
X8985776Y-27768039D01*
X8985775Y-27768039D01*
X8788238Y-27860151D01*
X8788233Y-27860154D01*
X8783251Y-27862477D01*
X8712648Y-27911914D01*
X8600211Y-27990643D01*
X8600208Y-27990645D01*
X8595700Y-27993802D01*
X8433802Y-28155700D01*
X8430645Y-28160208D01*
X8430643Y-28160211D01*
X8398257Y-28206463D01*
X8302477Y-28343251D01*
X8300154Y-28348233D01*
X8300151Y-28348238D01*
X8300034Y-28348489D01*
X8205716Y-28550757D01*
X8204294Y-28556065D01*
X8204293Y-28556067D01*
X8148041Y-28766002D01*
X8146457Y-28771913D01*
X8126502Y-29000000D01*
X8146457Y-29228087D01*
X8147881Y-29233400D01*
X8147881Y-29233402D01*
X8196093Y-29413328D01*
X8205716Y-29449243D01*
X8208039Y-29454224D01*
X8208039Y-29454225D01*
X8300151Y-29651762D01*
X8300154Y-29651767D01*
X8302477Y-29656749D01*
X8433802Y-29844300D01*
X8595700Y-30006198D01*
X8600208Y-30009355D01*
X8600211Y-30009357D01*
X8641542Y-30038297D01*
X8783251Y-30137523D01*
X8788233Y-30139846D01*
X8788238Y-30139849D01*
X8984765Y-30231490D01*
X8990757Y-30234284D01*
X8996065Y-30235706D01*
X8996067Y-30235707D01*
X9206598Y-30292119D01*
X9206600Y-30292119D01*
X9211913Y-30293543D01*
X9440000Y-30313498D01*
X9668087Y-30293543D01*
X9673400Y-30292119D01*
X9673402Y-30292119D01*
X9883933Y-30235707D01*
X9883935Y-30235706D01*
X9889243Y-30234284D01*
X9895235Y-30231490D01*
X10091762Y-30139849D01*
X10091767Y-30139846D01*
X10096749Y-30137523D01*
X10238458Y-30038297D01*
X10279789Y-30009357D01*
X10279792Y-30009355D01*
X10284300Y-30006198D01*
X10446198Y-29844300D01*
X10577523Y-29656749D01*
X10579846Y-29651767D01*
X10579849Y-29651762D01*
X10595805Y-29617543D01*
X10642722Y-29564258D01*
X10710999Y-29544797D01*
X10778959Y-29565339D01*
X10824195Y-29617543D01*
X10840151Y-29651762D01*
X10840154Y-29651767D01*
X10842477Y-29656749D01*
X10973802Y-29844300D01*
X11135700Y-30006198D01*
X11140208Y-30009355D01*
X11140211Y-30009357D01*
X11181542Y-30038297D01*
X11323251Y-30137523D01*
X11328233Y-30139846D01*
X11328238Y-30139849D01*
X11524765Y-30231490D01*
X11530757Y-30234284D01*
X11536065Y-30235706D01*
X11536067Y-30235707D01*
X11746598Y-30292119D01*
X11746600Y-30292119D01*
X11751913Y-30293543D01*
X11980000Y-30313498D01*
X12208087Y-30293543D01*
X12213400Y-30292119D01*
X12213402Y-30292119D01*
X12423933Y-30235707D01*
X12423935Y-30235706D01*
X12429243Y-30234284D01*
X12435235Y-30231490D01*
X12631762Y-30139849D01*
X12631767Y-30139846D01*
X12636749Y-30137523D01*
X12778458Y-30038297D01*
X12819789Y-30009357D01*
X12819792Y-30009355D01*
X12824300Y-30006198D01*
X12986198Y-29844300D01*
X13117523Y-29656749D01*
X13119846Y-29651767D01*
X13119849Y-29651762D01*
X13135805Y-29617543D01*
X13182722Y-29564258D01*
X13250999Y-29544797D01*
X13318959Y-29565339D01*
X13364195Y-29617543D01*
X13380151Y-29651762D01*
X13380154Y-29651767D01*
X13382477Y-29656749D01*
X13513802Y-29844300D01*
X13675700Y-30006198D01*
X13680208Y-30009355D01*
X13680211Y-30009357D01*
X13721542Y-30038297D01*
X13863251Y-30137523D01*
X13868233Y-30139846D01*
X13868238Y-30139849D01*
X14064765Y-30231490D01*
X14070757Y-30234284D01*
X14076065Y-30235706D01*
X14076067Y-30235707D01*
X14286598Y-30292119D01*
X14286600Y-30292119D01*
X14291913Y-30293543D01*
X14520000Y-30313498D01*
X14748087Y-30293543D01*
X14753400Y-30292119D01*
X14753402Y-30292119D01*
X14963933Y-30235707D01*
X14963935Y-30235706D01*
X14969243Y-30234284D01*
X14975235Y-30231490D01*
X15171762Y-30139849D01*
X15171767Y-30139846D01*
X15176749Y-30137523D01*
X15318458Y-30038297D01*
X15359789Y-30009357D01*
X15359792Y-30009355D01*
X15364300Y-30006198D01*
X15526198Y-29844300D01*
X15657523Y-29656749D01*
X15659846Y-29651767D01*
X15659849Y-29651762D01*
X15675805Y-29617543D01*
X15722722Y-29564258D01*
X15790999Y-29544797D01*
X15858959Y-29565339D01*
X15904195Y-29617543D01*
X15920151Y-29651762D01*
X15920154Y-29651767D01*
X15922477Y-29656749D01*
X16053802Y-29844300D01*
X16215700Y-30006198D01*
X16220208Y-30009355D01*
X16220211Y-30009357D01*
X16261542Y-30038297D01*
X16403251Y-30137523D01*
X16408233Y-30139846D01*
X16408238Y-30139849D01*
X16604765Y-30231490D01*
X16610757Y-30234284D01*
X16616065Y-30235706D01*
X16616067Y-30235707D01*
X16826598Y-30292119D01*
X16826600Y-30292119D01*
X16831913Y-30293543D01*
X17060000Y-30313498D01*
X17288087Y-30293543D01*
X17293400Y-30292119D01*
X17293402Y-30292119D01*
X17503933Y-30235707D01*
X17503935Y-30235706D01*
X17509243Y-30234284D01*
X17515235Y-30231490D01*
X17711762Y-30139849D01*
X17711767Y-30139846D01*
X17716749Y-30137523D01*
X17858458Y-30038297D01*
X17899789Y-30009357D01*
X17899792Y-30009355D01*
X17904300Y-30006198D01*
X18066198Y-29844300D01*
X18197523Y-29656749D01*
X18199846Y-29651767D01*
X18199849Y-29651762D01*
X18215805Y-29617543D01*
X18262722Y-29564258D01*
X18330999Y-29544797D01*
X18398959Y-29565339D01*
X18444195Y-29617543D01*
X18460151Y-29651762D01*
X18460154Y-29651767D01*
X18462477Y-29656749D01*
X18593802Y-29844300D01*
X18755700Y-30006198D01*
X18760208Y-30009355D01*
X18760211Y-30009357D01*
X18801542Y-30038297D01*
X18943251Y-30137523D01*
X18948233Y-30139846D01*
X18948238Y-30139849D01*
X19144765Y-30231490D01*
X19150757Y-30234284D01*
X19156065Y-30235706D01*
X19156067Y-30235707D01*
X19366598Y-30292119D01*
X19366600Y-30292119D01*
X19371913Y-30293543D01*
X19600000Y-30313498D01*
X19828087Y-30293543D01*
X19833400Y-30292119D01*
X19833402Y-30292119D01*
X20043933Y-30235707D01*
X20043935Y-30235706D01*
X20049243Y-30234284D01*
X20055235Y-30231490D01*
X20251762Y-30139849D01*
X20251767Y-30139846D01*
X20256749Y-30137523D01*
X20398458Y-30038297D01*
X20439789Y-30009357D01*
X20439792Y-30009355D01*
X20444300Y-30006198D01*
X20606198Y-29844300D01*
X20737523Y-29656749D01*
X20739846Y-29651767D01*
X20739849Y-29651762D01*
X20755805Y-29617543D01*
X20802722Y-29564258D01*
X20870999Y-29544797D01*
X20938959Y-29565339D01*
X20984195Y-29617543D01*
X21000151Y-29651762D01*
X21000154Y-29651767D01*
X21002477Y-29656749D01*
X21133802Y-29844300D01*
X21295700Y-30006198D01*
X21300208Y-30009355D01*
X21300211Y-30009357D01*
X21341542Y-30038297D01*
X21483251Y-30137523D01*
X21488233Y-30139846D01*
X21488238Y-30139849D01*
X21684765Y-30231490D01*
X21690757Y-30234284D01*
X21696065Y-30235706D01*
X21696067Y-30235707D01*
X21906598Y-30292119D01*
X21906600Y-30292119D01*
X21911913Y-30293543D01*
X22140000Y-30313498D01*
X22368087Y-30293543D01*
X22373400Y-30292119D01*
X22373402Y-30292119D01*
X22583933Y-30235707D01*
X22583935Y-30235706D01*
X22589243Y-30234284D01*
X22595235Y-30231490D01*
X22791762Y-30139849D01*
X22791767Y-30139846D01*
X22796749Y-30137523D01*
X22938458Y-30038297D01*
X22979789Y-30009357D01*
X22979792Y-30009355D01*
X22984300Y-30006198D01*
X23146198Y-29844300D01*
X23277523Y-29656749D01*
X23279846Y-29651767D01*
X23279849Y-29651762D01*
X23295805Y-29617543D01*
X23342722Y-29564258D01*
X23410999Y-29544797D01*
X23478959Y-29565339D01*
X23524195Y-29617543D01*
X23540151Y-29651762D01*
X23540154Y-29651767D01*
X23542477Y-29656749D01*
X23673802Y-29844300D01*
X23835700Y-30006198D01*
X23840208Y-30009355D01*
X23840211Y-30009357D01*
X23881542Y-30038297D01*
X24023251Y-30137523D01*
X24028233Y-30139846D01*
X24028238Y-30139849D01*
X24224765Y-30231490D01*
X24230757Y-30234284D01*
X24236065Y-30235706D01*
X24236067Y-30235707D01*
X24446598Y-30292119D01*
X24446600Y-30292119D01*
X24451913Y-30293543D01*
X24680000Y-30313498D01*
X24908087Y-30293543D01*
X24913400Y-30292119D01*
X24913402Y-30292119D01*
X25123933Y-30235707D01*
X25123935Y-30235706D01*
X25129243Y-30234284D01*
X25135235Y-30231490D01*
X25331762Y-30139849D01*
X25331767Y-30139846D01*
X25336749Y-30137523D01*
X25478458Y-30038297D01*
X25519789Y-30009357D01*
X25519792Y-30009355D01*
X25524300Y-30006198D01*
X25686198Y-29844300D01*
X25817523Y-29656749D01*
X25819846Y-29651767D01*
X25819849Y-29651762D01*
X25835805Y-29617543D01*
X25882722Y-29564258D01*
X25950999Y-29544797D01*
X26018959Y-29565339D01*
X26064195Y-29617543D01*
X26080151Y-29651762D01*
X26080154Y-29651767D01*
X26082477Y-29656749D01*
X26213802Y-29844300D01*
X26375700Y-30006198D01*
X26380208Y-30009355D01*
X26380211Y-30009357D01*
X26421542Y-30038297D01*
X26563251Y-30137523D01*
X26568233Y-30139846D01*
X26568238Y-30139849D01*
X26764765Y-30231490D01*
X26770757Y-30234284D01*
X26776065Y-30235706D01*
X26776067Y-30235707D01*
X26986598Y-30292119D01*
X26986600Y-30292119D01*
X26991913Y-30293543D01*
X27220000Y-30313498D01*
X27448087Y-30293543D01*
X27453400Y-30292119D01*
X27453402Y-30292119D01*
X27663933Y-30235707D01*
X27663935Y-30235706D01*
X27669243Y-30234284D01*
X27675235Y-30231490D01*
X27871762Y-30139849D01*
X27871767Y-30139846D01*
X27876749Y-30137523D01*
X28018458Y-30038297D01*
X28059789Y-30009357D01*
X28059792Y-30009355D01*
X28064300Y-30006198D01*
X28226198Y-29844300D01*
X28357523Y-29656749D01*
X28359846Y-29651767D01*
X28359849Y-29651762D01*
X28375805Y-29617543D01*
X28422722Y-29564258D01*
X28490999Y-29544797D01*
X28558959Y-29565339D01*
X28604195Y-29617543D01*
X28620151Y-29651762D01*
X28620154Y-29651767D01*
X28622477Y-29656749D01*
X28753802Y-29844300D01*
X28915700Y-30006198D01*
X28920208Y-30009355D01*
X28920211Y-30009357D01*
X28961542Y-30038297D01*
X29103251Y-30137523D01*
X29108233Y-30139846D01*
X29108238Y-30139849D01*
X29304765Y-30231490D01*
X29310757Y-30234284D01*
X29316065Y-30235706D01*
X29316067Y-30235707D01*
X29526598Y-30292119D01*
X29526600Y-30292119D01*
X29531913Y-30293543D01*
X29760000Y-30313498D01*
X29765475Y-30313019D01*
X29765476Y-30313019D01*
X29955425Y-30296401D01*
X30025029Y-30310390D01*
X30055501Y-30332827D01*
X32195255Y-32472581D01*
X32207641Y-32486993D01*
X32219900Y-32503651D01*
X32225483Y-32508394D01*
X32258713Y-32536625D01*
X32266229Y-32543555D01*
X32271620Y-32548946D01*
X32293124Y-32565959D01*
X32296510Y-32568736D01*
X32344667Y-32609649D01*
X32344672Y-32609653D01*
X32350251Y-32614392D01*
X32356773Y-32617722D01*
X32361451Y-32620842D01*
X32366205Y-32623778D01*
X32371943Y-32628318D01*
X32378570Y-32631415D01*
X32378571Y-32631416D01*
X32435854Y-32658189D01*
X32439761Y-32660099D01*
X32502582Y-32692176D01*
X32509694Y-32693916D01*
X32514980Y-32695882D01*
X32520265Y-32697640D01*
X32526895Y-32700739D01*
X32595963Y-32715105D01*
X32600247Y-32716075D01*
X32668721Y-32732830D01*
X32674323Y-32733178D01*
X32674326Y-32733178D01*
X32679520Y-32733500D01*
X32679519Y-32733524D01*
X32683935Y-32733788D01*
X32687184Y-32734078D01*
X32694352Y-32735569D01*
X32769140Y-32733546D01*
X32772546Y-32733500D01*
X46684834Y-32733500D01*
X46703784Y-32734933D01*
X46716993Y-32736943D01*
X46716997Y-32736943D01*
X46724227Y-32738043D01*
X46731519Y-32737450D01*
X46731522Y-32737450D01*
X46774979Y-32733915D01*
X46785194Y-32733500D01*
X46792826Y-32733500D01*
X46796445Y-32733078D01*
X46796464Y-32733077D01*
X46820069Y-32730325D01*
X46824435Y-32729893D01*
X46851754Y-32727671D01*
X46887404Y-32724771D01*
X46887406Y-32724771D01*
X46894704Y-32724177D01*
X46901673Y-32721919D01*
X46907193Y-32720816D01*
X46912618Y-32719534D01*
X46919890Y-32718686D01*
X46986210Y-32694613D01*
X46990356Y-32693190D01*
X47050458Y-32673720D01*
X47050462Y-32673718D01*
X47057420Y-32671464D01*
X47063672Y-32667670D01*
X47068788Y-32665328D01*
X47073789Y-32662824D01*
X47080667Y-32660327D01*
X47086784Y-32656317D01*
X47086789Y-32656314D01*
X47139654Y-32621653D01*
X47143376Y-32619305D01*
X47198848Y-32585644D01*
X47198849Y-32585643D01*
X47203645Y-32582733D01*
X47211755Y-32575571D01*
X47211770Y-32575588D01*
X47215080Y-32572654D01*
X47217587Y-32570558D01*
X47223706Y-32566546D01*
X47275166Y-32512224D01*
X47277544Y-32509782D01*
X50268921Y-29518405D01*
X50331233Y-29484379D01*
X50358016Y-29481500D01*
X90682834Y-29481500D01*
X90701784Y-29482933D01*
X90714993Y-29484943D01*
X90714997Y-29484943D01*
X90722227Y-29486043D01*
X90729519Y-29485450D01*
X90729522Y-29485450D01*
X90772979Y-29481915D01*
X90783194Y-29481500D01*
X90790826Y-29481500D01*
X90794445Y-29481078D01*
X90794464Y-29481077D01*
X90818069Y-29478325D01*
X90822435Y-29477893D01*
X90849754Y-29475671D01*
X90885404Y-29472771D01*
X90885406Y-29472771D01*
X90892704Y-29472177D01*
X90899673Y-29469919D01*
X90905193Y-29468816D01*
X90910618Y-29467534D01*
X90917890Y-29466686D01*
X90984210Y-29442613D01*
X90988356Y-29441190D01*
X91048458Y-29421720D01*
X91048462Y-29421718D01*
X91055420Y-29419464D01*
X91061672Y-29415670D01*
X91066788Y-29413328D01*
X91071789Y-29410824D01*
X91078667Y-29408327D01*
X91084784Y-29404317D01*
X91084789Y-29404314D01*
X91137654Y-29369653D01*
X91141376Y-29367305D01*
X91196848Y-29333644D01*
X91196849Y-29333643D01*
X91201645Y-29330733D01*
X91209755Y-29323571D01*
X91209770Y-29323588D01*
X91213079Y-29320655D01*
X91215587Y-29318558D01*
X91221706Y-29314546D01*
X91273132Y-29260260D01*
X91275507Y-29257819D01*
X92218580Y-28314745D01*
X92232994Y-28302358D01*
X92243752Y-28294441D01*
X92249651Y-28290100D01*
X92282631Y-28251280D01*
X92289561Y-28243764D01*
X92294945Y-28238380D01*
X92297208Y-28235519D01*
X92297213Y-28235514D01*
X92311932Y-28216909D01*
X92314721Y-28213507D01*
X92355653Y-28165328D01*
X92355656Y-28165324D01*
X92360392Y-28159749D01*
X92363722Y-28153227D01*
X92366831Y-28148565D01*
X92369773Y-28143801D01*
X92374318Y-28138057D01*
X92404186Y-28074151D01*
X92406110Y-28070216D01*
X92414326Y-28054127D01*
X92438176Y-28007418D01*
X92439916Y-28000308D01*
X92441867Y-27995061D01*
X92443638Y-27989737D01*
X92446738Y-27983105D01*
X92461102Y-27914049D01*
X92462072Y-27909764D01*
X92473643Y-27862477D01*
X92478830Y-27841279D01*
X92479500Y-27830480D01*
X92479524Y-27830481D01*
X92479788Y-27826066D01*
X92480078Y-27822816D01*
X92481569Y-27815648D01*
X92479546Y-27740877D01*
X92479500Y-27737469D01*
X92479500Y-22642737D01*
X92499502Y-22574616D01*
X92539665Y-22535305D01*
X92635193Y-22476765D01*
X92635203Y-22476758D01*
X92639416Y-22474176D01*
X92819969Y-22319969D01*
X92888349Y-22239907D01*
X92970963Y-22143178D01*
X92974176Y-22139416D01*
X93021030Y-22062958D01*
X93032853Y-22043665D01*
X93085500Y-21996033D01*
X93140285Y-21983500D01*
X96859715Y-21983500D01*
X96927836Y-22003502D01*
X96967147Y-22043665D01*
X96978970Y-22062958D01*
X97025824Y-22139416D01*
X97029037Y-22143178D01*
X97111652Y-22239907D01*
X97180031Y-22319969D01*
X97360584Y-22474176D01*
X97364792Y-22476755D01*
X97364798Y-22476759D01*
X97555606Y-22593686D01*
X97563037Y-22598240D01*
X97567607Y-22600133D01*
X97567611Y-22600135D01*
X97768763Y-22683454D01*
X97782406Y-22689105D01*
X97862609Y-22708360D01*
X98008476Y-22743380D01*
X98008482Y-22743381D01*
X98013289Y-22744535D01*
X98250000Y-22763165D01*
X98486711Y-22744535D01*
X98491518Y-22743381D01*
X98491524Y-22743380D01*
X98637391Y-22708360D01*
X98717594Y-22689105D01*
X98731237Y-22683454D01*
X98932389Y-22600135D01*
X98932393Y-22600133D01*
X98936963Y-22598240D01*
X98944394Y-22593686D01*
X99135202Y-22476759D01*
X99135208Y-22476755D01*
X99139416Y-22474176D01*
X99284169Y-22350545D01*
X99348959Y-22321514D01*
X99419159Y-22332119D01*
X99472482Y-22378994D01*
X99492000Y-22446356D01*
X99492000Y-32360319D01*
X99471998Y-32428440D01*
X99418342Y-32474933D01*
X99348068Y-32485037D01*
X99283488Y-32455543D01*
X99272364Y-32444630D01*
X99101566Y-32254940D01*
X99098629Y-32251678D01*
X98883450Y-32071121D01*
X98645236Y-31922269D01*
X98388625Y-31808018D01*
X98118610Y-31730593D01*
X98114260Y-31729982D01*
X98114257Y-31729981D01*
X98011310Y-31715513D01*
X97840448Y-31691500D01*
X97629854Y-31691500D01*
X97627668Y-31691653D01*
X97627664Y-31691653D01*
X97424173Y-31705882D01*
X97424168Y-31705883D01*
X97419788Y-31706189D01*
X97145030Y-31764591D01*
X97140901Y-31766094D01*
X97140897Y-31766095D01*
X96885219Y-31859154D01*
X96885215Y-31859156D01*
X96881074Y-31860663D01*
X96633058Y-31992536D01*
X96629499Y-31995122D01*
X96629497Y-31995123D01*
X96524895Y-32071121D01*
X96405808Y-32157642D01*
X96203748Y-32352769D01*
X96030812Y-32574118D01*
X96028616Y-32577922D01*
X96028611Y-32577929D01*
X95937598Y-32735569D01*
X95890364Y-32817381D01*
X95785138Y-33077824D01*
X95784073Y-33082097D01*
X95784072Y-33082099D01*
X95750379Y-33217236D01*
X95717183Y-33350376D01*
X95687822Y-33629733D01*
X95697625Y-33910458D01*
X95698387Y-33914781D01*
X95698388Y-33914788D01*
X95722164Y-34049624D01*
X95746402Y-34187087D01*
X95833203Y-34454235D01*
X95956340Y-34706702D01*
X95958795Y-34710341D01*
X95958798Y-34710347D01*
X96031890Y-34818710D01*
X96113415Y-34939576D01*
X96116360Y-34942847D01*
X96116361Y-34942848D01*
X96177169Y-35010382D01*
X96301371Y-35148322D01*
X96304733Y-35151143D01*
X96304734Y-35151144D01*
X96445759Y-35269478D01*
X96485086Y-35328588D01*
X96486212Y-35399576D01*
X96448781Y-35459903D01*
X96384676Y-35490417D01*
X96364768Y-35492000D01*
X79038377Y-35492000D01*
X78970256Y-35471998D01*
X78923763Y-35418342D01*
X78913659Y-35348068D01*
X78943153Y-35283488D01*
X78964316Y-35264064D01*
X78990629Y-35244947D01*
X78990632Y-35244944D01*
X78994192Y-35242358D01*
X79196252Y-35047231D01*
X79369188Y-34825882D01*
X79371384Y-34822078D01*
X79371389Y-34822071D01*
X79507435Y-34586431D01*
X79509636Y-34582619D01*
X79614862Y-34322176D01*
X79648544Y-34187087D01*
X79681753Y-34053893D01*
X79681754Y-34053888D01*
X79682817Y-34049624D01*
X79712178Y-33770267D01*
X79702375Y-33489542D01*
X79678608Y-33354749D01*
X79654360Y-33217236D01*
X79653598Y-33212913D01*
X79566797Y-32945765D01*
X79443660Y-32693298D01*
X79441205Y-32689659D01*
X79441202Y-32689653D01*
X79347825Y-32551217D01*
X79286585Y-32460424D01*
X79279557Y-32452618D01*
X79101566Y-32254940D01*
X79098629Y-32251678D01*
X78883450Y-32071121D01*
X78645236Y-31922269D01*
X78388625Y-31808018D01*
X78118610Y-31730593D01*
X78114260Y-31729982D01*
X78114257Y-31729981D01*
X78011310Y-31715513D01*
X77840448Y-31691500D01*
X77629854Y-31691500D01*
X77627668Y-31691653D01*
X77627664Y-31691653D01*
X77424173Y-31705882D01*
X77424168Y-31705883D01*
X77419788Y-31706189D01*
X77145030Y-31764591D01*
X77140901Y-31766094D01*
X77140897Y-31766095D01*
X76885219Y-31859154D01*
X76885215Y-31859156D01*
X76881074Y-31860663D01*
X76633058Y-31992536D01*
X76629499Y-31995122D01*
X76629497Y-31995123D01*
X76524895Y-32071121D01*
X76405808Y-32157642D01*
X76203748Y-32352769D01*
X76030812Y-32574118D01*
X76028616Y-32577922D01*
X76028611Y-32577929D01*
X75937598Y-32735569D01*
X75890364Y-32817381D01*
X75785138Y-33077824D01*
X75784073Y-33082097D01*
X75784072Y-33082099D01*
X75750379Y-33217236D01*
X75717183Y-33350376D01*
X75687822Y-33629733D01*
X75697625Y-33910458D01*
X75698387Y-33914781D01*
X75698388Y-33914788D01*
X75722164Y-34049624D01*
X75746402Y-34187087D01*
X75833203Y-34454235D01*
X75956340Y-34706702D01*
X75958795Y-34710341D01*
X75958798Y-34710347D01*
X76031890Y-34818710D01*
X76113415Y-34939576D01*
X76116360Y-34942847D01*
X76116361Y-34942848D01*
X76177169Y-35010382D01*
X76301371Y-35148322D01*
X76304733Y-35151143D01*
X76304734Y-35151144D01*
X76445759Y-35269478D01*
X76485086Y-35328588D01*
X76486212Y-35399576D01*
X76448781Y-35459903D01*
X76384676Y-35490417D01*
X76364768Y-35492000D01*
X3638377Y-35492000D01*
X3570256Y-35471998D01*
X3523763Y-35418342D01*
X3513659Y-35348068D01*
X3543153Y-35283488D01*
X3564316Y-35264064D01*
X3590629Y-35244947D01*
X3590632Y-35244944D01*
X3594192Y-35242358D01*
X3796252Y-35047231D01*
X3969188Y-34825882D01*
X3971384Y-34822078D01*
X3971389Y-34822071D01*
X4107435Y-34586431D01*
X4109636Y-34582619D01*
X4214862Y-34322176D01*
X4248544Y-34187087D01*
X4281753Y-34053893D01*
X4281754Y-34053888D01*
X4282817Y-34049624D01*
X4312178Y-33770267D01*
X4302375Y-33489542D01*
X4278608Y-33354749D01*
X4254360Y-33217236D01*
X4253598Y-33212913D01*
X4166797Y-32945765D01*
X4043660Y-32693298D01*
X4041205Y-32689659D01*
X4041202Y-32689653D01*
X3947825Y-32551217D01*
X3886585Y-32460424D01*
X3879557Y-32452618D01*
X3701566Y-32254940D01*
X3698629Y-32251678D01*
X3483450Y-32071121D01*
X3245236Y-31922269D01*
X2988625Y-31808018D01*
X2718610Y-31730593D01*
X2714260Y-31729982D01*
X2714257Y-31729981D01*
X2611310Y-31715513D01*
X2440448Y-31691500D01*
X2229854Y-31691500D01*
X2227668Y-31691653D01*
X2227664Y-31691653D01*
X2024173Y-31705882D01*
X2024168Y-31705883D01*
X2019788Y-31706189D01*
X1745030Y-31764591D01*
X1740901Y-31766094D01*
X1740897Y-31766095D01*
X1485219Y-31859154D01*
X1485215Y-31859156D01*
X1481074Y-31860663D01*
X1233058Y-31992536D01*
X1229499Y-31995122D01*
X1229497Y-31995123D01*
X1124895Y-32071121D01*
X1005808Y-32157642D01*
X803748Y-32352769D01*
X774959Y-32389618D01*
X733290Y-32442952D01*
X675589Y-32484318D01*
X604684Y-32487921D01*
X543086Y-32452618D01*
X510353Y-32389618D01*
X508000Y-32365379D01*
X508000Y-24453000D01*
X8365810Y-24453000D01*
X30634191Y-24453000D01*
X30634191Y-16547000D01*
X8365810Y-16547000D01*
X8365810Y-24453000D01*
X508000Y-24453000D01*
X508000Y-13760000D01*
X8126502Y-13760000D01*
X8146457Y-13988087D01*
X8147881Y-13993400D01*
X8147881Y-13993402D01*
X8203631Y-14201460D01*
X8205716Y-14209243D01*
X8208039Y-14214224D01*
X8208039Y-14214225D01*
X8300151Y-14411762D01*
X8300154Y-14411767D01*
X8302477Y-14416749D01*
X8305634Y-14421257D01*
X8412691Y-14574150D01*
X8433802Y-14604300D01*
X8595700Y-14766198D01*
X8600208Y-14769355D01*
X8600211Y-14769357D01*
X8662497Y-14812970D01*
X8783251Y-14897523D01*
X8788233Y-14899846D01*
X8788238Y-14899849D01*
X8984765Y-14991490D01*
X8990757Y-14994284D01*
X8996065Y-14995706D01*
X8996067Y-14995707D01*
X9206598Y-15052119D01*
X9206600Y-15052119D01*
X9211913Y-15053543D01*
X9440000Y-15073498D01*
X9668087Y-15053543D01*
X9673400Y-15052119D01*
X9673402Y-15052119D01*
X9883933Y-14995707D01*
X9883935Y-14995706D01*
X9889243Y-14994284D01*
X9895235Y-14991490D01*
X10091762Y-14899849D01*
X10091767Y-14899846D01*
X10096749Y-14897523D01*
X10217503Y-14812970D01*
X10279789Y-14769357D01*
X10279792Y-14769355D01*
X10284300Y-14766198D01*
X10446198Y-14604300D01*
X10467310Y-14574150D01*
X10574366Y-14421257D01*
X10577523Y-14416749D01*
X10579846Y-14411767D01*
X10579849Y-14411762D01*
X10595805Y-14377543D01*
X10642722Y-14324258D01*
X10710999Y-14304797D01*
X10778959Y-14325339D01*
X10824195Y-14377543D01*
X10840151Y-14411762D01*
X10840154Y-14411767D01*
X10842477Y-14416749D01*
X10845634Y-14421257D01*
X10952691Y-14574150D01*
X10973802Y-14604300D01*
X11135700Y-14766198D01*
X11140208Y-14769355D01*
X11140211Y-14769357D01*
X11202497Y-14812970D01*
X11323251Y-14897523D01*
X11328233Y-14899846D01*
X11328238Y-14899849D01*
X11524765Y-14991490D01*
X11530757Y-14994284D01*
X11536065Y-14995706D01*
X11536067Y-14995707D01*
X11746598Y-15052119D01*
X11746600Y-15052119D01*
X11751913Y-15053543D01*
X11980000Y-15073498D01*
X12208087Y-15053543D01*
X12213400Y-15052119D01*
X12213402Y-15052119D01*
X12423933Y-14995707D01*
X12423935Y-14995706D01*
X12429243Y-14994284D01*
X12435235Y-14991490D01*
X12631762Y-14899849D01*
X12631767Y-14899846D01*
X12636749Y-14897523D01*
X12757503Y-14812970D01*
X12819789Y-14769357D01*
X12819792Y-14769355D01*
X12824300Y-14766198D01*
X12986198Y-14604300D01*
X13007310Y-14574150D01*
X13114366Y-14421257D01*
X13117523Y-14416749D01*
X13119846Y-14411767D01*
X13119849Y-14411762D01*
X13135805Y-14377543D01*
X13182722Y-14324258D01*
X13250999Y-14304797D01*
X13318959Y-14325339D01*
X13364195Y-14377543D01*
X13380151Y-14411762D01*
X13380154Y-14411767D01*
X13382477Y-14416749D01*
X13385634Y-14421257D01*
X13492691Y-14574150D01*
X13513802Y-14604300D01*
X13675700Y-14766198D01*
X13680208Y-14769355D01*
X13680211Y-14769357D01*
X13742497Y-14812970D01*
X13863251Y-14897523D01*
X13868233Y-14899846D01*
X13868238Y-14899849D01*
X14064765Y-14991490D01*
X14070757Y-14994284D01*
X14076065Y-14995706D01*
X14076067Y-14995707D01*
X14286598Y-15052119D01*
X14286600Y-15052119D01*
X14291913Y-15053543D01*
X14520000Y-15073498D01*
X14748087Y-15053543D01*
X14753400Y-15052119D01*
X14753402Y-15052119D01*
X14963933Y-14995707D01*
X14963935Y-14995706D01*
X14969243Y-14994284D01*
X14975235Y-14991490D01*
X15171762Y-14899849D01*
X15171767Y-14899846D01*
X15176749Y-14897523D01*
X15297503Y-14812970D01*
X15359789Y-14769357D01*
X15359792Y-14769355D01*
X15364300Y-14766198D01*
X15526198Y-14604300D01*
X15547310Y-14574150D01*
X15654366Y-14421257D01*
X15657523Y-14416749D01*
X15659846Y-14411767D01*
X15659849Y-14411762D01*
X15675805Y-14377543D01*
X15722722Y-14324258D01*
X15790999Y-14304797D01*
X15858959Y-14325339D01*
X15904195Y-14377543D01*
X15920151Y-14411762D01*
X15920154Y-14411767D01*
X15922477Y-14416749D01*
X15925634Y-14421257D01*
X16032691Y-14574150D01*
X16053802Y-14604300D01*
X16215700Y-14766198D01*
X16220208Y-14769355D01*
X16220211Y-14769357D01*
X16282497Y-14812970D01*
X16403251Y-14897523D01*
X16408233Y-14899846D01*
X16408238Y-14899849D01*
X16604765Y-14991490D01*
X16610757Y-14994284D01*
X16616065Y-14995706D01*
X16616067Y-14995707D01*
X16826598Y-15052119D01*
X16826600Y-15052119D01*
X16831913Y-15053543D01*
X17060000Y-15073498D01*
X17288087Y-15053543D01*
X17293400Y-15052119D01*
X17293402Y-15052119D01*
X17503933Y-14995707D01*
X17503935Y-14995706D01*
X17509243Y-14994284D01*
X17515235Y-14991490D01*
X17711762Y-14899849D01*
X17711767Y-14899846D01*
X17716749Y-14897523D01*
X17837503Y-14812970D01*
X17899789Y-14769357D01*
X17899792Y-14769355D01*
X17904300Y-14766198D01*
X18066198Y-14604300D01*
X18087310Y-14574150D01*
X18194366Y-14421257D01*
X18197523Y-14416749D01*
X18199846Y-14411767D01*
X18199849Y-14411762D01*
X18215805Y-14377543D01*
X18262722Y-14324258D01*
X18330999Y-14304797D01*
X18398959Y-14325339D01*
X18444195Y-14377543D01*
X18460151Y-14411762D01*
X18460154Y-14411767D01*
X18462477Y-14416749D01*
X18465634Y-14421257D01*
X18572691Y-14574150D01*
X18593802Y-14604300D01*
X18755700Y-14766198D01*
X18760208Y-14769355D01*
X18760211Y-14769357D01*
X18822497Y-14812970D01*
X18943251Y-14897523D01*
X18948233Y-14899846D01*
X18948238Y-14899849D01*
X19144765Y-14991490D01*
X19150757Y-14994284D01*
X19156065Y-14995706D01*
X19156067Y-14995707D01*
X19366598Y-15052119D01*
X19366600Y-15052119D01*
X19371913Y-15053543D01*
X19600000Y-15073498D01*
X19828087Y-15053543D01*
X19833400Y-15052119D01*
X19833402Y-15052119D01*
X20043933Y-14995707D01*
X20043935Y-14995706D01*
X20049243Y-14994284D01*
X20055235Y-14991490D01*
X20251762Y-14899849D01*
X20251767Y-14899846D01*
X20256749Y-14897523D01*
X20377503Y-14812970D01*
X20439789Y-14769357D01*
X20439792Y-14769355D01*
X20444300Y-14766198D01*
X20606198Y-14604300D01*
X20627310Y-14574150D01*
X20734366Y-14421257D01*
X20737523Y-14416749D01*
X20739846Y-14411767D01*
X20739849Y-14411762D01*
X20755805Y-14377543D01*
X20802722Y-14324258D01*
X20870999Y-14304797D01*
X20938959Y-14325339D01*
X20984195Y-14377543D01*
X21000151Y-14411762D01*
X21000154Y-14411767D01*
X21002477Y-14416749D01*
X21005634Y-14421257D01*
X21112691Y-14574150D01*
X21133802Y-14604300D01*
X21295700Y-14766198D01*
X21300208Y-14769355D01*
X21300211Y-14769357D01*
X21362497Y-14812970D01*
X21483251Y-14897523D01*
X21488233Y-14899846D01*
X21488238Y-14899849D01*
X21684765Y-14991490D01*
X21690757Y-14994284D01*
X21696065Y-14995706D01*
X21696067Y-14995707D01*
X21906598Y-15052119D01*
X21906600Y-15052119D01*
X21911913Y-15053543D01*
X22140000Y-15073498D01*
X22368087Y-15053543D01*
X22373400Y-15052119D01*
X22373402Y-15052119D01*
X22583933Y-14995707D01*
X22583935Y-14995706D01*
X22589243Y-14994284D01*
X22595235Y-14991490D01*
X22791762Y-14899849D01*
X22791767Y-14899846D01*
X22796749Y-14897523D01*
X22917503Y-14812970D01*
X22979789Y-14769357D01*
X22979792Y-14769355D01*
X22984300Y-14766198D01*
X23146198Y-14604300D01*
X23167310Y-14574150D01*
X23274366Y-14421257D01*
X23277523Y-14416749D01*
X23279846Y-14411767D01*
X23279849Y-14411762D01*
X23295805Y-14377543D01*
X23342722Y-14324258D01*
X23410999Y-14304797D01*
X23478959Y-14325339D01*
X23524195Y-14377543D01*
X23540151Y-14411762D01*
X23540154Y-14411767D01*
X23542477Y-14416749D01*
X23545634Y-14421257D01*
X23652691Y-14574150D01*
X23673802Y-14604300D01*
X23835700Y-14766198D01*
X23840208Y-14769355D01*
X23840211Y-14769357D01*
X23902497Y-14812970D01*
X24023251Y-14897523D01*
X24028233Y-14899846D01*
X24028238Y-14899849D01*
X24224765Y-14991490D01*
X24230757Y-14994284D01*
X24236065Y-14995706D01*
X24236067Y-14995707D01*
X24446598Y-15052119D01*
X24446600Y-15052119D01*
X24451913Y-15053543D01*
X24680000Y-15073498D01*
X24908087Y-15053543D01*
X24913400Y-15052119D01*
X24913402Y-15052119D01*
X25123933Y-14995707D01*
X25123935Y-14995706D01*
X25129243Y-14994284D01*
X25135235Y-14991490D01*
X25331762Y-14899849D01*
X25331767Y-14899846D01*
X25336749Y-14897523D01*
X25457503Y-14812970D01*
X25519789Y-14769357D01*
X25519792Y-14769355D01*
X25524300Y-14766198D01*
X25686198Y-14604300D01*
X25707310Y-14574150D01*
X25814366Y-14421257D01*
X25817523Y-14416749D01*
X25819846Y-14411767D01*
X25819849Y-14411762D01*
X25835805Y-14377543D01*
X25882722Y-14324258D01*
X25950999Y-14304797D01*
X26018959Y-14325339D01*
X26064195Y-14377543D01*
X26080151Y-14411762D01*
X26080154Y-14411767D01*
X26082477Y-14416749D01*
X26085634Y-14421257D01*
X26192691Y-14574150D01*
X26213802Y-14604300D01*
X26375700Y-14766198D01*
X26380208Y-14769355D01*
X26380211Y-14769357D01*
X26442497Y-14812970D01*
X26563251Y-14897523D01*
X26568233Y-14899846D01*
X26568238Y-14899849D01*
X26764765Y-14991490D01*
X26770757Y-14994284D01*
X26776065Y-14995706D01*
X26776067Y-14995707D01*
X26986598Y-15052119D01*
X26986600Y-15052119D01*
X26991913Y-15053543D01*
X27220000Y-15073498D01*
X27448087Y-15053543D01*
X27453400Y-15052119D01*
X27453402Y-15052119D01*
X27663933Y-14995707D01*
X27663935Y-14995706D01*
X27669243Y-14994284D01*
X27675235Y-14991490D01*
X27871762Y-14899849D01*
X27871767Y-14899846D01*
X27876749Y-14897523D01*
X27997503Y-14812970D01*
X28059789Y-14769357D01*
X28059792Y-14769355D01*
X28064300Y-14766198D01*
X28226198Y-14604300D01*
X28247310Y-14574150D01*
X28354366Y-14421257D01*
X28357523Y-14416749D01*
X28359846Y-14411767D01*
X28359849Y-14411762D01*
X28375805Y-14377543D01*
X28422722Y-14324258D01*
X28490999Y-14304797D01*
X28558959Y-14325339D01*
X28604195Y-14377543D01*
X28620151Y-14411762D01*
X28620154Y-14411767D01*
X28622477Y-14416749D01*
X28625634Y-14421257D01*
X28732691Y-14574150D01*
X28753802Y-14604300D01*
X28915700Y-14766198D01*
X28920208Y-14769355D01*
X28920211Y-14769357D01*
X28982497Y-14812970D01*
X29103251Y-14897523D01*
X29108233Y-14899846D01*
X29108238Y-14899849D01*
X29304765Y-14991490D01*
X29310757Y-14994284D01*
X29316065Y-14995706D01*
X29316067Y-14995707D01*
X29526598Y-15052119D01*
X29526600Y-15052119D01*
X29531913Y-15053543D01*
X29760000Y-15073498D01*
X29988087Y-15053543D01*
X29993400Y-15052119D01*
X29993402Y-15052119D01*
X30203933Y-14995707D01*
X30203935Y-14995706D01*
X30209243Y-14994284D01*
X30215235Y-14991490D01*
X30411762Y-14899849D01*
X30411767Y-14899846D01*
X30416749Y-14897523D01*
X30537503Y-14812970D01*
X30599789Y-14769357D01*
X30599792Y-14769355D01*
X30604300Y-14766198D01*
X30766198Y-14604300D01*
X30787310Y-14574150D01*
X30894366Y-14421257D01*
X30897523Y-14416749D01*
X30899846Y-14411767D01*
X30899849Y-14411762D01*
X30915805Y-14377543D01*
X30962722Y-14324258D01*
X31030999Y-14304797D01*
X31098959Y-14325339D01*
X31144195Y-14377543D01*
X31160151Y-14411762D01*
X31160154Y-14411767D01*
X31162477Y-14416749D01*
X31165634Y-14421257D01*
X31272691Y-14574150D01*
X31293802Y-14604300D01*
X31455700Y-14766198D01*
X31460208Y-14769355D01*
X31460211Y-14769357D01*
X31522497Y-14812970D01*
X31643251Y-14897523D01*
X31648233Y-14899846D01*
X31648238Y-14899849D01*
X31844765Y-14991490D01*
X31850757Y-14994284D01*
X31856065Y-14995706D01*
X31856067Y-14995707D01*
X32066598Y-15052119D01*
X32066600Y-15052119D01*
X32071913Y-15053543D01*
X32300000Y-15073498D01*
X32528087Y-15053543D01*
X32533400Y-15052119D01*
X32533402Y-15052119D01*
X32743933Y-14995707D01*
X32743935Y-14995706D01*
X32749243Y-14994284D01*
X32755235Y-14991490D01*
X32951762Y-14899849D01*
X32951767Y-14899846D01*
X32956749Y-14897523D01*
X33077503Y-14812970D01*
X33139789Y-14769357D01*
X33139792Y-14769355D01*
X33144300Y-14766198D01*
X33306198Y-14604300D01*
X33327310Y-14574150D01*
X33434366Y-14421257D01*
X33437523Y-14416749D01*
X33439846Y-14411767D01*
X33439849Y-14411762D01*
X33455805Y-14377543D01*
X33502722Y-14324258D01*
X33570999Y-14304797D01*
X33638959Y-14325339D01*
X33684195Y-14377543D01*
X33700151Y-14411762D01*
X33700154Y-14411767D01*
X33702477Y-14416749D01*
X33705634Y-14421257D01*
X33812691Y-14574150D01*
X33833802Y-14604300D01*
X33995700Y-14766198D01*
X34000208Y-14769355D01*
X34000211Y-14769357D01*
X34062497Y-14812970D01*
X34183251Y-14897523D01*
X34188233Y-14899846D01*
X34188238Y-14899849D01*
X34384765Y-14991490D01*
X34390757Y-14994284D01*
X34396065Y-14995706D01*
X34396067Y-14995707D01*
X34606598Y-15052119D01*
X34606600Y-15052119D01*
X34611913Y-15053543D01*
X34840000Y-15073498D01*
X35068087Y-15053543D01*
X35073400Y-15052119D01*
X35073402Y-15052119D01*
X35283933Y-14995707D01*
X35283935Y-14995706D01*
X35289243Y-14994284D01*
X35295235Y-14991490D01*
X35491762Y-14899849D01*
X35491767Y-14899846D01*
X35496749Y-14897523D01*
X35617503Y-14812970D01*
X35679789Y-14769357D01*
X35679792Y-14769355D01*
X35684300Y-14766198D01*
X35846198Y-14604300D01*
X35867310Y-14574150D01*
X35974366Y-14421257D01*
X35977523Y-14416749D01*
X35979846Y-14411767D01*
X35979849Y-14411762D01*
X35995805Y-14377543D01*
X36042722Y-14324258D01*
X36110999Y-14304797D01*
X36178959Y-14325339D01*
X36224195Y-14377543D01*
X36240151Y-14411762D01*
X36240154Y-14411767D01*
X36242477Y-14416749D01*
X36245634Y-14421257D01*
X36352691Y-14574150D01*
X36373802Y-14604300D01*
X36535700Y-14766198D01*
X36540208Y-14769355D01*
X36540211Y-14769357D01*
X36602497Y-14812970D01*
X36723251Y-14897523D01*
X36728233Y-14899846D01*
X36728238Y-14899849D01*
X36924765Y-14991490D01*
X36930757Y-14994284D01*
X36936065Y-14995706D01*
X36936067Y-14995707D01*
X37146598Y-15052119D01*
X37146600Y-15052119D01*
X37151913Y-15053543D01*
X37380000Y-15073498D01*
X37608087Y-15053543D01*
X37613400Y-15052119D01*
X37613402Y-15052119D01*
X37823933Y-14995707D01*
X37823935Y-14995706D01*
X37829243Y-14994284D01*
X37835235Y-14991490D01*
X38031762Y-14899849D01*
X38031767Y-14899846D01*
X38036749Y-14897523D01*
X38157503Y-14812970D01*
X38219789Y-14769357D01*
X38219792Y-14769355D01*
X38224300Y-14766198D01*
X38386198Y-14604300D01*
X38407310Y-14574150D01*
X38514366Y-14421257D01*
X38517523Y-14416749D01*
X38519846Y-14411767D01*
X38519849Y-14411762D01*
X38535805Y-14377543D01*
X38582722Y-14324258D01*
X38650999Y-14304797D01*
X38718959Y-14325339D01*
X38764195Y-14377543D01*
X38780151Y-14411762D01*
X38780154Y-14411767D01*
X38782477Y-14416749D01*
X38785634Y-14421257D01*
X38892691Y-14574150D01*
X38913802Y-14604300D01*
X39075700Y-14766198D01*
X39080208Y-14769355D01*
X39080211Y-14769357D01*
X39142497Y-14812970D01*
X39263251Y-14897523D01*
X39268233Y-14899846D01*
X39268238Y-14899849D01*
X39464765Y-14991490D01*
X39470757Y-14994284D01*
X39476065Y-14995706D01*
X39476067Y-14995707D01*
X39686598Y-15052119D01*
X39686600Y-15052119D01*
X39691913Y-15053543D01*
X39920000Y-15073498D01*
X40148087Y-15053543D01*
X40153400Y-15052119D01*
X40153402Y-15052119D01*
X40363933Y-14995707D01*
X40363935Y-14995706D01*
X40369243Y-14994284D01*
X40375235Y-14991490D01*
X40571762Y-14899849D01*
X40571767Y-14899846D01*
X40576749Y-14897523D01*
X40697503Y-14812970D01*
X40759789Y-14769357D01*
X40759792Y-14769355D01*
X40764300Y-14766198D01*
X40926198Y-14604300D01*
X40947310Y-14574150D01*
X41054366Y-14421257D01*
X41057523Y-14416749D01*
X41059846Y-14411767D01*
X41059849Y-14411762D01*
X41076081Y-14376951D01*
X41122998Y-14323666D01*
X41191275Y-14304205D01*
X41259235Y-14324747D01*
X41304471Y-14376951D01*
X41320586Y-14411511D01*
X41326069Y-14421007D01*
X41451028Y-14599467D01*
X41458084Y-14607875D01*
X41612125Y-14761916D01*
X41620533Y-14768972D01*
X41798993Y-14893931D01*
X41808489Y-14899414D01*
X42005947Y-14991490D01*
X42016239Y-14995236D01*
X42188503Y-15041394D01*
X42202599Y-15041058D01*
X42206000Y-15033116D01*
X42206000Y-12492033D01*
X42202027Y-12478502D01*
X42193478Y-12477273D01*
X42016239Y-12524764D01*
X42005947Y-12528510D01*
X41808489Y-12620586D01*
X41798993Y-12626069D01*
X41620533Y-12751028D01*
X41612125Y-12758084D01*
X41458084Y-12912125D01*
X41451028Y-12920533D01*
X41326069Y-13098993D01*
X41320586Y-13108489D01*
X41304471Y-13143049D01*
X41257554Y-13196334D01*
X41189277Y-13215795D01*
X41121317Y-13195253D01*
X41076081Y-13143049D01*
X41059849Y-13108238D01*
X41059846Y-13108233D01*
X41057523Y-13103251D01*
X40926198Y-12915700D01*
X40764300Y-12753802D01*
X40759792Y-12750645D01*
X40759789Y-12750643D01*
X40653379Y-12676134D01*
X40576749Y-12622477D01*
X40571767Y-12620154D01*
X40571762Y-12620151D01*
X40374225Y-12528039D01*
X40374224Y-12528039D01*
X40369243Y-12525716D01*
X40363935Y-12524294D01*
X40363933Y-12524293D01*
X40153402Y-12467881D01*
X40153400Y-12467881D01*
X40148087Y-12466457D01*
X39920000Y-12446502D01*
X39691913Y-12466457D01*
X39686600Y-12467881D01*
X39686598Y-12467881D01*
X39476067Y-12524293D01*
X39476065Y-12524294D01*
X39470757Y-12525716D01*
X39465776Y-12528039D01*
X39465775Y-12528039D01*
X39268238Y-12620151D01*
X39268233Y-12620154D01*
X39263251Y-12622477D01*
X39186621Y-12676134D01*
X39080211Y-12750643D01*
X39080208Y-12750645D01*
X39075700Y-12753802D01*
X38913802Y-12915700D01*
X38782477Y-13103251D01*
X38780154Y-13108233D01*
X38780151Y-13108238D01*
X38764195Y-13142457D01*
X38717278Y-13195742D01*
X38649001Y-13215203D01*
X38581041Y-13194661D01*
X38535805Y-13142457D01*
X38519849Y-13108238D01*
X38519846Y-13108233D01*
X38517523Y-13103251D01*
X38386198Y-12915700D01*
X38224300Y-12753802D01*
X38219792Y-12750645D01*
X38219789Y-12750643D01*
X38167229Y-12713840D01*
X38122901Y-12658382D01*
X38113500Y-12610627D01*
X38113500Y-11695166D01*
X38114933Y-11676216D01*
X38116943Y-11663007D01*
X38116943Y-11663003D01*
X38118043Y-11655773D01*
X38113915Y-11605019D01*
X38113500Y-11594805D01*
X38113500Y-11587174D01*
X38110325Y-11559942D01*
X38109894Y-11555583D01*
X38108386Y-11537042D01*
X38104177Y-11485295D01*
X38101920Y-11478327D01*
X38100821Y-11472828D01*
X38099534Y-11467383D01*
X38098686Y-11460110D01*
X38074611Y-11393785D01*
X38073185Y-11389630D01*
X38053721Y-11329546D01*
X38053720Y-11329543D01*
X38051464Y-11322580D01*
X38047667Y-11316323D01*
X38045321Y-11311198D01*
X38042824Y-11306211D01*
X38040327Y-11299333D01*
X38036317Y-11293216D01*
X38036314Y-11293211D01*
X38001653Y-11240346D01*
X37999305Y-11236624D01*
X37965644Y-11181152D01*
X37965643Y-11181151D01*
X37962733Y-11176355D01*
X37955571Y-11168245D01*
X37955588Y-11168230D01*
X37952654Y-11164920D01*
X37950558Y-11162413D01*
X37946546Y-11156294D01*
X37892224Y-11104834D01*
X37889782Y-11102456D01*
X34373779Y-7586453D01*
X33635460Y-6848134D01*
X41691500Y-6848134D01*
X41698255Y-6910316D01*
X41749385Y-7046705D01*
X41836739Y-7163261D01*
X41843919Y-7168642D01*
X41941065Y-7241449D01*
X41983580Y-7298308D01*
X41991500Y-7342275D01*
X41991500Y-7475984D01*
X41991451Y-7479502D01*
X41988666Y-7579205D01*
X41989335Y-7584219D01*
X41999058Y-7657086D01*
X41999758Y-7663639D01*
X42006060Y-7741965D01*
X42013897Y-7773870D01*
X42016426Y-7787258D01*
X42020771Y-7819820D01*
X42022232Y-7824661D01*
X42022233Y-7824663D01*
X42043478Y-7895029D01*
X42045219Y-7901390D01*
X42063963Y-7977706D01*
X42065941Y-7982366D01*
X42076801Y-8007951D01*
X42081438Y-8020761D01*
X42090933Y-8052208D01*
X42093151Y-8056756D01*
X42093154Y-8056763D01*
X42125371Y-8122818D01*
X42128107Y-8128820D01*
X42145816Y-8170540D01*
X42158812Y-8201156D01*
X42174123Y-8225468D01*
X42176319Y-8228956D01*
X42182945Y-8240860D01*
X42197346Y-8270388D01*
X42200265Y-8274525D01*
X42200265Y-8274526D01*
X42242641Y-8334597D01*
X42246301Y-8340086D01*
X42274483Y-8384838D01*
X42288167Y-8406567D01*
X42291508Y-8410356D01*
X42291512Y-8410362D01*
X42309898Y-8431217D01*
X42318344Y-8441912D01*
X42337274Y-8468747D01*
X42339944Y-8471671D01*
X42349471Y-8482104D01*
X42356909Y-8490250D01*
X42396625Y-8529966D01*
X42402044Y-8535736D01*
X42445350Y-8584858D01*
X42445353Y-8584861D01*
X42448698Y-8588655D01*
X42452606Y-8591865D01*
X42452607Y-8591866D01*
X42480989Y-8615179D01*
X42490108Y-8623449D01*
X43454595Y-9587936D01*
X43488621Y-9650248D01*
X43491500Y-9677031D01*
X43491500Y-12643447D01*
X43471498Y-12711568D01*
X43417842Y-12758061D01*
X43347568Y-12768165D01*
X43293230Y-12746660D01*
X43121012Y-12626072D01*
X43111511Y-12620586D01*
X42914053Y-12528510D01*
X42903761Y-12524764D01*
X42731497Y-12478606D01*
X42717401Y-12478942D01*
X42714000Y-12486884D01*
X42714000Y-15027967D01*
X42717973Y-15041498D01*
X42726522Y-15042727D01*
X42903761Y-14995236D01*
X42914053Y-14991490D01*
X43111511Y-14899414D01*
X43121007Y-14893931D01*
X43299467Y-14768972D01*
X43307875Y-14761916D01*
X43461916Y-14607875D01*
X43468970Y-14599469D01*
X43506002Y-14546581D01*
X43561459Y-14502252D01*
X43632079Y-14494943D01*
X43695439Y-14526973D01*
X43715836Y-14551708D01*
X43784256Y-14660356D01*
X43788167Y-14666567D01*
X43791512Y-14670361D01*
X43945350Y-14844858D01*
X43945353Y-14844861D01*
X43948698Y-14848655D01*
X43952606Y-14851865D01*
X43952607Y-14851866D01*
X44127150Y-14995236D01*
X44136278Y-15002734D01*
X44346078Y-15124841D01*
X44350801Y-15126654D01*
X44567978Y-15210020D01*
X44567982Y-15210021D01*
X44572702Y-15211833D01*
X44577652Y-15212867D01*
X44577655Y-15212868D01*
X44805369Y-15260440D01*
X44805373Y-15260440D01*
X44810320Y-15261474D01*
X45052817Y-15272486D01*
X45057837Y-15271905D01*
X45057841Y-15271905D01*
X45288929Y-15245167D01*
X45288933Y-15245166D01*
X45293956Y-15244585D01*
X45298820Y-15243209D01*
X45298823Y-15243208D01*
X45522669Y-15179866D01*
X45522668Y-15179866D01*
X45527532Y-15178490D01*
X45532108Y-15176356D01*
X45532114Y-15176354D01*
X45742954Y-15078038D01*
X45742958Y-15078036D01*
X45747536Y-15075901D01*
X45775697Y-15056763D01*
X45838278Y-15014232D01*
X45948307Y-14939456D01*
X46124681Y-14772668D01*
X46148155Y-14741965D01*
X46269047Y-14583846D01*
X46269050Y-14583842D01*
X46272120Y-14579826D01*
X46275164Y-14574150D01*
X46384439Y-14370352D01*
X46386831Y-14365891D01*
X46465862Y-14136369D01*
X46492421Y-13982607D01*
X46506504Y-13901074D01*
X46506505Y-13901068D01*
X46507179Y-13897164D01*
X46507618Y-13887503D01*
X46508436Y-13869494D01*
X46508436Y-13869475D01*
X46508500Y-13868075D01*
X46508500Y-10884500D01*
X46528502Y-10816379D01*
X46582158Y-10769886D01*
X46634500Y-10758500D01*
X53975984Y-10758500D01*
X53979502Y-10758549D01*
X54074150Y-10761193D01*
X54074153Y-10761193D01*
X54079205Y-10761334D01*
X54157098Y-10750941D01*
X54163639Y-10750242D01*
X54192332Y-10747933D01*
X54236923Y-10744346D01*
X54236927Y-10744345D01*
X54241965Y-10743940D01*
X54273878Y-10736101D01*
X54287258Y-10733574D01*
X54319820Y-10729229D01*
X54324661Y-10727768D01*
X54324663Y-10727767D01*
X54395029Y-10706522D01*
X54401392Y-10704781D01*
X54436430Y-10696175D01*
X54477706Y-10686037D01*
X54507952Y-10673199D01*
X54520763Y-10668561D01*
X54552208Y-10659067D01*
X54556756Y-10656849D01*
X54556763Y-10656846D01*
X54622818Y-10624629D01*
X54628820Y-10621893D01*
X54694677Y-10593938D01*
X54701156Y-10591188D01*
X54728956Y-10573681D01*
X54740860Y-10567055D01*
X54770388Y-10552654D01*
X54834600Y-10507357D01*
X54840086Y-10503699D01*
X54902286Y-10464529D01*
X54902287Y-10464528D01*
X54906567Y-10461833D01*
X54910356Y-10458492D01*
X54910362Y-10458488D01*
X54931217Y-10440102D01*
X54941912Y-10431656D01*
X54945205Y-10429333D01*
X54968747Y-10412726D01*
X54990250Y-10393091D01*
X55029966Y-10353375D01*
X55035736Y-10347956D01*
X55084858Y-10304650D01*
X55084861Y-10304647D01*
X55088655Y-10301302D01*
X55105116Y-10281262D01*
X55115178Y-10269013D01*
X55123448Y-10259893D01*
X56549684Y-8833658D01*
X56552206Y-8831204D01*
X56597600Y-8788277D01*
X56624681Y-8762668D01*
X56672412Y-8700239D01*
X56676554Y-8695107D01*
X56724187Y-8639138D01*
X56724189Y-8639135D01*
X56727470Y-8635280D01*
X56730090Y-8630954D01*
X56730095Y-8630947D01*
X56744491Y-8607176D01*
X56752163Y-8595929D01*
X56772120Y-8569826D01*
X56809247Y-8500584D01*
X56812510Y-8494863D01*
X56850602Y-8431966D01*
X56850603Y-8431965D01*
X56853220Y-8427643D01*
X56865534Y-8397166D01*
X56871303Y-8384850D01*
X56886831Y-8355891D01*
X56912423Y-8281567D01*
X56914718Y-8275429D01*
X56942258Y-8207267D01*
X56942259Y-8207263D01*
X56944155Y-8202571D01*
X56951432Y-8170539D01*
X56955163Y-8157441D01*
X56965862Y-8126369D01*
X56979243Y-8048900D01*
X56980526Y-8042482D01*
X56985461Y-8020763D01*
X56997935Y-7965856D01*
X56999999Y-7933047D01*
X57001585Y-7919547D01*
X57007179Y-7887164D01*
X57008500Y-7858075D01*
X57008500Y-7801893D01*
X57008749Y-7793981D01*
X57012860Y-7728642D01*
X57013178Y-7723588D01*
X57009101Y-7682009D01*
X57008500Y-7669713D01*
X57008500Y-7342275D01*
X57028502Y-7274154D01*
X57058935Y-7241449D01*
X57156081Y-7168642D01*
X57163261Y-7163261D01*
X57250615Y-7046705D01*
X57301745Y-6910316D01*
X57308500Y-6848134D01*
X57308500Y-4151866D01*
X57301745Y-4089684D01*
X57250615Y-3953295D01*
X57163261Y-3836739D01*
X57046705Y-3749385D01*
X56910316Y-3698255D01*
X56848134Y-3691500D01*
X54151866Y-3691500D01*
X54089684Y-3698255D01*
X53953295Y-3749385D01*
X53836739Y-3836739D01*
X53749385Y-3953295D01*
X53698255Y-4089684D01*
X53691500Y-4151866D01*
X53691500Y-6848134D01*
X53698255Y-6910316D01*
X53749385Y-7046705D01*
X53754771Y-7053891D01*
X53821201Y-7142529D01*
X53846049Y-7209035D01*
X53830996Y-7278418D01*
X53809470Y-7307189D01*
X53412064Y-7704595D01*
X53349752Y-7738621D01*
X53322969Y-7741500D01*
X45927031Y-7741500D01*
X45858910Y-7721498D01*
X45837936Y-7704595D01*
X45288737Y-7155396D01*
X45254711Y-7093084D01*
X45259850Y-7022072D01*
X45298971Y-6917718D01*
X45298973Y-6917712D01*
X45301745Y-6910316D01*
X45308500Y-6848134D01*
X45308500Y-4151866D01*
X45301745Y-4089684D01*
X45250615Y-3953295D01*
X45163261Y-3836739D01*
X45046705Y-3749385D01*
X44910316Y-3698255D01*
X44848134Y-3691500D01*
X42151866Y-3691500D01*
X42089684Y-3698255D01*
X41953295Y-3749385D01*
X41836739Y-3836739D01*
X41749385Y-3953295D01*
X41698255Y-4089684D01*
X41691500Y-4151866D01*
X41691500Y-6848134D01*
X33635460Y-6848134D01*
X30854748Y-4067423D01*
X30842361Y-4053010D01*
X30834441Y-4042248D01*
X30830100Y-4036349D01*
X30791280Y-4003369D01*
X30783764Y-3996439D01*
X30778380Y-3991055D01*
X30775519Y-3988792D01*
X30775514Y-3988787D01*
X30756909Y-3974068D01*
X30753507Y-3971279D01*
X30705328Y-3930347D01*
X30705324Y-3930344D01*
X30699749Y-3925608D01*
X30693228Y-3922279D01*
X30688549Y-3919158D01*
X30683795Y-3916222D01*
X30678057Y-3911682D01*
X30614147Y-3881811D01*
X30610239Y-3879901D01*
X30547418Y-3847824D01*
X30540306Y-3846084D01*
X30535020Y-3844118D01*
X30529735Y-3842360D01*
X30523105Y-3839261D01*
X30454032Y-3824894D01*
X30449748Y-3823924D01*
X30381279Y-3807170D01*
X30375677Y-3806822D01*
X30375674Y-3806822D01*
X30370480Y-3806500D01*
X30370481Y-3806476D01*
X30366066Y-3806212D01*
X30362816Y-3805922D01*
X30355648Y-3804431D01*
X30289851Y-3806211D01*
X30280877Y-3806454D01*
X30277469Y-3806500D01*
X26212112Y-3806500D01*
X26143991Y-3786498D01*
X26106320Y-3748940D01*
X26082822Y-3712617D01*
X26082820Y-3712614D01*
X26080014Y-3708277D01*
X26076540Y-3704459D01*
X26076533Y-3704450D01*
X25932435Y-3546088D01*
X25901383Y-3482242D01*
X25909779Y-3411744D01*
X25954956Y-3356976D01*
X25981400Y-3343307D01*
X26088052Y-3303325D01*
X26103649Y-3294786D01*
X26205724Y-3218285D01*
X26218285Y-3205724D01*
X26294786Y-3103649D01*
X26303324Y-3088054D01*
X26348478Y-2967606D01*
X26352105Y-2952351D01*
X26357631Y-2901486D01*
X26358000Y-2894672D01*
X26358000Y-2272115D01*
X26353525Y-2256876D01*
X26352135Y-2255671D01*
X26344452Y-2254000D01*
X23660116Y-2254000D01*
X23644877Y-2258475D01*
X23643672Y-2259865D01*
X23642001Y-2267548D01*
X23642001Y-2894669D01*
X23642371Y-2901490D01*
X23647895Y-2952352D01*
X23651521Y-2967604D01*
X23696676Y-3088054D01*
X23705214Y-3103649D01*
X23781715Y-3205724D01*
X23794276Y-3218285D01*
X23896351Y-3294786D01*
X23911946Y-3303324D01*
X24020827Y-3344142D01*
X24077591Y-3386784D01*
X24102291Y-3453345D01*
X24087083Y-3522694D01*
X24067691Y-3549175D01*
X23944200Y-3678401D01*
X23940629Y-3682138D01*
X23937715Y-3686410D01*
X23937714Y-3686411D01*
X23857206Y-3804431D01*
X23814743Y-3866680D01*
X23774538Y-3953295D01*
X23723005Y-4064314D01*
X23720688Y-4069305D01*
X23660989Y-4284570D01*
X23637251Y-4506695D01*
X23650110Y-4729715D01*
X23651247Y-4734761D01*
X23651248Y-4734767D01*
X23675304Y-4841508D01*
X23699222Y-4947639D01*
X23783266Y-5154616D01*
X23804787Y-5189735D01*
X23861527Y-5282326D01*
X23899987Y-5345088D01*
X24046250Y-5513938D01*
X24218126Y-5656632D01*
X24288595Y-5697811D01*
X24291445Y-5699476D01*
X24340169Y-5751114D01*
X24353240Y-5820897D01*
X24326509Y-5886669D01*
X24286055Y-5920027D01*
X24273607Y-5926507D01*
X24269474Y-5929610D01*
X24269471Y-5929612D01*
X24190306Y-5989051D01*
X24094965Y-6060635D01*
X23940629Y-6222138D01*
X23937715Y-6226410D01*
X23937714Y-6226411D01*
X23887696Y-6299735D01*
X23832785Y-6344738D01*
X23793823Y-6354316D01*
X23775295Y-6355823D01*
X23768331Y-6358079D01*
X23762835Y-6359177D01*
X23757382Y-6360466D01*
X23750110Y-6361314D01*
X23683798Y-6385384D01*
X23679667Y-6386802D01*
X23659894Y-6393208D01*
X23619538Y-6406281D01*
X23619534Y-6406283D01*
X23612579Y-6408536D01*
X23606329Y-6412328D01*
X23601212Y-6414671D01*
X23596205Y-6417178D01*
X23589333Y-6419673D01*
X23583220Y-6423681D01*
X23583216Y-6423683D01*
X23530337Y-6458353D01*
X23526616Y-6460700D01*
X23510761Y-6470321D01*
X23466355Y-6497267D01*
X23458245Y-6504430D01*
X23458229Y-6504412D01*
X23454925Y-6507342D01*
X23452414Y-6509441D01*
X23446294Y-6513454D01*
X23441262Y-6518766D01*
X23394816Y-6567795D01*
X23392438Y-6570237D01*
X22527423Y-7435252D01*
X22513011Y-7447639D01*
X22496349Y-7459900D01*
X22491606Y-7465483D01*
X22463369Y-7498720D01*
X22456439Y-7506236D01*
X22451055Y-7511620D01*
X22448792Y-7514481D01*
X22448787Y-7514486D01*
X22434068Y-7533091D01*
X22431279Y-7536493D01*
X22390347Y-7584672D01*
X22390344Y-7584676D01*
X22385608Y-7590251D01*
X22382279Y-7596772D01*
X22379158Y-7601451D01*
X22376222Y-7606205D01*
X22371682Y-7611943D01*
X22368585Y-7618570D01*
X22368584Y-7618571D01*
X22341811Y-7675854D01*
X22339901Y-7679761D01*
X22307824Y-7742582D01*
X22306084Y-7749694D01*
X22304118Y-7754980D01*
X22302360Y-7760265D01*
X22299261Y-7766895D01*
X22289296Y-7814806D01*
X22284895Y-7835963D01*
X22283925Y-7840247D01*
X22267170Y-7908721D01*
X22266500Y-7919520D01*
X22266476Y-7919519D01*
X22266212Y-7923934D01*
X22265922Y-7927184D01*
X22264431Y-7934352D01*
X22264629Y-7941669D01*
X22266454Y-8009123D01*
X22266500Y-8012531D01*
X22266500Y-10934834D01*
X22265067Y-10953784D01*
X22263609Y-10963369D01*
X22261957Y-10974227D01*
X22262550Y-10981519D01*
X22262550Y-10981522D01*
X22266085Y-11024979D01*
X22266500Y-11035194D01*
X22266500Y-11042826D01*
X22266922Y-11046445D01*
X22266923Y-11046464D01*
X22269675Y-11070069D01*
X22270107Y-11074435D01*
X22275823Y-11144704D01*
X22278081Y-11151673D01*
X22279184Y-11157193D01*
X22280466Y-11162618D01*
X22281314Y-11169890D01*
X22283811Y-11176769D01*
X22305382Y-11236196D01*
X22306810Y-11240356D01*
X22326280Y-11300458D01*
X22326282Y-11300462D01*
X22328536Y-11307420D01*
X22332330Y-11313672D01*
X22334672Y-11318788D01*
X22337176Y-11323789D01*
X22339673Y-11330667D01*
X22343683Y-11336784D01*
X22343686Y-11336789D01*
X22378347Y-11389654D01*
X22380695Y-11393376D01*
X22417267Y-11453645D01*
X22420979Y-11457848D01*
X22424429Y-11461755D01*
X22424412Y-11461770D01*
X22427346Y-11465080D01*
X22429442Y-11467587D01*
X22433454Y-11473706D01*
X22438766Y-11478738D01*
X22487776Y-11525166D01*
X22490218Y-11527544D01*
X22935255Y-11972581D01*
X22947641Y-11986993D01*
X22959900Y-12003651D01*
X22965483Y-12008394D01*
X22998713Y-12036625D01*
X23006229Y-12043555D01*
X23011620Y-12048946D01*
X23033124Y-12065959D01*
X23036510Y-12068736D01*
X23084667Y-12109649D01*
X23084672Y-12109653D01*
X23090251Y-12114392D01*
X23096773Y-12117722D01*
X23101451Y-12120842D01*
X23106205Y-12123778D01*
X23111943Y-12128318D01*
X23118570Y-12131415D01*
X23118571Y-12131416D01*
X23175854Y-12158189D01*
X23179761Y-12160099D01*
X23242582Y-12192176D01*
X23249694Y-12193916D01*
X23254980Y-12195882D01*
X23260265Y-12197640D01*
X23266895Y-12200739D01*
X23335963Y-12215105D01*
X23340247Y-12216075D01*
X23408721Y-12232830D01*
X23414323Y-12233178D01*
X23414326Y-12233178D01*
X23419520Y-12233500D01*
X23419519Y-12233524D01*
X23423935Y-12233788D01*
X23427184Y-12234078D01*
X23434352Y-12235569D01*
X23509140Y-12233546D01*
X23512546Y-12233500D01*
X24364255Y-12233500D01*
X24432376Y-12253502D01*
X24478869Y-12307158D01*
X24488973Y-12377432D01*
X24459479Y-12442012D01*
X24396866Y-12481207D01*
X24375679Y-12486884D01*
X24236067Y-12524293D01*
X24236065Y-12524294D01*
X24230757Y-12525716D01*
X24225776Y-12528039D01*
X24225775Y-12528039D01*
X24028238Y-12620151D01*
X24028233Y-12620154D01*
X24023251Y-12622477D01*
X23946621Y-12676134D01*
X23840211Y-12750643D01*
X23840208Y-12750645D01*
X23835700Y-12753802D01*
X23673802Y-12915700D01*
X23542477Y-13103251D01*
X23540154Y-13108233D01*
X23540151Y-13108238D01*
X23524195Y-13142457D01*
X23477278Y-13195742D01*
X23409001Y-13215203D01*
X23341041Y-13194661D01*
X23295805Y-13142457D01*
X23279849Y-13108238D01*
X23279846Y-13108233D01*
X23277523Y-13103251D01*
X23146198Y-12915700D01*
X22984300Y-12753802D01*
X22979792Y-12750645D01*
X22979789Y-12750643D01*
X22873379Y-12676134D01*
X22796749Y-12622477D01*
X22791767Y-12620154D01*
X22791762Y-12620151D01*
X22594225Y-12528039D01*
X22594224Y-12528039D01*
X22589243Y-12525716D01*
X22583935Y-12524294D01*
X22583933Y-12524293D01*
X22373402Y-12467881D01*
X22373400Y-12467881D01*
X22368087Y-12466457D01*
X22140000Y-12446502D01*
X21911913Y-12466457D01*
X21906600Y-12467881D01*
X21906598Y-12467881D01*
X21696067Y-12524293D01*
X21696065Y-12524294D01*
X21690757Y-12525716D01*
X21685776Y-12528039D01*
X21685775Y-12528039D01*
X21488238Y-12620151D01*
X21488233Y-12620154D01*
X21483251Y-12622477D01*
X21406621Y-12676134D01*
X21300211Y-12750643D01*
X21300208Y-12750645D01*
X21295700Y-12753802D01*
X21133802Y-12915700D01*
X21002477Y-13103251D01*
X21000154Y-13108233D01*
X21000151Y-13108238D01*
X20984195Y-13142457D01*
X20937278Y-13195742D01*
X20869001Y-13215203D01*
X20801041Y-13194661D01*
X20755805Y-13142457D01*
X20739849Y-13108238D01*
X20739846Y-13108233D01*
X20737523Y-13103251D01*
X20606198Y-12915700D01*
X20444300Y-12753802D01*
X20439792Y-12750645D01*
X20439789Y-12750643D01*
X20333379Y-12676134D01*
X20256749Y-12622477D01*
X20251767Y-12620154D01*
X20251762Y-12620151D01*
X20054225Y-12528039D01*
X20054224Y-12528039D01*
X20049243Y-12525716D01*
X20043935Y-12524294D01*
X20043933Y-12524293D01*
X19833402Y-12467881D01*
X19833400Y-12467881D01*
X19828087Y-12466457D01*
X19600000Y-12446502D01*
X19371913Y-12466457D01*
X19366600Y-12467881D01*
X19366598Y-12467881D01*
X19156067Y-12524293D01*
X19156065Y-12524294D01*
X19150757Y-12525716D01*
X19145776Y-12528039D01*
X19145775Y-12528039D01*
X18948238Y-12620151D01*
X18948233Y-12620154D01*
X18943251Y-12622477D01*
X18866621Y-12676134D01*
X18760211Y-12750643D01*
X18760208Y-12750645D01*
X18755700Y-12753802D01*
X18593802Y-12915700D01*
X18462477Y-13103251D01*
X18460154Y-13108233D01*
X18460151Y-13108238D01*
X18444195Y-13142457D01*
X18397278Y-13195742D01*
X18329001Y-13215203D01*
X18261041Y-13194661D01*
X18215805Y-13142457D01*
X18199849Y-13108238D01*
X18199846Y-13108233D01*
X18197523Y-13103251D01*
X18066198Y-12915700D01*
X17904300Y-12753802D01*
X17899792Y-12750645D01*
X17899789Y-12750643D01*
X17793379Y-12676134D01*
X17716749Y-12622477D01*
X17711767Y-12620154D01*
X17711762Y-12620151D01*
X17514225Y-12528039D01*
X17514224Y-12528039D01*
X17509243Y-12525716D01*
X17503935Y-12524294D01*
X17503933Y-12524293D01*
X17293402Y-12467881D01*
X17293400Y-12467881D01*
X17288087Y-12466457D01*
X17060000Y-12446502D01*
X16831913Y-12466457D01*
X16826600Y-12467881D01*
X16826598Y-12467881D01*
X16616067Y-12524293D01*
X16616065Y-12524294D01*
X16610757Y-12525716D01*
X16605776Y-12528039D01*
X16605775Y-12528039D01*
X16408238Y-12620151D01*
X16408233Y-12620154D01*
X16403251Y-12622477D01*
X16326621Y-12676134D01*
X16220211Y-12750643D01*
X16220208Y-12750645D01*
X16215700Y-12753802D01*
X16053802Y-12915700D01*
X15922477Y-13103251D01*
X15920154Y-13108233D01*
X15920151Y-13108238D01*
X15904195Y-13142457D01*
X15857278Y-13195742D01*
X15789001Y-13215203D01*
X15721041Y-13194661D01*
X15675805Y-13142457D01*
X15659849Y-13108238D01*
X15659846Y-13108233D01*
X15657523Y-13103251D01*
X15526198Y-12915700D01*
X15364300Y-12753802D01*
X15359792Y-12750645D01*
X15359789Y-12750643D01*
X15253379Y-12676134D01*
X15176749Y-12622477D01*
X15171767Y-12620154D01*
X15171762Y-12620151D01*
X14974225Y-12528039D01*
X14974224Y-12528039D01*
X14969243Y-12525716D01*
X14963935Y-12524294D01*
X14963933Y-12524293D01*
X14753402Y-12467881D01*
X14753400Y-12467881D01*
X14748087Y-12466457D01*
X14520000Y-12446502D01*
X14291913Y-12466457D01*
X14286600Y-12467881D01*
X14286598Y-12467881D01*
X14076067Y-12524293D01*
X14076065Y-12524294D01*
X14070757Y-12525716D01*
X14065776Y-12528039D01*
X14065775Y-12528039D01*
X13868238Y-12620151D01*
X13868233Y-12620154D01*
X13863251Y-12622477D01*
X13786621Y-12676134D01*
X13680211Y-12750643D01*
X13680208Y-12750645D01*
X13675700Y-12753802D01*
X13513802Y-12915700D01*
X13382477Y-13103251D01*
X13380154Y-13108233D01*
X13380151Y-13108238D01*
X13364195Y-13142457D01*
X13317278Y-13195742D01*
X13249001Y-13215203D01*
X13181041Y-13194661D01*
X13135805Y-13142457D01*
X13119849Y-13108238D01*
X13119846Y-13108233D01*
X13117523Y-13103251D01*
X12986198Y-12915700D01*
X12824300Y-12753802D01*
X12819792Y-12750645D01*
X12819789Y-12750643D01*
X12713379Y-12676134D01*
X12636749Y-12622477D01*
X12631767Y-12620154D01*
X12631762Y-12620151D01*
X12434225Y-12528039D01*
X12434224Y-12528039D01*
X12429243Y-12525716D01*
X12423935Y-12524294D01*
X12423933Y-12524293D01*
X12213402Y-12467881D01*
X12213400Y-12467881D01*
X12208087Y-12466457D01*
X11980000Y-12446502D01*
X11751913Y-12466457D01*
X11746600Y-12467881D01*
X11746598Y-12467881D01*
X11536067Y-12524293D01*
X11536065Y-12524294D01*
X11530757Y-12525716D01*
X11525776Y-12528039D01*
X11525775Y-12528039D01*
X11328238Y-12620151D01*
X11328233Y-12620154D01*
X11323251Y-12622477D01*
X11246621Y-12676134D01*
X11140211Y-12750643D01*
X11140208Y-12750645D01*
X11135700Y-12753802D01*
X10973802Y-12915700D01*
X10842477Y-13103251D01*
X10840154Y-13108233D01*
X10840151Y-13108238D01*
X10824195Y-13142457D01*
X10777278Y-13195742D01*
X10709001Y-13215203D01*
X10641041Y-13194661D01*
X10595805Y-13142457D01*
X10579849Y-13108238D01*
X10579846Y-13108233D01*
X10577523Y-13103251D01*
X10446198Y-12915700D01*
X10284300Y-12753802D01*
X10279792Y-12750645D01*
X10279789Y-12750643D01*
X10173379Y-12676134D01*
X10096749Y-12622477D01*
X10091767Y-12620154D01*
X10091762Y-12620151D01*
X9894225Y-12528039D01*
X9894224Y-12528039D01*
X9889243Y-12525716D01*
X9883935Y-12524294D01*
X9883933Y-12524293D01*
X9673402Y-12467881D01*
X9673400Y-12467881D01*
X9668087Y-12466457D01*
X9440000Y-12446502D01*
X9211913Y-12466457D01*
X9206600Y-12467881D01*
X9206598Y-12467881D01*
X8996067Y-12524293D01*
X8996065Y-12524294D01*
X8990757Y-12525716D01*
X8985776Y-12528039D01*
X8985775Y-12528039D01*
X8788238Y-12620151D01*
X8788233Y-12620154D01*
X8783251Y-12622477D01*
X8706621Y-12676134D01*
X8600211Y-12750643D01*
X8600208Y-12750645D01*
X8595700Y-12753802D01*
X8433802Y-12915700D01*
X8302477Y-13103251D01*
X8300154Y-13108233D01*
X8300151Y-13108238D01*
X8209623Y-13302378D01*
X8205716Y-13310757D01*
X8204294Y-13316065D01*
X8204293Y-13316067D01*
X8164498Y-13464583D01*
X8146457Y-13531913D01*
X8126502Y-13760000D01*
X508000Y-13760000D01*
X508000Y-3639681D01*
X528002Y-3571560D01*
X581658Y-3525067D01*
X651932Y-3514963D01*
X716512Y-3544457D01*
X727636Y-3555370D01*
X901371Y-3748322D01*
X904733Y-3751143D01*
X904734Y-3751144D01*
X946867Y-3786498D01*
X1116550Y-3928879D01*
X1354764Y-4077731D01*
X1611375Y-4191982D01*
X1615603Y-4193194D01*
X1615602Y-4193194D01*
X1779491Y-4240188D01*
X1881390Y-4269407D01*
X1885740Y-4270018D01*
X1885743Y-4270019D01*
X1988690Y-4284487D01*
X2159552Y-4308500D01*
X2370146Y-4308500D01*
X2372332Y-4308347D01*
X2372336Y-4308347D01*
X2575827Y-4294118D01*
X2575832Y-4294117D01*
X2580212Y-4293811D01*
X2854970Y-4235409D01*
X2859099Y-4233906D01*
X2859103Y-4233905D01*
X3114781Y-4140846D01*
X3114785Y-4140844D01*
X3118926Y-4139337D01*
X3366942Y-4007464D01*
X3370503Y-4004877D01*
X3590629Y-3844947D01*
X3590632Y-3844944D01*
X3594192Y-3842358D01*
X3612276Y-3824895D01*
X3703772Y-3736538D01*
X3796252Y-3647231D01*
X3969188Y-3425882D01*
X3971384Y-3422078D01*
X3971389Y-3422071D01*
X4107435Y-3186431D01*
X4109636Y-3182619D01*
X4214862Y-2922176D01*
X4248544Y-2787087D01*
X4281753Y-2653893D01*
X4281754Y-2653888D01*
X4282817Y-2649624D01*
X4312178Y-2370267D01*
X4308323Y-2259865D01*
X4302529Y-2093939D01*
X4302528Y-2093933D01*
X4302375Y-2089542D01*
X4278608Y-1954749D01*
X4254360Y-1817236D01*
X4253598Y-1812913D01*
X4166797Y-1545765D01*
X4043660Y-1293298D01*
X4041205Y-1289659D01*
X4041202Y-1289653D01*
X3912274Y-1098510D01*
X3886585Y-1060424D01*
X3879557Y-1052618D01*
X3701566Y-854940D01*
X3698629Y-851678D01*
X3554241Y-730522D01*
X3514914Y-671412D01*
X3513788Y-600424D01*
X3551219Y-540097D01*
X3615324Y-509583D01*
X3635232Y-508000D01*
X23781275Y-508000D01*
X23849396Y-528002D01*
G37*
%TD.AperFunction*%
%TD*%
M02*
