%TF.GenerationSoftware,KiCad,Pcbnew,6.0.2+dfsg-1*%
%TF.CreationDate,2022-07-02T16:45:41-04:00*%
%TF.ProjectId,UVLEDController,55564c45-4443-46f6-9e74-726f6c6c6572,rev?*%
%TF.SameCoordinates,PX7270e00PY1c9c380*%
%TF.FileFunction,Copper,L1,Top*%
%TF.FilePolarity,Positive*%
%FSLAX46Y46*%
G04 Gerber Fmt 4.6, Leading zero omitted, Abs format (unit mm)*
G04 Created by KiCad (PCBNEW 6.0.2+dfsg-1) date 2022-07-02 16:45:41*
%MOMM*%
%LPD*%
G01*
G04 APERTURE LIST*
G04 Aperture macros list*
%AMRoundRect*
0 Rectangle with rounded corners*
0 $1 Rounding radius*
0 $2 $3 $4 $5 $6 $7 $8 $9 X,Y pos of 4 corners*
0 Add a 4 corners polygon primitive as box body*
4,1,4,$2,$3,$4,$5,$6,$7,$8,$9,$2,$3,0*
0 Add four circle primitives for the rounded corners*
1,1,$1+$1,$2,$3*
1,1,$1+$1,$4,$5*
1,1,$1+$1,$6,$7*
1,1,$1+$1,$8,$9*
0 Add four rect primitives between the rounded corners*
20,1,$1+$1,$2,$3,$4,$5,0*
20,1,$1+$1,$4,$5,$6,$7,0*
20,1,$1+$1,$6,$7,$8,$9,0*
20,1,$1+$1,$8,$9,$2,$3,0*%
G04 Aperture macros list end*
%ADD10C,0.300000*%
%TA.AperFunction,NonConductor*%
%ADD11C,0.300000*%
%TD*%
%TA.AperFunction,SMDPad,CuDef*%
%ADD12RoundRect,0.250000X-0.350000X-0.450000X0.350000X-0.450000X0.350000X0.450000X-0.350000X0.450000X0*%
%TD*%
%TA.AperFunction,ComponentPad*%
%ADD13C,2.000000*%
%TD*%
%TA.AperFunction,ComponentPad*%
%ADD14R,2.600000X2.600000*%
%TD*%
%TA.AperFunction,ComponentPad*%
%ADD15C,2.600000*%
%TD*%
%TA.AperFunction,ComponentPad*%
%ADD16R,1.700000X1.700000*%
%TD*%
%TA.AperFunction,ComponentPad*%
%ADD17O,1.700000X1.700000*%
%TD*%
%TA.AperFunction,ComponentPad*%
%ADD18R,1.600000X1.600000*%
%TD*%
%TA.AperFunction,ComponentPad*%
%ADD19O,1.600000X1.600000*%
%TD*%
%TA.AperFunction,ComponentPad*%
%ADD20R,1.905000X2.000000*%
%TD*%
%TA.AperFunction,ComponentPad*%
%ADD21O,1.905000X2.000000*%
%TD*%
%TA.AperFunction,Conductor*%
%ADD22C,0.450000*%
%TD*%
%TA.AperFunction,Conductor*%
%ADD23C,2.000000*%
%TD*%
G04 APERTURE END LIST*
D10*
D11*
X30714285Y-48294761D02*
X31380952Y-50294761D01*
X32047619Y-48294761D01*
X33571428Y-50294761D02*
X33571428Y-49247142D01*
X33476190Y-49056666D01*
X33285714Y-48961428D01*
X32904761Y-48961428D01*
X32714285Y-49056666D01*
X33571428Y-50199523D02*
X33380952Y-50294761D01*
X32904761Y-50294761D01*
X32714285Y-50199523D01*
X32619047Y-50009047D01*
X32619047Y-49818571D01*
X32714285Y-49628095D01*
X32904761Y-49532857D01*
X33380952Y-49532857D01*
X33571428Y-49437619D01*
X34523809Y-50294761D02*
X34523809Y-48961428D01*
X34523809Y-49342380D02*
X34619047Y-49151904D01*
X34714285Y-49056666D01*
X34904761Y-48961428D01*
X35095238Y-48961428D01*
X35761904Y-48961428D02*
X35761904Y-50294761D01*
X35761904Y-49151904D02*
X35857142Y-49056666D01*
X36047619Y-48961428D01*
X36333333Y-48961428D01*
X36523809Y-49056666D01*
X36619047Y-49247142D01*
X36619047Y-50294761D01*
X38333333Y-50199523D02*
X38142857Y-50294761D01*
X37761904Y-50294761D01*
X37571428Y-50199523D01*
X37476190Y-50009047D01*
X37476190Y-49247142D01*
X37571428Y-49056666D01*
X37761904Y-48961428D01*
X38142857Y-48961428D01*
X38333333Y-49056666D01*
X38428571Y-49247142D01*
X38428571Y-49437619D01*
X37476190Y-49628095D01*
X39285714Y-50294761D02*
X39285714Y-48961428D01*
X39285714Y-49342380D02*
X39380952Y-49151904D01*
X39476190Y-49056666D01*
X39666666Y-48961428D01*
X39857142Y-48961428D01*
X40523809Y-50294761D02*
X40523809Y-48961428D01*
X40523809Y-48294761D02*
X40428571Y-48390000D01*
X40523809Y-48485238D01*
X40619047Y-48390000D01*
X40523809Y-48294761D01*
X40523809Y-48485238D01*
X41285714Y-48961428D02*
X42333333Y-48961428D01*
X41285714Y-50294761D01*
X42333333Y-50294761D01*
X43857142Y-50199523D02*
X43666666Y-50294761D01*
X43285714Y-50294761D01*
X43095238Y-50199523D01*
X43000000Y-50009047D01*
X43000000Y-49247142D01*
X43095238Y-49056666D01*
X43285714Y-48961428D01*
X43666666Y-48961428D01*
X43857142Y-49056666D01*
X43952380Y-49247142D01*
X43952380Y-49437619D01*
X43000000Y-49628095D01*
X45666666Y-50294761D02*
X45666666Y-48294761D01*
X45666666Y-50199523D02*
X45476190Y-50294761D01*
X45095238Y-50294761D01*
X44904761Y-50199523D01*
X44809523Y-50104285D01*
X44714285Y-49913809D01*
X44714285Y-49342380D01*
X44809523Y-49151904D01*
X44904761Y-49056666D01*
X45095238Y-48961428D01*
X45476190Y-48961428D01*
X45666666Y-49056666D01*
X48142857Y-48294761D02*
X48142857Y-49913809D01*
X48238095Y-50104285D01*
X48333333Y-50199523D01*
X48523809Y-50294761D01*
X48904761Y-50294761D01*
X49095238Y-50199523D01*
X49190476Y-50104285D01*
X49285714Y-49913809D01*
X49285714Y-48294761D01*
X49952380Y-48294761D02*
X50619047Y-50294761D01*
X51285714Y-48294761D01*
X32857142Y-52467142D02*
X33523809Y-52467142D01*
X33809523Y-53514761D02*
X32857142Y-53514761D01*
X32857142Y-51514761D01*
X33809523Y-51514761D01*
X34476190Y-53514761D02*
X35523809Y-52181428D01*
X34476190Y-52181428D02*
X35523809Y-53514761D01*
X36285714Y-52181428D02*
X36285714Y-54181428D01*
X36285714Y-52276666D02*
X36476190Y-52181428D01*
X36857142Y-52181428D01*
X37047619Y-52276666D01*
X37142857Y-52371904D01*
X37238095Y-52562380D01*
X37238095Y-53133809D01*
X37142857Y-53324285D01*
X37047619Y-53419523D01*
X36857142Y-53514761D01*
X36476190Y-53514761D01*
X36285714Y-53419523D01*
X38380952Y-53514761D02*
X38190476Y-53419523D01*
X38095238Y-53324285D01*
X38000000Y-53133809D01*
X38000000Y-52562380D01*
X38095238Y-52371904D01*
X38190476Y-52276666D01*
X38380952Y-52181428D01*
X38666666Y-52181428D01*
X38857142Y-52276666D01*
X38952380Y-52371904D01*
X39047619Y-52562380D01*
X39047619Y-53133809D01*
X38952380Y-53324285D01*
X38857142Y-53419523D01*
X38666666Y-53514761D01*
X38380952Y-53514761D01*
X39809523Y-53419523D02*
X40000000Y-53514761D01*
X40380952Y-53514761D01*
X40571428Y-53419523D01*
X40666666Y-53229047D01*
X40666666Y-53133809D01*
X40571428Y-52943333D01*
X40380952Y-52848095D01*
X40095238Y-52848095D01*
X39904761Y-52752857D01*
X39809523Y-52562380D01*
X39809523Y-52467142D01*
X39904761Y-52276666D01*
X40095238Y-52181428D01*
X40380952Y-52181428D01*
X40571428Y-52276666D01*
X42380952Y-52181428D02*
X42380952Y-53514761D01*
X41523809Y-52181428D02*
X41523809Y-53229047D01*
X41619047Y-53419523D01*
X41809523Y-53514761D01*
X42095238Y-53514761D01*
X42285714Y-53419523D01*
X42380952Y-53324285D01*
X43333333Y-53514761D02*
X43333333Y-52181428D01*
X43333333Y-52562380D02*
X43428571Y-52371904D01*
X43523809Y-52276666D01*
X43714285Y-52181428D01*
X43904761Y-52181428D01*
X44571428Y-53514761D02*
X44571428Y-52181428D01*
X44571428Y-51514761D02*
X44476190Y-51610000D01*
X44571428Y-51705238D01*
X44666666Y-51610000D01*
X44571428Y-51514761D01*
X44571428Y-51705238D01*
X45333333Y-52181428D02*
X46380952Y-52181428D01*
X45333333Y-53514761D01*
X46380952Y-53514761D01*
X47904761Y-53419523D02*
X47714285Y-53514761D01*
X47333333Y-53514761D01*
X47142857Y-53419523D01*
X47047619Y-53229047D01*
X47047619Y-52467142D01*
X47142857Y-52276666D01*
X47333333Y-52181428D01*
X47714285Y-52181428D01*
X47904761Y-52276666D01*
X48000000Y-52467142D01*
X48000000Y-52657619D01*
X47047619Y-52848095D01*
X48857142Y-53514761D02*
X48857142Y-52181428D01*
X48857142Y-52562380D02*
X48952380Y-52371904D01*
X49047619Y-52276666D01*
X49238095Y-52181428D01*
X49428571Y-52181428D01*
D12*
%TO.P,R1,1*%
%TO.N,Net-(A1-Pad12)*%
X57000000Y-33500000D03*
%TO.P,R1,2*%
%TO.N,GND*%
X59000000Y-33500000D03*
%TD*%
D13*
%TO.P,SW_DN1,1,1*%
%TO.N,GND*%
X20450000Y-48750000D03*
X13950000Y-48750000D03*
%TO.P,SW_DN1,2,2*%
%TO.N,Net-(A1-Pad5)*%
X13950000Y-53250000D03*
X20450000Y-53250000D03*
%TD*%
%TO.P,SW_SEL1,1,1*%
%TO.N,GND*%
X66250000Y-48750000D03*
X59750000Y-48750000D03*
%TO.P,SW_SEL1,2,2*%
%TO.N,Net-(A1-Pad7)*%
X59750000Y-53250000D03*
X66250000Y-53250000D03*
%TD*%
%TO.P,SW_UP1,1,1*%
%TO.N,GND*%
X20450000Y-38250000D03*
X13950000Y-38250000D03*
%TO.P,SW_UP1,2,2*%
%TO.N,Net-(A1-Pad6)*%
X20450000Y-42750000D03*
X13950000Y-42750000D03*
%TD*%
D14*
%TO.P,J1-LED1,1,Pin_1*%
%TO.N,Net-(A1-Pad30)*%
X74500000Y-9000000D03*
D15*
%TO.P,J1-LED1,2,Pin_2*%
%TO.N,Net-(J1-LED1-Pad2)*%
X74500000Y-14000000D03*
%TD*%
D16*
%TO.P,J3,1,Pin_1*%
%TO.N,GND*%
X28500000Y-2500000D03*
D17*
%TO.P,J3,2,Pin_2*%
%TO.N,Net-(A1-Pad27)*%
X28500000Y-5040000D03*
%TO.P,J3,3,Pin_3*%
%TO.N,Net-(A1-Pad23)*%
X28500000Y-7580000D03*
%TO.P,J3,4,Pin_4*%
%TO.N,Net-(A1-Pad24)*%
X28500000Y-10120000D03*
%TD*%
D14*
%TO.P,J2-PWR1,1,Pin_1*%
%TO.N,Net-(A1-Pad30)*%
X74500000Y-22000000D03*
D15*
%TO.P,J2-PWR1,2,Pin_2*%
%TO.N,GND*%
X74500000Y-27000000D03*
%TD*%
D18*
%TO.P,A1,1,D1/TX*%
%TO.N,unconnected-(A1-Pad1)*%
X45000000Y-29000000D03*
D19*
%TO.P,A1,2,D0/RX*%
%TO.N,unconnected-(A1-Pad2)*%
X42460000Y-29000000D03*
%TO.P,A1,3,~{RESET}*%
%TO.N,unconnected-(A1-Pad3)*%
X39920000Y-29000000D03*
%TO.P,A1,4,GND*%
%TO.N,GND*%
X37380000Y-29000000D03*
%TO.P,A1,5,D2*%
%TO.N,Net-(A1-Pad5)*%
X34840000Y-29000000D03*
%TO.P,A1,6,D3*%
%TO.N,Net-(A1-Pad6)*%
X32300000Y-29000000D03*
%TO.P,A1,7,D4*%
%TO.N,Net-(A1-Pad7)*%
X29760000Y-29000000D03*
%TO.P,A1,8,D5*%
%TO.N,unconnected-(A1-Pad8)*%
X27220000Y-29000000D03*
%TO.P,A1,9,D6*%
%TO.N,unconnected-(A1-Pad9)*%
X24680000Y-29000000D03*
%TO.P,A1,10,D7*%
%TO.N,unconnected-(A1-Pad10)*%
X22140000Y-29000000D03*
%TO.P,A1,11,D8*%
%TO.N,unconnected-(A1-Pad11)*%
X19600000Y-29000000D03*
%TO.P,A1,12,D9*%
%TO.N,Net-(A1-Pad12)*%
X17060000Y-29000000D03*
%TO.P,A1,13,D10*%
%TO.N,unconnected-(A1-Pad13)*%
X14520000Y-29000000D03*
%TO.P,A1,14,D11*%
%TO.N,unconnected-(A1-Pad14)*%
X11980000Y-29000000D03*
%TO.P,A1,15,D12*%
%TO.N,unconnected-(A1-Pad15)*%
X9440000Y-29000000D03*
%TO.P,A1,16,D13*%
%TO.N,unconnected-(A1-Pad16)*%
X9440000Y-13760000D03*
%TO.P,A1,17,3V3*%
%TO.N,unconnected-(A1-Pad17)*%
X11980000Y-13760000D03*
%TO.P,A1,18,AREF*%
%TO.N,unconnected-(A1-Pad18)*%
X14520000Y-13760000D03*
%TO.P,A1,19,A0*%
%TO.N,unconnected-(A1-Pad19)*%
X17060000Y-13760000D03*
%TO.P,A1,20,A1*%
%TO.N,unconnected-(A1-Pad20)*%
X19600000Y-13760000D03*
%TO.P,A1,21,A2*%
%TO.N,unconnected-(A1-Pad21)*%
X22140000Y-13760000D03*
%TO.P,A1,22,A3*%
%TO.N,unconnected-(A1-Pad22)*%
X24680000Y-13760000D03*
%TO.P,A1,23,A4*%
%TO.N,Net-(A1-Pad23)*%
X27220000Y-13760000D03*
%TO.P,A1,24,A5*%
%TO.N,Net-(A1-Pad24)*%
X29760000Y-13760000D03*
%TO.P,A1,25,A6*%
%TO.N,unconnected-(A1-Pad25)*%
X32300000Y-13760000D03*
%TO.P,A1,26,A7*%
%TO.N,unconnected-(A1-Pad26)*%
X34840000Y-13760000D03*
%TO.P,A1,27,+5V*%
%TO.N,Net-(A1-Pad27)*%
X37380000Y-13760000D03*
%TO.P,A1,28,~{RESET}*%
%TO.N,unconnected-(A1-Pad28)*%
X39920000Y-13760000D03*
%TO.P,A1,29,GND*%
%TO.N,GND*%
X42460000Y-13760000D03*
%TO.P,A1,30,VIN*%
%TO.N,Net-(A1-Pad30)*%
X45000000Y-13760000D03*
%TD*%
D20*
%TO.P,Q1,1,G*%
%TO.N,Net-(A1-Pad12)*%
X55460000Y-29730000D03*
D21*
%TO.P,Q1,2,D*%
%TO.N,Net-(J1-LED1-Pad2)*%
X58000000Y-29730000D03*
%TO.P,Q1,3,S*%
%TO.N,GND*%
X60540000Y-29730000D03*
%TD*%
D22*
%TO.N,Net-(A1-Pad12)*%
X17060000Y-29000000D02*
X21060000Y-25000000D01*
%TO.N,Net-(A1-Pad23)*%
X27220000Y-13760000D02*
X27220000Y-11720000D01*
X27220000Y-11720000D02*
X26500000Y-11000000D01*
X27920000Y-7580000D02*
X28500000Y-7580000D01*
X26500000Y-11000000D02*
X26500000Y-9000000D01*
X26500000Y-9000000D02*
X27920000Y-7580000D01*
%TO.N,Net-(A1-Pad27)*%
X28500000Y-5040000D02*
X29000000Y-4540000D01*
X37380000Y-11630000D02*
X37380000Y-13760000D01*
X30290000Y-4540000D02*
X37380000Y-11630000D01*
%TO.N,Net-(A1-Pad24)*%
X29120000Y-10120000D02*
X28500000Y-10120000D01*
%TO.N,Net-(A1-Pad27)*%
X29000000Y-4540000D02*
X30290000Y-4540000D01*
%TO.N,Net-(A1-Pad24)*%
X29760000Y-13760000D02*
X29760000Y-10760000D01*
X29760000Y-10760000D02*
X29120000Y-10120000D01*
D23*
%TO.N,Net-(A1-Pad30)*%
X74500000Y-22000000D02*
X74500000Y-21000000D01*
X78000000Y-17500000D02*
X78000000Y-12500000D01*
X78000000Y-12500000D02*
X74500000Y-9000000D01*
X74500000Y-21000000D02*
X78000000Y-17500000D01*
D22*
%TO.N,Net-(A1-Pad12)*%
X55460000Y-29730000D02*
X55460000Y-31960000D01*
X55460000Y-31960000D02*
X57000000Y-33500000D01*
X55460000Y-29730000D02*
X50730000Y-25000000D01*
X50730000Y-25000000D02*
X21060000Y-25000000D01*
D23*
%TO.N,Net-(J1-LED1-Pad2)*%
X74500000Y-14000000D02*
X72000000Y-14000000D01*
X72000000Y-14000000D02*
X58000000Y-28000000D01*
X58000000Y-28000000D02*
X58000000Y-29730000D01*
%TO.N,Net-(A1-Pad30)*%
X45000000Y-13760000D02*
X49760000Y-9000000D01*
X49760000Y-9000000D02*
X74500000Y-9000000D01*
D22*
%TO.N,Net-(A1-Pad5)*%
X34840000Y-38860000D02*
X20450000Y-53250000D01*
X13950000Y-53250000D02*
X20450000Y-53250000D01*
X34840000Y-29000000D02*
X34840000Y-38860000D01*
%TO.N,Net-(A1-Pad6)*%
X13950000Y-42750000D02*
X20450000Y-42750000D01*
X32300000Y-29000000D02*
X32300000Y-30900000D01*
X32300000Y-30900000D02*
X20450000Y-42750000D01*
%TO.N,Net-(A1-Pad7)*%
X59750000Y-53250000D02*
X66250000Y-53250000D01*
X31760000Y-27000000D02*
X47500000Y-27000000D01*
X47500000Y-27000000D02*
X58000000Y-37500000D01*
X58000000Y-37500000D02*
X58000000Y-51500000D01*
X29760000Y-29000000D02*
X31760000Y-27000000D01*
X58000000Y-51500000D02*
X59750000Y-53250000D01*
%TD*%
%TA.AperFunction,Conductor*%
%TO.N,GND*%
G36*
X76429744Y-528002D02*
G01*
X76476237Y-581658D01*
X76486341Y-651932D01*
X76456847Y-716512D01*
X76435684Y-735936D01*
X76405808Y-757642D01*
X76203748Y-952769D01*
X76098156Y-1087921D01*
X76041752Y-1160116D01*
X76030812Y-1174118D01*
X76028616Y-1177922D01*
X76028611Y-1177929D01*
X75914794Y-1375067D01*
X75890364Y-1417381D01*
X75785138Y-1677824D01*
X75784073Y-1682097D01*
X75784072Y-1682099D01*
X75750379Y-1817236D01*
X75717183Y-1950376D01*
X75687822Y-2229733D01*
X75687975Y-2234121D01*
X75687975Y-2234127D01*
X75688332Y-2244329D01*
X75697625Y-2510458D01*
X75698387Y-2514781D01*
X75698388Y-2514788D01*
X75722164Y-2649624D01*
X75746402Y-2787087D01*
X75833203Y-3054235D01*
X75956340Y-3306702D01*
X75958795Y-3310341D01*
X75958798Y-3310347D01*
X76015674Y-3394669D01*
X76113415Y-3539576D01*
X76116360Y-3542847D01*
X76116361Y-3542848D01*
X76157065Y-3588054D01*
X76301371Y-3748322D01*
X76304733Y-3751143D01*
X76304734Y-3751144D01*
X76358952Y-3796638D01*
X76516550Y-3928879D01*
X76754764Y-4077731D01*
X76888484Y-4137267D01*
X76980872Y-4178401D01*
X77011375Y-4191982D01*
X77281390Y-4269407D01*
X77285740Y-4270018D01*
X77285743Y-4270019D01*
X77388690Y-4284487D01*
X77559552Y-4308500D01*
X77770146Y-4308500D01*
X77772332Y-4308347D01*
X77772336Y-4308347D01*
X77975827Y-4294118D01*
X77975832Y-4294117D01*
X77980212Y-4293811D01*
X78254970Y-4235409D01*
X78259099Y-4233906D01*
X78259103Y-4233905D01*
X78514781Y-4140846D01*
X78514785Y-4140844D01*
X78518926Y-4139337D01*
X78766942Y-4007464D01*
X78770503Y-4004877D01*
X78990629Y-3844947D01*
X78990632Y-3844944D01*
X78994192Y-3842358D01*
X79012276Y-3824895D01*
X79193087Y-3650287D01*
X79196252Y-3647231D01*
X79266711Y-3557047D01*
X79324411Y-3515682D01*
X79395316Y-3512079D01*
X79456914Y-3547382D01*
X79489647Y-3610382D01*
X79492000Y-3634621D01*
X79492000Y-11600825D01*
X79471998Y-11668946D01*
X79418342Y-11715439D01*
X79348068Y-11725543D01*
X79283488Y-11696049D01*
X79263041Y-11673457D01*
X79257360Y-11665404D01*
X79253699Y-11659914D01*
X79214529Y-11597714D01*
X79214528Y-11597713D01*
X79211833Y-11593433D01*
X79208492Y-11589644D01*
X79208488Y-11589638D01*
X79190102Y-11568783D01*
X79181656Y-11558088D01*
X79165009Y-11534490D01*
X79162726Y-11531253D01*
X79143091Y-11509750D01*
X79103375Y-11470034D01*
X79097956Y-11464264D01*
X79054650Y-11415142D01*
X79054647Y-11415139D01*
X79051302Y-11411345D01*
X79019011Y-11384821D01*
X79009892Y-11376551D01*
X76345405Y-8712064D01*
X76311379Y-8649752D01*
X76308500Y-8622969D01*
X76308500Y-7651866D01*
X76301745Y-7589684D01*
X76250615Y-7453295D01*
X76163261Y-7336739D01*
X76046705Y-7249385D01*
X75910316Y-7198255D01*
X75848134Y-7191500D01*
X73151866Y-7191500D01*
X73089684Y-7198255D01*
X72953295Y-7249385D01*
X72836739Y-7336739D01*
X72831358Y-7343919D01*
X72758551Y-7441065D01*
X72701692Y-7483580D01*
X72657725Y-7491500D01*
X49784016Y-7491500D01*
X49780498Y-7491451D01*
X49685851Y-7488807D01*
X49685848Y-7488807D01*
X49680795Y-7488666D01*
X49675782Y-7489335D01*
X49675779Y-7489335D01*
X49602911Y-7499057D01*
X49596354Y-7499758D01*
X49523080Y-7505654D01*
X49523079Y-7505654D01*
X49518035Y-7506060D01*
X49513124Y-7507266D01*
X49513119Y-7507267D01*
X49486139Y-7513894D01*
X49472750Y-7516424D01*
X49460315Y-7518083D01*
X49440180Y-7520770D01*
X49364949Y-7543484D01*
X49358604Y-7545220D01*
X49282294Y-7563963D01*
X49277642Y-7565938D01*
X49277638Y-7565939D01*
X49252052Y-7576800D01*
X49239239Y-7581438D01*
X49207792Y-7590932D01*
X49137138Y-7625392D01*
X49131204Y-7628097D01*
X49058844Y-7658812D01*
X49054564Y-7661507D01*
X49054553Y-7661513D01*
X49031047Y-7676316D01*
X49019140Y-7682944D01*
X49007087Y-7688823D01*
X48989612Y-7697346D01*
X48985483Y-7700259D01*
X48925403Y-7742641D01*
X48919914Y-7746301D01*
X48857714Y-7785471D01*
X48853433Y-7788167D01*
X48849644Y-7791508D01*
X48849638Y-7791512D01*
X48828783Y-7809898D01*
X48818088Y-7818344D01*
X48791253Y-7837274D01*
X48769750Y-7856909D01*
X48730034Y-7896625D01*
X48724264Y-7902044D01*
X48675142Y-7945350D01*
X48675139Y-7945353D01*
X48671345Y-7948698D01*
X48668135Y-7952606D01*
X48668134Y-7952607D01*
X48644821Y-7980989D01*
X48636551Y-7990108D01*
X43890195Y-12736464D01*
X43888569Y-12738374D01*
X43888563Y-12738381D01*
X43775808Y-12870868D01*
X43772530Y-12874720D01*
X43769913Y-12879042D01*
X43769911Y-12879044D01*
X43716993Y-12966422D01*
X43664595Y-13014328D01*
X43594615Y-13026301D01*
X43529272Y-12998540D01*
X43506004Y-12973420D01*
X43468976Y-12920538D01*
X43461916Y-12912125D01*
X43307875Y-12758084D01*
X43299467Y-12751028D01*
X43121007Y-12626069D01*
X43111511Y-12620586D01*
X42914053Y-12528510D01*
X42903761Y-12524764D01*
X42731497Y-12478606D01*
X42717401Y-12478942D01*
X42714000Y-12486884D01*
X42714000Y-15027967D01*
X42717973Y-15041498D01*
X42726522Y-15042727D01*
X42903761Y-14995236D01*
X42914053Y-14991490D01*
X43111511Y-14899414D01*
X43121007Y-14893931D01*
X43299467Y-14768972D01*
X43307875Y-14761916D01*
X43461916Y-14607875D01*
X43468970Y-14599469D01*
X43505694Y-14547021D01*
X43561151Y-14502692D01*
X43631771Y-14495383D01*
X43695131Y-14527413D01*
X43714340Y-14550298D01*
X43804174Y-14687578D01*
X43878848Y-14769357D01*
X43964278Y-14862915D01*
X43967858Y-14866836D01*
X44012310Y-14902068D01*
X44154129Y-15014473D01*
X44154135Y-15014477D01*
X44158098Y-15017618D01*
X44369998Y-15136045D01*
X44464749Y-15170532D01*
X44593348Y-15217339D01*
X44593353Y-15217340D01*
X44598105Y-15219070D01*
X44603074Y-15220018D01*
X44603078Y-15220019D01*
X44797100Y-15257030D01*
X44836553Y-15264556D01*
X44992051Y-15268900D01*
X45074150Y-15271193D01*
X45074153Y-15271193D01*
X45079205Y-15271334D01*
X45084218Y-15270665D01*
X45084220Y-15270665D01*
X45314806Y-15239898D01*
X45319820Y-15239229D01*
X45324661Y-15237767D01*
X45324663Y-15237767D01*
X45547357Y-15170532D01*
X45547361Y-15170530D01*
X45552208Y-15169067D01*
X45770388Y-15062654D01*
X45968747Y-14922726D01*
X45990250Y-14903091D01*
X47823341Y-13070000D01*
X55736654Y-13070000D01*
X55736924Y-13074119D01*
X55752782Y-13316067D01*
X55756017Y-13365426D01*
X55756819Y-13369459D01*
X55756820Y-13369465D01*
X55792069Y-13546670D01*
X55813776Y-13655797D01*
X55815103Y-13659706D01*
X55815104Y-13659710D01*
X55858114Y-13786413D01*
X55908941Y-13936145D01*
X56039885Y-14201673D01*
X56042179Y-14205106D01*
X56184566Y-14418203D01*
X56204367Y-14447838D01*
X56207081Y-14450932D01*
X56207085Y-14450938D01*
X56351644Y-14615775D01*
X56399573Y-14670427D01*
X56402662Y-14673136D01*
X56619062Y-14862915D01*
X56619068Y-14862919D01*
X56622162Y-14865633D01*
X56625588Y-14867922D01*
X56625593Y-14867926D01*
X56809405Y-14990744D01*
X56868327Y-15030115D01*
X56872026Y-15031939D01*
X56872031Y-15031942D01*
X56999793Y-15094947D01*
X57133855Y-15161059D01*
X57137760Y-15162384D01*
X57137761Y-15162385D01*
X57410290Y-15254896D01*
X57410294Y-15254897D01*
X57414203Y-15256224D01*
X57418247Y-15257028D01*
X57418253Y-15257030D01*
X57700535Y-15313180D01*
X57700541Y-15313181D01*
X57704574Y-15313983D01*
X57708679Y-15314252D01*
X57708686Y-15314253D01*
X57995881Y-15333076D01*
X58000000Y-15333346D01*
X58004119Y-15333076D01*
X58291314Y-15314253D01*
X58291321Y-15314252D01*
X58295426Y-15313983D01*
X58299459Y-15313181D01*
X58299465Y-15313180D01*
X58581747Y-15257030D01*
X58581753Y-15257028D01*
X58585797Y-15256224D01*
X58589706Y-15254897D01*
X58589710Y-15254896D01*
X58862239Y-15162385D01*
X58862240Y-15162384D01*
X58866145Y-15161059D01*
X59000207Y-15094947D01*
X59127969Y-15031942D01*
X59127974Y-15031939D01*
X59131673Y-15030115D01*
X59190595Y-14990744D01*
X59374407Y-14867926D01*
X59374412Y-14867922D01*
X59377838Y-14865633D01*
X59380932Y-14862919D01*
X59380938Y-14862915D01*
X59597338Y-14673136D01*
X59600427Y-14670427D01*
X59648356Y-14615775D01*
X59792915Y-14450938D01*
X59792919Y-14450932D01*
X59795633Y-14447838D01*
X59815435Y-14418203D01*
X59957821Y-14205106D01*
X59960115Y-14201673D01*
X60091059Y-13936145D01*
X60141886Y-13786413D01*
X60184896Y-13659710D01*
X60184897Y-13659706D01*
X60186224Y-13655797D01*
X60207931Y-13546670D01*
X60243180Y-13369465D01*
X60243181Y-13369459D01*
X60243983Y-13365426D01*
X60247219Y-13316067D01*
X60263076Y-13074119D01*
X60263346Y-13070000D01*
X60253550Y-12920533D01*
X60244253Y-12778686D01*
X60244252Y-12778679D01*
X60243983Y-12774574D01*
X60240627Y-12757699D01*
X60187030Y-12488253D01*
X60187028Y-12488247D01*
X60186224Y-12484203D01*
X60180684Y-12467881D01*
X60092385Y-12207761D01*
X60092384Y-12207760D01*
X60091059Y-12203855D01*
X60014808Y-12049233D01*
X59961942Y-11942031D01*
X59961939Y-11942026D01*
X59960115Y-11938327D01*
X59857782Y-11785174D01*
X59797926Y-11695593D01*
X59797922Y-11695588D01*
X59795633Y-11692162D01*
X59792919Y-11689068D01*
X59792915Y-11689062D01*
X59603136Y-11472662D01*
X59600427Y-11469573D01*
X59567881Y-11441031D01*
X59380938Y-11277085D01*
X59380932Y-11277081D01*
X59377838Y-11274367D01*
X59374412Y-11272078D01*
X59374407Y-11272074D01*
X59135106Y-11112179D01*
X59131673Y-11109885D01*
X59127974Y-11108061D01*
X59127969Y-11108058D01*
X58980215Y-11035194D01*
X58866145Y-10978941D01*
X58852258Y-10974227D01*
X58589710Y-10885104D01*
X58589706Y-10885103D01*
X58585797Y-10883776D01*
X58581753Y-10882972D01*
X58581747Y-10882970D01*
X58299465Y-10826820D01*
X58299459Y-10826819D01*
X58295426Y-10826017D01*
X58291321Y-10825748D01*
X58291314Y-10825747D01*
X58004119Y-10806924D01*
X58000000Y-10806654D01*
X57995881Y-10806924D01*
X57708686Y-10825747D01*
X57708679Y-10825748D01*
X57704574Y-10826017D01*
X57700541Y-10826819D01*
X57700535Y-10826820D01*
X57418253Y-10882970D01*
X57418247Y-10882972D01*
X57414203Y-10883776D01*
X57410294Y-10885103D01*
X57410290Y-10885104D01*
X57147742Y-10974227D01*
X57133855Y-10978941D01*
X57019785Y-11035194D01*
X56872031Y-11108058D01*
X56872026Y-11108061D01*
X56868327Y-11109885D01*
X56864894Y-11112179D01*
X56625593Y-11272074D01*
X56625588Y-11272078D01*
X56622162Y-11274367D01*
X56619068Y-11277081D01*
X56619062Y-11277085D01*
X56432119Y-11441031D01*
X56399573Y-11469573D01*
X56396864Y-11472662D01*
X56207085Y-11689062D01*
X56207081Y-11689068D01*
X56204367Y-11692162D01*
X56202078Y-11695588D01*
X56202074Y-11695593D01*
X56142218Y-11785174D01*
X56039885Y-11938327D01*
X56038061Y-11942026D01*
X56038058Y-11942031D01*
X55985192Y-12049233D01*
X55908941Y-12203855D01*
X55907616Y-12207760D01*
X55907615Y-12207761D01*
X55819317Y-12467881D01*
X55813776Y-12484203D01*
X55812972Y-12488247D01*
X55812970Y-12488253D01*
X55759374Y-12757699D01*
X55756017Y-12774574D01*
X55755748Y-12778679D01*
X55755747Y-12778686D01*
X55746450Y-12920533D01*
X55736654Y-13070000D01*
X47823341Y-13070000D01*
X50347936Y-10545405D01*
X50410248Y-10511379D01*
X50437031Y-10508500D01*
X72657725Y-10508500D01*
X72725846Y-10528502D01*
X72758551Y-10558935D01*
X72836739Y-10663261D01*
X72953295Y-10750615D01*
X73089684Y-10801745D01*
X73151866Y-10808500D01*
X74122969Y-10808500D01*
X74191090Y-10828502D01*
X74212064Y-10845405D01*
X75679452Y-12312793D01*
X75713478Y-12375105D01*
X75708413Y-12445920D01*
X75665866Y-12502756D01*
X75599346Y-12527567D01*
X75529972Y-12512476D01*
X75518537Y-12505415D01*
X75424299Y-12440039D01*
X75424296Y-12440037D01*
X75420457Y-12437374D01*
X75416264Y-12435306D01*
X75183564Y-12320551D01*
X75183561Y-12320550D01*
X75179376Y-12318486D01*
X75131745Y-12303239D01*
X74965853Y-12250137D01*
X74923370Y-12236538D01*
X74918763Y-12235788D01*
X74918760Y-12235787D01*
X74662674Y-12194081D01*
X74662675Y-12194081D01*
X74658063Y-12193330D01*
X74527719Y-12191624D01*
X74393961Y-12189873D01*
X74393958Y-12189873D01*
X74389284Y-12189812D01*
X74122937Y-12226060D01*
X73864874Y-12301278D01*
X73620763Y-12413815D01*
X73540471Y-12466457D01*
X73533737Y-12470872D01*
X73464652Y-12491500D01*
X72024016Y-12491500D01*
X72020498Y-12491451D01*
X71925850Y-12488807D01*
X71925847Y-12488807D01*
X71920795Y-12488666D01*
X71842902Y-12499059D01*
X71836361Y-12499758D01*
X71807668Y-12502067D01*
X71763077Y-12505654D01*
X71763073Y-12505655D01*
X71758035Y-12506060D01*
X71726122Y-12513899D01*
X71712742Y-12516426D01*
X71680180Y-12520771D01*
X71675339Y-12522232D01*
X71675337Y-12522233D01*
X71604971Y-12543478D01*
X71598610Y-12545219D01*
X71522294Y-12563963D01*
X71517634Y-12565941D01*
X71492049Y-12576801D01*
X71479239Y-12581438D01*
X71447792Y-12590933D01*
X71443244Y-12593151D01*
X71443237Y-12593154D01*
X71377182Y-12625371D01*
X71371180Y-12628107D01*
X71326496Y-12647075D01*
X71298844Y-12658812D01*
X71274532Y-12674123D01*
X71271044Y-12676319D01*
X71259140Y-12682945D01*
X71229612Y-12697346D01*
X71225475Y-12700265D01*
X71225474Y-12700265D01*
X71165403Y-12742641D01*
X71159914Y-12746301D01*
X71097714Y-12785471D01*
X71093433Y-12788167D01*
X71089644Y-12791508D01*
X71089638Y-12791512D01*
X71068783Y-12809898D01*
X71058088Y-12818344D01*
X71031253Y-12837274D01*
X71009750Y-12856909D01*
X70970034Y-12896625D01*
X70964264Y-12902044D01*
X70915142Y-12945350D01*
X70915139Y-12945353D01*
X70911345Y-12948698D01*
X70908135Y-12952606D01*
X70908134Y-12952607D01*
X70884821Y-12980989D01*
X70876551Y-12990108D01*
X56950334Y-26916325D01*
X56947812Y-26918779D01*
X56875319Y-26987332D01*
X56872252Y-26991344D01*
X56827592Y-27049757D01*
X56823448Y-27054892D01*
X56772530Y-27114720D01*
X56769911Y-27119045D01*
X56769907Y-27119050D01*
X56755509Y-27142824D01*
X56747837Y-27154071D01*
X56727880Y-27180174D01*
X56725490Y-27184632D01*
X56725489Y-27184633D01*
X56690761Y-27249401D01*
X56687496Y-27255126D01*
X56646779Y-27322358D01*
X56644884Y-27327049D01*
X56634473Y-27352817D01*
X56628693Y-27365158D01*
X56613169Y-27394109D01*
X56611523Y-27398890D01*
X56611521Y-27398894D01*
X56587588Y-27468401D01*
X56585278Y-27474579D01*
X56555845Y-27547429D01*
X56554723Y-27552368D01*
X56548568Y-27579460D01*
X56544837Y-27592559D01*
X56534138Y-27623631D01*
X56520757Y-27701100D01*
X56519477Y-27707504D01*
X56502065Y-27784144D01*
X56500001Y-27816953D01*
X56498415Y-27830453D01*
X56492821Y-27862836D01*
X56491500Y-27891925D01*
X56491500Y-27948108D01*
X56491251Y-27956019D01*
X56486822Y-28026413D01*
X56487316Y-28031448D01*
X56490899Y-28067992D01*
X56491500Y-28080288D01*
X56491500Y-28095500D01*
X56471498Y-28163621D01*
X56417842Y-28210114D01*
X56365500Y-28221500D01*
X55041016Y-28221500D01*
X54972895Y-28201498D01*
X54951921Y-28184595D01*
X51294748Y-24527423D01*
X51282361Y-24513010D01*
X51274441Y-24502248D01*
X51270100Y-24496349D01*
X51231280Y-24463369D01*
X51223764Y-24456439D01*
X51218380Y-24451055D01*
X51215519Y-24448792D01*
X51215514Y-24448787D01*
X51196908Y-24434067D01*
X51193507Y-24431278D01*
X51145332Y-24390351D01*
X51145331Y-24390350D01*
X51139749Y-24385608D01*
X51133226Y-24382277D01*
X51128549Y-24379158D01*
X51123795Y-24376222D01*
X51118057Y-24371682D01*
X51054147Y-24341811D01*
X51050239Y-24339901D01*
X50987418Y-24307824D01*
X50980306Y-24306084D01*
X50975020Y-24304118D01*
X50969735Y-24302360D01*
X50963105Y-24299261D01*
X50894032Y-24284894D01*
X50889748Y-24283924D01*
X50821279Y-24267170D01*
X50815677Y-24266822D01*
X50815674Y-24266822D01*
X50810480Y-24266500D01*
X50810481Y-24266476D01*
X50806066Y-24266212D01*
X50802816Y-24265922D01*
X50795648Y-24264431D01*
X50734516Y-24266085D01*
X50720877Y-24266454D01*
X50717469Y-24266500D01*
X21125166Y-24266500D01*
X21106216Y-24265067D01*
X21093007Y-24263057D01*
X21093003Y-24263057D01*
X21085773Y-24261957D01*
X21078481Y-24262550D01*
X21078477Y-24262550D01*
X21035019Y-24266085D01*
X21024805Y-24266500D01*
X21017174Y-24266500D01*
X21013540Y-24266924D01*
X21013534Y-24266924D01*
X21001039Y-24268381D01*
X20989942Y-24269675D01*
X20985594Y-24270105D01*
X20915295Y-24275823D01*
X20908331Y-24278079D01*
X20902835Y-24279177D01*
X20897382Y-24280466D01*
X20890110Y-24281314D01*
X20823798Y-24305384D01*
X20819667Y-24306802D01*
X20806237Y-24311153D01*
X20759538Y-24326281D01*
X20759534Y-24326283D01*
X20752579Y-24328536D01*
X20746329Y-24332328D01*
X20741212Y-24334671D01*
X20736205Y-24337178D01*
X20729333Y-24339673D01*
X20723220Y-24343681D01*
X20723216Y-24343683D01*
X20670337Y-24378353D01*
X20666616Y-24380700D01*
X20606355Y-24417267D01*
X20598245Y-24424429D01*
X20598230Y-24424412D01*
X20594920Y-24427346D01*
X20592413Y-24429442D01*
X20586294Y-24433454D01*
X20581262Y-24438766D01*
X20534834Y-24487776D01*
X20532456Y-24490218D01*
X17355502Y-27667173D01*
X17293190Y-27701199D01*
X17255426Y-27703599D01*
X17065476Y-27686981D01*
X17065475Y-27686981D01*
X17060000Y-27686502D01*
X16831913Y-27706457D01*
X16826600Y-27707881D01*
X16826598Y-27707881D01*
X16616067Y-27764293D01*
X16616065Y-27764294D01*
X16610757Y-27765716D01*
X16605776Y-27768039D01*
X16605775Y-27768039D01*
X16408238Y-27860151D01*
X16408233Y-27860154D01*
X16403251Y-27862477D01*
X16363222Y-27890506D01*
X16220211Y-27990643D01*
X16220208Y-27990645D01*
X16215700Y-27993802D01*
X16053802Y-28155700D01*
X16050645Y-28160208D01*
X16050643Y-28160211D01*
X16048012Y-28163969D01*
X15922477Y-28343251D01*
X15920154Y-28348233D01*
X15920151Y-28348238D01*
X15904195Y-28382457D01*
X15857278Y-28435742D01*
X15789001Y-28455203D01*
X15721041Y-28434661D01*
X15675805Y-28382457D01*
X15659849Y-28348238D01*
X15659846Y-28348233D01*
X15657523Y-28343251D01*
X15531988Y-28163969D01*
X15529357Y-28160211D01*
X15529355Y-28160208D01*
X15526198Y-28155700D01*
X15364300Y-27993802D01*
X15359792Y-27990645D01*
X15359789Y-27990643D01*
X15216778Y-27890506D01*
X15176749Y-27862477D01*
X15171767Y-27860154D01*
X15171762Y-27860151D01*
X14974225Y-27768039D01*
X14974224Y-27768039D01*
X14969243Y-27765716D01*
X14963935Y-27764294D01*
X14963933Y-27764293D01*
X14753402Y-27707881D01*
X14753400Y-27707881D01*
X14748087Y-27706457D01*
X14520000Y-27686502D01*
X14291913Y-27706457D01*
X14286600Y-27707881D01*
X14286598Y-27707881D01*
X14076067Y-27764293D01*
X14076065Y-27764294D01*
X14070757Y-27765716D01*
X14065776Y-27768039D01*
X14065775Y-27768039D01*
X13868238Y-27860151D01*
X13868233Y-27860154D01*
X13863251Y-27862477D01*
X13823222Y-27890506D01*
X13680211Y-27990643D01*
X13680208Y-27990645D01*
X13675700Y-27993802D01*
X13513802Y-28155700D01*
X13510645Y-28160208D01*
X13510643Y-28160211D01*
X13508012Y-28163969D01*
X13382477Y-28343251D01*
X13380154Y-28348233D01*
X13380151Y-28348238D01*
X13364195Y-28382457D01*
X13317278Y-28435742D01*
X13249001Y-28455203D01*
X13181041Y-28434661D01*
X13135805Y-28382457D01*
X13119849Y-28348238D01*
X13119846Y-28348233D01*
X13117523Y-28343251D01*
X12991988Y-28163969D01*
X12989357Y-28160211D01*
X12989355Y-28160208D01*
X12986198Y-28155700D01*
X12824300Y-27993802D01*
X12819792Y-27990645D01*
X12819789Y-27990643D01*
X12676778Y-27890506D01*
X12636749Y-27862477D01*
X12631767Y-27860154D01*
X12631762Y-27860151D01*
X12434225Y-27768039D01*
X12434224Y-27768039D01*
X12429243Y-27765716D01*
X12423935Y-27764294D01*
X12423933Y-27764293D01*
X12213402Y-27707881D01*
X12213400Y-27707881D01*
X12208087Y-27706457D01*
X11980000Y-27686502D01*
X11751913Y-27706457D01*
X11746600Y-27707881D01*
X11746598Y-27707881D01*
X11536067Y-27764293D01*
X11536065Y-27764294D01*
X11530757Y-27765716D01*
X11525776Y-27768039D01*
X11525775Y-27768039D01*
X11328238Y-27860151D01*
X11328233Y-27860154D01*
X11323251Y-27862477D01*
X11283222Y-27890506D01*
X11140211Y-27990643D01*
X11140208Y-27990645D01*
X11135700Y-27993802D01*
X10973802Y-28155700D01*
X10970645Y-28160208D01*
X10970643Y-28160211D01*
X10968012Y-28163969D01*
X10842477Y-28343251D01*
X10840154Y-28348233D01*
X10840151Y-28348238D01*
X10824195Y-28382457D01*
X10777278Y-28435742D01*
X10709001Y-28455203D01*
X10641041Y-28434661D01*
X10595805Y-28382457D01*
X10579849Y-28348238D01*
X10579846Y-28348233D01*
X10577523Y-28343251D01*
X10451988Y-28163969D01*
X10449357Y-28160211D01*
X10449355Y-28160208D01*
X10446198Y-28155700D01*
X10284300Y-27993802D01*
X10279792Y-27990645D01*
X10279789Y-27990643D01*
X10136778Y-27890506D01*
X10096749Y-27862477D01*
X10091767Y-27860154D01*
X10091762Y-27860151D01*
X9894225Y-27768039D01*
X9894224Y-27768039D01*
X9889243Y-27765716D01*
X9883935Y-27764294D01*
X9883933Y-27764293D01*
X9673402Y-27707881D01*
X9673400Y-27707881D01*
X9668087Y-27706457D01*
X9440000Y-27686502D01*
X9211913Y-27706457D01*
X9206600Y-27707881D01*
X9206598Y-27707881D01*
X8996067Y-27764293D01*
X8996065Y-27764294D01*
X8990757Y-27765716D01*
X8985776Y-27768039D01*
X8985775Y-27768039D01*
X8788238Y-27860151D01*
X8788233Y-27860154D01*
X8783251Y-27862477D01*
X8743222Y-27890506D01*
X8600211Y-27990643D01*
X8600208Y-27990645D01*
X8595700Y-27993802D01*
X8433802Y-28155700D01*
X8430645Y-28160208D01*
X8430643Y-28160211D01*
X8428012Y-28163969D01*
X8302477Y-28343251D01*
X8300154Y-28348233D01*
X8300151Y-28348238D01*
X8245679Y-28465055D01*
X8205716Y-28550757D01*
X8204294Y-28556065D01*
X8204293Y-28556067D01*
X8148041Y-28766002D01*
X8146457Y-28771913D01*
X8126502Y-29000000D01*
X8146457Y-29228087D01*
X8205716Y-29449243D01*
X8208039Y-29454224D01*
X8208039Y-29454225D01*
X8300151Y-29651762D01*
X8300154Y-29651767D01*
X8302477Y-29656749D01*
X8433802Y-29844300D01*
X8595700Y-30006198D01*
X8600208Y-30009355D01*
X8600211Y-30009357D01*
X8641542Y-30038297D01*
X8783251Y-30137523D01*
X8788233Y-30139846D01*
X8788238Y-30139849D01*
X8984765Y-30231490D01*
X8990757Y-30234284D01*
X8996065Y-30235706D01*
X8996067Y-30235707D01*
X9206598Y-30292119D01*
X9206600Y-30292119D01*
X9211913Y-30293543D01*
X9440000Y-30313498D01*
X9668087Y-30293543D01*
X9673400Y-30292119D01*
X9673402Y-30292119D01*
X9883933Y-30235707D01*
X9883935Y-30235706D01*
X9889243Y-30234284D01*
X9895235Y-30231490D01*
X10091762Y-30139849D01*
X10091767Y-30139846D01*
X10096749Y-30137523D01*
X10238458Y-30038297D01*
X10279789Y-30009357D01*
X10279792Y-30009355D01*
X10284300Y-30006198D01*
X10446198Y-29844300D01*
X10577523Y-29656749D01*
X10579846Y-29651767D01*
X10579849Y-29651762D01*
X10595805Y-29617543D01*
X10642722Y-29564258D01*
X10710999Y-29544797D01*
X10778959Y-29565339D01*
X10824195Y-29617543D01*
X10840151Y-29651762D01*
X10840154Y-29651767D01*
X10842477Y-29656749D01*
X10973802Y-29844300D01*
X11135700Y-30006198D01*
X11140208Y-30009355D01*
X11140211Y-30009357D01*
X11181542Y-30038297D01*
X11323251Y-30137523D01*
X11328233Y-30139846D01*
X11328238Y-30139849D01*
X11524765Y-30231490D01*
X11530757Y-30234284D01*
X11536065Y-30235706D01*
X11536067Y-30235707D01*
X11746598Y-30292119D01*
X11746600Y-30292119D01*
X11751913Y-30293543D01*
X11980000Y-30313498D01*
X12208087Y-30293543D01*
X12213400Y-30292119D01*
X12213402Y-30292119D01*
X12423933Y-30235707D01*
X12423935Y-30235706D01*
X12429243Y-30234284D01*
X12435235Y-30231490D01*
X12631762Y-30139849D01*
X12631767Y-30139846D01*
X12636749Y-30137523D01*
X12778458Y-30038297D01*
X12819789Y-30009357D01*
X12819792Y-30009355D01*
X12824300Y-30006198D01*
X12986198Y-29844300D01*
X13117523Y-29656749D01*
X13119846Y-29651767D01*
X13119849Y-29651762D01*
X13135805Y-29617543D01*
X13182722Y-29564258D01*
X13250999Y-29544797D01*
X13318959Y-29565339D01*
X13364195Y-29617543D01*
X13380151Y-29651762D01*
X13380154Y-29651767D01*
X13382477Y-29656749D01*
X13513802Y-29844300D01*
X13675700Y-30006198D01*
X13680208Y-30009355D01*
X13680211Y-30009357D01*
X13721542Y-30038297D01*
X13863251Y-30137523D01*
X13868233Y-30139846D01*
X13868238Y-30139849D01*
X14064765Y-30231490D01*
X14070757Y-30234284D01*
X14076065Y-30235706D01*
X14076067Y-30235707D01*
X14286598Y-30292119D01*
X14286600Y-30292119D01*
X14291913Y-30293543D01*
X14520000Y-30313498D01*
X14748087Y-30293543D01*
X14753400Y-30292119D01*
X14753402Y-30292119D01*
X14963933Y-30235707D01*
X14963935Y-30235706D01*
X14969243Y-30234284D01*
X14975235Y-30231490D01*
X15171762Y-30139849D01*
X15171767Y-30139846D01*
X15176749Y-30137523D01*
X15318458Y-30038297D01*
X15359789Y-30009357D01*
X15359792Y-30009355D01*
X15364300Y-30006198D01*
X15526198Y-29844300D01*
X15657523Y-29656749D01*
X15659846Y-29651767D01*
X15659849Y-29651762D01*
X15675805Y-29617543D01*
X15722722Y-29564258D01*
X15790999Y-29544797D01*
X15858959Y-29565339D01*
X15904195Y-29617543D01*
X15920151Y-29651762D01*
X15920154Y-29651767D01*
X15922477Y-29656749D01*
X16053802Y-29844300D01*
X16215700Y-30006198D01*
X16220208Y-30009355D01*
X16220211Y-30009357D01*
X16261542Y-30038297D01*
X16403251Y-30137523D01*
X16408233Y-30139846D01*
X16408238Y-30139849D01*
X16604765Y-30231490D01*
X16610757Y-30234284D01*
X16616065Y-30235706D01*
X16616067Y-30235707D01*
X16826598Y-30292119D01*
X16826600Y-30292119D01*
X16831913Y-30293543D01*
X17060000Y-30313498D01*
X17288087Y-30293543D01*
X17293400Y-30292119D01*
X17293402Y-30292119D01*
X17503933Y-30235707D01*
X17503935Y-30235706D01*
X17509243Y-30234284D01*
X17515235Y-30231490D01*
X17711762Y-30139849D01*
X17711767Y-30139846D01*
X17716749Y-30137523D01*
X17858458Y-30038297D01*
X17899789Y-30009357D01*
X17899792Y-30009355D01*
X17904300Y-30006198D01*
X18066198Y-29844300D01*
X18197523Y-29656749D01*
X18199846Y-29651767D01*
X18199849Y-29651762D01*
X18215805Y-29617543D01*
X18262722Y-29564258D01*
X18330999Y-29544797D01*
X18398959Y-29565339D01*
X18444195Y-29617543D01*
X18460151Y-29651762D01*
X18460154Y-29651767D01*
X18462477Y-29656749D01*
X18593802Y-29844300D01*
X18755700Y-30006198D01*
X18760208Y-30009355D01*
X18760211Y-30009357D01*
X18801542Y-30038297D01*
X18943251Y-30137523D01*
X18948233Y-30139846D01*
X18948238Y-30139849D01*
X19144765Y-30231490D01*
X19150757Y-30234284D01*
X19156065Y-30235706D01*
X19156067Y-30235707D01*
X19366598Y-30292119D01*
X19366600Y-30292119D01*
X19371913Y-30293543D01*
X19600000Y-30313498D01*
X19828087Y-30293543D01*
X19833400Y-30292119D01*
X19833402Y-30292119D01*
X20043933Y-30235707D01*
X20043935Y-30235706D01*
X20049243Y-30234284D01*
X20055235Y-30231490D01*
X20251762Y-30139849D01*
X20251767Y-30139846D01*
X20256749Y-30137523D01*
X20398458Y-30038297D01*
X20439789Y-30009357D01*
X20439792Y-30009355D01*
X20444300Y-30006198D01*
X20606198Y-29844300D01*
X20737523Y-29656749D01*
X20739846Y-29651767D01*
X20739849Y-29651762D01*
X20755805Y-29617543D01*
X20802722Y-29564258D01*
X20870999Y-29544797D01*
X20938959Y-29565339D01*
X20984195Y-29617543D01*
X21000151Y-29651762D01*
X21000154Y-29651767D01*
X21002477Y-29656749D01*
X21133802Y-29844300D01*
X21295700Y-30006198D01*
X21300208Y-30009355D01*
X21300211Y-30009357D01*
X21341542Y-30038297D01*
X21483251Y-30137523D01*
X21488233Y-30139846D01*
X21488238Y-30139849D01*
X21684765Y-30231490D01*
X21690757Y-30234284D01*
X21696065Y-30235706D01*
X21696067Y-30235707D01*
X21906598Y-30292119D01*
X21906600Y-30292119D01*
X21911913Y-30293543D01*
X22140000Y-30313498D01*
X22368087Y-30293543D01*
X22373400Y-30292119D01*
X22373402Y-30292119D01*
X22583933Y-30235707D01*
X22583935Y-30235706D01*
X22589243Y-30234284D01*
X22595235Y-30231490D01*
X22791762Y-30139849D01*
X22791767Y-30139846D01*
X22796749Y-30137523D01*
X22938458Y-30038297D01*
X22979789Y-30009357D01*
X22979792Y-30009355D01*
X22984300Y-30006198D01*
X23146198Y-29844300D01*
X23277523Y-29656749D01*
X23279846Y-29651767D01*
X23279849Y-29651762D01*
X23295805Y-29617543D01*
X23342722Y-29564258D01*
X23410999Y-29544797D01*
X23478959Y-29565339D01*
X23524195Y-29617543D01*
X23540151Y-29651762D01*
X23540154Y-29651767D01*
X23542477Y-29656749D01*
X23673802Y-29844300D01*
X23835700Y-30006198D01*
X23840208Y-30009355D01*
X23840211Y-30009357D01*
X23881542Y-30038297D01*
X24023251Y-30137523D01*
X24028233Y-30139846D01*
X24028238Y-30139849D01*
X24224765Y-30231490D01*
X24230757Y-30234284D01*
X24236065Y-30235706D01*
X24236067Y-30235707D01*
X24446598Y-30292119D01*
X24446600Y-30292119D01*
X24451913Y-30293543D01*
X24680000Y-30313498D01*
X24908087Y-30293543D01*
X24913400Y-30292119D01*
X24913402Y-30292119D01*
X25123933Y-30235707D01*
X25123935Y-30235706D01*
X25129243Y-30234284D01*
X25135235Y-30231490D01*
X25331762Y-30139849D01*
X25331767Y-30139846D01*
X25336749Y-30137523D01*
X25478458Y-30038297D01*
X25519789Y-30009357D01*
X25519792Y-30009355D01*
X25524300Y-30006198D01*
X25686198Y-29844300D01*
X25817523Y-29656749D01*
X25819846Y-29651767D01*
X25819849Y-29651762D01*
X25835805Y-29617543D01*
X25882722Y-29564258D01*
X25950999Y-29544797D01*
X26018959Y-29565339D01*
X26064195Y-29617543D01*
X26080151Y-29651762D01*
X26080154Y-29651767D01*
X26082477Y-29656749D01*
X26213802Y-29844300D01*
X26375700Y-30006198D01*
X26380208Y-30009355D01*
X26380211Y-30009357D01*
X26421542Y-30038297D01*
X26563251Y-30137523D01*
X26568233Y-30139846D01*
X26568238Y-30139849D01*
X26764765Y-30231490D01*
X26770757Y-30234284D01*
X26776065Y-30235706D01*
X26776067Y-30235707D01*
X26986598Y-30292119D01*
X26986600Y-30292119D01*
X26991913Y-30293543D01*
X27220000Y-30313498D01*
X27448087Y-30293543D01*
X27453400Y-30292119D01*
X27453402Y-30292119D01*
X27663933Y-30235707D01*
X27663935Y-30235706D01*
X27669243Y-30234284D01*
X27675235Y-30231490D01*
X27871762Y-30139849D01*
X27871767Y-30139846D01*
X27876749Y-30137523D01*
X28018458Y-30038297D01*
X28059789Y-30009357D01*
X28059792Y-30009355D01*
X28064300Y-30006198D01*
X28226198Y-29844300D01*
X28357523Y-29656749D01*
X28359846Y-29651767D01*
X28359849Y-29651762D01*
X28375805Y-29617543D01*
X28422722Y-29564258D01*
X28490999Y-29544797D01*
X28558959Y-29565339D01*
X28604195Y-29617543D01*
X28620151Y-29651762D01*
X28620154Y-29651767D01*
X28622477Y-29656749D01*
X28753802Y-29844300D01*
X28915700Y-30006198D01*
X28920208Y-30009355D01*
X28920211Y-30009357D01*
X28961542Y-30038297D01*
X29103251Y-30137523D01*
X29108233Y-30139846D01*
X29108238Y-30139849D01*
X29304765Y-30231490D01*
X29310757Y-30234284D01*
X29316065Y-30235706D01*
X29316067Y-30235707D01*
X29526598Y-30292119D01*
X29526600Y-30292119D01*
X29531913Y-30293543D01*
X29760000Y-30313498D01*
X29988087Y-30293543D01*
X29993400Y-30292119D01*
X29993402Y-30292119D01*
X30203933Y-30235707D01*
X30203935Y-30235706D01*
X30209243Y-30234284D01*
X30215235Y-30231490D01*
X30411762Y-30139849D01*
X30411767Y-30139846D01*
X30416749Y-30137523D01*
X30558458Y-30038297D01*
X30599789Y-30009357D01*
X30599792Y-30009355D01*
X30604300Y-30006198D01*
X30766198Y-29844300D01*
X30897523Y-29656749D01*
X30899846Y-29651767D01*
X30899849Y-29651762D01*
X30915805Y-29617543D01*
X30962722Y-29564258D01*
X31030999Y-29544797D01*
X31098959Y-29565339D01*
X31144195Y-29617543D01*
X31160151Y-29651762D01*
X31160154Y-29651767D01*
X31162477Y-29656749D01*
X31293802Y-29844300D01*
X31455700Y-30006198D01*
X31460208Y-30009355D01*
X31460211Y-30009357D01*
X31512771Y-30046160D01*
X31557099Y-30101618D01*
X31566500Y-30149373D01*
X31566500Y-30543984D01*
X31546498Y-30612105D01*
X31529595Y-30633079D01*
X20914417Y-41248257D01*
X20852105Y-41282283D01*
X20795910Y-41281681D01*
X20751043Y-41270910D01*
X20691524Y-41256620D01*
X20691518Y-41256619D01*
X20686711Y-41255465D01*
X20450000Y-41236835D01*
X20213289Y-41255465D01*
X20208482Y-41256619D01*
X20208476Y-41256620D01*
X20062609Y-41291640D01*
X19982406Y-41310895D01*
X19977835Y-41312788D01*
X19977833Y-41312789D01*
X19767611Y-41399865D01*
X19767607Y-41399867D01*
X19763037Y-41401760D01*
X19758817Y-41404346D01*
X19564798Y-41523241D01*
X19564792Y-41523245D01*
X19560584Y-41525824D01*
X19380031Y-41680031D01*
X19225824Y-41860584D01*
X19223237Y-41864806D01*
X19167147Y-41956335D01*
X19114500Y-42003967D01*
X19059715Y-42016500D01*
X15340285Y-42016500D01*
X15272164Y-41996498D01*
X15232853Y-41956335D01*
X15176763Y-41864806D01*
X15174176Y-41860584D01*
X15019969Y-41680031D01*
X14839416Y-41525824D01*
X14835208Y-41523245D01*
X14835202Y-41523241D01*
X14641183Y-41404346D01*
X14636963Y-41401760D01*
X14632393Y-41399867D01*
X14632389Y-41399865D01*
X14422167Y-41312789D01*
X14422165Y-41312788D01*
X14417594Y-41310895D01*
X14337391Y-41291640D01*
X14191524Y-41256620D01*
X14191518Y-41256619D01*
X14186711Y-41255465D01*
X13950000Y-41236835D01*
X13713289Y-41255465D01*
X13708482Y-41256619D01*
X13708476Y-41256620D01*
X13562609Y-41291640D01*
X13482406Y-41310895D01*
X13477835Y-41312788D01*
X13477833Y-41312789D01*
X13267611Y-41399865D01*
X13267607Y-41399867D01*
X13263037Y-41401760D01*
X13258817Y-41404346D01*
X13064798Y-41523241D01*
X13064792Y-41523245D01*
X13060584Y-41525824D01*
X12880031Y-41680031D01*
X12725824Y-41860584D01*
X12723245Y-41864792D01*
X12723241Y-41864798D01*
X12667147Y-41956335D01*
X12601760Y-42063037D01*
X12510895Y-42282406D01*
X12455465Y-42513289D01*
X12436835Y-42750000D01*
X12455465Y-42986711D01*
X12510895Y-43217594D01*
X12601760Y-43436963D01*
X12604346Y-43441183D01*
X12723241Y-43635202D01*
X12723245Y-43635208D01*
X12725824Y-43639416D01*
X12880031Y-43819969D01*
X13060584Y-43974176D01*
X13064792Y-43976755D01*
X13064798Y-43976759D01*
X13258817Y-44095654D01*
X13263037Y-44098240D01*
X13267607Y-44100133D01*
X13267611Y-44100135D01*
X13477833Y-44187211D01*
X13482406Y-44189105D01*
X13562609Y-44208360D01*
X13708476Y-44243380D01*
X13708482Y-44243381D01*
X13713289Y-44244535D01*
X13950000Y-44263165D01*
X14186711Y-44244535D01*
X14191518Y-44243381D01*
X14191524Y-44243380D01*
X14337391Y-44208360D01*
X14417594Y-44189105D01*
X14422167Y-44187211D01*
X14632389Y-44100135D01*
X14632393Y-44100133D01*
X14636963Y-44098240D01*
X14641183Y-44095654D01*
X14835202Y-43976759D01*
X14835208Y-43976755D01*
X14839416Y-43974176D01*
X15019969Y-43819969D01*
X15174176Y-43639416D01*
X15232853Y-43543665D01*
X15285500Y-43496033D01*
X15340285Y-43483500D01*
X19059715Y-43483500D01*
X19127836Y-43503502D01*
X19167147Y-43543665D01*
X19225824Y-43639416D01*
X19380031Y-43819969D01*
X19560584Y-43974176D01*
X19564792Y-43976755D01*
X19564798Y-43976759D01*
X19758817Y-44095654D01*
X19763037Y-44098240D01*
X19767607Y-44100133D01*
X19767611Y-44100135D01*
X19977833Y-44187211D01*
X19982406Y-44189105D01*
X20062609Y-44208360D01*
X20208476Y-44243380D01*
X20208482Y-44243381D01*
X20213289Y-44244535D01*
X20450000Y-44263165D01*
X20686711Y-44244535D01*
X20691518Y-44243381D01*
X20691524Y-44243380D01*
X20837391Y-44208360D01*
X20917594Y-44189105D01*
X20922167Y-44187211D01*
X21132389Y-44100135D01*
X21132393Y-44100133D01*
X21136963Y-44098240D01*
X21141183Y-44095654D01*
X21335202Y-43976759D01*
X21335208Y-43976755D01*
X21339416Y-43974176D01*
X21519969Y-43819969D01*
X21674176Y-43639416D01*
X21676755Y-43635208D01*
X21676759Y-43635202D01*
X21795654Y-43441183D01*
X21798240Y-43436963D01*
X21889105Y-43217594D01*
X21944535Y-42986711D01*
X21963165Y-42750000D01*
X21944535Y-42513289D01*
X21918319Y-42404091D01*
X21921866Y-42333184D01*
X21951743Y-42285583D01*
X32772581Y-31464745D01*
X32786994Y-31452358D01*
X32797752Y-31444441D01*
X32803651Y-31440100D01*
X32836625Y-31401287D01*
X32843555Y-31393771D01*
X32848946Y-31388380D01*
X32865959Y-31366876D01*
X32868736Y-31363490D01*
X32909649Y-31315333D01*
X32909653Y-31315328D01*
X32914392Y-31309749D01*
X32917722Y-31303227D01*
X32920842Y-31298549D01*
X32923778Y-31293795D01*
X32928318Y-31288057D01*
X32954657Y-31231704D01*
X32958189Y-31224146D01*
X32960099Y-31220239D01*
X32992176Y-31157418D01*
X32993916Y-31150306D01*
X32995882Y-31145020D01*
X32997640Y-31139735D01*
X33000739Y-31133105D01*
X33015106Y-31064032D01*
X33016076Y-31059748D01*
X33031495Y-30996733D01*
X33032830Y-30991279D01*
X33033289Y-30983891D01*
X33033500Y-30980480D01*
X33033524Y-30980481D01*
X33033788Y-30976065D01*
X33034078Y-30972816D01*
X33035569Y-30965648D01*
X33033546Y-30890860D01*
X33033500Y-30887454D01*
X33033500Y-30149373D01*
X33053502Y-30081252D01*
X33087229Y-30046160D01*
X33139789Y-30009357D01*
X33139792Y-30009355D01*
X33144300Y-30006198D01*
X33306198Y-29844300D01*
X33437523Y-29656749D01*
X33439846Y-29651767D01*
X33439849Y-29651762D01*
X33455805Y-29617543D01*
X33502722Y-29564258D01*
X33570999Y-29544797D01*
X33638959Y-29565339D01*
X33684195Y-29617543D01*
X33700151Y-29651762D01*
X33700154Y-29651767D01*
X33702477Y-29656749D01*
X33833802Y-29844300D01*
X33995700Y-30006198D01*
X34000208Y-30009355D01*
X34000211Y-30009357D01*
X34052771Y-30046160D01*
X34097099Y-30101618D01*
X34106500Y-30149373D01*
X34106500Y-38503984D01*
X34086498Y-38572105D01*
X34069595Y-38593079D01*
X20914417Y-51748257D01*
X20852105Y-51782283D01*
X20795910Y-51781681D01*
X20751043Y-51770910D01*
X20691524Y-51756620D01*
X20691518Y-51756619D01*
X20686711Y-51755465D01*
X20450000Y-51736835D01*
X20213289Y-51755465D01*
X20208482Y-51756619D01*
X20208476Y-51756620D01*
X20062609Y-51791640D01*
X19982406Y-51810895D01*
X19977835Y-51812788D01*
X19977833Y-51812789D01*
X19767611Y-51899865D01*
X19767607Y-51899867D01*
X19763037Y-51901760D01*
X19758817Y-51904346D01*
X19564798Y-52023241D01*
X19564792Y-52023245D01*
X19560584Y-52025824D01*
X19380031Y-52180031D01*
X19225824Y-52360584D01*
X19223237Y-52364806D01*
X19167147Y-52456335D01*
X19114500Y-52503967D01*
X19059715Y-52516500D01*
X15340285Y-52516500D01*
X15272164Y-52496498D01*
X15232853Y-52456335D01*
X15176763Y-52364806D01*
X15174176Y-52360584D01*
X15019969Y-52180031D01*
X14839416Y-52025824D01*
X14835208Y-52023245D01*
X14835202Y-52023241D01*
X14641183Y-51904346D01*
X14636963Y-51901760D01*
X14632393Y-51899867D01*
X14632389Y-51899865D01*
X14422167Y-51812789D01*
X14422165Y-51812788D01*
X14417594Y-51810895D01*
X14337391Y-51791640D01*
X14191524Y-51756620D01*
X14191518Y-51756619D01*
X14186711Y-51755465D01*
X13950000Y-51736835D01*
X13713289Y-51755465D01*
X13708482Y-51756619D01*
X13708476Y-51756620D01*
X13562609Y-51791640D01*
X13482406Y-51810895D01*
X13477835Y-51812788D01*
X13477833Y-51812789D01*
X13267611Y-51899865D01*
X13267607Y-51899867D01*
X13263037Y-51901760D01*
X13258817Y-51904346D01*
X13064798Y-52023241D01*
X13064792Y-52023245D01*
X13060584Y-52025824D01*
X12880031Y-52180031D01*
X12725824Y-52360584D01*
X12723245Y-52364792D01*
X12723241Y-52364798D01*
X12667147Y-52456335D01*
X12601760Y-52563037D01*
X12510895Y-52782406D01*
X12455465Y-53013289D01*
X12436835Y-53250000D01*
X12455465Y-53486711D01*
X12510895Y-53717594D01*
X12601760Y-53936963D01*
X12604346Y-53941183D01*
X12723241Y-54135202D01*
X12723245Y-54135208D01*
X12725824Y-54139416D01*
X12880031Y-54319969D01*
X13060584Y-54474176D01*
X13064792Y-54476755D01*
X13064798Y-54476759D01*
X13258817Y-54595654D01*
X13263037Y-54598240D01*
X13267607Y-54600133D01*
X13267611Y-54600135D01*
X13477833Y-54687211D01*
X13482406Y-54689105D01*
X13562609Y-54708360D01*
X13708476Y-54743380D01*
X13708482Y-54743381D01*
X13713289Y-54744535D01*
X13950000Y-54763165D01*
X14186711Y-54744535D01*
X14191518Y-54743381D01*
X14191524Y-54743380D01*
X14337391Y-54708360D01*
X14417594Y-54689105D01*
X14422167Y-54687211D01*
X14632389Y-54600135D01*
X14632393Y-54600133D01*
X14636963Y-54598240D01*
X14641183Y-54595654D01*
X14835202Y-54476759D01*
X14835208Y-54476755D01*
X14839416Y-54474176D01*
X15019969Y-54319969D01*
X15174176Y-54139416D01*
X15232853Y-54043665D01*
X15285500Y-53996033D01*
X15340285Y-53983500D01*
X19059715Y-53983500D01*
X19127836Y-54003502D01*
X19167147Y-54043665D01*
X19225824Y-54139416D01*
X19380031Y-54319969D01*
X19560584Y-54474176D01*
X19564792Y-54476755D01*
X19564798Y-54476759D01*
X19758817Y-54595654D01*
X19763037Y-54598240D01*
X19767607Y-54600133D01*
X19767611Y-54600135D01*
X19977833Y-54687211D01*
X19982406Y-54689105D01*
X20062609Y-54708360D01*
X20208476Y-54743380D01*
X20208482Y-54743381D01*
X20213289Y-54744535D01*
X20450000Y-54763165D01*
X20686711Y-54744535D01*
X20691518Y-54743381D01*
X20691524Y-54743380D01*
X20837391Y-54708360D01*
X20917594Y-54689105D01*
X20922167Y-54687211D01*
X21132389Y-54600135D01*
X21132393Y-54600133D01*
X21136963Y-54598240D01*
X21141183Y-54595654D01*
X21335202Y-54476759D01*
X21335208Y-54476755D01*
X21339416Y-54474176D01*
X21519969Y-54319969D01*
X21674176Y-54139416D01*
X21676755Y-54135208D01*
X21676759Y-54135202D01*
X21795654Y-53941183D01*
X21798240Y-53936963D01*
X21889105Y-53717594D01*
X21944535Y-53486711D01*
X21963165Y-53250000D01*
X21944535Y-53013289D01*
X21918319Y-52904091D01*
X21921866Y-52833184D01*
X21951743Y-52785583D01*
X35312577Y-39424748D01*
X35326990Y-39412361D01*
X35337752Y-39404441D01*
X35343651Y-39400100D01*
X35376631Y-39361280D01*
X35383561Y-39353764D01*
X35388945Y-39348380D01*
X35391208Y-39345519D01*
X35391213Y-39345514D01*
X35405932Y-39326909D01*
X35408721Y-39323507D01*
X35449653Y-39275328D01*
X35449656Y-39275324D01*
X35454392Y-39269749D01*
X35457722Y-39263227D01*
X35460831Y-39258565D01*
X35463773Y-39253801D01*
X35468318Y-39248057D01*
X35498186Y-39184151D01*
X35500110Y-39180216D01*
X35528847Y-39123937D01*
X35532176Y-39117418D01*
X35533916Y-39110308D01*
X35535867Y-39105061D01*
X35537638Y-39099737D01*
X35540738Y-39093105D01*
X35555102Y-39024049D01*
X35556072Y-39019764D01*
X35571495Y-38956733D01*
X35572830Y-38951279D01*
X35573500Y-38940480D01*
X35573524Y-38940481D01*
X35573788Y-38936066D01*
X35574078Y-38932816D01*
X35575569Y-38925648D01*
X35573546Y-38850877D01*
X35573500Y-38847469D01*
X35573500Y-30149373D01*
X35593502Y-30081252D01*
X35627229Y-30046160D01*
X35679789Y-30009357D01*
X35679792Y-30009355D01*
X35684300Y-30006198D01*
X35846198Y-29844300D01*
X35977523Y-29656749D01*
X35979846Y-29651767D01*
X35979849Y-29651762D01*
X35996081Y-29616951D01*
X36042998Y-29563666D01*
X36111275Y-29544205D01*
X36179235Y-29564747D01*
X36224471Y-29616951D01*
X36240586Y-29651511D01*
X36246069Y-29661007D01*
X36371028Y-29839467D01*
X36378084Y-29847875D01*
X36532125Y-30001916D01*
X36540533Y-30008972D01*
X36718993Y-30133931D01*
X36728489Y-30139414D01*
X36925947Y-30231490D01*
X36936239Y-30235236D01*
X37108503Y-30281394D01*
X37122599Y-30281058D01*
X37126000Y-30273116D01*
X37126000Y-28872000D01*
X37146002Y-28803879D01*
X37199658Y-28757386D01*
X37252000Y-28746000D01*
X37508000Y-28746000D01*
X37576121Y-28766002D01*
X37622614Y-28819658D01*
X37634000Y-28872000D01*
X37634000Y-30267967D01*
X37637973Y-30281498D01*
X37646522Y-30282727D01*
X37823761Y-30235236D01*
X37834053Y-30231490D01*
X38031511Y-30139414D01*
X38041007Y-30133931D01*
X38219467Y-30008972D01*
X38227875Y-30001916D01*
X38381916Y-29847875D01*
X38388972Y-29839467D01*
X38513931Y-29661007D01*
X38519414Y-29651511D01*
X38535529Y-29616951D01*
X38582446Y-29563666D01*
X38650723Y-29544205D01*
X38718683Y-29564747D01*
X38763919Y-29616951D01*
X38780151Y-29651762D01*
X38780154Y-29651767D01*
X38782477Y-29656749D01*
X38913802Y-29844300D01*
X39075700Y-30006198D01*
X39080208Y-30009355D01*
X39080211Y-30009357D01*
X39121542Y-30038297D01*
X39263251Y-30137523D01*
X39268233Y-30139846D01*
X39268238Y-30139849D01*
X39464765Y-30231490D01*
X39470757Y-30234284D01*
X39476065Y-30235706D01*
X39476067Y-30235707D01*
X39686598Y-30292119D01*
X39686600Y-30292119D01*
X39691913Y-30293543D01*
X39920000Y-30313498D01*
X40148087Y-30293543D01*
X40153400Y-30292119D01*
X40153402Y-30292119D01*
X40363933Y-30235707D01*
X40363935Y-30235706D01*
X40369243Y-30234284D01*
X40375235Y-30231490D01*
X40571762Y-30139849D01*
X40571767Y-30139846D01*
X40576749Y-30137523D01*
X40718458Y-30038297D01*
X40759789Y-30009357D01*
X40759792Y-30009355D01*
X40764300Y-30006198D01*
X40926198Y-29844300D01*
X41057523Y-29656749D01*
X41059846Y-29651767D01*
X41059849Y-29651762D01*
X41075805Y-29617543D01*
X41122722Y-29564258D01*
X41190999Y-29544797D01*
X41258959Y-29565339D01*
X41304195Y-29617543D01*
X41320151Y-29651762D01*
X41320154Y-29651767D01*
X41322477Y-29656749D01*
X41453802Y-29844300D01*
X41615700Y-30006198D01*
X41620208Y-30009355D01*
X41620211Y-30009357D01*
X41661542Y-30038297D01*
X41803251Y-30137523D01*
X41808233Y-30139846D01*
X41808238Y-30139849D01*
X42004765Y-30231490D01*
X42010757Y-30234284D01*
X42016065Y-30235706D01*
X42016067Y-30235707D01*
X42226598Y-30292119D01*
X42226600Y-30292119D01*
X42231913Y-30293543D01*
X42460000Y-30313498D01*
X42688087Y-30293543D01*
X42693400Y-30292119D01*
X42693402Y-30292119D01*
X42903933Y-30235707D01*
X42903935Y-30235706D01*
X42909243Y-30234284D01*
X42915235Y-30231490D01*
X43111762Y-30139849D01*
X43111767Y-30139846D01*
X43116749Y-30137523D01*
X43258458Y-30038297D01*
X43299789Y-30009357D01*
X43299792Y-30009355D01*
X43304300Y-30006198D01*
X43466198Y-29844300D01*
X43469357Y-29839789D01*
X43472892Y-29835576D01*
X43474026Y-29836527D01*
X43524071Y-29796529D01*
X43594690Y-29789224D01*
X43658049Y-29821258D01*
X43694030Y-29882462D01*
X43697082Y-29899517D01*
X43698255Y-29910316D01*
X43749385Y-30046705D01*
X43836739Y-30163261D01*
X43953295Y-30250615D01*
X44089684Y-30301745D01*
X44151866Y-30308500D01*
X45848134Y-30308500D01*
X45910316Y-30301745D01*
X46046705Y-30250615D01*
X46163261Y-30163261D01*
X46250615Y-30046705D01*
X46301745Y-29910316D01*
X46308500Y-29848134D01*
X46308500Y-28151866D01*
X46301745Y-28089684D01*
X46250615Y-27953295D01*
X46236953Y-27935066D01*
X46212104Y-27868560D01*
X46227156Y-27799178D01*
X46277330Y-27748947D01*
X46337778Y-27733500D01*
X47143984Y-27733500D01*
X47212105Y-27753502D01*
X47233079Y-27770405D01*
X57229595Y-37766921D01*
X57263621Y-37829233D01*
X57266500Y-37856016D01*
X57266500Y-51434834D01*
X57265067Y-51453783D01*
X57261957Y-51474227D01*
X57262550Y-51481519D01*
X57262550Y-51481522D01*
X57266085Y-51524979D01*
X57266500Y-51535194D01*
X57266500Y-51542826D01*
X57266922Y-51546445D01*
X57266923Y-51546464D01*
X57269675Y-51570069D01*
X57270107Y-51574435D01*
X57275823Y-51644704D01*
X57278081Y-51651673D01*
X57279184Y-51657193D01*
X57280466Y-51662618D01*
X57281314Y-51669890D01*
X57283811Y-51676769D01*
X57305382Y-51736196D01*
X57306810Y-51740356D01*
X57326280Y-51800458D01*
X57326282Y-51800462D01*
X57328536Y-51807420D01*
X57332330Y-51813672D01*
X57334672Y-51818788D01*
X57337176Y-51823789D01*
X57339673Y-51830667D01*
X57343683Y-51836784D01*
X57343686Y-51836789D01*
X57378347Y-51889654D01*
X57380695Y-51893376D01*
X57417267Y-51953645D01*
X57420979Y-51957848D01*
X57424429Y-51961755D01*
X57424412Y-51961770D01*
X57427346Y-51965080D01*
X57429442Y-51967587D01*
X57433454Y-51973706D01*
X57438766Y-51978738D01*
X57487776Y-52025166D01*
X57490218Y-52027544D01*
X58248257Y-52785583D01*
X58282283Y-52847895D01*
X58281681Y-52904090D01*
X58255465Y-53013289D01*
X58236835Y-53250000D01*
X58255465Y-53486711D01*
X58310895Y-53717594D01*
X58401760Y-53936963D01*
X58404346Y-53941183D01*
X58523241Y-54135202D01*
X58523245Y-54135208D01*
X58525824Y-54139416D01*
X58680031Y-54319969D01*
X58860584Y-54474176D01*
X58864792Y-54476755D01*
X58864798Y-54476759D01*
X59058817Y-54595654D01*
X59063037Y-54598240D01*
X59067607Y-54600133D01*
X59067611Y-54600135D01*
X59277833Y-54687211D01*
X59282406Y-54689105D01*
X59362609Y-54708360D01*
X59508476Y-54743380D01*
X59508482Y-54743381D01*
X59513289Y-54744535D01*
X59750000Y-54763165D01*
X59986711Y-54744535D01*
X59991518Y-54743381D01*
X59991524Y-54743380D01*
X60137391Y-54708360D01*
X60217594Y-54689105D01*
X60222167Y-54687211D01*
X60432389Y-54600135D01*
X60432393Y-54600133D01*
X60436963Y-54598240D01*
X60441183Y-54595654D01*
X60635202Y-54476759D01*
X60635208Y-54476755D01*
X60639416Y-54474176D01*
X60819969Y-54319969D01*
X60974176Y-54139416D01*
X61032853Y-54043665D01*
X61085500Y-53996033D01*
X61140285Y-53983500D01*
X64859715Y-53983500D01*
X64927836Y-54003502D01*
X64967147Y-54043665D01*
X65025824Y-54139416D01*
X65180031Y-54319969D01*
X65360584Y-54474176D01*
X65364792Y-54476755D01*
X65364798Y-54476759D01*
X65558817Y-54595654D01*
X65563037Y-54598240D01*
X65567607Y-54600133D01*
X65567611Y-54600135D01*
X65777833Y-54687211D01*
X65782406Y-54689105D01*
X65862609Y-54708360D01*
X66008476Y-54743380D01*
X66008482Y-54743381D01*
X66013289Y-54744535D01*
X66250000Y-54763165D01*
X66486711Y-54744535D01*
X66491518Y-54743381D01*
X66491524Y-54743380D01*
X66637391Y-54708360D01*
X66717594Y-54689105D01*
X66722167Y-54687211D01*
X66932389Y-54600135D01*
X66932393Y-54600133D01*
X66936963Y-54598240D01*
X66941183Y-54595654D01*
X67135202Y-54476759D01*
X67135208Y-54476755D01*
X67139416Y-54474176D01*
X67319969Y-54319969D01*
X67474176Y-54139416D01*
X67476755Y-54135208D01*
X67476759Y-54135202D01*
X67595654Y-53941183D01*
X67598240Y-53936963D01*
X67689105Y-53717594D01*
X67744535Y-53486711D01*
X67763165Y-53250000D01*
X67744535Y-53013289D01*
X67689105Y-52782406D01*
X67598240Y-52563037D01*
X67532853Y-52456335D01*
X67476759Y-52364798D01*
X67476755Y-52364792D01*
X67474176Y-52360584D01*
X67319969Y-52180031D01*
X67139416Y-52025824D01*
X67135208Y-52023245D01*
X67135202Y-52023241D01*
X66941183Y-51904346D01*
X66936963Y-51901760D01*
X66932393Y-51899867D01*
X66932389Y-51899865D01*
X66722167Y-51812789D01*
X66722165Y-51812788D01*
X66717594Y-51810895D01*
X66637391Y-51791640D01*
X66491524Y-51756620D01*
X66491518Y-51756619D01*
X66486711Y-51755465D01*
X66250000Y-51736835D01*
X66013289Y-51755465D01*
X66008482Y-51756619D01*
X66008476Y-51756620D01*
X65862609Y-51791640D01*
X65782406Y-51810895D01*
X65777835Y-51812788D01*
X65777833Y-51812789D01*
X65567611Y-51899865D01*
X65567607Y-51899867D01*
X65563037Y-51901760D01*
X65558817Y-51904346D01*
X65364798Y-52023241D01*
X65364792Y-52023245D01*
X65360584Y-52025824D01*
X65180031Y-52180031D01*
X65025824Y-52360584D01*
X65023237Y-52364806D01*
X64967147Y-52456335D01*
X64914500Y-52503967D01*
X64859715Y-52516500D01*
X61140285Y-52516500D01*
X61072164Y-52496498D01*
X61032853Y-52456335D01*
X60976763Y-52364806D01*
X60974176Y-52360584D01*
X60819969Y-52180031D01*
X60639416Y-52025824D01*
X60635208Y-52023245D01*
X60635202Y-52023241D01*
X60441183Y-51904346D01*
X60436963Y-51901760D01*
X60432393Y-51899867D01*
X60432389Y-51899865D01*
X60222167Y-51812789D01*
X60222165Y-51812788D01*
X60217594Y-51810895D01*
X60137391Y-51791640D01*
X59991524Y-51756620D01*
X59991518Y-51756619D01*
X59986711Y-51755465D01*
X59750000Y-51736835D01*
X59513289Y-51755465D01*
X59508482Y-51756619D01*
X59508476Y-51756620D01*
X59448957Y-51770910D01*
X59404091Y-51781681D01*
X59333184Y-51778134D01*
X59285583Y-51748257D01*
X58770405Y-51233079D01*
X58736379Y-51170767D01*
X58733500Y-51143984D01*
X58733500Y-50120701D01*
X58753502Y-50052580D01*
X58807158Y-50006087D01*
X58877432Y-49995983D01*
X58925335Y-50013268D01*
X59059052Y-50095210D01*
X59067837Y-50099687D01*
X59277988Y-50186734D01*
X59287373Y-50189783D01*
X59508554Y-50242885D01*
X59518301Y-50244428D01*
X59745070Y-50262275D01*
X59754930Y-50262275D01*
X59981699Y-50244428D01*
X59991446Y-50242885D01*
X60212627Y-50189783D01*
X60222012Y-50186734D01*
X60432163Y-50099687D01*
X60440958Y-50095205D01*
X60608445Y-49992568D01*
X60617400Y-49982670D01*
X65382160Y-49982670D01*
X65387887Y-49990320D01*
X65559042Y-50095205D01*
X65567837Y-50099687D01*
X65777988Y-50186734D01*
X65787373Y-50189783D01*
X66008554Y-50242885D01*
X66018301Y-50244428D01*
X66245070Y-50262275D01*
X66254930Y-50262275D01*
X66481699Y-50244428D01*
X66491446Y-50242885D01*
X66712627Y-50189783D01*
X66722012Y-50186734D01*
X66932163Y-50099687D01*
X66940958Y-50095205D01*
X67108445Y-49992568D01*
X67117907Y-49982110D01*
X67114124Y-49973334D01*
X66262812Y-49122022D01*
X66248868Y-49114408D01*
X66247035Y-49114539D01*
X66240420Y-49118790D01*
X65388920Y-49970290D01*
X65382160Y-49982670D01*
X60617400Y-49982670D01*
X60617907Y-49982110D01*
X60614124Y-49973334D01*
X59479885Y-48839095D01*
X59445859Y-48776783D01*
X59447694Y-48751132D01*
X60114408Y-48751132D01*
X60114539Y-48752965D01*
X60118790Y-48759580D01*
X60970290Y-49611080D01*
X60982670Y-49617840D01*
X60990320Y-49612113D01*
X61095205Y-49440958D01*
X61099687Y-49432163D01*
X61186734Y-49222012D01*
X61189783Y-49212627D01*
X61242885Y-48991446D01*
X61244428Y-48981699D01*
X61262275Y-48754930D01*
X64737725Y-48754930D01*
X64755572Y-48981699D01*
X64757115Y-48991446D01*
X64810217Y-49212627D01*
X64813266Y-49222012D01*
X64900313Y-49432163D01*
X64904795Y-49440958D01*
X65007432Y-49608445D01*
X65017890Y-49617907D01*
X65026666Y-49614124D01*
X65877978Y-48762812D01*
X65884356Y-48751132D01*
X66614408Y-48751132D01*
X66614539Y-48752965D01*
X66618790Y-48759580D01*
X67470290Y-49611080D01*
X67482670Y-49617840D01*
X67490320Y-49612113D01*
X67595205Y-49440958D01*
X67599687Y-49432163D01*
X67686734Y-49222012D01*
X67689783Y-49212627D01*
X67742885Y-48991446D01*
X67744428Y-48981699D01*
X67762275Y-48754930D01*
X67762275Y-48745070D01*
X67744428Y-48518301D01*
X67742885Y-48508554D01*
X67689783Y-48287373D01*
X67686734Y-48277988D01*
X67599687Y-48067837D01*
X67595205Y-48059042D01*
X67492568Y-47891555D01*
X67482110Y-47882093D01*
X67473334Y-47885876D01*
X66622022Y-48737188D01*
X66614408Y-48751132D01*
X65884356Y-48751132D01*
X65885592Y-48748868D01*
X65885461Y-48747035D01*
X65881210Y-48740420D01*
X65029710Y-47888920D01*
X65017330Y-47882160D01*
X65009680Y-47887887D01*
X64904795Y-48059042D01*
X64900313Y-48067837D01*
X64813266Y-48277988D01*
X64810217Y-48287373D01*
X64757115Y-48508554D01*
X64755572Y-48518301D01*
X64737725Y-48745070D01*
X64737725Y-48754930D01*
X61262275Y-48754930D01*
X61262275Y-48745070D01*
X61244428Y-48518301D01*
X61242885Y-48508554D01*
X61189783Y-48287373D01*
X61186734Y-48277988D01*
X61099687Y-48067837D01*
X61095205Y-48059042D01*
X60992568Y-47891555D01*
X60982110Y-47882093D01*
X60973334Y-47885876D01*
X60122022Y-48737188D01*
X60114408Y-48751132D01*
X59447694Y-48751132D01*
X59450924Y-48705968D01*
X59479885Y-48660905D01*
X60611080Y-47529710D01*
X60617534Y-47517890D01*
X65382093Y-47517890D01*
X65385876Y-47526666D01*
X66237188Y-48377978D01*
X66251132Y-48385592D01*
X66252965Y-48385461D01*
X66259580Y-48381210D01*
X67111080Y-47529710D01*
X67117840Y-47517330D01*
X67112113Y-47509680D01*
X66940958Y-47404795D01*
X66932163Y-47400313D01*
X66722012Y-47313266D01*
X66712627Y-47310217D01*
X66491446Y-47257115D01*
X66481699Y-47255572D01*
X66254930Y-47237725D01*
X66245070Y-47237725D01*
X66018301Y-47255572D01*
X66008554Y-47257115D01*
X65787373Y-47310217D01*
X65777988Y-47313266D01*
X65567837Y-47400313D01*
X65559042Y-47404795D01*
X65391555Y-47507432D01*
X65382093Y-47517890D01*
X60617534Y-47517890D01*
X60617840Y-47517330D01*
X60612113Y-47509680D01*
X60440958Y-47404795D01*
X60432163Y-47400313D01*
X60222012Y-47313266D01*
X60212627Y-47310217D01*
X59991446Y-47257115D01*
X59981699Y-47255572D01*
X59754930Y-47237725D01*
X59745070Y-47237725D01*
X59518301Y-47255572D01*
X59508554Y-47257115D01*
X59287373Y-47310217D01*
X59277988Y-47313266D01*
X59067837Y-47400313D01*
X59059052Y-47404790D01*
X58925335Y-47486732D01*
X58856802Y-47505270D01*
X58789125Y-47483814D01*
X58743792Y-47429175D01*
X58733500Y-47379299D01*
X58733500Y-37565166D01*
X58734933Y-37546216D01*
X58736943Y-37533007D01*
X58736943Y-37533003D01*
X58738043Y-37525773D01*
X58733915Y-37475019D01*
X58733500Y-37464805D01*
X58733500Y-37457174D01*
X58730325Y-37429942D01*
X58729894Y-37425583D01*
X58726362Y-37382160D01*
X58724177Y-37355295D01*
X58721921Y-37348331D01*
X58720823Y-37342835D01*
X58719534Y-37337382D01*
X58718686Y-37330110D01*
X58694616Y-37263798D01*
X58693193Y-37259653D01*
X58673719Y-37199538D01*
X58673717Y-37199534D01*
X58671464Y-37192579D01*
X58667672Y-37186329D01*
X58665329Y-37181212D01*
X58662822Y-37176205D01*
X58660327Y-37169333D01*
X58656319Y-37163220D01*
X58656317Y-37163216D01*
X58621647Y-37110337D01*
X58619300Y-37106616D01*
X58585647Y-37051157D01*
X58585646Y-37051156D01*
X58582733Y-37046355D01*
X58575570Y-37038245D01*
X58575588Y-37038229D01*
X58572658Y-37034925D01*
X58570559Y-37032414D01*
X58566546Y-37026294D01*
X58512205Y-36974816D01*
X58509763Y-36972438D01*
X56455995Y-34918670D01*
X56421969Y-34856358D01*
X56427034Y-34785543D01*
X56469581Y-34728707D01*
X56536101Y-34703896D01*
X56557932Y-34704231D01*
X56591421Y-34707662D01*
X56599600Y-34708500D01*
X57400400Y-34708500D01*
X57403646Y-34708163D01*
X57403650Y-34708163D01*
X57499308Y-34698238D01*
X57499312Y-34698237D01*
X57506166Y-34697526D01*
X57512702Y-34695345D01*
X57512704Y-34695345D01*
X57666998Y-34643868D01*
X57673946Y-34641550D01*
X57824348Y-34548478D01*
X57911137Y-34461537D01*
X57973421Y-34427458D01*
X58044241Y-34432461D01*
X58089329Y-34461382D01*
X58171829Y-34543739D01*
X58183240Y-34552751D01*
X58321243Y-34637816D01*
X58334424Y-34643963D01*
X58488710Y-34695138D01*
X58502086Y-34698005D01*
X58596438Y-34707672D01*
X58602854Y-34708000D01*
X58727885Y-34708000D01*
X58743124Y-34703525D01*
X58744329Y-34702135D01*
X58746000Y-34694452D01*
X58746000Y-34689884D01*
X59254000Y-34689884D01*
X59258475Y-34705123D01*
X59259865Y-34706328D01*
X59267548Y-34707999D01*
X59397095Y-34707999D01*
X59403614Y-34707662D01*
X59499206Y-34697743D01*
X59512600Y-34694851D01*
X59666784Y-34643412D01*
X59679962Y-34637239D01*
X59817807Y-34551937D01*
X59829208Y-34542901D01*
X59943739Y-34428171D01*
X59952751Y-34416760D01*
X60037816Y-34278757D01*
X60043963Y-34265576D01*
X60095138Y-34111290D01*
X60098005Y-34097914D01*
X60107672Y-34003562D01*
X60108000Y-33997146D01*
X60108000Y-33772115D01*
X60103525Y-33756876D01*
X60102135Y-33755671D01*
X60094452Y-33754000D01*
X59272115Y-33754000D01*
X59256876Y-33758475D01*
X59255671Y-33759865D01*
X59254000Y-33767548D01*
X59254000Y-34689884D01*
X58746000Y-34689884D01*
X58746000Y-33227885D01*
X59254000Y-33227885D01*
X59258475Y-33243124D01*
X59259865Y-33244329D01*
X59267548Y-33246000D01*
X60089884Y-33246000D01*
X60105123Y-33241525D01*
X60106328Y-33240135D01*
X60107999Y-33232452D01*
X60107999Y-33002905D01*
X60107662Y-32996386D01*
X60097743Y-32900794D01*
X60094851Y-32887400D01*
X60043412Y-32733216D01*
X60037239Y-32720038D01*
X59951937Y-32582193D01*
X59942901Y-32570792D01*
X59828171Y-32456261D01*
X59816760Y-32447249D01*
X59678757Y-32362184D01*
X59665576Y-32356037D01*
X59511290Y-32304862D01*
X59497914Y-32301995D01*
X59403562Y-32292328D01*
X59397145Y-32292000D01*
X59272115Y-32292000D01*
X59256876Y-32296475D01*
X59255671Y-32297865D01*
X59254000Y-32305548D01*
X59254000Y-33227885D01*
X58746000Y-33227885D01*
X58746000Y-32310116D01*
X58741525Y-32294877D01*
X58740135Y-32293672D01*
X58732452Y-32292001D01*
X58602905Y-32292001D01*
X58596386Y-32292338D01*
X58500794Y-32302257D01*
X58487400Y-32305149D01*
X58333216Y-32356588D01*
X58320038Y-32362761D01*
X58182193Y-32448063D01*
X58170792Y-32457099D01*
X58089570Y-32538462D01*
X58027287Y-32572541D01*
X57956467Y-32567538D01*
X57911380Y-32538617D01*
X57828488Y-32455870D01*
X57828483Y-32455866D01*
X57823303Y-32450695D01*
X57787199Y-32428440D01*
X57678968Y-32361725D01*
X57678966Y-32361724D01*
X57672738Y-32357885D01*
X57592995Y-32331436D01*
X57511389Y-32304368D01*
X57511387Y-32304368D01*
X57504861Y-32302203D01*
X57498025Y-32301503D01*
X57498022Y-32301502D01*
X57454969Y-32297091D01*
X57400400Y-32291500D01*
X56881017Y-32291500D01*
X56812896Y-32271498D01*
X56791922Y-32254596D01*
X56230405Y-31693080D01*
X56196380Y-31630767D01*
X56193500Y-31603984D01*
X56193500Y-31364500D01*
X56213502Y-31296379D01*
X56267158Y-31249886D01*
X56319500Y-31238500D01*
X56460634Y-31238500D01*
X56522816Y-31231745D01*
X56659205Y-31180615D01*
X56775761Y-31093261D01*
X56863115Y-30976705D01*
X56866728Y-30967067D01*
X56867512Y-30966024D01*
X56870577Y-30960425D01*
X56871385Y-30960867D01*
X56909368Y-30910302D01*
X56975929Y-30885600D01*
X57045278Y-30900806D01*
X57064687Y-30913929D01*
X57129379Y-30967067D01*
X57136278Y-30972734D01*
X57208030Y-31014495D01*
X57331027Y-31086081D01*
X57346078Y-31094841D01*
X57350801Y-31096654D01*
X57567972Y-31180018D01*
X57567979Y-31180020D01*
X57572702Y-31181833D01*
X57603418Y-31188250D01*
X57619708Y-31192813D01*
X57625515Y-31194870D01*
X57688780Y-31206140D01*
X57692432Y-31206846D01*
X57810320Y-31231474D01*
X57815371Y-31231703D01*
X57815376Y-31231704D01*
X57824110Y-31232100D01*
X57829840Y-31232360D01*
X57846209Y-31234182D01*
X57862037Y-31237001D01*
X57890560Y-31237350D01*
X57955726Y-31238146D01*
X57959901Y-31238267D01*
X58047762Y-31242257D01*
X58047769Y-31242257D01*
X58052817Y-31242486D01*
X58069491Y-31240557D01*
X58085507Y-31239731D01*
X58092214Y-31239813D01*
X58097094Y-31239873D01*
X58097096Y-31239873D01*
X58102263Y-31239936D01*
X58184962Y-31227282D01*
X58189517Y-31226669D01*
X58293956Y-31214585D01*
X58317095Y-31208037D01*
X58332331Y-31204730D01*
X58339744Y-31203596D01*
X58382202Y-31189719D01*
X58386993Y-31188258D01*
X58527532Y-31148490D01*
X58532108Y-31146356D01*
X58532114Y-31146354D01*
X58742954Y-31048038D01*
X58742958Y-31048036D01*
X58747536Y-31045901D01*
X58948307Y-30909456D01*
X59124681Y-30742668D01*
X59179099Y-30671492D01*
X59236363Y-30629524D01*
X59307227Y-30625179D01*
X59369190Y-30659835D01*
X59379021Y-30671140D01*
X59382372Y-30675491D01*
X59537050Y-30845480D01*
X59544583Y-30852506D01*
X59724944Y-30994945D01*
X59733531Y-31000650D01*
X59934722Y-31111714D01*
X59944134Y-31115944D01*
X60160768Y-31192659D01*
X60170739Y-31195293D01*
X60268163Y-31212647D01*
X60281460Y-31211187D01*
X60285543Y-31198096D01*
X60794000Y-31198096D01*
X60797918Y-31211440D01*
X60812194Y-31213427D01*
X60874515Y-31203890D01*
X60884543Y-31201501D01*
X61102988Y-31130102D01*
X61112497Y-31126105D01*
X61316344Y-31019989D01*
X61325069Y-31014495D01*
X61508852Y-30876507D01*
X61516559Y-30869664D01*
X61675339Y-30703509D01*
X61681826Y-30695499D01*
X61811330Y-30505653D01*
X61816429Y-30496679D01*
X61913187Y-30288231D01*
X61916750Y-30278544D01*
X61978165Y-30057092D01*
X61980096Y-30046970D01*
X61984901Y-30002013D01*
X61982253Y-29987392D01*
X61969876Y-29984000D01*
X60812115Y-29984000D01*
X60796876Y-29988475D01*
X60795671Y-29989865D01*
X60794000Y-29997548D01*
X60794000Y-31198096D01*
X60285543Y-31198096D01*
X60286000Y-31196630D01*
X60286000Y-29457885D01*
X60794000Y-29457885D01*
X60798475Y-29473124D01*
X60799865Y-29474329D01*
X60807548Y-29476000D01*
X61970412Y-29476000D01*
X61985141Y-29471675D01*
X61987202Y-29459889D01*
X61986249Y-29448296D01*
X61984567Y-29438134D01*
X61928578Y-29215229D01*
X61925259Y-29205481D01*
X61833615Y-28994711D01*
X61828749Y-28985636D01*
X61703915Y-28792673D01*
X61697622Y-28784502D01*
X61542950Y-28614520D01*
X61535417Y-28607494D01*
X61355056Y-28465055D01*
X61346469Y-28459350D01*
X61145278Y-28348286D01*
X61135866Y-28344056D01*
X60919232Y-28267341D01*
X60909261Y-28264707D01*
X60811837Y-28247353D01*
X60798540Y-28248813D01*
X60794000Y-28263370D01*
X60794000Y-29457885D01*
X60286000Y-29457885D01*
X60286000Y-28261904D01*
X60282082Y-28248560D01*
X60267806Y-28246573D01*
X60200372Y-28256892D01*
X60200111Y-28255184D01*
X60136816Y-28251902D01*
X60079157Y-28210478D01*
X60053046Y-28144457D01*
X60066775Y-28074801D01*
X60089430Y-28043911D01*
X72587936Y-15545405D01*
X72650248Y-15511379D01*
X72677031Y-15508500D01*
X73457484Y-15508500D01*
X73525605Y-15528502D01*
X73531988Y-15532887D01*
X73538954Y-15537995D01*
X73543089Y-15540171D01*
X73543093Y-15540173D01*
X73772698Y-15660975D01*
X73776840Y-15663154D01*
X74030613Y-15751775D01*
X74035206Y-15752647D01*
X74290109Y-15801042D01*
X74290112Y-15801042D01*
X74294698Y-15801913D01*
X74422370Y-15806929D01*
X74558625Y-15812283D01*
X74558630Y-15812283D01*
X74563293Y-15812466D01*
X74667607Y-15801042D01*
X74825844Y-15783713D01*
X74825850Y-15783712D01*
X74830497Y-15783203D01*
X74835021Y-15782012D01*
X75085918Y-15715956D01*
X75085920Y-15715955D01*
X75090441Y-15714765D01*
X75094738Y-15712919D01*
X75333120Y-15610502D01*
X75333122Y-15610501D01*
X75337414Y-15608657D01*
X75456071Y-15535230D01*
X75562017Y-15469669D01*
X75562021Y-15469666D01*
X75565990Y-15467210D01*
X75771149Y-15293530D01*
X75948382Y-15091434D01*
X75965470Y-15064869D01*
X76091269Y-14869291D01*
X76093797Y-14865361D01*
X76204199Y-14620278D01*
X76210068Y-14599467D01*
X76244231Y-14478336D01*
X76281973Y-14418203D01*
X76346234Y-14388020D01*
X76416612Y-14397370D01*
X76470762Y-14443286D01*
X76491500Y-14512538D01*
X76491500Y-16822969D01*
X76471498Y-16891090D01*
X76454595Y-16912064D01*
X73450334Y-19916325D01*
X73447812Y-19918779D01*
X73375319Y-19987332D01*
X73372252Y-19991344D01*
X73327592Y-20049757D01*
X73323448Y-20054892D01*
X73272530Y-20114720D01*
X73269910Y-20119046D01*
X73269905Y-20119053D01*
X73262806Y-20130774D01*
X73210408Y-20178679D01*
X73158645Y-20190664D01*
X73158680Y-20191316D01*
X73155282Y-20191500D01*
X73151866Y-20191500D01*
X73089684Y-20198255D01*
X72953295Y-20249385D01*
X72836739Y-20336739D01*
X72749385Y-20453295D01*
X72698255Y-20589684D01*
X72691500Y-20651866D01*
X72691500Y-23348134D01*
X72698255Y-23410316D01*
X72749385Y-23546705D01*
X72836739Y-23663261D01*
X72953295Y-23750615D01*
X73089684Y-23801745D01*
X73151866Y-23808500D01*
X75848134Y-23808500D01*
X75910316Y-23801745D01*
X76046705Y-23750615D01*
X76163261Y-23663261D01*
X76250615Y-23546705D01*
X76301745Y-23410316D01*
X76308500Y-23348134D01*
X76308500Y-21377031D01*
X76328502Y-21308910D01*
X76345405Y-21287936D01*
X79049666Y-18583675D01*
X79052188Y-18581221D01*
X79121001Y-18516148D01*
X79124681Y-18512668D01*
X79172418Y-18450231D01*
X79176531Y-18445132D01*
X79227470Y-18385280D01*
X79230089Y-18380955D01*
X79230093Y-18380950D01*
X79244491Y-18357176D01*
X79252171Y-18345918D01*
X79265904Y-18327956D01*
X79323169Y-18285988D01*
X79394032Y-18281643D01*
X79455996Y-18316299D01*
X79489386Y-18378953D01*
X79492000Y-18404485D01*
X79492000Y-32360319D01*
X79471998Y-32428440D01*
X79418342Y-32474933D01*
X79348068Y-32485037D01*
X79283488Y-32455543D01*
X79272364Y-32444630D01*
X79194258Y-32357885D01*
X79098629Y-32251678D01*
X78883450Y-32071121D01*
X78645236Y-31922269D01*
X78388625Y-31808018D01*
X78118610Y-31730593D01*
X78114260Y-31729982D01*
X78114257Y-31729981D01*
X78011310Y-31715513D01*
X77840448Y-31691500D01*
X77629854Y-31691500D01*
X77627668Y-31691653D01*
X77627664Y-31691653D01*
X77424173Y-31705882D01*
X77424168Y-31705883D01*
X77419788Y-31706189D01*
X77145030Y-31764591D01*
X77140901Y-31766094D01*
X77140897Y-31766095D01*
X76885219Y-31859154D01*
X76885215Y-31859156D01*
X76881074Y-31860663D01*
X76633058Y-31992536D01*
X76629499Y-31995122D01*
X76629497Y-31995123D01*
X76444006Y-32129890D01*
X76405808Y-32157642D01*
X76203748Y-32352769D01*
X76030812Y-32574118D01*
X76028616Y-32577922D01*
X76028611Y-32577929D01*
X75946565Y-32720038D01*
X75890364Y-32817381D01*
X75785138Y-33077824D01*
X75784073Y-33082097D01*
X75784072Y-33082099D01*
X75743624Y-33244329D01*
X75717183Y-33350376D01*
X75716724Y-33354744D01*
X75716723Y-33354749D01*
X75708938Y-33428825D01*
X75687822Y-33629733D01*
X75687975Y-33634121D01*
X75687975Y-33634127D01*
X75692635Y-33767548D01*
X75697625Y-33910458D01*
X75698387Y-33914781D01*
X75698388Y-33914788D01*
X75722164Y-34049624D01*
X75746402Y-34187087D01*
X75833203Y-34454235D01*
X75835131Y-34458188D01*
X75835133Y-34458193D01*
X75876641Y-34543296D01*
X75956340Y-34706702D01*
X75958795Y-34710341D01*
X75958798Y-34710347D01*
X76009519Y-34785543D01*
X76113415Y-34939576D01*
X76116360Y-34942847D01*
X76116361Y-34942848D01*
X76177169Y-35010382D01*
X76301371Y-35148322D01*
X76516550Y-35328879D01*
X76754764Y-35477731D01*
X77011375Y-35591982D01*
X77281390Y-35669407D01*
X77285740Y-35670018D01*
X77285743Y-35670019D01*
X77388690Y-35684487D01*
X77559552Y-35708500D01*
X77770146Y-35708500D01*
X77772332Y-35708347D01*
X77772336Y-35708347D01*
X77975827Y-35694118D01*
X77975832Y-35694117D01*
X77980212Y-35693811D01*
X78254970Y-35635409D01*
X78259099Y-35633906D01*
X78259103Y-35633905D01*
X78514781Y-35540846D01*
X78514785Y-35540844D01*
X78518926Y-35539337D01*
X78766942Y-35407464D01*
X78871896Y-35331211D01*
X78990629Y-35244947D01*
X78990632Y-35244944D01*
X78994192Y-35242358D01*
X79196252Y-35047231D01*
X79266711Y-34957047D01*
X79324411Y-34915682D01*
X79395316Y-34912079D01*
X79456914Y-34947382D01*
X79489647Y-35010382D01*
X79492000Y-35034621D01*
X79492000Y-55366000D01*
X79471998Y-55434121D01*
X79418342Y-55480614D01*
X79366000Y-55492000D01*
X634000Y-55492000D01*
X565879Y-55471998D01*
X519386Y-55418342D01*
X508000Y-55366000D01*
X508000Y-54953000D01*
X29865810Y-54953000D01*
X52134191Y-54953000D01*
X52134191Y-47047000D01*
X29865810Y-47047000D01*
X29865810Y-54953000D01*
X508000Y-54953000D01*
X508000Y-49982670D01*
X13082160Y-49982670D01*
X13087887Y-49990320D01*
X13259042Y-50095205D01*
X13267837Y-50099687D01*
X13477988Y-50186734D01*
X13487373Y-50189783D01*
X13708554Y-50242885D01*
X13718301Y-50244428D01*
X13945070Y-50262275D01*
X13954930Y-50262275D01*
X14181699Y-50244428D01*
X14191446Y-50242885D01*
X14412627Y-50189783D01*
X14422012Y-50186734D01*
X14632163Y-50099687D01*
X14640958Y-50095205D01*
X14808445Y-49992568D01*
X14817400Y-49982670D01*
X19582160Y-49982670D01*
X19587887Y-49990320D01*
X19759042Y-50095205D01*
X19767837Y-50099687D01*
X19977988Y-50186734D01*
X19987373Y-50189783D01*
X20208554Y-50242885D01*
X20218301Y-50244428D01*
X20445070Y-50262275D01*
X20454930Y-50262275D01*
X20681699Y-50244428D01*
X20691446Y-50242885D01*
X20912627Y-50189783D01*
X20922012Y-50186734D01*
X21132163Y-50099687D01*
X21140958Y-50095205D01*
X21308445Y-49992568D01*
X21317907Y-49982110D01*
X21314124Y-49973334D01*
X20462812Y-49122022D01*
X20448868Y-49114408D01*
X20447035Y-49114539D01*
X20440420Y-49118790D01*
X19588920Y-49970290D01*
X19582160Y-49982670D01*
X14817400Y-49982670D01*
X14817907Y-49982110D01*
X14814124Y-49973334D01*
X13962812Y-49122022D01*
X13948868Y-49114408D01*
X13947035Y-49114539D01*
X13940420Y-49118790D01*
X13088920Y-49970290D01*
X13082160Y-49982670D01*
X508000Y-49982670D01*
X508000Y-48754930D01*
X12437725Y-48754930D01*
X12455572Y-48981699D01*
X12457115Y-48991446D01*
X12510217Y-49212627D01*
X12513266Y-49222012D01*
X12600313Y-49432163D01*
X12604795Y-49440958D01*
X12707432Y-49608445D01*
X12717890Y-49617907D01*
X12726666Y-49614124D01*
X13577978Y-48762812D01*
X13584356Y-48751132D01*
X14314408Y-48751132D01*
X14314539Y-48752965D01*
X14318790Y-48759580D01*
X15170290Y-49611080D01*
X15182670Y-49617840D01*
X15190320Y-49612113D01*
X15295205Y-49440958D01*
X15299687Y-49432163D01*
X15386734Y-49222012D01*
X15389783Y-49212627D01*
X15442885Y-48991446D01*
X15444428Y-48981699D01*
X15462275Y-48754930D01*
X18937725Y-48754930D01*
X18955572Y-48981699D01*
X18957115Y-48991446D01*
X19010217Y-49212627D01*
X19013266Y-49222012D01*
X19100313Y-49432163D01*
X19104795Y-49440958D01*
X19207432Y-49608445D01*
X19217890Y-49617907D01*
X19226666Y-49614124D01*
X20077978Y-48762812D01*
X20084356Y-48751132D01*
X20814408Y-48751132D01*
X20814539Y-48752965D01*
X20818790Y-48759580D01*
X21670290Y-49611080D01*
X21682670Y-49617840D01*
X21690320Y-49612113D01*
X21795205Y-49440958D01*
X21799687Y-49432163D01*
X21886734Y-49222012D01*
X21889783Y-49212627D01*
X21942885Y-48991446D01*
X21944428Y-48981699D01*
X21962275Y-48754930D01*
X21962275Y-48745070D01*
X21944428Y-48518301D01*
X21942885Y-48508554D01*
X21889783Y-48287373D01*
X21886734Y-48277988D01*
X21799687Y-48067837D01*
X21795205Y-48059042D01*
X21692568Y-47891555D01*
X21682110Y-47882093D01*
X21673334Y-47885876D01*
X20822022Y-48737188D01*
X20814408Y-48751132D01*
X20084356Y-48751132D01*
X20085592Y-48748868D01*
X20085461Y-48747035D01*
X20081210Y-48740420D01*
X19229710Y-47888920D01*
X19217330Y-47882160D01*
X19209680Y-47887887D01*
X19104795Y-48059042D01*
X19100313Y-48067837D01*
X19013266Y-48277988D01*
X19010217Y-48287373D01*
X18957115Y-48508554D01*
X18955572Y-48518301D01*
X18937725Y-48745070D01*
X18937725Y-48754930D01*
X15462275Y-48754930D01*
X15462275Y-48745070D01*
X15444428Y-48518301D01*
X15442885Y-48508554D01*
X15389783Y-48287373D01*
X15386734Y-48277988D01*
X15299687Y-48067837D01*
X15295205Y-48059042D01*
X15192568Y-47891555D01*
X15182110Y-47882093D01*
X15173334Y-47885876D01*
X14322022Y-48737188D01*
X14314408Y-48751132D01*
X13584356Y-48751132D01*
X13585592Y-48748868D01*
X13585461Y-48747035D01*
X13581210Y-48740420D01*
X12729710Y-47888920D01*
X12717330Y-47882160D01*
X12709680Y-47887887D01*
X12604795Y-48059042D01*
X12600313Y-48067837D01*
X12513266Y-48277988D01*
X12510217Y-48287373D01*
X12457115Y-48508554D01*
X12455572Y-48518301D01*
X12437725Y-48745070D01*
X12437725Y-48754930D01*
X508000Y-48754930D01*
X508000Y-47517890D01*
X13082093Y-47517890D01*
X13085876Y-47526666D01*
X13937188Y-48377978D01*
X13951132Y-48385592D01*
X13952965Y-48385461D01*
X13959580Y-48381210D01*
X14811080Y-47529710D01*
X14817534Y-47517890D01*
X19582093Y-47517890D01*
X19585876Y-47526666D01*
X20437188Y-48377978D01*
X20451132Y-48385592D01*
X20452965Y-48385461D01*
X20459580Y-48381210D01*
X21311080Y-47529710D01*
X21317840Y-47517330D01*
X21312113Y-47509680D01*
X21140958Y-47404795D01*
X21132163Y-47400313D01*
X20922012Y-47313266D01*
X20912627Y-47310217D01*
X20691446Y-47257115D01*
X20681699Y-47255572D01*
X20454930Y-47237725D01*
X20445070Y-47237725D01*
X20218301Y-47255572D01*
X20208554Y-47257115D01*
X19987373Y-47310217D01*
X19977988Y-47313266D01*
X19767837Y-47400313D01*
X19759042Y-47404795D01*
X19591555Y-47507432D01*
X19582093Y-47517890D01*
X14817534Y-47517890D01*
X14817840Y-47517330D01*
X14812113Y-47509680D01*
X14640958Y-47404795D01*
X14632163Y-47400313D01*
X14422012Y-47313266D01*
X14412627Y-47310217D01*
X14191446Y-47257115D01*
X14181699Y-47255572D01*
X13954930Y-47237725D01*
X13945070Y-47237725D01*
X13718301Y-47255572D01*
X13708554Y-47257115D01*
X13487373Y-47310217D01*
X13477988Y-47313266D01*
X13267837Y-47400313D01*
X13259042Y-47404795D01*
X13091555Y-47507432D01*
X13082093Y-47517890D01*
X508000Y-47517890D01*
X508000Y-39482670D01*
X13082160Y-39482670D01*
X13087887Y-39490320D01*
X13259042Y-39595205D01*
X13267837Y-39599687D01*
X13477988Y-39686734D01*
X13487373Y-39689783D01*
X13708554Y-39742885D01*
X13718301Y-39744428D01*
X13945070Y-39762275D01*
X13954930Y-39762275D01*
X14181699Y-39744428D01*
X14191446Y-39742885D01*
X14412627Y-39689783D01*
X14422012Y-39686734D01*
X14632163Y-39599687D01*
X14640958Y-39595205D01*
X14808445Y-39492568D01*
X14817400Y-39482670D01*
X19582160Y-39482670D01*
X19587887Y-39490320D01*
X19759042Y-39595205D01*
X19767837Y-39599687D01*
X19977988Y-39686734D01*
X19987373Y-39689783D01*
X20208554Y-39742885D01*
X20218301Y-39744428D01*
X20445070Y-39762275D01*
X20454930Y-39762275D01*
X20681699Y-39744428D01*
X20691446Y-39742885D01*
X20912627Y-39689783D01*
X20922012Y-39686734D01*
X21132163Y-39599687D01*
X21140958Y-39595205D01*
X21308445Y-39492568D01*
X21317907Y-39482110D01*
X21314124Y-39473334D01*
X20462812Y-38622022D01*
X20448868Y-38614408D01*
X20447035Y-38614539D01*
X20440420Y-38618790D01*
X19588920Y-39470290D01*
X19582160Y-39482670D01*
X14817400Y-39482670D01*
X14817907Y-39482110D01*
X14814124Y-39473334D01*
X13962812Y-38622022D01*
X13948868Y-38614408D01*
X13947035Y-38614539D01*
X13940420Y-38618790D01*
X13088920Y-39470290D01*
X13082160Y-39482670D01*
X508000Y-39482670D01*
X508000Y-38254930D01*
X12437725Y-38254930D01*
X12455572Y-38481699D01*
X12457115Y-38491446D01*
X12510217Y-38712627D01*
X12513266Y-38722012D01*
X12600313Y-38932163D01*
X12604795Y-38940958D01*
X12707432Y-39108445D01*
X12717890Y-39117907D01*
X12726666Y-39114124D01*
X13577978Y-38262812D01*
X13584356Y-38251132D01*
X14314408Y-38251132D01*
X14314539Y-38252965D01*
X14318790Y-38259580D01*
X15170290Y-39111080D01*
X15182670Y-39117840D01*
X15190320Y-39112113D01*
X15295205Y-38940958D01*
X15299687Y-38932163D01*
X15386734Y-38722012D01*
X15389783Y-38712627D01*
X15442885Y-38491446D01*
X15444428Y-38481699D01*
X15462275Y-38254930D01*
X18937725Y-38254930D01*
X18955572Y-38481699D01*
X18957115Y-38491446D01*
X19010217Y-38712627D01*
X19013266Y-38722012D01*
X19100313Y-38932163D01*
X19104795Y-38940958D01*
X19207432Y-39108445D01*
X19217890Y-39117907D01*
X19226666Y-39114124D01*
X20077978Y-38262812D01*
X20084356Y-38251132D01*
X20814408Y-38251132D01*
X20814539Y-38252965D01*
X20818790Y-38259580D01*
X21670290Y-39111080D01*
X21682670Y-39117840D01*
X21690320Y-39112113D01*
X21795205Y-38940958D01*
X21799687Y-38932163D01*
X21886734Y-38722012D01*
X21889783Y-38712627D01*
X21942885Y-38491446D01*
X21944428Y-38481699D01*
X21962275Y-38254930D01*
X21962275Y-38245070D01*
X21944428Y-38018301D01*
X21942885Y-38008554D01*
X21889783Y-37787373D01*
X21886734Y-37777988D01*
X21799687Y-37567837D01*
X21795205Y-37559042D01*
X21692568Y-37391555D01*
X21682110Y-37382093D01*
X21673334Y-37385876D01*
X20822022Y-38237188D01*
X20814408Y-38251132D01*
X20084356Y-38251132D01*
X20085592Y-38248868D01*
X20085461Y-38247035D01*
X20081210Y-38240420D01*
X19229710Y-37388920D01*
X19217330Y-37382160D01*
X19209680Y-37387887D01*
X19104795Y-37559042D01*
X19100313Y-37567837D01*
X19013266Y-37777988D01*
X19010217Y-37787373D01*
X18957115Y-38008554D01*
X18955572Y-38018301D01*
X18937725Y-38245070D01*
X18937725Y-38254930D01*
X15462275Y-38254930D01*
X15462275Y-38245070D01*
X15444428Y-38018301D01*
X15442885Y-38008554D01*
X15389783Y-37787373D01*
X15386734Y-37777988D01*
X15299687Y-37567837D01*
X15295205Y-37559042D01*
X15192568Y-37391555D01*
X15182110Y-37382093D01*
X15173334Y-37385876D01*
X14322022Y-38237188D01*
X14314408Y-38251132D01*
X13584356Y-38251132D01*
X13585592Y-38248868D01*
X13585461Y-38247035D01*
X13581210Y-38240420D01*
X12729710Y-37388920D01*
X12717330Y-37382160D01*
X12709680Y-37387887D01*
X12604795Y-37559042D01*
X12600313Y-37567837D01*
X12513266Y-37777988D01*
X12510217Y-37787373D01*
X12457115Y-38008554D01*
X12455572Y-38018301D01*
X12437725Y-38245070D01*
X12437725Y-38254930D01*
X508000Y-38254930D01*
X508000Y-37017890D01*
X13082093Y-37017890D01*
X13085876Y-37026666D01*
X13937188Y-37877978D01*
X13951132Y-37885592D01*
X13952965Y-37885461D01*
X13959580Y-37881210D01*
X14811080Y-37029710D01*
X14817534Y-37017890D01*
X19582093Y-37017890D01*
X19585876Y-37026666D01*
X20437188Y-37877978D01*
X20451132Y-37885592D01*
X20452965Y-37885461D01*
X20459580Y-37881210D01*
X21311080Y-37029710D01*
X21317840Y-37017330D01*
X21312113Y-37009680D01*
X21140958Y-36904795D01*
X21132163Y-36900313D01*
X20922012Y-36813266D01*
X20912627Y-36810217D01*
X20691446Y-36757115D01*
X20681699Y-36755572D01*
X20454930Y-36737725D01*
X20445070Y-36737725D01*
X20218301Y-36755572D01*
X20208554Y-36757115D01*
X19987373Y-36810217D01*
X19977988Y-36813266D01*
X19767837Y-36900313D01*
X19759042Y-36904795D01*
X19591555Y-37007432D01*
X19582093Y-37017890D01*
X14817534Y-37017890D01*
X14817840Y-37017330D01*
X14812113Y-37009680D01*
X14640958Y-36904795D01*
X14632163Y-36900313D01*
X14422012Y-36813266D01*
X14412627Y-36810217D01*
X14191446Y-36757115D01*
X14181699Y-36755572D01*
X13954930Y-36737725D01*
X13945070Y-36737725D01*
X13718301Y-36755572D01*
X13708554Y-36757115D01*
X13487373Y-36810217D01*
X13477988Y-36813266D01*
X13267837Y-36900313D01*
X13259042Y-36904795D01*
X13091555Y-37007432D01*
X13082093Y-37017890D01*
X508000Y-37017890D01*
X508000Y-35039681D01*
X528002Y-34971560D01*
X581658Y-34925067D01*
X651932Y-34914963D01*
X716512Y-34944457D01*
X727636Y-34955370D01*
X901371Y-35148322D01*
X1116550Y-35328879D01*
X1354764Y-35477731D01*
X1611375Y-35591982D01*
X1881390Y-35669407D01*
X1885740Y-35670018D01*
X1885743Y-35670019D01*
X1988690Y-35684487D01*
X2159552Y-35708500D01*
X2370146Y-35708500D01*
X2372332Y-35708347D01*
X2372336Y-35708347D01*
X2575827Y-35694118D01*
X2575832Y-35694117D01*
X2580212Y-35693811D01*
X2854970Y-35635409D01*
X2859099Y-35633906D01*
X2859103Y-35633905D01*
X3114781Y-35540846D01*
X3114785Y-35540844D01*
X3118926Y-35539337D01*
X3366942Y-35407464D01*
X3471896Y-35331211D01*
X3590629Y-35244947D01*
X3590632Y-35244944D01*
X3594192Y-35242358D01*
X3796252Y-35047231D01*
X3969188Y-34825882D01*
X3971384Y-34822078D01*
X3971389Y-34822071D01*
X4107435Y-34586431D01*
X4109636Y-34582619D01*
X4214862Y-34322176D01*
X4248544Y-34187087D01*
X4281753Y-34053893D01*
X4281754Y-34053888D01*
X4282817Y-34049624D01*
X4287659Y-34003562D01*
X4311719Y-33774636D01*
X4311719Y-33774633D01*
X4312178Y-33770267D01*
X4311815Y-33759865D01*
X4302529Y-33493939D01*
X4302528Y-33493933D01*
X4302375Y-33489542D01*
X4278608Y-33354749D01*
X4254360Y-33217236D01*
X4253598Y-33212913D01*
X4166797Y-32945765D01*
X4141469Y-32893834D01*
X4056702Y-32720038D01*
X4043660Y-32693298D01*
X4041205Y-32689659D01*
X4041202Y-32689653D01*
X3958834Y-32567538D01*
X3886585Y-32460424D01*
X3879557Y-32452618D01*
X3712803Y-32267420D01*
X3698629Y-32251678D01*
X3483450Y-32071121D01*
X3245236Y-31922269D01*
X2988625Y-31808018D01*
X2718610Y-31730593D01*
X2714260Y-31729982D01*
X2714257Y-31729981D01*
X2611310Y-31715513D01*
X2440448Y-31691500D01*
X2229854Y-31691500D01*
X2227668Y-31691653D01*
X2227664Y-31691653D01*
X2024173Y-31705882D01*
X2024168Y-31705883D01*
X2019788Y-31706189D01*
X1745030Y-31764591D01*
X1740901Y-31766094D01*
X1740897Y-31766095D01*
X1485219Y-31859154D01*
X1485215Y-31859156D01*
X1481074Y-31860663D01*
X1233058Y-31992536D01*
X1229499Y-31995122D01*
X1229497Y-31995123D01*
X1044006Y-32129890D01*
X1005808Y-32157642D01*
X803748Y-32352769D01*
X733290Y-32442952D01*
X675589Y-32484318D01*
X604684Y-32487921D01*
X543086Y-32452618D01*
X510353Y-32389618D01*
X508000Y-32365379D01*
X508000Y-13760000D01*
X8126502Y-13760000D01*
X8146457Y-13988087D01*
X8147881Y-13993400D01*
X8147881Y-13993402D01*
X8203688Y-14201673D01*
X8205716Y-14209243D01*
X8208039Y-14214224D01*
X8208039Y-14214225D01*
X8300151Y-14411762D01*
X8300154Y-14411767D01*
X8302477Y-14416749D01*
X8433802Y-14604300D01*
X8595700Y-14766198D01*
X8600208Y-14769355D01*
X8600211Y-14769357D01*
X8678389Y-14824098D01*
X8783251Y-14897523D01*
X8788233Y-14899846D01*
X8788238Y-14899849D01*
X8984765Y-14991490D01*
X8990757Y-14994284D01*
X8996065Y-14995706D01*
X8996067Y-14995707D01*
X9206598Y-15052119D01*
X9206600Y-15052119D01*
X9211913Y-15053543D01*
X9440000Y-15073498D01*
X9668087Y-15053543D01*
X9673400Y-15052119D01*
X9673402Y-15052119D01*
X9883933Y-14995707D01*
X9883935Y-14995706D01*
X9889243Y-14994284D01*
X9895235Y-14991490D01*
X10091762Y-14899849D01*
X10091767Y-14899846D01*
X10096749Y-14897523D01*
X10201611Y-14824098D01*
X10279789Y-14769357D01*
X10279792Y-14769355D01*
X10284300Y-14766198D01*
X10446198Y-14604300D01*
X10577523Y-14416749D01*
X10579846Y-14411767D01*
X10579849Y-14411762D01*
X10595805Y-14377543D01*
X10642722Y-14324258D01*
X10710999Y-14304797D01*
X10778959Y-14325339D01*
X10824195Y-14377543D01*
X10840151Y-14411762D01*
X10840154Y-14411767D01*
X10842477Y-14416749D01*
X10973802Y-14604300D01*
X11135700Y-14766198D01*
X11140208Y-14769355D01*
X11140211Y-14769357D01*
X11218389Y-14824098D01*
X11323251Y-14897523D01*
X11328233Y-14899846D01*
X11328238Y-14899849D01*
X11524765Y-14991490D01*
X11530757Y-14994284D01*
X11536065Y-14995706D01*
X11536067Y-14995707D01*
X11746598Y-15052119D01*
X11746600Y-15052119D01*
X11751913Y-15053543D01*
X11980000Y-15073498D01*
X12208087Y-15053543D01*
X12213400Y-15052119D01*
X12213402Y-15052119D01*
X12423933Y-14995707D01*
X12423935Y-14995706D01*
X12429243Y-14994284D01*
X12435235Y-14991490D01*
X12631762Y-14899849D01*
X12631767Y-14899846D01*
X12636749Y-14897523D01*
X12741611Y-14824098D01*
X12819789Y-14769357D01*
X12819792Y-14769355D01*
X12824300Y-14766198D01*
X12986198Y-14604300D01*
X13117523Y-14416749D01*
X13119846Y-14411767D01*
X13119849Y-14411762D01*
X13135805Y-14377543D01*
X13182722Y-14324258D01*
X13250999Y-14304797D01*
X13318959Y-14325339D01*
X13364195Y-14377543D01*
X13380151Y-14411762D01*
X13380154Y-14411767D01*
X13382477Y-14416749D01*
X13513802Y-14604300D01*
X13675700Y-14766198D01*
X13680208Y-14769355D01*
X13680211Y-14769357D01*
X13758389Y-14824098D01*
X13863251Y-14897523D01*
X13868233Y-14899846D01*
X13868238Y-14899849D01*
X14064765Y-14991490D01*
X14070757Y-14994284D01*
X14076065Y-14995706D01*
X14076067Y-14995707D01*
X14286598Y-15052119D01*
X14286600Y-15052119D01*
X14291913Y-15053543D01*
X14520000Y-15073498D01*
X14748087Y-15053543D01*
X14753400Y-15052119D01*
X14753402Y-15052119D01*
X14963933Y-14995707D01*
X14963935Y-14995706D01*
X14969243Y-14994284D01*
X14975235Y-14991490D01*
X15171762Y-14899849D01*
X15171767Y-14899846D01*
X15176749Y-14897523D01*
X15281611Y-14824098D01*
X15359789Y-14769357D01*
X15359792Y-14769355D01*
X15364300Y-14766198D01*
X15526198Y-14604300D01*
X15657523Y-14416749D01*
X15659846Y-14411767D01*
X15659849Y-14411762D01*
X15675805Y-14377543D01*
X15722722Y-14324258D01*
X15790999Y-14304797D01*
X15858959Y-14325339D01*
X15904195Y-14377543D01*
X15920151Y-14411762D01*
X15920154Y-14411767D01*
X15922477Y-14416749D01*
X16053802Y-14604300D01*
X16215700Y-14766198D01*
X16220208Y-14769355D01*
X16220211Y-14769357D01*
X16298389Y-14824098D01*
X16403251Y-14897523D01*
X16408233Y-14899846D01*
X16408238Y-14899849D01*
X16604765Y-14991490D01*
X16610757Y-14994284D01*
X16616065Y-14995706D01*
X16616067Y-14995707D01*
X16826598Y-15052119D01*
X16826600Y-15052119D01*
X16831913Y-15053543D01*
X17060000Y-15073498D01*
X17288087Y-15053543D01*
X17293400Y-15052119D01*
X17293402Y-15052119D01*
X17503933Y-14995707D01*
X17503935Y-14995706D01*
X17509243Y-14994284D01*
X17515235Y-14991490D01*
X17711762Y-14899849D01*
X17711767Y-14899846D01*
X17716749Y-14897523D01*
X17821611Y-14824098D01*
X17899789Y-14769357D01*
X17899792Y-14769355D01*
X17904300Y-14766198D01*
X18066198Y-14604300D01*
X18197523Y-14416749D01*
X18199846Y-14411767D01*
X18199849Y-14411762D01*
X18215805Y-14377543D01*
X18262722Y-14324258D01*
X18330999Y-14304797D01*
X18398959Y-14325339D01*
X18444195Y-14377543D01*
X18460151Y-14411762D01*
X18460154Y-14411767D01*
X18462477Y-14416749D01*
X18593802Y-14604300D01*
X18755700Y-14766198D01*
X18760208Y-14769355D01*
X18760211Y-14769357D01*
X18838389Y-14824098D01*
X18943251Y-14897523D01*
X18948233Y-14899846D01*
X18948238Y-14899849D01*
X19144765Y-14991490D01*
X19150757Y-14994284D01*
X19156065Y-14995706D01*
X19156067Y-14995707D01*
X19366598Y-15052119D01*
X19366600Y-15052119D01*
X19371913Y-15053543D01*
X19600000Y-15073498D01*
X19828087Y-15053543D01*
X19833400Y-15052119D01*
X19833402Y-15052119D01*
X20043933Y-14995707D01*
X20043935Y-14995706D01*
X20049243Y-14994284D01*
X20055235Y-14991490D01*
X20251762Y-14899849D01*
X20251767Y-14899846D01*
X20256749Y-14897523D01*
X20361611Y-14824098D01*
X20439789Y-14769357D01*
X20439792Y-14769355D01*
X20444300Y-14766198D01*
X20606198Y-14604300D01*
X20737523Y-14416749D01*
X20739846Y-14411767D01*
X20739849Y-14411762D01*
X20755805Y-14377543D01*
X20802722Y-14324258D01*
X20870999Y-14304797D01*
X20938959Y-14325339D01*
X20984195Y-14377543D01*
X21000151Y-14411762D01*
X21000154Y-14411767D01*
X21002477Y-14416749D01*
X21133802Y-14604300D01*
X21295700Y-14766198D01*
X21300208Y-14769355D01*
X21300211Y-14769357D01*
X21378389Y-14824098D01*
X21483251Y-14897523D01*
X21488233Y-14899846D01*
X21488238Y-14899849D01*
X21684765Y-14991490D01*
X21690757Y-14994284D01*
X21696065Y-14995706D01*
X21696067Y-14995707D01*
X21906598Y-15052119D01*
X21906600Y-15052119D01*
X21911913Y-15053543D01*
X22140000Y-15073498D01*
X22368087Y-15053543D01*
X22373400Y-15052119D01*
X22373402Y-15052119D01*
X22583933Y-14995707D01*
X22583935Y-14995706D01*
X22589243Y-14994284D01*
X22595235Y-14991490D01*
X22791762Y-14899849D01*
X22791767Y-14899846D01*
X22796749Y-14897523D01*
X22901611Y-14824098D01*
X22979789Y-14769357D01*
X22979792Y-14769355D01*
X22984300Y-14766198D01*
X23146198Y-14604300D01*
X23277523Y-14416749D01*
X23279846Y-14411767D01*
X23279849Y-14411762D01*
X23295805Y-14377543D01*
X23342722Y-14324258D01*
X23410999Y-14304797D01*
X23478959Y-14325339D01*
X23524195Y-14377543D01*
X23540151Y-14411762D01*
X23540154Y-14411767D01*
X23542477Y-14416749D01*
X23673802Y-14604300D01*
X23835700Y-14766198D01*
X23840208Y-14769355D01*
X23840211Y-14769357D01*
X23918389Y-14824098D01*
X24023251Y-14897523D01*
X24028233Y-14899846D01*
X24028238Y-14899849D01*
X24224765Y-14991490D01*
X24230757Y-14994284D01*
X24236065Y-14995706D01*
X24236067Y-14995707D01*
X24446598Y-15052119D01*
X24446600Y-15052119D01*
X24451913Y-15053543D01*
X24680000Y-15073498D01*
X24908087Y-15053543D01*
X24913400Y-15052119D01*
X24913402Y-15052119D01*
X25123933Y-14995707D01*
X25123935Y-14995706D01*
X25129243Y-14994284D01*
X25135235Y-14991490D01*
X25331762Y-14899849D01*
X25331767Y-14899846D01*
X25336749Y-14897523D01*
X25441611Y-14824098D01*
X25519789Y-14769357D01*
X25519792Y-14769355D01*
X25524300Y-14766198D01*
X25686198Y-14604300D01*
X25817523Y-14416749D01*
X25819846Y-14411767D01*
X25819849Y-14411762D01*
X25835805Y-14377543D01*
X25882722Y-14324258D01*
X25950999Y-14304797D01*
X26018959Y-14325339D01*
X26064195Y-14377543D01*
X26080151Y-14411762D01*
X26080154Y-14411767D01*
X26082477Y-14416749D01*
X26213802Y-14604300D01*
X26375700Y-14766198D01*
X26380208Y-14769355D01*
X26380211Y-14769357D01*
X26458389Y-14824098D01*
X26563251Y-14897523D01*
X26568233Y-14899846D01*
X26568238Y-14899849D01*
X26764765Y-14991490D01*
X26770757Y-14994284D01*
X26776065Y-14995706D01*
X26776067Y-14995707D01*
X26986598Y-15052119D01*
X26986600Y-15052119D01*
X26991913Y-15053543D01*
X27220000Y-15073498D01*
X27448087Y-15053543D01*
X27453400Y-15052119D01*
X27453402Y-15052119D01*
X27663933Y-14995707D01*
X27663935Y-14995706D01*
X27669243Y-14994284D01*
X27675235Y-14991490D01*
X27871762Y-14899849D01*
X27871767Y-14899846D01*
X27876749Y-14897523D01*
X27981611Y-14824098D01*
X28059789Y-14769357D01*
X28059792Y-14769355D01*
X28064300Y-14766198D01*
X28226198Y-14604300D01*
X28357523Y-14416749D01*
X28359846Y-14411767D01*
X28359849Y-14411762D01*
X28375805Y-14377543D01*
X28422722Y-14324258D01*
X28490999Y-14304797D01*
X28558959Y-14325339D01*
X28604195Y-14377543D01*
X28620151Y-14411762D01*
X28620154Y-14411767D01*
X28622477Y-14416749D01*
X28753802Y-14604300D01*
X28915700Y-14766198D01*
X28920208Y-14769355D01*
X28920211Y-14769357D01*
X28998389Y-14824098D01*
X29103251Y-14897523D01*
X29108233Y-14899846D01*
X29108238Y-14899849D01*
X29304765Y-14991490D01*
X29310757Y-14994284D01*
X29316065Y-14995706D01*
X29316067Y-14995707D01*
X29526598Y-15052119D01*
X29526600Y-15052119D01*
X29531913Y-15053543D01*
X29760000Y-15073498D01*
X29988087Y-15053543D01*
X29993400Y-15052119D01*
X29993402Y-15052119D01*
X30203933Y-14995707D01*
X30203935Y-14995706D01*
X30209243Y-14994284D01*
X30215235Y-14991490D01*
X30411762Y-14899849D01*
X30411767Y-14899846D01*
X30416749Y-14897523D01*
X30521611Y-14824098D01*
X30599789Y-14769357D01*
X30599792Y-14769355D01*
X30604300Y-14766198D01*
X30766198Y-14604300D01*
X30897523Y-14416749D01*
X30899846Y-14411767D01*
X30899849Y-14411762D01*
X30915805Y-14377543D01*
X30962722Y-14324258D01*
X31030999Y-14304797D01*
X31098959Y-14325339D01*
X31144195Y-14377543D01*
X31160151Y-14411762D01*
X31160154Y-14411767D01*
X31162477Y-14416749D01*
X31293802Y-14604300D01*
X31455700Y-14766198D01*
X31460208Y-14769355D01*
X31460211Y-14769357D01*
X31538389Y-14824098D01*
X31643251Y-14897523D01*
X31648233Y-14899846D01*
X31648238Y-14899849D01*
X31844765Y-14991490D01*
X31850757Y-14994284D01*
X31856065Y-14995706D01*
X31856067Y-14995707D01*
X32066598Y-15052119D01*
X32066600Y-15052119D01*
X32071913Y-15053543D01*
X32300000Y-15073498D01*
X32528087Y-15053543D01*
X32533400Y-15052119D01*
X32533402Y-15052119D01*
X32743933Y-14995707D01*
X32743935Y-14995706D01*
X32749243Y-14994284D01*
X32755235Y-14991490D01*
X32951762Y-14899849D01*
X32951767Y-14899846D01*
X32956749Y-14897523D01*
X33061611Y-14824098D01*
X33139789Y-14769357D01*
X33139792Y-14769355D01*
X33144300Y-14766198D01*
X33306198Y-14604300D01*
X33437523Y-14416749D01*
X33439846Y-14411767D01*
X33439849Y-14411762D01*
X33455805Y-14377543D01*
X33502722Y-14324258D01*
X33570999Y-14304797D01*
X33638959Y-14325339D01*
X33684195Y-14377543D01*
X33700151Y-14411762D01*
X33700154Y-14411767D01*
X33702477Y-14416749D01*
X33833802Y-14604300D01*
X33995700Y-14766198D01*
X34000208Y-14769355D01*
X34000211Y-14769357D01*
X34078389Y-14824098D01*
X34183251Y-14897523D01*
X34188233Y-14899846D01*
X34188238Y-14899849D01*
X34384765Y-14991490D01*
X34390757Y-14994284D01*
X34396065Y-14995706D01*
X34396067Y-14995707D01*
X34606598Y-15052119D01*
X34606600Y-15052119D01*
X34611913Y-15053543D01*
X34840000Y-15073498D01*
X35068087Y-15053543D01*
X35073400Y-15052119D01*
X35073402Y-15052119D01*
X35283933Y-14995707D01*
X35283935Y-14995706D01*
X35289243Y-14994284D01*
X35295235Y-14991490D01*
X35491762Y-14899849D01*
X35491767Y-14899846D01*
X35496749Y-14897523D01*
X35601611Y-14824098D01*
X35679789Y-14769357D01*
X35679792Y-14769355D01*
X35684300Y-14766198D01*
X35846198Y-14604300D01*
X35977523Y-14416749D01*
X35979846Y-14411767D01*
X35979849Y-14411762D01*
X35995805Y-14377543D01*
X36042722Y-14324258D01*
X36110999Y-14304797D01*
X36178959Y-14325339D01*
X36224195Y-14377543D01*
X36240151Y-14411762D01*
X36240154Y-14411767D01*
X36242477Y-14416749D01*
X36373802Y-14604300D01*
X36535700Y-14766198D01*
X36540208Y-14769355D01*
X36540211Y-14769357D01*
X36618389Y-14824098D01*
X36723251Y-14897523D01*
X36728233Y-14899846D01*
X36728238Y-14899849D01*
X36924765Y-14991490D01*
X36930757Y-14994284D01*
X36936065Y-14995706D01*
X36936067Y-14995707D01*
X37146598Y-15052119D01*
X37146600Y-15052119D01*
X37151913Y-15053543D01*
X37380000Y-15073498D01*
X37608087Y-15053543D01*
X37613400Y-15052119D01*
X37613402Y-15052119D01*
X37823933Y-14995707D01*
X37823935Y-14995706D01*
X37829243Y-14994284D01*
X37835235Y-14991490D01*
X38031762Y-14899849D01*
X38031767Y-14899846D01*
X38036749Y-14897523D01*
X38141611Y-14824098D01*
X38219789Y-14769357D01*
X38219792Y-14769355D01*
X38224300Y-14766198D01*
X38386198Y-14604300D01*
X38517523Y-14416749D01*
X38519846Y-14411767D01*
X38519849Y-14411762D01*
X38535805Y-14377543D01*
X38582722Y-14324258D01*
X38650999Y-14304797D01*
X38718959Y-14325339D01*
X38764195Y-14377543D01*
X38780151Y-14411762D01*
X38780154Y-14411767D01*
X38782477Y-14416749D01*
X38913802Y-14604300D01*
X39075700Y-14766198D01*
X39080208Y-14769355D01*
X39080211Y-14769357D01*
X39158389Y-14824098D01*
X39263251Y-14897523D01*
X39268233Y-14899846D01*
X39268238Y-14899849D01*
X39464765Y-14991490D01*
X39470757Y-14994284D01*
X39476065Y-14995706D01*
X39476067Y-14995707D01*
X39686598Y-15052119D01*
X39686600Y-15052119D01*
X39691913Y-15053543D01*
X39920000Y-15073498D01*
X40148087Y-15053543D01*
X40153400Y-15052119D01*
X40153402Y-15052119D01*
X40363933Y-14995707D01*
X40363935Y-14995706D01*
X40369243Y-14994284D01*
X40375235Y-14991490D01*
X40571762Y-14899849D01*
X40571767Y-14899846D01*
X40576749Y-14897523D01*
X40681611Y-14824098D01*
X40759789Y-14769357D01*
X40759792Y-14769355D01*
X40764300Y-14766198D01*
X40926198Y-14604300D01*
X41057523Y-14416749D01*
X41059846Y-14411767D01*
X41059849Y-14411762D01*
X41076081Y-14376951D01*
X41122998Y-14323666D01*
X41191275Y-14304205D01*
X41259235Y-14324747D01*
X41304471Y-14376951D01*
X41320586Y-14411511D01*
X41326069Y-14421007D01*
X41451028Y-14599467D01*
X41458084Y-14607875D01*
X41612125Y-14761916D01*
X41620533Y-14768972D01*
X41798993Y-14893931D01*
X41808489Y-14899414D01*
X42005947Y-14991490D01*
X42016239Y-14995236D01*
X42188503Y-15041394D01*
X42202599Y-15041058D01*
X42206000Y-15033116D01*
X42206000Y-12492033D01*
X42202027Y-12478502D01*
X42193478Y-12477273D01*
X42016239Y-12524764D01*
X42005947Y-12528510D01*
X41808489Y-12620586D01*
X41798993Y-12626069D01*
X41620533Y-12751028D01*
X41612125Y-12758084D01*
X41458084Y-12912125D01*
X41451028Y-12920533D01*
X41326069Y-13098993D01*
X41320586Y-13108489D01*
X41304471Y-13143049D01*
X41257554Y-13196334D01*
X41189277Y-13215795D01*
X41121317Y-13195253D01*
X41076081Y-13143049D01*
X41059849Y-13108238D01*
X41059846Y-13108233D01*
X41057523Y-13103251D01*
X40926198Y-12915700D01*
X40764300Y-12753802D01*
X40759792Y-12750645D01*
X40759789Y-12750643D01*
X40632485Y-12661504D01*
X40576749Y-12622477D01*
X40571767Y-12620154D01*
X40571762Y-12620151D01*
X40374225Y-12528039D01*
X40374224Y-12528039D01*
X40369243Y-12525716D01*
X40363935Y-12524294D01*
X40363933Y-12524293D01*
X40153402Y-12467881D01*
X40153400Y-12467881D01*
X40148087Y-12466457D01*
X39920000Y-12446502D01*
X39691913Y-12466457D01*
X39686600Y-12467881D01*
X39686598Y-12467881D01*
X39476067Y-12524293D01*
X39476065Y-12524294D01*
X39470757Y-12525716D01*
X39465776Y-12528039D01*
X39465775Y-12528039D01*
X39268238Y-12620151D01*
X39268233Y-12620154D01*
X39263251Y-12622477D01*
X39207515Y-12661504D01*
X39080211Y-12750643D01*
X39080208Y-12750645D01*
X39075700Y-12753802D01*
X38913802Y-12915700D01*
X38782477Y-13103251D01*
X38780154Y-13108233D01*
X38780151Y-13108238D01*
X38764195Y-13142457D01*
X38717278Y-13195742D01*
X38649001Y-13215203D01*
X38581041Y-13194661D01*
X38535805Y-13142457D01*
X38519849Y-13108238D01*
X38519846Y-13108233D01*
X38517523Y-13103251D01*
X38386198Y-12915700D01*
X38224300Y-12753802D01*
X38219792Y-12750645D01*
X38219789Y-12750643D01*
X38167229Y-12713840D01*
X38122901Y-12658382D01*
X38113500Y-12610627D01*
X38113500Y-11695166D01*
X38114933Y-11676216D01*
X38116943Y-11663007D01*
X38116943Y-11663003D01*
X38118043Y-11655773D01*
X38113915Y-11605019D01*
X38113500Y-11594805D01*
X38113500Y-11587174D01*
X38110325Y-11559942D01*
X38109894Y-11555583D01*
X38107677Y-11528329D01*
X38104177Y-11485295D01*
X38101920Y-11478327D01*
X38100821Y-11472828D01*
X38099534Y-11467383D01*
X38098686Y-11460110D01*
X38074611Y-11393785D01*
X38073185Y-11389630D01*
X38053721Y-11329546D01*
X38053720Y-11329543D01*
X38051464Y-11322580D01*
X38047667Y-11316323D01*
X38045321Y-11311198D01*
X38042824Y-11306211D01*
X38040327Y-11299333D01*
X38036317Y-11293216D01*
X38036314Y-11293211D01*
X38001653Y-11240346D01*
X37999305Y-11236624D01*
X37965644Y-11181152D01*
X37965643Y-11181151D01*
X37962733Y-11176355D01*
X37955571Y-11168245D01*
X37955588Y-11168230D01*
X37952654Y-11164920D01*
X37950558Y-11162413D01*
X37946546Y-11156294D01*
X37892224Y-11104834D01*
X37889782Y-11102456D01*
X34376794Y-7589468D01*
X30854748Y-4067423D01*
X30842361Y-4053010D01*
X30834441Y-4042248D01*
X30830100Y-4036349D01*
X30791280Y-4003369D01*
X30783764Y-3996439D01*
X30778380Y-3991055D01*
X30775519Y-3988792D01*
X30775514Y-3988787D01*
X30756909Y-3974068D01*
X30753507Y-3971279D01*
X30705328Y-3930347D01*
X30705324Y-3930344D01*
X30699749Y-3925608D01*
X30693228Y-3922279D01*
X30688549Y-3919158D01*
X30683795Y-3916222D01*
X30678057Y-3911682D01*
X30614147Y-3881811D01*
X30610239Y-3879901D01*
X30547418Y-3847824D01*
X30540306Y-3846084D01*
X30535020Y-3844118D01*
X30529735Y-3842360D01*
X30523105Y-3839261D01*
X30454032Y-3824894D01*
X30449748Y-3823924D01*
X30381279Y-3807170D01*
X30375677Y-3806822D01*
X30375674Y-3806822D01*
X30370480Y-3806500D01*
X30370481Y-3806476D01*
X30366066Y-3806212D01*
X30362816Y-3805922D01*
X30355648Y-3804431D01*
X30289851Y-3806211D01*
X30280877Y-3806454D01*
X30277469Y-3806500D01*
X29894648Y-3806500D01*
X29826527Y-3786498D01*
X29780034Y-3732842D01*
X29769930Y-3662568D01*
X29790979Y-3611791D01*
X29790478Y-3611517D01*
X29793010Y-3606892D01*
X29793821Y-3604936D01*
X29794786Y-3603648D01*
X29803324Y-3588054D01*
X29848478Y-3467606D01*
X29852105Y-3452351D01*
X29857631Y-3401486D01*
X29858000Y-3394672D01*
X29858000Y-2772115D01*
X29853525Y-2756876D01*
X29852135Y-2755671D01*
X29844452Y-2754000D01*
X27160116Y-2754000D01*
X27144877Y-2758475D01*
X27143672Y-2759865D01*
X27142001Y-2767548D01*
X27142001Y-3394669D01*
X27142371Y-3401490D01*
X27147895Y-3452352D01*
X27151521Y-3467604D01*
X27196676Y-3588054D01*
X27205214Y-3603649D01*
X27281715Y-3705724D01*
X27294276Y-3718285D01*
X27396351Y-3794786D01*
X27411946Y-3803324D01*
X27520827Y-3844142D01*
X27577591Y-3886784D01*
X27602291Y-3953345D01*
X27587083Y-4022694D01*
X27567691Y-4049175D01*
X27444200Y-4178401D01*
X27440629Y-4182138D01*
X27314743Y-4366680D01*
X27220688Y-4569305D01*
X27160989Y-4784570D01*
X27137251Y-5006695D01*
X27150110Y-5229715D01*
X27151247Y-5234761D01*
X27151248Y-5234767D01*
X27164102Y-5291801D01*
X27199222Y-5447639D01*
X27283266Y-5654616D01*
X27399987Y-5845088D01*
X27546250Y-6013938D01*
X27718126Y-6156632D01*
X27788595Y-6197811D01*
X27791445Y-6199476D01*
X27840169Y-6251114D01*
X27853240Y-6320897D01*
X27826509Y-6386669D01*
X27786055Y-6420027D01*
X27773607Y-6426507D01*
X27769474Y-6429610D01*
X27769471Y-6429612D01*
X27745247Y-6447800D01*
X27594965Y-6560635D01*
X27440629Y-6722138D01*
X27314743Y-6906680D01*
X27220688Y-7109305D01*
X27219306Y-7114290D01*
X27219304Y-7114294D01*
X27178636Y-7260937D01*
X27146314Y-7316360D01*
X26027423Y-8435252D01*
X26013011Y-8447639D01*
X25996349Y-8459900D01*
X25991606Y-8465483D01*
X25963369Y-8498720D01*
X25956439Y-8506236D01*
X25951055Y-8511620D01*
X25948792Y-8514481D01*
X25948787Y-8514486D01*
X25934068Y-8533091D01*
X25931279Y-8536493D01*
X25890347Y-8584672D01*
X25890344Y-8584676D01*
X25885608Y-8590251D01*
X25882279Y-8596772D01*
X25879158Y-8601451D01*
X25876222Y-8606205D01*
X25871682Y-8611943D01*
X25868585Y-8618570D01*
X25868584Y-8618571D01*
X25841811Y-8675854D01*
X25839901Y-8679761D01*
X25807824Y-8742582D01*
X25806084Y-8749694D01*
X25804118Y-8754980D01*
X25802360Y-8760265D01*
X25799261Y-8766895D01*
X25797771Y-8774060D01*
X25784895Y-8835963D01*
X25783925Y-8840247D01*
X25767170Y-8908721D01*
X25766500Y-8919520D01*
X25766476Y-8919519D01*
X25766212Y-8923934D01*
X25765922Y-8927184D01*
X25764431Y-8934352D01*
X25764629Y-8941669D01*
X25766454Y-9009123D01*
X25766500Y-9012531D01*
X25766500Y-10934834D01*
X25765067Y-10953783D01*
X25761957Y-10974227D01*
X25762550Y-10981519D01*
X25762550Y-10981522D01*
X25766085Y-11024979D01*
X25766500Y-11035194D01*
X25766500Y-11042826D01*
X25766922Y-11046445D01*
X25766923Y-11046464D01*
X25769675Y-11070069D01*
X25770107Y-11074435D01*
X25775823Y-11144704D01*
X25778081Y-11151673D01*
X25779184Y-11157193D01*
X25780466Y-11162618D01*
X25781314Y-11169890D01*
X25783811Y-11176769D01*
X25805382Y-11236196D01*
X25806810Y-11240356D01*
X25826280Y-11300458D01*
X25826282Y-11300462D01*
X25828536Y-11307420D01*
X25832330Y-11313672D01*
X25834672Y-11318788D01*
X25837176Y-11323789D01*
X25839673Y-11330667D01*
X25843683Y-11336784D01*
X25843686Y-11336789D01*
X25851914Y-11349338D01*
X25878137Y-11389333D01*
X25878347Y-11389654D01*
X25880695Y-11393376D01*
X25909613Y-11441031D01*
X25917267Y-11453645D01*
X25920979Y-11457848D01*
X25924429Y-11461755D01*
X25924412Y-11461770D01*
X25927346Y-11465080D01*
X25929442Y-11467587D01*
X25933454Y-11473706D01*
X25941949Y-11481753D01*
X25987776Y-11525166D01*
X25990218Y-11527544D01*
X26449595Y-11986921D01*
X26483621Y-12049233D01*
X26486500Y-12076016D01*
X26486500Y-12610627D01*
X26466498Y-12678748D01*
X26432771Y-12713840D01*
X26380211Y-12750643D01*
X26380208Y-12750645D01*
X26375700Y-12753802D01*
X26213802Y-12915700D01*
X26082477Y-13103251D01*
X26080154Y-13108233D01*
X26080151Y-13108238D01*
X26064195Y-13142457D01*
X26017278Y-13195742D01*
X25949001Y-13215203D01*
X25881041Y-13194661D01*
X25835805Y-13142457D01*
X25819849Y-13108238D01*
X25819846Y-13108233D01*
X25817523Y-13103251D01*
X25686198Y-12915700D01*
X25524300Y-12753802D01*
X25519792Y-12750645D01*
X25519789Y-12750643D01*
X25392485Y-12661504D01*
X25336749Y-12622477D01*
X25331767Y-12620154D01*
X25331762Y-12620151D01*
X25134225Y-12528039D01*
X25134224Y-12528039D01*
X25129243Y-12525716D01*
X25123935Y-12524294D01*
X25123933Y-12524293D01*
X24913402Y-12467881D01*
X24913400Y-12467881D01*
X24908087Y-12466457D01*
X24680000Y-12446502D01*
X24451913Y-12466457D01*
X24446600Y-12467881D01*
X24446598Y-12467881D01*
X24236067Y-12524293D01*
X24236065Y-12524294D01*
X24230757Y-12525716D01*
X24225776Y-12528039D01*
X24225775Y-12528039D01*
X24028238Y-12620151D01*
X24028233Y-12620154D01*
X24023251Y-12622477D01*
X23967515Y-12661504D01*
X23840211Y-12750643D01*
X23840208Y-12750645D01*
X23835700Y-12753802D01*
X23673802Y-12915700D01*
X23542477Y-13103251D01*
X23540154Y-13108233D01*
X23540151Y-13108238D01*
X23524195Y-13142457D01*
X23477278Y-13195742D01*
X23409001Y-13215203D01*
X23341041Y-13194661D01*
X23295805Y-13142457D01*
X23279849Y-13108238D01*
X23279846Y-13108233D01*
X23277523Y-13103251D01*
X23146198Y-12915700D01*
X22984300Y-12753802D01*
X22979792Y-12750645D01*
X22979789Y-12750643D01*
X22852485Y-12661504D01*
X22796749Y-12622477D01*
X22791767Y-12620154D01*
X22791762Y-12620151D01*
X22594225Y-12528039D01*
X22594224Y-12528039D01*
X22589243Y-12525716D01*
X22583935Y-12524294D01*
X22583933Y-12524293D01*
X22373402Y-12467881D01*
X22373400Y-12467881D01*
X22368087Y-12466457D01*
X22140000Y-12446502D01*
X21911913Y-12466457D01*
X21906600Y-12467881D01*
X21906598Y-12467881D01*
X21696067Y-12524293D01*
X21696065Y-12524294D01*
X21690757Y-12525716D01*
X21685776Y-12528039D01*
X21685775Y-12528039D01*
X21488238Y-12620151D01*
X21488233Y-12620154D01*
X21483251Y-12622477D01*
X21427515Y-12661504D01*
X21300211Y-12750643D01*
X21300208Y-12750645D01*
X21295700Y-12753802D01*
X21133802Y-12915700D01*
X21002477Y-13103251D01*
X21000154Y-13108233D01*
X21000151Y-13108238D01*
X20984195Y-13142457D01*
X20937278Y-13195742D01*
X20869001Y-13215203D01*
X20801041Y-13194661D01*
X20755805Y-13142457D01*
X20739849Y-13108238D01*
X20739846Y-13108233D01*
X20737523Y-13103251D01*
X20606198Y-12915700D01*
X20444300Y-12753802D01*
X20439792Y-12750645D01*
X20439789Y-12750643D01*
X20312485Y-12661504D01*
X20256749Y-12622477D01*
X20251767Y-12620154D01*
X20251762Y-12620151D01*
X20054225Y-12528039D01*
X20054224Y-12528039D01*
X20049243Y-12525716D01*
X20043935Y-12524294D01*
X20043933Y-12524293D01*
X19833402Y-12467881D01*
X19833400Y-12467881D01*
X19828087Y-12466457D01*
X19600000Y-12446502D01*
X19371913Y-12466457D01*
X19366600Y-12467881D01*
X19366598Y-12467881D01*
X19156067Y-12524293D01*
X19156065Y-12524294D01*
X19150757Y-12525716D01*
X19145776Y-12528039D01*
X19145775Y-12528039D01*
X18948238Y-12620151D01*
X18948233Y-12620154D01*
X18943251Y-12622477D01*
X18887515Y-12661504D01*
X18760211Y-12750643D01*
X18760208Y-12750645D01*
X18755700Y-12753802D01*
X18593802Y-12915700D01*
X18462477Y-13103251D01*
X18460154Y-13108233D01*
X18460151Y-13108238D01*
X18444195Y-13142457D01*
X18397278Y-13195742D01*
X18329001Y-13215203D01*
X18261041Y-13194661D01*
X18215805Y-13142457D01*
X18199849Y-13108238D01*
X18199846Y-13108233D01*
X18197523Y-13103251D01*
X18066198Y-12915700D01*
X17904300Y-12753802D01*
X17899792Y-12750645D01*
X17899789Y-12750643D01*
X17772485Y-12661504D01*
X17716749Y-12622477D01*
X17711767Y-12620154D01*
X17711762Y-12620151D01*
X17514225Y-12528039D01*
X17514224Y-12528039D01*
X17509243Y-12525716D01*
X17503935Y-12524294D01*
X17503933Y-12524293D01*
X17293402Y-12467881D01*
X17293400Y-12467881D01*
X17288087Y-12466457D01*
X17060000Y-12446502D01*
X16831913Y-12466457D01*
X16826600Y-12467881D01*
X16826598Y-12467881D01*
X16616067Y-12524293D01*
X16616065Y-12524294D01*
X16610757Y-12525716D01*
X16605776Y-12528039D01*
X16605775Y-12528039D01*
X16408238Y-12620151D01*
X16408233Y-12620154D01*
X16403251Y-12622477D01*
X16347515Y-12661504D01*
X16220211Y-12750643D01*
X16220208Y-12750645D01*
X16215700Y-12753802D01*
X16053802Y-12915700D01*
X15922477Y-13103251D01*
X15920154Y-13108233D01*
X15920151Y-13108238D01*
X15904195Y-13142457D01*
X15857278Y-13195742D01*
X15789001Y-13215203D01*
X15721041Y-13194661D01*
X15675805Y-13142457D01*
X15659849Y-13108238D01*
X15659846Y-13108233D01*
X15657523Y-13103251D01*
X15526198Y-12915700D01*
X15364300Y-12753802D01*
X15359792Y-12750645D01*
X15359789Y-12750643D01*
X15232485Y-12661504D01*
X15176749Y-12622477D01*
X15171767Y-12620154D01*
X15171762Y-12620151D01*
X14974225Y-12528039D01*
X14974224Y-12528039D01*
X14969243Y-12525716D01*
X14963935Y-12524294D01*
X14963933Y-12524293D01*
X14753402Y-12467881D01*
X14753400Y-12467881D01*
X14748087Y-12466457D01*
X14520000Y-12446502D01*
X14291913Y-12466457D01*
X14286600Y-12467881D01*
X14286598Y-12467881D01*
X14076067Y-12524293D01*
X14076065Y-12524294D01*
X14070757Y-12525716D01*
X14065776Y-12528039D01*
X14065775Y-12528039D01*
X13868238Y-12620151D01*
X13868233Y-12620154D01*
X13863251Y-12622477D01*
X13807515Y-12661504D01*
X13680211Y-12750643D01*
X13680208Y-12750645D01*
X13675700Y-12753802D01*
X13513802Y-12915700D01*
X13382477Y-13103251D01*
X13380154Y-13108233D01*
X13380151Y-13108238D01*
X13364195Y-13142457D01*
X13317278Y-13195742D01*
X13249001Y-13215203D01*
X13181041Y-13194661D01*
X13135805Y-13142457D01*
X13119849Y-13108238D01*
X13119846Y-13108233D01*
X13117523Y-13103251D01*
X12986198Y-12915700D01*
X12824300Y-12753802D01*
X12819792Y-12750645D01*
X12819789Y-12750643D01*
X12692485Y-12661504D01*
X12636749Y-12622477D01*
X12631767Y-12620154D01*
X12631762Y-12620151D01*
X12434225Y-12528039D01*
X12434224Y-12528039D01*
X12429243Y-12525716D01*
X12423935Y-12524294D01*
X12423933Y-12524293D01*
X12213402Y-12467881D01*
X12213400Y-12467881D01*
X12208087Y-12466457D01*
X11980000Y-12446502D01*
X11751913Y-12466457D01*
X11746600Y-12467881D01*
X11746598Y-12467881D01*
X11536067Y-12524293D01*
X11536065Y-12524294D01*
X11530757Y-12525716D01*
X11525776Y-12528039D01*
X11525775Y-12528039D01*
X11328238Y-12620151D01*
X11328233Y-12620154D01*
X11323251Y-12622477D01*
X11267515Y-12661504D01*
X11140211Y-12750643D01*
X11140208Y-12750645D01*
X11135700Y-12753802D01*
X10973802Y-12915700D01*
X10842477Y-13103251D01*
X10840154Y-13108233D01*
X10840151Y-13108238D01*
X10824195Y-13142457D01*
X10777278Y-13195742D01*
X10709001Y-13215203D01*
X10641041Y-13194661D01*
X10595805Y-13142457D01*
X10579849Y-13108238D01*
X10579846Y-13108233D01*
X10577523Y-13103251D01*
X10446198Y-12915700D01*
X10284300Y-12753802D01*
X10279792Y-12750645D01*
X10279789Y-12750643D01*
X10152485Y-12661504D01*
X10096749Y-12622477D01*
X10091767Y-12620154D01*
X10091762Y-12620151D01*
X9894225Y-12528039D01*
X9894224Y-12528039D01*
X9889243Y-12525716D01*
X9883935Y-12524294D01*
X9883933Y-12524293D01*
X9673402Y-12467881D01*
X9673400Y-12467881D01*
X9668087Y-12466457D01*
X9440000Y-12446502D01*
X9211913Y-12466457D01*
X9206600Y-12467881D01*
X9206598Y-12467881D01*
X8996067Y-12524293D01*
X8996065Y-12524294D01*
X8990757Y-12525716D01*
X8985776Y-12528039D01*
X8985775Y-12528039D01*
X8788238Y-12620151D01*
X8788233Y-12620154D01*
X8783251Y-12622477D01*
X8727515Y-12661504D01*
X8600211Y-12750643D01*
X8600208Y-12750645D01*
X8595700Y-12753802D01*
X8433802Y-12915700D01*
X8302477Y-13103251D01*
X8300154Y-13108233D01*
X8300151Y-13108238D01*
X8246361Y-13223592D01*
X8205716Y-13310757D01*
X8146457Y-13531913D01*
X8126502Y-13760000D01*
X508000Y-13760000D01*
X508000Y-3639681D01*
X528002Y-3571560D01*
X581658Y-3525067D01*
X651932Y-3514963D01*
X716512Y-3544457D01*
X727636Y-3555370D01*
X901371Y-3748322D01*
X904733Y-3751143D01*
X904734Y-3751144D01*
X958952Y-3796638D01*
X1116550Y-3928879D01*
X1354764Y-4077731D01*
X1488484Y-4137267D01*
X1580872Y-4178401D01*
X1611375Y-4191982D01*
X1881390Y-4269407D01*
X1885740Y-4270018D01*
X1885743Y-4270019D01*
X1988690Y-4284487D01*
X2159552Y-4308500D01*
X2370146Y-4308500D01*
X2372332Y-4308347D01*
X2372336Y-4308347D01*
X2575827Y-4294118D01*
X2575832Y-4294117D01*
X2580212Y-4293811D01*
X2854970Y-4235409D01*
X2859099Y-4233906D01*
X2859103Y-4233905D01*
X3114781Y-4140846D01*
X3114785Y-4140844D01*
X3118926Y-4139337D01*
X3366942Y-4007464D01*
X3370503Y-4004877D01*
X3590629Y-3844947D01*
X3590632Y-3844944D01*
X3594192Y-3842358D01*
X3612276Y-3824895D01*
X3793087Y-3650287D01*
X3796252Y-3647231D01*
X3938343Y-3465362D01*
X3966481Y-3429347D01*
X3966482Y-3429346D01*
X3969188Y-3425882D01*
X3971384Y-3422078D01*
X3971389Y-3422071D01*
X4107435Y-3186431D01*
X4109636Y-3182619D01*
X4214862Y-2922176D01*
X4248544Y-2787087D01*
X4281753Y-2653893D01*
X4281754Y-2653888D01*
X4282817Y-2649624D01*
X4312178Y-2370267D01*
X4307839Y-2246000D01*
X4307206Y-2227885D01*
X27142000Y-2227885D01*
X27146475Y-2243124D01*
X27147865Y-2244329D01*
X27155548Y-2246000D01*
X28227885Y-2246000D01*
X28243124Y-2241525D01*
X28244329Y-2240135D01*
X28246000Y-2232452D01*
X28246000Y-2227885D01*
X28754000Y-2227885D01*
X28758475Y-2243124D01*
X28759865Y-2244329D01*
X28767548Y-2246000D01*
X29839884Y-2246000D01*
X29855123Y-2241525D01*
X29856328Y-2240135D01*
X29857999Y-2232452D01*
X29857999Y-1605331D01*
X29857629Y-1598510D01*
X29852105Y-1547648D01*
X29848479Y-1532396D01*
X29803324Y-1411946D01*
X29794786Y-1396351D01*
X29718285Y-1294276D01*
X29705724Y-1281715D01*
X29603649Y-1205214D01*
X29588054Y-1196676D01*
X29467606Y-1151522D01*
X29452351Y-1147895D01*
X29401486Y-1142369D01*
X29394672Y-1142000D01*
X28772115Y-1142000D01*
X28756876Y-1146475D01*
X28755671Y-1147865D01*
X28754000Y-1155548D01*
X28754000Y-2227885D01*
X28246000Y-2227885D01*
X28246000Y-1160116D01*
X28241525Y-1144877D01*
X28240135Y-1143672D01*
X28232452Y-1142001D01*
X27605331Y-1142001D01*
X27598510Y-1142371D01*
X27547648Y-1147895D01*
X27532396Y-1151521D01*
X27411946Y-1196676D01*
X27396351Y-1205214D01*
X27294276Y-1281715D01*
X27281715Y-1294276D01*
X27205214Y-1396351D01*
X27196676Y-1411946D01*
X27151522Y-1532394D01*
X27147895Y-1547649D01*
X27142369Y-1598514D01*
X27142000Y-1605328D01*
X27142000Y-2227885D01*
X4307206Y-2227885D01*
X4302529Y-2093939D01*
X4302528Y-2093933D01*
X4302375Y-2089542D01*
X4278608Y-1954749D01*
X4254360Y-1817236D01*
X4253598Y-1812913D01*
X4166797Y-1545765D01*
X4160277Y-1532396D01*
X4101529Y-1411946D01*
X4043660Y-1293298D01*
X4041205Y-1289659D01*
X4041202Y-1289653D01*
X3948031Y-1151522D01*
X3886585Y-1060424D01*
X3879557Y-1052618D01*
X3701566Y-854940D01*
X3698629Y-851678D01*
X3554241Y-730522D01*
X3514914Y-671412D01*
X3513788Y-600424D01*
X3551219Y-540097D01*
X3615324Y-509583D01*
X3635232Y-508000D01*
X76361623Y-508000D01*
X76429744Y-528002D01*
G37*
%TD.AperFunction*%
%TD*%
M02*
