M48
; DRILL file {KiCad 6.0.6-3a73a75311~116~ubuntu22.04.1} date Thu 07 Jul 2022 11:41:57 AM EDT
; FORMAT={-:-/ absolute / metric / decimal}
; #@! TF.CreationDate,2022-07-07T11:41:57-04:00
; #@! TF.GenerationSoftware,Kicad,Pcbnew,6.0.6-3a73a75311~116~ubuntu22.04.1
; #@! TF.FileFunction,MixedPlating,1,2
FMAT,2
METRIC
; #@! TA.AperFunction,Plated,PTH,ComponentDrill
T1C1.000
; #@! TA.AperFunction,Plated,PTH,ComponentDrill
T2C1.100
; #@! TA.AperFunction,Plated,PTH,ComponentDrill
T3C1.300
; #@! TA.AperFunction,NonPlated,NPTH,ComponentDrill
T4C3.000
; #@! TA.AperFunction,NonPlated,NPTH,ComponentDrill
T5C3.500
%
G90
G05
T1
X2.5Y-51.5
X5.04Y-51.5
X7.58Y-51.5
X10.12Y-51.5
X13.76Y-35.0
X13.76Y-37.54
X13.76Y-40.08
X13.76Y-42.62
X13.76Y-45.16
X13.76Y-47.7
X13.76Y-50.24
X13.76Y-52.78
X13.76Y-55.32
X13.76Y-57.86
X13.76Y-60.4
X13.76Y-62.94
X13.76Y-65.48
X13.76Y-68.02
X13.76Y-70.56
X29.0Y-35.0
X29.0Y-37.54
X29.0Y-40.08
X29.0Y-42.62
X29.0Y-45.16
X29.0Y-47.7
X29.0Y-50.24
X29.0Y-52.78
X29.0Y-55.32
X29.0Y-57.86
X29.0Y-60.4
X29.0Y-62.94
X29.0Y-65.48
X29.0Y-68.02
X29.0Y-70.56
T2
X29.73Y-19.46
X29.73Y-22.0
X29.73Y-24.54
X38.25Y-59.55
X38.25Y-66.05
X42.75Y-59.55
X42.75Y-66.05
X48.75Y-13.75
X48.75Y-20.25
X48.75Y-59.55
X48.75Y-66.05
X53.25Y-13.75
X53.25Y-20.25
X53.25Y-59.55
X53.25Y-66.05
T3
X9.0Y-5.5
X14.0Y-5.5
X22.0Y-5.5
X27.0Y-5.5
T4
X2.3Y-2.3
X2.3Y-77.7
X33.7Y-2.3
X33.7Y-77.7
T5
X13.07Y-22.0
T0
M30
