%TF.GenerationSoftware,KiCad,Pcbnew,6.0.6-3a73a75311~116~ubuntu22.04.1*%
%TF.CreationDate,2022-07-07T11:41:54-04:00*%
%TF.ProjectId,UVLEDController,55564c45-4443-46f6-9e74-726f6c6c6572,rev?*%
%TF.SameCoordinates,PX7270e00PY1c9c380*%
%TF.FileFunction,Copper,L1,Top*%
%TF.FilePolarity,Positive*%
%FSLAX46Y46*%
G04 Gerber Fmt 4.6, Leading zero omitted, Abs format (unit mm)*
G04 Created by KiCad (PCBNEW 6.0.6-3a73a75311~116~ubuntu22.04.1) date 2022-07-07 11:41:54*
%MOMM*%
%LPD*%
G01*
G04 APERTURE LIST*
G04 Aperture macros list*
%AMRoundRect*
0 Rectangle with rounded corners*
0 $1 Rounding radius*
0 $2 $3 $4 $5 $6 $7 $8 $9 X,Y pos of 4 corners*
0 Add a 4 corners polygon primitive as box body*
4,1,4,$2,$3,$4,$5,$6,$7,$8,$9,$2,$3,0*
0 Add four circle primitives for the rounded corners*
1,1,$1+$1,$2,$3*
1,1,$1+$1,$4,$5*
1,1,$1+$1,$6,$7*
1,1,$1+$1,$8,$9*
0 Add four rect primitives between the rounded corners*
20,1,$1+$1,$2,$3,$4,$5,0*
20,1,$1+$1,$4,$5,$6,$7,0*
20,1,$1+$1,$6,$7,$8,$9,0*
20,1,$1+$1,$8,$9,$2,$3,0*%
G04 Aperture macros list end*
%ADD10C,0.300000*%
%TA.AperFunction,NonConductor*%
%ADD11C,0.300000*%
%TD*%
%TA.AperFunction,SMDPad,CuDef*%
%ADD12RoundRect,0.250000X0.450000X-0.350000X0.450000X0.350000X-0.450000X0.350000X-0.450000X-0.350000X0*%
%TD*%
%TA.AperFunction,ComponentPad*%
%ADD13C,2.000000*%
%TD*%
%TA.AperFunction,ComponentPad*%
%ADD14R,2.600000X2.600000*%
%TD*%
%TA.AperFunction,ComponentPad*%
%ADD15C,2.600000*%
%TD*%
%TA.AperFunction,ComponentPad*%
%ADD16R,1.700000X1.700000*%
%TD*%
%TA.AperFunction,ComponentPad*%
%ADD17O,1.700000X1.700000*%
%TD*%
%TA.AperFunction,ComponentPad*%
%ADD18R,1.600000X1.600000*%
%TD*%
%TA.AperFunction,ComponentPad*%
%ADD19O,1.600000X1.600000*%
%TD*%
%TA.AperFunction,ComponentPad*%
%ADD20R,2.000000X1.905000*%
%TD*%
%TA.AperFunction,ComponentPad*%
%ADD21O,2.000000X1.905000*%
%TD*%
%TA.AperFunction,Conductor*%
%ADD22C,0.450000*%
%TD*%
%TA.AperFunction,Conductor*%
%ADD23C,2.000000*%
%TD*%
G04 APERTURE END LIST*
D10*
D11*
X48294761Y-49285714D02*
X50294761Y-48619047D01*
X48294761Y-47952380D01*
X50294761Y-46428571D02*
X49247142Y-46428571D01*
X49056666Y-46523809D01*
X48961428Y-46714285D01*
X48961428Y-47095238D01*
X49056666Y-47285714D01*
X50199523Y-46428571D02*
X50294761Y-46619047D01*
X50294761Y-47095238D01*
X50199523Y-47285714D01*
X50009047Y-47380952D01*
X49818571Y-47380952D01*
X49628095Y-47285714D01*
X49532857Y-47095238D01*
X49532857Y-46619047D01*
X49437619Y-46428571D01*
X50294761Y-45476190D02*
X48961428Y-45476190D01*
X49342380Y-45476190D02*
X49151904Y-45380952D01*
X49056666Y-45285714D01*
X48961428Y-45095238D01*
X48961428Y-44904761D01*
X48961428Y-44238095D02*
X50294761Y-44238095D01*
X49151904Y-44238095D02*
X49056666Y-44142857D01*
X48961428Y-43952380D01*
X48961428Y-43666666D01*
X49056666Y-43476190D01*
X49247142Y-43380952D01*
X50294761Y-43380952D01*
X50199523Y-41666666D02*
X50294761Y-41857142D01*
X50294761Y-42238095D01*
X50199523Y-42428571D01*
X50009047Y-42523809D01*
X49247142Y-42523809D01*
X49056666Y-42428571D01*
X48961428Y-42238095D01*
X48961428Y-41857142D01*
X49056666Y-41666666D01*
X49247142Y-41571428D01*
X49437619Y-41571428D01*
X49628095Y-42523809D01*
X50294761Y-40714285D02*
X48961428Y-40714285D01*
X49342380Y-40714285D02*
X49151904Y-40619047D01*
X49056666Y-40523809D01*
X48961428Y-40333333D01*
X48961428Y-40142857D01*
X50294761Y-39476190D02*
X48961428Y-39476190D01*
X48294761Y-39476190D02*
X48390000Y-39571428D01*
X48485238Y-39476190D01*
X48390000Y-39380952D01*
X48294761Y-39476190D01*
X48485238Y-39476190D01*
X48961428Y-38714285D02*
X48961428Y-37666666D01*
X50294761Y-38714285D01*
X50294761Y-37666666D01*
X50199523Y-36142857D02*
X50294761Y-36333333D01*
X50294761Y-36714285D01*
X50199523Y-36904761D01*
X50009047Y-37000000D01*
X49247142Y-37000000D01*
X49056666Y-36904761D01*
X48961428Y-36714285D01*
X48961428Y-36333333D01*
X49056666Y-36142857D01*
X49247142Y-36047619D01*
X49437619Y-36047619D01*
X49628095Y-37000000D01*
X50294761Y-34333333D02*
X48294761Y-34333333D01*
X50199523Y-34333333D02*
X50294761Y-34523809D01*
X50294761Y-34904761D01*
X50199523Y-35095238D01*
X50104285Y-35190476D01*
X49913809Y-35285714D01*
X49342380Y-35285714D01*
X49151904Y-35190476D01*
X49056666Y-35095238D01*
X48961428Y-34904761D01*
X48961428Y-34523809D01*
X49056666Y-34333333D01*
X48294761Y-31857142D02*
X49913809Y-31857142D01*
X50104285Y-31761904D01*
X50199523Y-31666666D01*
X50294761Y-31476190D01*
X50294761Y-31095238D01*
X50199523Y-30904761D01*
X50104285Y-30809523D01*
X49913809Y-30714285D01*
X48294761Y-30714285D01*
X48294761Y-30047619D02*
X50294761Y-29380952D01*
X48294761Y-28714285D01*
X52467142Y-47142857D02*
X52467142Y-46476190D01*
X53514761Y-46190476D02*
X53514761Y-47142857D01*
X51514761Y-47142857D01*
X51514761Y-46190476D01*
X53514761Y-45523809D02*
X52181428Y-44476190D01*
X52181428Y-45523809D02*
X53514761Y-44476190D01*
X52181428Y-43714285D02*
X54181428Y-43714285D01*
X52276666Y-43714285D02*
X52181428Y-43523809D01*
X52181428Y-43142857D01*
X52276666Y-42952380D01*
X52371904Y-42857142D01*
X52562380Y-42761904D01*
X53133809Y-42761904D01*
X53324285Y-42857142D01*
X53419523Y-42952380D01*
X53514761Y-43142857D01*
X53514761Y-43523809D01*
X53419523Y-43714285D01*
X53514761Y-41619047D02*
X53419523Y-41809523D01*
X53324285Y-41904761D01*
X53133809Y-42000000D01*
X52562380Y-42000000D01*
X52371904Y-41904761D01*
X52276666Y-41809523D01*
X52181428Y-41619047D01*
X52181428Y-41333333D01*
X52276666Y-41142857D01*
X52371904Y-41047619D01*
X52562380Y-40952380D01*
X53133809Y-40952380D01*
X53324285Y-41047619D01*
X53419523Y-41142857D01*
X53514761Y-41333333D01*
X53514761Y-41619047D01*
X53419523Y-40190476D02*
X53514761Y-40000000D01*
X53514761Y-39619047D01*
X53419523Y-39428571D01*
X53229047Y-39333333D01*
X53133809Y-39333333D01*
X52943333Y-39428571D01*
X52848095Y-39619047D01*
X52848095Y-39904761D01*
X52752857Y-40095238D01*
X52562380Y-40190476D01*
X52467142Y-40190476D01*
X52276666Y-40095238D01*
X52181428Y-39904761D01*
X52181428Y-39619047D01*
X52276666Y-39428571D01*
X52181428Y-37619047D02*
X53514761Y-37619047D01*
X52181428Y-38476190D02*
X53229047Y-38476190D01*
X53419523Y-38380952D01*
X53514761Y-38190476D01*
X53514761Y-37904761D01*
X53419523Y-37714285D01*
X53324285Y-37619047D01*
X53514761Y-36666666D02*
X52181428Y-36666666D01*
X52562380Y-36666666D02*
X52371904Y-36571428D01*
X52276666Y-36476190D01*
X52181428Y-36285714D01*
X52181428Y-36095238D01*
X53514761Y-35428571D02*
X52181428Y-35428571D01*
X51514761Y-35428571D02*
X51610000Y-35523809D01*
X51705238Y-35428571D01*
X51610000Y-35333333D01*
X51514761Y-35428571D01*
X51705238Y-35428571D01*
X52181428Y-34666666D02*
X52181428Y-33619047D01*
X53514761Y-34666666D01*
X53514761Y-33619047D01*
X53419523Y-32095238D02*
X53514761Y-32285714D01*
X53514761Y-32666666D01*
X53419523Y-32857142D01*
X53229047Y-32952380D01*
X52467142Y-32952380D01*
X52276666Y-32857142D01*
X52181428Y-32666666D01*
X52181428Y-32285714D01*
X52276666Y-32095238D01*
X52467142Y-32000000D01*
X52657619Y-32000000D01*
X52848095Y-32952380D01*
X53514761Y-31142857D02*
X52181428Y-31142857D01*
X52562380Y-31142857D02*
X52371904Y-31047619D01*
X52276666Y-30952380D01*
X52181428Y-30761904D01*
X52181428Y-30571428D01*
D12*
%TO.P,R1,1*%
%TO.N,Net-(A1-Pad12)*%
X33500000Y-23000000D03*
%TO.P,R1,2*%
%TO.N,GND*%
X33500000Y-21000000D03*
%TD*%
D13*
%TO.P,SW_DN1,1,1*%
%TO.N,GND*%
X48750000Y-59550000D03*
X48750000Y-66050000D03*
%TO.P,SW_DN1,2,2*%
%TO.N,Net-(A1-Pad5)*%
X53250000Y-66050000D03*
X53250000Y-59550000D03*
%TD*%
%TO.P,SW_SEL1,1,1*%
%TO.N,GND*%
X48750000Y-13750000D03*
X48750000Y-20250000D03*
%TO.P,SW_SEL1,2,2*%
%TO.N,Net-(A1-Pad7)*%
X53250000Y-20250000D03*
X53250000Y-13750000D03*
%TD*%
%TO.P,SW_UP1,1,1*%
%TO.N,GND*%
X38250000Y-59550000D03*
X38250000Y-66050000D03*
%TO.P,SW_UP1,2,2*%
%TO.N,Net-(A1-Pad6)*%
X42750000Y-59550000D03*
X42750000Y-66050000D03*
%TD*%
D14*
%TO.P,J1-LED1,1,Pin_1*%
%TO.N,Net-(A1-Pad30)*%
X9000000Y-5500000D03*
D15*
%TO.P,J1-LED1,2,Pin_2*%
%TO.N,Net-(J1-LED1-Pad2)*%
X14000000Y-5500000D03*
%TD*%
D16*
%TO.P,J3,1,Pin_1*%
%TO.N,GND*%
X2500000Y-51500000D03*
D17*
%TO.P,J3,2,Pin_2*%
%TO.N,Net-(A1-Pad27)*%
X5040000Y-51500000D03*
%TO.P,J3,3,Pin_3*%
%TO.N,Net-(A1-Pad23)*%
X7580000Y-51500000D03*
%TO.P,J3,4,Pin_4*%
%TO.N,Net-(A1-Pad24)*%
X10120000Y-51500000D03*
%TD*%
D14*
%TO.P,J2-PWR1,1,Pin_1*%
%TO.N,Net-(A1-Pad30)*%
X22000000Y-5500000D03*
D15*
%TO.P,J2-PWR1,2,Pin_2*%
%TO.N,GND*%
X27000000Y-5500000D03*
%TD*%
D18*
%TO.P,A1,1,D1/TX*%
%TO.N,unconnected-(A1-Pad1)*%
X29000000Y-35000000D03*
D19*
%TO.P,A1,2,D0/RX*%
%TO.N,unconnected-(A1-Pad2)*%
X29000000Y-37540000D03*
%TO.P,A1,3,~{RESET}*%
%TO.N,unconnected-(A1-Pad3)*%
X29000000Y-40080000D03*
%TO.P,A1,4,GND*%
%TO.N,GND*%
X29000000Y-42620000D03*
%TO.P,A1,5,D2*%
%TO.N,Net-(A1-Pad5)*%
X29000000Y-45160000D03*
%TO.P,A1,6,D3*%
%TO.N,Net-(A1-Pad6)*%
X29000000Y-47700000D03*
%TO.P,A1,7,D4*%
%TO.N,Net-(A1-Pad7)*%
X29000000Y-50240000D03*
%TO.P,A1,8,D5*%
%TO.N,unconnected-(A1-Pad8)*%
X29000000Y-52780000D03*
%TO.P,A1,9,D6*%
%TO.N,unconnected-(A1-Pad9)*%
X29000000Y-55320000D03*
%TO.P,A1,10,D7*%
%TO.N,unconnected-(A1-Pad10)*%
X29000000Y-57860000D03*
%TO.P,A1,11,D8*%
%TO.N,unconnected-(A1-Pad11)*%
X29000000Y-60400000D03*
%TO.P,A1,12,D9*%
%TO.N,Net-(A1-Pad12)*%
X29000000Y-62940000D03*
%TO.P,A1,13,D10*%
%TO.N,unconnected-(A1-Pad13)*%
X29000000Y-65480000D03*
%TO.P,A1,14,D11*%
%TO.N,unconnected-(A1-Pad14)*%
X29000000Y-68020000D03*
%TO.P,A1,15,D12*%
%TO.N,unconnected-(A1-Pad15)*%
X29000000Y-70560000D03*
%TO.P,A1,16,D13*%
%TO.N,unconnected-(A1-Pad16)*%
X13760000Y-70560000D03*
%TO.P,A1,17,3V3*%
%TO.N,unconnected-(A1-Pad17)*%
X13760000Y-68020000D03*
%TO.P,A1,18,AREF*%
%TO.N,unconnected-(A1-Pad18)*%
X13760000Y-65480000D03*
%TO.P,A1,19,A0*%
%TO.N,unconnected-(A1-Pad19)*%
X13760000Y-62940000D03*
%TO.P,A1,20,A1*%
%TO.N,unconnected-(A1-Pad20)*%
X13760000Y-60400000D03*
%TO.P,A1,21,A2*%
%TO.N,unconnected-(A1-Pad21)*%
X13760000Y-57860000D03*
%TO.P,A1,22,A3*%
%TO.N,unconnected-(A1-Pad22)*%
X13760000Y-55320000D03*
%TO.P,A1,23,A4*%
%TO.N,Net-(A1-Pad23)*%
X13760000Y-52780000D03*
%TO.P,A1,24,A5*%
%TO.N,Net-(A1-Pad24)*%
X13760000Y-50240000D03*
%TO.P,A1,25,A6*%
%TO.N,unconnected-(A1-Pad25)*%
X13760000Y-47700000D03*
%TO.P,A1,26,A7*%
%TO.N,unconnected-(A1-Pad26)*%
X13760000Y-45160000D03*
%TO.P,A1,27,+5V*%
%TO.N,Net-(A1-Pad27)*%
X13760000Y-42620000D03*
%TO.P,A1,28,~{RESET}*%
%TO.N,unconnected-(A1-Pad28)*%
X13760000Y-40080000D03*
%TO.P,A1,29,GND*%
%TO.N,GND*%
X13760000Y-37540000D03*
%TO.P,A1,30,VIN*%
%TO.N,Net-(A1-Pad30)*%
X13760000Y-35000000D03*
%TD*%
D20*
%TO.P,Q1,1,G*%
%TO.N,Net-(A1-Pad12)*%
X29730000Y-24540000D03*
D21*
%TO.P,Q1,2,D*%
%TO.N,Net-(J1-LED1-Pad2)*%
X29730000Y-22000000D03*
%TO.P,Q1,3,S*%
%TO.N,GND*%
X29730000Y-19460000D03*
%TD*%
D22*
%TO.N,Net-(A1-Pad5)*%
X38860000Y-45160000D02*
X53250000Y-59550000D01*
X53250000Y-66050000D02*
X53250000Y-59550000D01*
X29000000Y-45160000D02*
X38860000Y-45160000D01*
%TO.N,Net-(A1-Pad6)*%
X42750000Y-66050000D02*
X42750000Y-59550000D01*
X29000000Y-47700000D02*
X30900000Y-47700000D01*
X30900000Y-47700000D02*
X42750000Y-59550000D01*
%TO.N,Net-(A1-Pad7)*%
X53250000Y-20250000D02*
X53250000Y-13750000D01*
X27000000Y-48240000D02*
X27000000Y-32500000D01*
X27000000Y-32500000D02*
X37500000Y-22000000D01*
X37500000Y-22000000D02*
X51500000Y-22000000D01*
X29000000Y-50240000D02*
X27000000Y-48240000D01*
X51500000Y-22000000D02*
X53250000Y-20250000D01*
%TO.N,Net-(A1-Pad12)*%
X29730000Y-24540000D02*
X25000000Y-29270000D01*
X31960000Y-24540000D02*
X33500000Y-23000000D01*
X29000000Y-62940000D02*
X25000000Y-58940000D01*
X29730000Y-24540000D02*
X31960000Y-24540000D01*
X25000000Y-29270000D02*
X25000000Y-58940000D01*
%TO.N,Net-(A1-Pad23)*%
X11000000Y-53500000D02*
X9000000Y-53500000D01*
X7580000Y-52080000D02*
X7580000Y-51500000D01*
X9000000Y-53500000D02*
X7580000Y-52080000D01*
X11720000Y-52780000D02*
X11000000Y-53500000D01*
X13760000Y-52780000D02*
X11720000Y-52780000D01*
%TO.N,Net-(A1-Pad24)*%
X10760000Y-50240000D02*
X10120000Y-50880000D01*
X13760000Y-50240000D02*
X10760000Y-50240000D01*
X10120000Y-50880000D02*
X10120000Y-51500000D01*
%TO.N,Net-(A1-Pad27)*%
X11630000Y-42620000D02*
X13760000Y-42620000D01*
X5040000Y-51500000D02*
X4540000Y-51000000D01*
X4540000Y-51000000D02*
X4540000Y-49710000D01*
X4540000Y-49710000D02*
X11630000Y-42620000D01*
D23*
%TO.N,Net-(A1-Pad30)*%
X13760000Y-35000000D02*
X9000000Y-30240000D01*
X9000000Y-30240000D02*
X9000000Y-5500000D01*
X22000000Y-5500000D02*
X21000000Y-5500000D01*
X21000000Y-5500000D02*
X17500000Y-2000000D01*
X12500000Y-2000000D02*
X9000000Y-5500000D01*
X17500000Y-2000000D02*
X12500000Y-2000000D01*
%TO.N,Net-(J1-LED1-Pad2)*%
X28000000Y-22000000D02*
X29730000Y-22000000D01*
X14000000Y-8000000D02*
X28000000Y-22000000D01*
X14000000Y-5500000D02*
X14000000Y-8000000D01*
%TD*%
%TA.AperFunction,Conductor*%
%TO.N,GND*%
G36*
X11668237Y-528502D02*
G01*
X11714730Y-582158D01*
X11724834Y-652432D01*
X11695340Y-717012D01*
X11672750Y-737458D01*
X11665406Y-742639D01*
X11659914Y-746301D01*
X11622429Y-769907D01*
X11593433Y-788167D01*
X11589644Y-791508D01*
X11589638Y-791512D01*
X11568783Y-809898D01*
X11558088Y-818344D01*
X11531253Y-837274D01*
X11528329Y-839944D01*
X11515479Y-851678D01*
X11509750Y-856909D01*
X11470034Y-896625D01*
X11464264Y-902044D01*
X11415142Y-945350D01*
X11415139Y-945353D01*
X11411345Y-948698D01*
X11408135Y-952606D01*
X11408134Y-952607D01*
X11384821Y-980989D01*
X11376551Y-990108D01*
X8712064Y-3654595D01*
X8649752Y-3688621D01*
X8622969Y-3691500D01*
X7651866Y-3691500D01*
X7589684Y-3698255D01*
X7453295Y-3749385D01*
X7336739Y-3836739D01*
X7249385Y-3953295D01*
X7198255Y-4089684D01*
X7191500Y-4151866D01*
X7191500Y-6848134D01*
X7198255Y-6910316D01*
X7249385Y-7046705D01*
X7336739Y-7163261D01*
X7343919Y-7168642D01*
X7441065Y-7241449D01*
X7483580Y-7298308D01*
X7491500Y-7342275D01*
X7491500Y-30215984D01*
X7491451Y-30219502D01*
X7488666Y-30319205D01*
X7489335Y-30324219D01*
X7499058Y-30397086D01*
X7499758Y-30403639D01*
X7506060Y-30481965D01*
X7513897Y-30513870D01*
X7516426Y-30527258D01*
X7520771Y-30559820D01*
X7522232Y-30564661D01*
X7522233Y-30564663D01*
X7543478Y-30635029D01*
X7545219Y-30641390D01*
X7563963Y-30717706D01*
X7565941Y-30722366D01*
X7576801Y-30747951D01*
X7581438Y-30760761D01*
X7590933Y-30792208D01*
X7593151Y-30796756D01*
X7593154Y-30796763D01*
X7625371Y-30862818D01*
X7628107Y-30868820D01*
X7658812Y-30941156D01*
X7661504Y-30945430D01*
X7676319Y-30968956D01*
X7682945Y-30980860D01*
X7697346Y-31010388D01*
X7700265Y-31014525D01*
X7700265Y-31014526D01*
X7742641Y-31074597D01*
X7746301Y-31080086D01*
X7788167Y-31146567D01*
X7791508Y-31150356D01*
X7791512Y-31150362D01*
X7809898Y-31171217D01*
X7818344Y-31181912D01*
X7837274Y-31208747D01*
X7856909Y-31230250D01*
X7896625Y-31269966D01*
X7902044Y-31275736D01*
X7945350Y-31324858D01*
X7945353Y-31324861D01*
X7948698Y-31328655D01*
X7952606Y-31331865D01*
X7952607Y-31331866D01*
X7980989Y-31355179D01*
X7990108Y-31363449D01*
X12736464Y-36109805D01*
X12738374Y-36111431D01*
X12738381Y-36111437D01*
X12790838Y-36156081D01*
X12874720Y-36227471D01*
X12879052Y-36230095D01*
X12879054Y-36230096D01*
X12966421Y-36283007D01*
X13014328Y-36335404D01*
X13026301Y-36405384D01*
X12998540Y-36470728D01*
X12973420Y-36493996D01*
X12920538Y-36531024D01*
X12912125Y-36538084D01*
X12758084Y-36692125D01*
X12751028Y-36700533D01*
X12626069Y-36878993D01*
X12620586Y-36888489D01*
X12528510Y-37085947D01*
X12524764Y-37096239D01*
X12478606Y-37268503D01*
X12478942Y-37282599D01*
X12486884Y-37286000D01*
X15027967Y-37286000D01*
X15041498Y-37282027D01*
X15042727Y-37273478D01*
X14995236Y-37096239D01*
X14991490Y-37085947D01*
X14899414Y-36888489D01*
X14893931Y-36878993D01*
X14768972Y-36700533D01*
X14761916Y-36692125D01*
X14607875Y-36538084D01*
X14599467Y-36531028D01*
X14547021Y-36494305D01*
X14502693Y-36438848D01*
X14495384Y-36368228D01*
X14527415Y-36304868D01*
X14550296Y-36285662D01*
X14627874Y-36234897D01*
X14683342Y-36198600D01*
X14683345Y-36198598D01*
X14687579Y-36195827D01*
X14691319Y-36192412D01*
X14863101Y-36035554D01*
X14863105Y-36035550D01*
X14866837Y-36032142D01*
X14963395Y-35910316D01*
X15014475Y-35845869D01*
X15014476Y-35845867D01*
X15017619Y-35841902D01*
X15136046Y-35630003D01*
X15177434Y-35516292D01*
X15217338Y-35406658D01*
X15217340Y-35406651D01*
X15219071Y-35401895D01*
X15264556Y-35163447D01*
X15271334Y-34920795D01*
X15239230Y-34680180D01*
X15169068Y-34447792D01*
X15062654Y-34229612D01*
X14963945Y-34089684D01*
X14925007Y-34034486D01*
X14925004Y-34034482D01*
X14922726Y-34031253D01*
X14903091Y-34009750D01*
X10545405Y-29652064D01*
X10511379Y-29589752D01*
X10508500Y-29562969D01*
X10508500Y-22000000D01*
X10806654Y-22000000D01*
X10806924Y-22004119D01*
X10818755Y-22184624D01*
X10826017Y-22295426D01*
X10826819Y-22299459D01*
X10826820Y-22299465D01*
X10881742Y-22575571D01*
X10883776Y-22585797D01*
X10885103Y-22589706D01*
X10885104Y-22589710D01*
X10935083Y-22736943D01*
X10978941Y-22866145D01*
X10980765Y-22869843D01*
X11104628Y-23121012D01*
X11109885Y-23131673D01*
X11112179Y-23135106D01*
X11270004Y-23371308D01*
X11274367Y-23377838D01*
X11277081Y-23380932D01*
X11277085Y-23380938D01*
X11416024Y-23539366D01*
X11469573Y-23600427D01*
X11472662Y-23603136D01*
X11689062Y-23792915D01*
X11689068Y-23792919D01*
X11692162Y-23795633D01*
X11695588Y-23797922D01*
X11695593Y-23797926D01*
X11733573Y-23823303D01*
X11938327Y-23960115D01*
X11942026Y-23961939D01*
X11942031Y-23961942D01*
X12078313Y-24029148D01*
X12203855Y-24091059D01*
X12207760Y-24092384D01*
X12207761Y-24092385D01*
X12480290Y-24184896D01*
X12480294Y-24184897D01*
X12484203Y-24186224D01*
X12488247Y-24187028D01*
X12488253Y-24187030D01*
X12770535Y-24243180D01*
X12770541Y-24243181D01*
X12774574Y-24243983D01*
X12778679Y-24244252D01*
X12778686Y-24244253D01*
X13065881Y-24263076D01*
X13070000Y-24263346D01*
X13074119Y-24263076D01*
X13361314Y-24244253D01*
X13361321Y-24244252D01*
X13365426Y-24243983D01*
X13369459Y-24243181D01*
X13369465Y-24243180D01*
X13651747Y-24187030D01*
X13651753Y-24187028D01*
X13655797Y-24186224D01*
X13659706Y-24184897D01*
X13659710Y-24184896D01*
X13932239Y-24092385D01*
X13932240Y-24092384D01*
X13936145Y-24091059D01*
X14061687Y-24029148D01*
X14197969Y-23961942D01*
X14197974Y-23961939D01*
X14201673Y-23960115D01*
X14406427Y-23823303D01*
X14444407Y-23797926D01*
X14444412Y-23797922D01*
X14447838Y-23795633D01*
X14450932Y-23792919D01*
X14450938Y-23792915D01*
X14667338Y-23603136D01*
X14670427Y-23600427D01*
X14723976Y-23539366D01*
X14862915Y-23380938D01*
X14862919Y-23380932D01*
X14865633Y-23377838D01*
X14869997Y-23371308D01*
X15027821Y-23135106D01*
X15030115Y-23131673D01*
X15035373Y-23121012D01*
X15159235Y-22869843D01*
X15161059Y-22866145D01*
X15204917Y-22736943D01*
X15254896Y-22589710D01*
X15254897Y-22589706D01*
X15256224Y-22585797D01*
X15258258Y-22575571D01*
X15313180Y-22299465D01*
X15313181Y-22299459D01*
X15313983Y-22295426D01*
X15321246Y-22184624D01*
X15333076Y-22004119D01*
X15333346Y-22000000D01*
X15328268Y-21922527D01*
X15314253Y-21708686D01*
X15314252Y-21708679D01*
X15313983Y-21704574D01*
X15310530Y-21687211D01*
X15257030Y-21418253D01*
X15257028Y-21418247D01*
X15256224Y-21414203D01*
X15244852Y-21380700D01*
X15162385Y-21137761D01*
X15162384Y-21137760D01*
X15161059Y-21133855D01*
X15061707Y-20932389D01*
X15031942Y-20872031D01*
X15031939Y-20872026D01*
X15030115Y-20868327D01*
X14990744Y-20809405D01*
X14867926Y-20625593D01*
X14867922Y-20625588D01*
X14865633Y-20622162D01*
X14862919Y-20619068D01*
X14862915Y-20619062D01*
X14673136Y-20402662D01*
X14670427Y-20399573D01*
X14579735Y-20320038D01*
X14450938Y-20207085D01*
X14450932Y-20207081D01*
X14447838Y-20204367D01*
X14444412Y-20202078D01*
X14444407Y-20202074D01*
X14239676Y-20065278D01*
X14201673Y-20039885D01*
X14197974Y-20038061D01*
X14197969Y-20038058D01*
X14031646Y-19956037D01*
X13936145Y-19908941D01*
X13903516Y-19897865D01*
X13659710Y-19815104D01*
X13659706Y-19815103D01*
X13655797Y-19813776D01*
X13651753Y-19812972D01*
X13651747Y-19812970D01*
X13369465Y-19756820D01*
X13369459Y-19756819D01*
X13365426Y-19756017D01*
X13361321Y-19755748D01*
X13361314Y-19755747D01*
X13074119Y-19736924D01*
X13070000Y-19736654D01*
X13065881Y-19736924D01*
X12778686Y-19755747D01*
X12778679Y-19755748D01*
X12774574Y-19756017D01*
X12770541Y-19756819D01*
X12770535Y-19756820D01*
X12488253Y-19812970D01*
X12488247Y-19812972D01*
X12484203Y-19813776D01*
X12480294Y-19815103D01*
X12480290Y-19815104D01*
X12236484Y-19897865D01*
X12203855Y-19908941D01*
X12108354Y-19956037D01*
X11942031Y-20038058D01*
X11942026Y-20038061D01*
X11938327Y-20039885D01*
X11900324Y-20065278D01*
X11695593Y-20202074D01*
X11695588Y-20202078D01*
X11692162Y-20204367D01*
X11689068Y-20207081D01*
X11689062Y-20207085D01*
X11560265Y-20320038D01*
X11469573Y-20399573D01*
X11466864Y-20402662D01*
X11277085Y-20619062D01*
X11277081Y-20619068D01*
X11274367Y-20622162D01*
X11272078Y-20625588D01*
X11272074Y-20625593D01*
X11149256Y-20809405D01*
X11109885Y-20868327D01*
X11108061Y-20872026D01*
X11108058Y-20872031D01*
X11078293Y-20932389D01*
X10978941Y-21133855D01*
X10977616Y-21137760D01*
X10977615Y-21137761D01*
X10895149Y-21380700D01*
X10883776Y-21414203D01*
X10882972Y-21418247D01*
X10882970Y-21418253D01*
X10829471Y-21687211D01*
X10826017Y-21704574D01*
X10825748Y-21708679D01*
X10825747Y-21708686D01*
X10811732Y-21922527D01*
X10806654Y-22000000D01*
X10508500Y-22000000D01*
X10508500Y-7342275D01*
X10528502Y-7274154D01*
X10558935Y-7241449D01*
X10656081Y-7168642D01*
X10663261Y-7163261D01*
X10750615Y-7046705D01*
X10801745Y-6910316D01*
X10808500Y-6848134D01*
X10808500Y-5877031D01*
X10828502Y-5808910D01*
X10845405Y-5787936D01*
X12304787Y-4328554D01*
X12367099Y-4294528D01*
X12437914Y-4299593D01*
X12494750Y-4342140D01*
X12519561Y-4408660D01*
X12501601Y-4483015D01*
X12384096Y-4676656D01*
X12280148Y-4924545D01*
X12213981Y-5185077D01*
X12187050Y-5452526D01*
X12199947Y-5721019D01*
X12252388Y-5984656D01*
X12343220Y-6237646D01*
X12345432Y-6241762D01*
X12345433Y-6241765D01*
X12468241Y-6470321D01*
X12468245Y-6470327D01*
X12470450Y-6474431D01*
X12471932Y-6476415D01*
X12491500Y-6543555D01*
X12491500Y-7975984D01*
X12491451Y-7979502D01*
X12488666Y-8079205D01*
X12489335Y-8084219D01*
X12499058Y-8157086D01*
X12499758Y-8163639D01*
X12506060Y-8241965D01*
X12513897Y-8273870D01*
X12516426Y-8287258D01*
X12520771Y-8319820D01*
X12522232Y-8324661D01*
X12522233Y-8324663D01*
X12543478Y-8395029D01*
X12545219Y-8401390D01*
X12563963Y-8477706D01*
X12565941Y-8482366D01*
X12576801Y-8507951D01*
X12581438Y-8520761D01*
X12590933Y-8552208D01*
X12593151Y-8556756D01*
X12593154Y-8556763D01*
X12625371Y-8622818D01*
X12628107Y-8628820D01*
X12658812Y-8701156D01*
X12661504Y-8705430D01*
X12676319Y-8728956D01*
X12682945Y-8740860D01*
X12697346Y-8770388D01*
X12700265Y-8774525D01*
X12700265Y-8774526D01*
X12742641Y-8834597D01*
X12746301Y-8840086D01*
X12788167Y-8906567D01*
X12791508Y-8910356D01*
X12791512Y-8910362D01*
X12809898Y-8931217D01*
X12818344Y-8941912D01*
X12837274Y-8968747D01*
X12856909Y-8990250D01*
X12896625Y-9029966D01*
X12902044Y-9035736D01*
X12945350Y-9084858D01*
X12945353Y-9084861D01*
X12948698Y-9088655D01*
X12952606Y-9091865D01*
X12952607Y-9091866D01*
X12980989Y-9115179D01*
X12990108Y-9123449D01*
X26916325Y-23049666D01*
X26918779Y-23052188D01*
X26981944Y-23118983D01*
X26987332Y-23124681D01*
X27010339Y-23142271D01*
X27049757Y-23172408D01*
X27054892Y-23176552D01*
X27114720Y-23227470D01*
X27119045Y-23230089D01*
X27119050Y-23230093D01*
X27142824Y-23244491D01*
X27154071Y-23252163D01*
X27180174Y-23272120D01*
X27184632Y-23274510D01*
X27184633Y-23274511D01*
X27249401Y-23309239D01*
X27255126Y-23312504D01*
X27322358Y-23353221D01*
X27352817Y-23365527D01*
X27365158Y-23371307D01*
X27394109Y-23386831D01*
X27398890Y-23388477D01*
X27398894Y-23388479D01*
X27468401Y-23412412D01*
X27474579Y-23414722D01*
X27524792Y-23435009D01*
X27547429Y-23444155D01*
X27552369Y-23445277D01*
X27552368Y-23445277D01*
X27579460Y-23451432D01*
X27592559Y-23455163D01*
X27623631Y-23465862D01*
X27701100Y-23479243D01*
X27707504Y-23480523D01*
X27784144Y-23497935D01*
X27816953Y-23499999D01*
X27830453Y-23501585D01*
X27862836Y-23507179D01*
X27866793Y-23507359D01*
X27866796Y-23507359D01*
X27890506Y-23508436D01*
X27890525Y-23508436D01*
X27891925Y-23508500D01*
X27948108Y-23508500D01*
X27956019Y-23508749D01*
X28026413Y-23513178D01*
X28067992Y-23509101D01*
X28080288Y-23508500D01*
X28095500Y-23508500D01*
X28163621Y-23528502D01*
X28210114Y-23582158D01*
X28221500Y-23634500D01*
X28221500Y-24958984D01*
X28201498Y-25027105D01*
X28184595Y-25048079D01*
X24527423Y-28705252D01*
X24513011Y-28717639D01*
X24496349Y-28729900D01*
X24491606Y-28735483D01*
X24463369Y-28768720D01*
X24456439Y-28776236D01*
X24451055Y-28781620D01*
X24448792Y-28784481D01*
X24448787Y-28784486D01*
X24434068Y-28803091D01*
X24431279Y-28806493D01*
X24390347Y-28854672D01*
X24390344Y-28854676D01*
X24385608Y-28860251D01*
X24382279Y-28866772D01*
X24379158Y-28871451D01*
X24376222Y-28876205D01*
X24371682Y-28881943D01*
X24368585Y-28888570D01*
X24368584Y-28888571D01*
X24341811Y-28945854D01*
X24339901Y-28949761D01*
X24307824Y-29012582D01*
X24306084Y-29019694D01*
X24304118Y-29024980D01*
X24302360Y-29030265D01*
X24299261Y-29036895D01*
X24297771Y-29044060D01*
X24284895Y-29105963D01*
X24283925Y-29110247D01*
X24267170Y-29178721D01*
X24266500Y-29189520D01*
X24266476Y-29189519D01*
X24266212Y-29193934D01*
X24265922Y-29197184D01*
X24264431Y-29204352D01*
X24264629Y-29211669D01*
X24266454Y-29279123D01*
X24266500Y-29282531D01*
X24266500Y-58874834D01*
X24265067Y-58893783D01*
X24261957Y-58914227D01*
X24262550Y-58921519D01*
X24262550Y-58921522D01*
X24266085Y-58964979D01*
X24266500Y-58975194D01*
X24266500Y-58982826D01*
X24266922Y-58986445D01*
X24266923Y-58986464D01*
X24269675Y-59010069D01*
X24270107Y-59014435D01*
X24275823Y-59084704D01*
X24278081Y-59091673D01*
X24279184Y-59097193D01*
X24280466Y-59102618D01*
X24281314Y-59109890D01*
X24283811Y-59116769D01*
X24305382Y-59176196D01*
X24306810Y-59180356D01*
X24326280Y-59240458D01*
X24326282Y-59240462D01*
X24328536Y-59247420D01*
X24332330Y-59253672D01*
X24334672Y-59258788D01*
X24337176Y-59263789D01*
X24339673Y-59270667D01*
X24343683Y-59276784D01*
X24343686Y-59276789D01*
X24378347Y-59329654D01*
X24380695Y-59333376D01*
X24417267Y-59393645D01*
X24420979Y-59397848D01*
X24424429Y-59401755D01*
X24424412Y-59401770D01*
X24427346Y-59405080D01*
X24429442Y-59407587D01*
X24433454Y-59413706D01*
X24438766Y-59418738D01*
X24487776Y-59465166D01*
X24490218Y-59467544D01*
X26084950Y-61062275D01*
X27667173Y-62644498D01*
X27701199Y-62706810D01*
X27703599Y-62744574D01*
X27686981Y-62934524D01*
X27686502Y-62940000D01*
X27706457Y-63168087D01*
X27765716Y-63389243D01*
X27768039Y-63394224D01*
X27768039Y-63394225D01*
X27860151Y-63591762D01*
X27860154Y-63591767D01*
X27862477Y-63596749D01*
X27993802Y-63784300D01*
X28155700Y-63946198D01*
X28160208Y-63949355D01*
X28160211Y-63949357D01*
X28238389Y-64004098D01*
X28343251Y-64077523D01*
X28348233Y-64079846D01*
X28348238Y-64079849D01*
X28382457Y-64095805D01*
X28435742Y-64142722D01*
X28455203Y-64210999D01*
X28434661Y-64278959D01*
X28382457Y-64324195D01*
X28348238Y-64340151D01*
X28348233Y-64340154D01*
X28343251Y-64342477D01*
X28238389Y-64415902D01*
X28160211Y-64470643D01*
X28160208Y-64470645D01*
X28155700Y-64473802D01*
X27993802Y-64635700D01*
X27862477Y-64823251D01*
X27860154Y-64828233D01*
X27860151Y-64828238D01*
X27789370Y-64980031D01*
X27765716Y-65030757D01*
X27764294Y-65036065D01*
X27764293Y-65036067D01*
X27725165Y-65182093D01*
X27706457Y-65251913D01*
X27686502Y-65480000D01*
X27706457Y-65708087D01*
X27765716Y-65929243D01*
X27768039Y-65934224D01*
X27768039Y-65934225D01*
X27860151Y-66131762D01*
X27860154Y-66131767D01*
X27862477Y-66136749D01*
X27993802Y-66324300D01*
X28155700Y-66486198D01*
X28160208Y-66489355D01*
X28160211Y-66489357D01*
X28207069Y-66522167D01*
X28343251Y-66617523D01*
X28348233Y-66619846D01*
X28348238Y-66619849D01*
X28382457Y-66635805D01*
X28435742Y-66682722D01*
X28455203Y-66750999D01*
X28434661Y-66818959D01*
X28382457Y-66864195D01*
X28348238Y-66880151D01*
X28348233Y-66880154D01*
X28343251Y-66882477D01*
X28306165Y-66908445D01*
X28160211Y-67010643D01*
X28160208Y-67010645D01*
X28155700Y-67013802D01*
X27993802Y-67175700D01*
X27862477Y-67363251D01*
X27860154Y-67368233D01*
X27860151Y-67368238D01*
X27769671Y-67562275D01*
X27765716Y-67570757D01*
X27706457Y-67791913D01*
X27686502Y-68020000D01*
X27706457Y-68248087D01*
X27765716Y-68469243D01*
X27768039Y-68474224D01*
X27768039Y-68474225D01*
X27860151Y-68671762D01*
X27860154Y-68671767D01*
X27862477Y-68676749D01*
X27993802Y-68864300D01*
X28155700Y-69026198D01*
X28160208Y-69029355D01*
X28160211Y-69029357D01*
X28238389Y-69084098D01*
X28343251Y-69157523D01*
X28348233Y-69159846D01*
X28348238Y-69159849D01*
X28382457Y-69175805D01*
X28435742Y-69222722D01*
X28455203Y-69290999D01*
X28434661Y-69358959D01*
X28382457Y-69404195D01*
X28348238Y-69420151D01*
X28348233Y-69420154D01*
X28343251Y-69422477D01*
X28238389Y-69495902D01*
X28160211Y-69550643D01*
X28160208Y-69550645D01*
X28155700Y-69553802D01*
X27993802Y-69715700D01*
X27862477Y-69903251D01*
X27860154Y-69908233D01*
X27860151Y-69908238D01*
X27768039Y-70105775D01*
X27765716Y-70110757D01*
X27706457Y-70331913D01*
X27686502Y-70560000D01*
X27706457Y-70788087D01*
X27765716Y-71009243D01*
X27768039Y-71014224D01*
X27768039Y-71014225D01*
X27860151Y-71211762D01*
X27860154Y-71211767D01*
X27862477Y-71216749D01*
X27993802Y-71404300D01*
X28155700Y-71566198D01*
X28160208Y-71569355D01*
X28160211Y-71569357D01*
X28238389Y-71624098D01*
X28343251Y-71697523D01*
X28348233Y-71699846D01*
X28348238Y-71699849D01*
X28545775Y-71791961D01*
X28550757Y-71794284D01*
X28556065Y-71795706D01*
X28556067Y-71795707D01*
X28766598Y-71852119D01*
X28766600Y-71852119D01*
X28771913Y-71853543D01*
X29000000Y-71873498D01*
X29228087Y-71853543D01*
X29233400Y-71852119D01*
X29233402Y-71852119D01*
X29443933Y-71795707D01*
X29443935Y-71795706D01*
X29449243Y-71794284D01*
X29454225Y-71791961D01*
X29651762Y-71699849D01*
X29651767Y-71699846D01*
X29656749Y-71697523D01*
X29761611Y-71624098D01*
X29839789Y-71569357D01*
X29839792Y-71569355D01*
X29844300Y-71566198D01*
X30006198Y-71404300D01*
X30137523Y-71216749D01*
X30139846Y-71211767D01*
X30139849Y-71211762D01*
X30231961Y-71014225D01*
X30231961Y-71014224D01*
X30234284Y-71009243D01*
X30293543Y-70788087D01*
X30313498Y-70560000D01*
X30293543Y-70331913D01*
X30234284Y-70110757D01*
X30231961Y-70105775D01*
X30139849Y-69908238D01*
X30139846Y-69908233D01*
X30137523Y-69903251D01*
X30006198Y-69715700D01*
X29844300Y-69553802D01*
X29839792Y-69550645D01*
X29839789Y-69550643D01*
X29761611Y-69495902D01*
X29656749Y-69422477D01*
X29651767Y-69420154D01*
X29651762Y-69420151D01*
X29617543Y-69404195D01*
X29564258Y-69357278D01*
X29544797Y-69289001D01*
X29565339Y-69221041D01*
X29617543Y-69175805D01*
X29651762Y-69159849D01*
X29651767Y-69159846D01*
X29656749Y-69157523D01*
X29761611Y-69084098D01*
X29839789Y-69029357D01*
X29839792Y-69029355D01*
X29844300Y-69026198D01*
X30006198Y-68864300D01*
X30137523Y-68676749D01*
X30139846Y-68671767D01*
X30139849Y-68671762D01*
X30231961Y-68474225D01*
X30231961Y-68474224D01*
X30234284Y-68469243D01*
X30293543Y-68248087D01*
X30313498Y-68020000D01*
X30293543Y-67791913D01*
X30234284Y-67570757D01*
X30230329Y-67562275D01*
X30139849Y-67368238D01*
X30139846Y-67368233D01*
X30137523Y-67363251D01*
X30081099Y-67282670D01*
X37382160Y-67282670D01*
X37387887Y-67290320D01*
X37559042Y-67395205D01*
X37567837Y-67399687D01*
X37777988Y-67486734D01*
X37787373Y-67489783D01*
X38008554Y-67542885D01*
X38018301Y-67544428D01*
X38245070Y-67562275D01*
X38254930Y-67562275D01*
X38481699Y-67544428D01*
X38491446Y-67542885D01*
X38712627Y-67489783D01*
X38722012Y-67486734D01*
X38932163Y-67399687D01*
X38940958Y-67395205D01*
X39108445Y-67292568D01*
X39117907Y-67282110D01*
X39114124Y-67273334D01*
X38262812Y-66422022D01*
X38248868Y-66414408D01*
X38247035Y-66414539D01*
X38240420Y-66418790D01*
X37388920Y-67270290D01*
X37382160Y-67282670D01*
X30081099Y-67282670D01*
X30006198Y-67175700D01*
X29844300Y-67013802D01*
X29839792Y-67010645D01*
X29839789Y-67010643D01*
X29693835Y-66908445D01*
X29656749Y-66882477D01*
X29651767Y-66880154D01*
X29651762Y-66880151D01*
X29617543Y-66864195D01*
X29564258Y-66817278D01*
X29544797Y-66749001D01*
X29565339Y-66681041D01*
X29617543Y-66635805D01*
X29651762Y-66619849D01*
X29651767Y-66619846D01*
X29656749Y-66617523D01*
X29792931Y-66522167D01*
X29839789Y-66489357D01*
X29839792Y-66489355D01*
X29844300Y-66486198D01*
X30006198Y-66324300D01*
X30137523Y-66136749D01*
X30139846Y-66131767D01*
X30139849Y-66131762D01*
X30175676Y-66054930D01*
X36737725Y-66054930D01*
X36755572Y-66281699D01*
X36757115Y-66291446D01*
X36810217Y-66512627D01*
X36813266Y-66522012D01*
X36900313Y-66732163D01*
X36904795Y-66740958D01*
X37007432Y-66908445D01*
X37017890Y-66917907D01*
X37026666Y-66914124D01*
X37877978Y-66062812D01*
X37884356Y-66051132D01*
X38614408Y-66051132D01*
X38614539Y-66052965D01*
X38618790Y-66059580D01*
X39470290Y-66911080D01*
X39482670Y-66917840D01*
X39490320Y-66912113D01*
X39595205Y-66740958D01*
X39599687Y-66732163D01*
X39686734Y-66522012D01*
X39689783Y-66512627D01*
X39742885Y-66291446D01*
X39744428Y-66281699D01*
X39762275Y-66054930D01*
X39762275Y-66045070D01*
X39744428Y-65818301D01*
X39742885Y-65808554D01*
X39689783Y-65587373D01*
X39686734Y-65577988D01*
X39599687Y-65367837D01*
X39595205Y-65359042D01*
X39492568Y-65191555D01*
X39482110Y-65182093D01*
X39473334Y-65185876D01*
X38622022Y-66037188D01*
X38614408Y-66051132D01*
X37884356Y-66051132D01*
X37885592Y-66048868D01*
X37885461Y-66047035D01*
X37881210Y-66040420D01*
X37029710Y-65188920D01*
X37017330Y-65182160D01*
X37009680Y-65187887D01*
X36904795Y-65359042D01*
X36900313Y-65367837D01*
X36813266Y-65577988D01*
X36810217Y-65587373D01*
X36757115Y-65808554D01*
X36755572Y-65818301D01*
X36737725Y-66045070D01*
X36737725Y-66054930D01*
X30175676Y-66054930D01*
X30231961Y-65934225D01*
X30231961Y-65934224D01*
X30234284Y-65929243D01*
X30293543Y-65708087D01*
X30313498Y-65480000D01*
X30293543Y-65251913D01*
X30274835Y-65182093D01*
X30235707Y-65036067D01*
X30235706Y-65036065D01*
X30234284Y-65030757D01*
X30210630Y-64980031D01*
X30139849Y-64828238D01*
X30139846Y-64828233D01*
X30137523Y-64823251D01*
X30133769Y-64817890D01*
X37382093Y-64817890D01*
X37385876Y-64826666D01*
X38237188Y-65677978D01*
X38251132Y-65685592D01*
X38252965Y-65685461D01*
X38259580Y-65681210D01*
X39111080Y-64829710D01*
X39117840Y-64817330D01*
X39112113Y-64809680D01*
X38940958Y-64704795D01*
X38932163Y-64700313D01*
X38722012Y-64613266D01*
X38712627Y-64610217D01*
X38491446Y-64557115D01*
X38481699Y-64555572D01*
X38254930Y-64537725D01*
X38245070Y-64537725D01*
X38018301Y-64555572D01*
X38008554Y-64557115D01*
X37787373Y-64610217D01*
X37777988Y-64613266D01*
X37567837Y-64700313D01*
X37559042Y-64704795D01*
X37391555Y-64807432D01*
X37382093Y-64817890D01*
X30133769Y-64817890D01*
X30006198Y-64635700D01*
X29844300Y-64473802D01*
X29839792Y-64470645D01*
X29839789Y-64470643D01*
X29761611Y-64415902D01*
X29656749Y-64342477D01*
X29651767Y-64340154D01*
X29651762Y-64340151D01*
X29617543Y-64324195D01*
X29564258Y-64277278D01*
X29544797Y-64209001D01*
X29565339Y-64141041D01*
X29617543Y-64095805D01*
X29651762Y-64079849D01*
X29651767Y-64079846D01*
X29656749Y-64077523D01*
X29761611Y-64004098D01*
X29839789Y-63949357D01*
X29839792Y-63949355D01*
X29844300Y-63946198D01*
X30006198Y-63784300D01*
X30137523Y-63596749D01*
X30139846Y-63591767D01*
X30139849Y-63591762D01*
X30231961Y-63394225D01*
X30231961Y-63394224D01*
X30234284Y-63389243D01*
X30293543Y-63168087D01*
X30313498Y-62940000D01*
X30293543Y-62711913D01*
X30234284Y-62490757D01*
X30231961Y-62485775D01*
X30139849Y-62288238D01*
X30139846Y-62288233D01*
X30137523Y-62283251D01*
X30006198Y-62095700D01*
X29844300Y-61933802D01*
X29839792Y-61930645D01*
X29839789Y-61930643D01*
X29761611Y-61875902D01*
X29656749Y-61802477D01*
X29651767Y-61800154D01*
X29651762Y-61800151D01*
X29617543Y-61784195D01*
X29564258Y-61737278D01*
X29544797Y-61669001D01*
X29565339Y-61601041D01*
X29617543Y-61555805D01*
X29651762Y-61539849D01*
X29651767Y-61539846D01*
X29656749Y-61537523D01*
X29761611Y-61464098D01*
X29839789Y-61409357D01*
X29839792Y-61409355D01*
X29844300Y-61406198D01*
X30006198Y-61244300D01*
X30137523Y-61056749D01*
X30139846Y-61051767D01*
X30139849Y-61051762D01*
X30231961Y-60854225D01*
X30231961Y-60854224D01*
X30234284Y-60849243D01*
X30250073Y-60790320D01*
X30252123Y-60782670D01*
X37382160Y-60782670D01*
X37387887Y-60790320D01*
X37559042Y-60895205D01*
X37567837Y-60899687D01*
X37777988Y-60986734D01*
X37787373Y-60989783D01*
X38008554Y-61042885D01*
X38018301Y-61044428D01*
X38245070Y-61062275D01*
X38254930Y-61062275D01*
X38481699Y-61044428D01*
X38491446Y-61042885D01*
X38712627Y-60989783D01*
X38722012Y-60986734D01*
X38932163Y-60899687D01*
X38940958Y-60895205D01*
X39108445Y-60792568D01*
X39117907Y-60782110D01*
X39114124Y-60773334D01*
X38262812Y-59922022D01*
X38248868Y-59914408D01*
X38247035Y-59914539D01*
X38240420Y-59918790D01*
X37388920Y-60770290D01*
X37382160Y-60782670D01*
X30252123Y-60782670D01*
X30292119Y-60633402D01*
X30292119Y-60633400D01*
X30293543Y-60628087D01*
X30313498Y-60400000D01*
X30293543Y-60171913D01*
X30292119Y-60166598D01*
X30235707Y-59956067D01*
X30235706Y-59956065D01*
X30234284Y-59950757D01*
X30219378Y-59918790D01*
X30139849Y-59748238D01*
X30139846Y-59748233D01*
X30137523Y-59743251D01*
X30006198Y-59555700D01*
X30005428Y-59554930D01*
X36737725Y-59554930D01*
X36755572Y-59781699D01*
X36757115Y-59791446D01*
X36810217Y-60012627D01*
X36813266Y-60022012D01*
X36900313Y-60232163D01*
X36904795Y-60240958D01*
X37007432Y-60408445D01*
X37017890Y-60417907D01*
X37026666Y-60414124D01*
X37877978Y-59562812D01*
X37884356Y-59551132D01*
X38614408Y-59551132D01*
X38614539Y-59552965D01*
X38618790Y-59559580D01*
X39470290Y-60411080D01*
X39482670Y-60417840D01*
X39490320Y-60412113D01*
X39595205Y-60240958D01*
X39599687Y-60232163D01*
X39686734Y-60022012D01*
X39689783Y-60012627D01*
X39742885Y-59791446D01*
X39744428Y-59781699D01*
X39762275Y-59554930D01*
X39762275Y-59545070D01*
X39744428Y-59318301D01*
X39742885Y-59308554D01*
X39689783Y-59087373D01*
X39686734Y-59077988D01*
X39599687Y-58867837D01*
X39595205Y-58859042D01*
X39492568Y-58691555D01*
X39482110Y-58682093D01*
X39473334Y-58685876D01*
X38622022Y-59537188D01*
X38614408Y-59551132D01*
X37884356Y-59551132D01*
X37885592Y-59548868D01*
X37885461Y-59547035D01*
X37881210Y-59540420D01*
X37029710Y-58688920D01*
X37017330Y-58682160D01*
X37009680Y-58687887D01*
X36904795Y-58859042D01*
X36900313Y-58867837D01*
X36813266Y-59077988D01*
X36810217Y-59087373D01*
X36757115Y-59308554D01*
X36755572Y-59318301D01*
X36737725Y-59545070D01*
X36737725Y-59554930D01*
X30005428Y-59554930D01*
X29844300Y-59393802D01*
X29839792Y-59390645D01*
X29839789Y-59390643D01*
X29729316Y-59313289D01*
X29656749Y-59262477D01*
X29651767Y-59260154D01*
X29651762Y-59260151D01*
X29617543Y-59244195D01*
X29564258Y-59197278D01*
X29544797Y-59129001D01*
X29565339Y-59061041D01*
X29617543Y-59015805D01*
X29651762Y-58999849D01*
X29651767Y-58999846D01*
X29656749Y-58997523D01*
X29786039Y-58906993D01*
X29839789Y-58869357D01*
X29839792Y-58869355D01*
X29844300Y-58866198D01*
X30006198Y-58704300D01*
X30016968Y-58688920D01*
X30134366Y-58521257D01*
X30137523Y-58516749D01*
X30139846Y-58511767D01*
X30139849Y-58511762D01*
X30230252Y-58317890D01*
X37382093Y-58317890D01*
X37385876Y-58326666D01*
X38237188Y-59177978D01*
X38251132Y-59185592D01*
X38252965Y-59185461D01*
X38259580Y-59181210D01*
X39111080Y-58329710D01*
X39117840Y-58317330D01*
X39112113Y-58309680D01*
X38940958Y-58204795D01*
X38932163Y-58200313D01*
X38722012Y-58113266D01*
X38712627Y-58110217D01*
X38491446Y-58057115D01*
X38481699Y-58055572D01*
X38254930Y-58037725D01*
X38245070Y-58037725D01*
X38018301Y-58055572D01*
X38008554Y-58057115D01*
X37787373Y-58110217D01*
X37777988Y-58113266D01*
X37567837Y-58200313D01*
X37559042Y-58204795D01*
X37391555Y-58307432D01*
X37382093Y-58317890D01*
X30230252Y-58317890D01*
X30231961Y-58314225D01*
X30231961Y-58314224D01*
X30234284Y-58309243D01*
X30293543Y-58088087D01*
X30313498Y-57860000D01*
X30293543Y-57631913D01*
X30234284Y-57410757D01*
X30231961Y-57405775D01*
X30139849Y-57208238D01*
X30139846Y-57208233D01*
X30137523Y-57203251D01*
X30006198Y-57015700D01*
X29844300Y-56853802D01*
X29839792Y-56850645D01*
X29839789Y-56850643D01*
X29761611Y-56795902D01*
X29656749Y-56722477D01*
X29651767Y-56720154D01*
X29651762Y-56720151D01*
X29617543Y-56704195D01*
X29564258Y-56657278D01*
X29544797Y-56589001D01*
X29565339Y-56521041D01*
X29617543Y-56475805D01*
X29651762Y-56459849D01*
X29651767Y-56459846D01*
X29656749Y-56457523D01*
X29761611Y-56384098D01*
X29839789Y-56329357D01*
X29839792Y-56329355D01*
X29844300Y-56326198D01*
X30006198Y-56164300D01*
X30137523Y-55976749D01*
X30139846Y-55971767D01*
X30139849Y-55971762D01*
X30231961Y-55774225D01*
X30231961Y-55774224D01*
X30234284Y-55769243D01*
X30293543Y-55548087D01*
X30313498Y-55320000D01*
X30293543Y-55091913D01*
X30234284Y-54870757D01*
X30231961Y-54865775D01*
X30139849Y-54668238D01*
X30139846Y-54668233D01*
X30137523Y-54663251D01*
X30006198Y-54475700D01*
X29844300Y-54313802D01*
X29839792Y-54310645D01*
X29839789Y-54310643D01*
X29725083Y-54230325D01*
X29656749Y-54182477D01*
X29651767Y-54180154D01*
X29651762Y-54180151D01*
X29617543Y-54164195D01*
X29564258Y-54117278D01*
X29544797Y-54049001D01*
X29565339Y-53981041D01*
X29617543Y-53935805D01*
X29651762Y-53919849D01*
X29651767Y-53919846D01*
X29656749Y-53917523D01*
X29761611Y-53844098D01*
X29839789Y-53789357D01*
X29839792Y-53789355D01*
X29844300Y-53786198D01*
X30006198Y-53624300D01*
X30137523Y-53436749D01*
X30139846Y-53431767D01*
X30139849Y-53431762D01*
X30231961Y-53234225D01*
X30231961Y-53234224D01*
X30234284Y-53229243D01*
X30293543Y-53008087D01*
X30313498Y-52780000D01*
X30293543Y-52551913D01*
X30234284Y-52330757D01*
X30224134Y-52308990D01*
X30139849Y-52128238D01*
X30139846Y-52128233D01*
X30137523Y-52123251D01*
X30042595Y-51987680D01*
X30009357Y-51940211D01*
X30009355Y-51940208D01*
X30006198Y-51935700D01*
X29844300Y-51773802D01*
X29839792Y-51770645D01*
X29839789Y-51770643D01*
X29761611Y-51715902D01*
X29656749Y-51642477D01*
X29651767Y-51640154D01*
X29651762Y-51640151D01*
X29617543Y-51624195D01*
X29564258Y-51577278D01*
X29544797Y-51509001D01*
X29565339Y-51441041D01*
X29617543Y-51395805D01*
X29651762Y-51379849D01*
X29651767Y-51379846D01*
X29656749Y-51377523D01*
X29806967Y-51272339D01*
X29839789Y-51249357D01*
X29839792Y-51249355D01*
X29844300Y-51246198D01*
X30006198Y-51084300D01*
X30023736Y-51059254D01*
X30083781Y-50973500D01*
X30137523Y-50896749D01*
X30139846Y-50891767D01*
X30139849Y-50891762D01*
X30231961Y-50694225D01*
X30231961Y-50694224D01*
X30234284Y-50689243D01*
X30240926Y-50664457D01*
X30292119Y-50473402D01*
X30292119Y-50473400D01*
X30293543Y-50468087D01*
X30313498Y-50240000D01*
X30293543Y-50011913D01*
X30234284Y-49790757D01*
X30202470Y-49722531D01*
X30139849Y-49588238D01*
X30139846Y-49588233D01*
X30137523Y-49583251D01*
X30046027Y-49452582D01*
X30009357Y-49400211D01*
X30009355Y-49400208D01*
X30006198Y-49395700D01*
X29844300Y-49233802D01*
X29839792Y-49230645D01*
X29839789Y-49230643D01*
X29717838Y-49145252D01*
X29656749Y-49102477D01*
X29651767Y-49100154D01*
X29651762Y-49100151D01*
X29617543Y-49084195D01*
X29564258Y-49037278D01*
X29544797Y-48969001D01*
X29565339Y-48901041D01*
X29617543Y-48855805D01*
X29651762Y-48839849D01*
X29651767Y-48839846D01*
X29656749Y-48837523D01*
X29826390Y-48718739D01*
X29839789Y-48709357D01*
X29839792Y-48709355D01*
X29844300Y-48706198D01*
X30006198Y-48544300D01*
X30046160Y-48487229D01*
X30101618Y-48442901D01*
X30149373Y-48433500D01*
X30543984Y-48433500D01*
X30612105Y-48453502D01*
X30633079Y-48470405D01*
X41248257Y-59085583D01*
X41282283Y-59147895D01*
X41281681Y-59204092D01*
X41265698Y-59270667D01*
X41255465Y-59313289D01*
X41236835Y-59550000D01*
X41255465Y-59786711D01*
X41310895Y-60017594D01*
X41312788Y-60022165D01*
X41312789Y-60022167D01*
X41399772Y-60232163D01*
X41401760Y-60236963D01*
X41404346Y-60241183D01*
X41523241Y-60435202D01*
X41523245Y-60435208D01*
X41525824Y-60439416D01*
X41680031Y-60619969D01*
X41860584Y-60774176D01*
X41890597Y-60792568D01*
X41956335Y-60832853D01*
X42003967Y-60885500D01*
X42016500Y-60940285D01*
X42016500Y-64659715D01*
X41996498Y-64727836D01*
X41956335Y-64767147D01*
X41902418Y-64800188D01*
X41860584Y-64825824D01*
X41680031Y-64980031D01*
X41525824Y-65160584D01*
X41523245Y-65164792D01*
X41523241Y-65164798D01*
X41473114Y-65246598D01*
X41401760Y-65363037D01*
X41399867Y-65367607D01*
X41399865Y-65367611D01*
X41351045Y-65485475D01*
X41310895Y-65582406D01*
X41255465Y-65813289D01*
X41236835Y-66050000D01*
X41255465Y-66286711D01*
X41310895Y-66517594D01*
X41312788Y-66522165D01*
X41312789Y-66522167D01*
X41399772Y-66732163D01*
X41401760Y-66736963D01*
X41404346Y-66741183D01*
X41523241Y-66935202D01*
X41523245Y-66935208D01*
X41525824Y-66939416D01*
X41680031Y-67119969D01*
X41860584Y-67274176D01*
X41864792Y-67276755D01*
X41864798Y-67276759D01*
X41998584Y-67358743D01*
X42063037Y-67398240D01*
X42067607Y-67400133D01*
X42067611Y-67400135D01*
X42277833Y-67487211D01*
X42282406Y-67489105D01*
X42362609Y-67508360D01*
X42508476Y-67543380D01*
X42508482Y-67543381D01*
X42513289Y-67544535D01*
X42750000Y-67563165D01*
X42986711Y-67544535D01*
X42991518Y-67543381D01*
X42991524Y-67543380D01*
X43137391Y-67508360D01*
X43217594Y-67489105D01*
X43222167Y-67487211D01*
X43432389Y-67400135D01*
X43432393Y-67400133D01*
X43436963Y-67398240D01*
X43501416Y-67358743D01*
X43625556Y-67282670D01*
X47882160Y-67282670D01*
X47887887Y-67290320D01*
X48059042Y-67395205D01*
X48067837Y-67399687D01*
X48277988Y-67486734D01*
X48287373Y-67489783D01*
X48508554Y-67542885D01*
X48518301Y-67544428D01*
X48745070Y-67562275D01*
X48754930Y-67562275D01*
X48981699Y-67544428D01*
X48991446Y-67542885D01*
X49212627Y-67489783D01*
X49222012Y-67486734D01*
X49432163Y-67399687D01*
X49440958Y-67395205D01*
X49608445Y-67292568D01*
X49617907Y-67282110D01*
X49614124Y-67273334D01*
X48762812Y-66422022D01*
X48748868Y-66414408D01*
X48747035Y-66414539D01*
X48740420Y-66418790D01*
X47888920Y-67270290D01*
X47882160Y-67282670D01*
X43625556Y-67282670D01*
X43635202Y-67276759D01*
X43635208Y-67276755D01*
X43639416Y-67274176D01*
X43819969Y-67119969D01*
X43974176Y-66939416D01*
X43976755Y-66935208D01*
X43976759Y-66935202D01*
X44095654Y-66741183D01*
X44098240Y-66736963D01*
X44100229Y-66732163D01*
X44187211Y-66522167D01*
X44187212Y-66522165D01*
X44189105Y-66517594D01*
X44244535Y-66286711D01*
X44262777Y-66054930D01*
X47237725Y-66054930D01*
X47255572Y-66281699D01*
X47257115Y-66291446D01*
X47310217Y-66512627D01*
X47313266Y-66522012D01*
X47400313Y-66732163D01*
X47404795Y-66740958D01*
X47507432Y-66908445D01*
X47517890Y-66917907D01*
X47526666Y-66914124D01*
X48377978Y-66062812D01*
X48384356Y-66051132D01*
X49114408Y-66051132D01*
X49114539Y-66052965D01*
X49118790Y-66059580D01*
X49970290Y-66911080D01*
X49982670Y-66917840D01*
X49990320Y-66912113D01*
X50095205Y-66740958D01*
X50099687Y-66732163D01*
X50186734Y-66522012D01*
X50189783Y-66512627D01*
X50242885Y-66291446D01*
X50244428Y-66281699D01*
X50262275Y-66054930D01*
X50262275Y-66045070D01*
X50244428Y-65818301D01*
X50242885Y-65808554D01*
X50189783Y-65587373D01*
X50186734Y-65577988D01*
X50099687Y-65367837D01*
X50095205Y-65359042D01*
X49992568Y-65191555D01*
X49982110Y-65182093D01*
X49973334Y-65185876D01*
X49122022Y-66037188D01*
X49114408Y-66051132D01*
X48384356Y-66051132D01*
X48385592Y-66048868D01*
X48385461Y-66047035D01*
X48381210Y-66040420D01*
X47529710Y-65188920D01*
X47517330Y-65182160D01*
X47509680Y-65187887D01*
X47404795Y-65359042D01*
X47400313Y-65367837D01*
X47313266Y-65577988D01*
X47310217Y-65587373D01*
X47257115Y-65808554D01*
X47255572Y-65818301D01*
X47237725Y-66045070D01*
X47237725Y-66054930D01*
X44262777Y-66054930D01*
X44263165Y-66050000D01*
X44244535Y-65813289D01*
X44189105Y-65582406D01*
X44148955Y-65485475D01*
X44100135Y-65367611D01*
X44100133Y-65367607D01*
X44098240Y-65363037D01*
X44026886Y-65246598D01*
X43976759Y-65164798D01*
X43976755Y-65164792D01*
X43974176Y-65160584D01*
X43819969Y-64980031D01*
X43639416Y-64825824D01*
X43626469Y-64817890D01*
X47882093Y-64817890D01*
X47885876Y-64826666D01*
X48737188Y-65677978D01*
X48751132Y-65685592D01*
X48752965Y-65685461D01*
X48759580Y-65681210D01*
X49611080Y-64829710D01*
X49617840Y-64817330D01*
X49612113Y-64809680D01*
X49440958Y-64704795D01*
X49432163Y-64700313D01*
X49222012Y-64613266D01*
X49212627Y-64610217D01*
X48991446Y-64557115D01*
X48981699Y-64555572D01*
X48754930Y-64537725D01*
X48745070Y-64537725D01*
X48518301Y-64555572D01*
X48508554Y-64557115D01*
X48287373Y-64610217D01*
X48277988Y-64613266D01*
X48067837Y-64700313D01*
X48059042Y-64704795D01*
X47891555Y-64807432D01*
X47882093Y-64817890D01*
X43626469Y-64817890D01*
X43597582Y-64800188D01*
X43543665Y-64767147D01*
X43496033Y-64714500D01*
X43483500Y-64659715D01*
X43483500Y-60940285D01*
X43503502Y-60872164D01*
X43543665Y-60832853D01*
X43609403Y-60792568D01*
X43625555Y-60782670D01*
X47882160Y-60782670D01*
X47887887Y-60790320D01*
X48059042Y-60895205D01*
X48067837Y-60899687D01*
X48277988Y-60986734D01*
X48287373Y-60989783D01*
X48508554Y-61042885D01*
X48518301Y-61044428D01*
X48745070Y-61062275D01*
X48754930Y-61062275D01*
X48981699Y-61044428D01*
X48991446Y-61042885D01*
X49212627Y-60989783D01*
X49222012Y-60986734D01*
X49432163Y-60899687D01*
X49440958Y-60895205D01*
X49608445Y-60792568D01*
X49617907Y-60782110D01*
X49614124Y-60773334D01*
X48762812Y-59922022D01*
X48748868Y-59914408D01*
X48747035Y-59914539D01*
X48740420Y-59918790D01*
X47888920Y-60770290D01*
X47882160Y-60782670D01*
X43625555Y-60782670D01*
X43639416Y-60774176D01*
X43819969Y-60619969D01*
X43974176Y-60439416D01*
X43976755Y-60435208D01*
X43976759Y-60435202D01*
X44095654Y-60241183D01*
X44098240Y-60236963D01*
X44100229Y-60232163D01*
X44187211Y-60022167D01*
X44187212Y-60022165D01*
X44189105Y-60017594D01*
X44244535Y-59786711D01*
X44262777Y-59554930D01*
X47237725Y-59554930D01*
X47255572Y-59781699D01*
X47257115Y-59791446D01*
X47310217Y-60012627D01*
X47313266Y-60022012D01*
X47400313Y-60232163D01*
X47404795Y-60240958D01*
X47507432Y-60408445D01*
X47517890Y-60417907D01*
X47526666Y-60414124D01*
X48377978Y-59562812D01*
X48384356Y-59551132D01*
X49114408Y-59551132D01*
X49114539Y-59552965D01*
X49118790Y-59559580D01*
X49970290Y-60411080D01*
X49982670Y-60417840D01*
X49990320Y-60412113D01*
X50095205Y-60240958D01*
X50099687Y-60232163D01*
X50186734Y-60022012D01*
X50189783Y-60012627D01*
X50242885Y-59791446D01*
X50244428Y-59781699D01*
X50262275Y-59554930D01*
X50262275Y-59545070D01*
X50244428Y-59318301D01*
X50242885Y-59308554D01*
X50189783Y-59087373D01*
X50186734Y-59077988D01*
X50099687Y-58867837D01*
X50095205Y-58859042D01*
X49992568Y-58691555D01*
X49982110Y-58682093D01*
X49973334Y-58685876D01*
X49122022Y-59537188D01*
X49114408Y-59551132D01*
X48384356Y-59551132D01*
X48385592Y-59548868D01*
X48385461Y-59547035D01*
X48381210Y-59540420D01*
X47529710Y-58688920D01*
X47517330Y-58682160D01*
X47509680Y-58687887D01*
X47404795Y-58859042D01*
X47400313Y-58867837D01*
X47313266Y-59077988D01*
X47310217Y-59087373D01*
X47257115Y-59308554D01*
X47255572Y-59318301D01*
X47237725Y-59545070D01*
X47237725Y-59554930D01*
X44262777Y-59554930D01*
X44263165Y-59550000D01*
X44244535Y-59313289D01*
X44235773Y-59276789D01*
X44192614Y-59097023D01*
X44189105Y-59082406D01*
X44180952Y-59062722D01*
X44100135Y-58867611D01*
X44100133Y-58867607D01*
X44098240Y-58863037D01*
X44095654Y-58858817D01*
X43976759Y-58664798D01*
X43976755Y-58664792D01*
X43974176Y-58660584D01*
X43819969Y-58480031D01*
X43639416Y-58325824D01*
X43635208Y-58323245D01*
X43635202Y-58323241D01*
X43626470Y-58317890D01*
X47882093Y-58317890D01*
X47885876Y-58326666D01*
X48737188Y-59177978D01*
X48751132Y-59185592D01*
X48752965Y-59185461D01*
X48759580Y-59181210D01*
X49611080Y-58329710D01*
X49617840Y-58317330D01*
X49612113Y-58309680D01*
X49440958Y-58204795D01*
X49432163Y-58200313D01*
X49222012Y-58113266D01*
X49212627Y-58110217D01*
X48991446Y-58057115D01*
X48981699Y-58055572D01*
X48754930Y-58037725D01*
X48745070Y-58037725D01*
X48518301Y-58055572D01*
X48508554Y-58057115D01*
X48287373Y-58110217D01*
X48277988Y-58113266D01*
X48067837Y-58200313D01*
X48059042Y-58204795D01*
X47891555Y-58307432D01*
X47882093Y-58317890D01*
X43626470Y-58317890D01*
X43441183Y-58204346D01*
X43436963Y-58201760D01*
X43432393Y-58199867D01*
X43432389Y-58199865D01*
X43222167Y-58112789D01*
X43222165Y-58112788D01*
X43217594Y-58110895D01*
X43095909Y-58081681D01*
X42991524Y-58056620D01*
X42991518Y-58056619D01*
X42986711Y-58055465D01*
X42750000Y-58036835D01*
X42513289Y-58055465D01*
X42508482Y-58056619D01*
X42508476Y-58056620D01*
X42448957Y-58070910D01*
X42404091Y-58081681D01*
X42333184Y-58078134D01*
X42285583Y-58048257D01*
X31464748Y-47227423D01*
X31452361Y-47213010D01*
X31444441Y-47202248D01*
X31440100Y-47196349D01*
X31401280Y-47163369D01*
X31393764Y-47156439D01*
X31388380Y-47151055D01*
X31385519Y-47148792D01*
X31385514Y-47148787D01*
X31366909Y-47134068D01*
X31363507Y-47131279D01*
X31315328Y-47090347D01*
X31315324Y-47090344D01*
X31309749Y-47085608D01*
X31303228Y-47082279D01*
X31298549Y-47079158D01*
X31293795Y-47076222D01*
X31288057Y-47071682D01*
X31224147Y-47041811D01*
X31220239Y-47039901D01*
X31157418Y-47007824D01*
X31150306Y-47006084D01*
X31145020Y-47004118D01*
X31139735Y-47002360D01*
X31133105Y-46999261D01*
X31064032Y-46984894D01*
X31059748Y-46983924D01*
X30991279Y-46967170D01*
X30985677Y-46966822D01*
X30985674Y-46966822D01*
X30980480Y-46966500D01*
X30980481Y-46966476D01*
X30976066Y-46966212D01*
X30972816Y-46965922D01*
X30965648Y-46964431D01*
X30899851Y-46966211D01*
X30890877Y-46966454D01*
X30887469Y-46966500D01*
X30149373Y-46966500D01*
X30081252Y-46946498D01*
X30046160Y-46912771D01*
X30009357Y-46860211D01*
X30009355Y-46860208D01*
X30006198Y-46855700D01*
X29844300Y-46693802D01*
X29839792Y-46690645D01*
X29839789Y-46690643D01*
X29761611Y-46635902D01*
X29656749Y-46562477D01*
X29651767Y-46560154D01*
X29651762Y-46560151D01*
X29617543Y-46544195D01*
X29564258Y-46497278D01*
X29544797Y-46429001D01*
X29565339Y-46361041D01*
X29617543Y-46315805D01*
X29651762Y-46299849D01*
X29651767Y-46299846D01*
X29656749Y-46297523D01*
X29761611Y-46224098D01*
X29839789Y-46169357D01*
X29839792Y-46169355D01*
X29844300Y-46166198D01*
X30006198Y-46004300D01*
X30009357Y-45999789D01*
X30046160Y-45947229D01*
X30101618Y-45902901D01*
X30149373Y-45893500D01*
X38503984Y-45893500D01*
X38572105Y-45913502D01*
X38593079Y-45930405D01*
X51748257Y-59085583D01*
X51782283Y-59147895D01*
X51781681Y-59204092D01*
X51765698Y-59270667D01*
X51755465Y-59313289D01*
X51736835Y-59550000D01*
X51755465Y-59786711D01*
X51810895Y-60017594D01*
X51812788Y-60022165D01*
X51812789Y-60022167D01*
X51899772Y-60232163D01*
X51901760Y-60236963D01*
X51904346Y-60241183D01*
X52023241Y-60435202D01*
X52023245Y-60435208D01*
X52025824Y-60439416D01*
X52180031Y-60619969D01*
X52360584Y-60774176D01*
X52390597Y-60792568D01*
X52456335Y-60832853D01*
X52503967Y-60885500D01*
X52516500Y-60940285D01*
X52516500Y-64659715D01*
X52496498Y-64727836D01*
X52456335Y-64767147D01*
X52402418Y-64800188D01*
X52360584Y-64825824D01*
X52180031Y-64980031D01*
X52025824Y-65160584D01*
X52023245Y-65164792D01*
X52023241Y-65164798D01*
X51973114Y-65246598D01*
X51901760Y-65363037D01*
X51899867Y-65367607D01*
X51899865Y-65367611D01*
X51851045Y-65485475D01*
X51810895Y-65582406D01*
X51755465Y-65813289D01*
X51736835Y-66050000D01*
X51755465Y-66286711D01*
X51810895Y-66517594D01*
X51812788Y-66522165D01*
X51812789Y-66522167D01*
X51899772Y-66732163D01*
X51901760Y-66736963D01*
X51904346Y-66741183D01*
X52023241Y-66935202D01*
X52023245Y-66935208D01*
X52025824Y-66939416D01*
X52180031Y-67119969D01*
X52360584Y-67274176D01*
X52364792Y-67276755D01*
X52364798Y-67276759D01*
X52498584Y-67358743D01*
X52563037Y-67398240D01*
X52567607Y-67400133D01*
X52567611Y-67400135D01*
X52777833Y-67487211D01*
X52782406Y-67489105D01*
X52862609Y-67508360D01*
X53008476Y-67543380D01*
X53008482Y-67543381D01*
X53013289Y-67544535D01*
X53250000Y-67563165D01*
X53486711Y-67544535D01*
X53491518Y-67543381D01*
X53491524Y-67543380D01*
X53637391Y-67508360D01*
X53717594Y-67489105D01*
X53722167Y-67487211D01*
X53932389Y-67400135D01*
X53932393Y-67400133D01*
X53936963Y-67398240D01*
X54001416Y-67358743D01*
X54135202Y-67276759D01*
X54135208Y-67276755D01*
X54139416Y-67274176D01*
X54319969Y-67119969D01*
X54474176Y-66939416D01*
X54476755Y-66935208D01*
X54476759Y-66935202D01*
X54595654Y-66741183D01*
X54598240Y-66736963D01*
X54600229Y-66732163D01*
X54687211Y-66522167D01*
X54687212Y-66522165D01*
X54689105Y-66517594D01*
X54744535Y-66286711D01*
X54763165Y-66050000D01*
X54744535Y-65813289D01*
X54689105Y-65582406D01*
X54648955Y-65485475D01*
X54600135Y-65367611D01*
X54600133Y-65367607D01*
X54598240Y-65363037D01*
X54526886Y-65246598D01*
X54476759Y-65164798D01*
X54476755Y-65164792D01*
X54474176Y-65160584D01*
X54319969Y-64980031D01*
X54139416Y-64825824D01*
X54097582Y-64800188D01*
X54043665Y-64767147D01*
X53996033Y-64714500D01*
X53983500Y-64659715D01*
X53983500Y-60940285D01*
X54003502Y-60872164D01*
X54043665Y-60832853D01*
X54109403Y-60792568D01*
X54139416Y-60774176D01*
X54319969Y-60619969D01*
X54474176Y-60439416D01*
X54476755Y-60435208D01*
X54476759Y-60435202D01*
X54595654Y-60241183D01*
X54598240Y-60236963D01*
X54600229Y-60232163D01*
X54687211Y-60022167D01*
X54687212Y-60022165D01*
X54689105Y-60017594D01*
X54744535Y-59786711D01*
X54763165Y-59550000D01*
X54744535Y-59313289D01*
X54735773Y-59276789D01*
X54692614Y-59097023D01*
X54689105Y-59082406D01*
X54680952Y-59062722D01*
X54600135Y-58867611D01*
X54600133Y-58867607D01*
X54598240Y-58863037D01*
X54595654Y-58858817D01*
X54476759Y-58664798D01*
X54476755Y-58664792D01*
X54474176Y-58660584D01*
X54319969Y-58480031D01*
X54139416Y-58325824D01*
X54135208Y-58323245D01*
X54135202Y-58323241D01*
X53941183Y-58204346D01*
X53936963Y-58201760D01*
X53932393Y-58199867D01*
X53932389Y-58199865D01*
X53722167Y-58112789D01*
X53722165Y-58112788D01*
X53717594Y-58110895D01*
X53595909Y-58081681D01*
X53491524Y-58056620D01*
X53491518Y-58056619D01*
X53486711Y-58055465D01*
X53250000Y-58036835D01*
X53013289Y-58055465D01*
X53008482Y-58056619D01*
X53008476Y-58056620D01*
X52948957Y-58070910D01*
X52904091Y-58081681D01*
X52833184Y-58078134D01*
X52785583Y-58048257D01*
X44872015Y-50134690D01*
X47046500Y-50134690D01*
X54953500Y-50134690D01*
X54953500Y-27865309D01*
X47046500Y-27865309D01*
X47046500Y-50134690D01*
X44872015Y-50134690D01*
X39424748Y-44687423D01*
X39412361Y-44673010D01*
X39404441Y-44662248D01*
X39400100Y-44656349D01*
X39361280Y-44623369D01*
X39353764Y-44616439D01*
X39348380Y-44611055D01*
X39345519Y-44608792D01*
X39345514Y-44608787D01*
X39326909Y-44594068D01*
X39323507Y-44591279D01*
X39275328Y-44550347D01*
X39275324Y-44550344D01*
X39269749Y-44545608D01*
X39263228Y-44542279D01*
X39258549Y-44539158D01*
X39253795Y-44536222D01*
X39248057Y-44531682D01*
X39184147Y-44501811D01*
X39180239Y-44499901D01*
X39117418Y-44467824D01*
X39110306Y-44466084D01*
X39105020Y-44464118D01*
X39099735Y-44462360D01*
X39093105Y-44459261D01*
X39024032Y-44444894D01*
X39019748Y-44443924D01*
X38951279Y-44427170D01*
X38945677Y-44426822D01*
X38945674Y-44426822D01*
X38940480Y-44426500D01*
X38940481Y-44426476D01*
X38936066Y-44426212D01*
X38932816Y-44425922D01*
X38925648Y-44424431D01*
X38859851Y-44426211D01*
X38850877Y-44426454D01*
X38847469Y-44426500D01*
X30149373Y-44426500D01*
X30081252Y-44406498D01*
X30046160Y-44372771D01*
X30009357Y-44320211D01*
X30009355Y-44320208D01*
X30006198Y-44315700D01*
X29844300Y-44153802D01*
X29839792Y-44150645D01*
X29839789Y-44150643D01*
X29761611Y-44095902D01*
X29656749Y-44022477D01*
X29651767Y-44020154D01*
X29651762Y-44020151D01*
X29616951Y-44003919D01*
X29563666Y-43957002D01*
X29544205Y-43888725D01*
X29564747Y-43820765D01*
X29616951Y-43775529D01*
X29651511Y-43759414D01*
X29661007Y-43753931D01*
X29839467Y-43628972D01*
X29847875Y-43621916D01*
X30001916Y-43467875D01*
X30008972Y-43459467D01*
X30133931Y-43281007D01*
X30139414Y-43271511D01*
X30231490Y-43074053D01*
X30235236Y-43063761D01*
X30281394Y-42891497D01*
X30281058Y-42877401D01*
X30273116Y-42874000D01*
X28872000Y-42874000D01*
X28803879Y-42853998D01*
X28757386Y-42800342D01*
X28746000Y-42748000D01*
X28746000Y-42492000D01*
X28766002Y-42423879D01*
X28819658Y-42377386D01*
X28872000Y-42366000D01*
X30267967Y-42366000D01*
X30281498Y-42362027D01*
X30282727Y-42353478D01*
X30235236Y-42176239D01*
X30231490Y-42165947D01*
X30139414Y-41968489D01*
X30133931Y-41958993D01*
X30008972Y-41780533D01*
X30001916Y-41772125D01*
X29847875Y-41618084D01*
X29839467Y-41611028D01*
X29661007Y-41486069D01*
X29651511Y-41480586D01*
X29616951Y-41464471D01*
X29563666Y-41417554D01*
X29544205Y-41349277D01*
X29564747Y-41281317D01*
X29616951Y-41236081D01*
X29651762Y-41219849D01*
X29651767Y-41219846D01*
X29656749Y-41217523D01*
X29761611Y-41144098D01*
X29839789Y-41089357D01*
X29839792Y-41089355D01*
X29844300Y-41086198D01*
X30006198Y-40924300D01*
X30009361Y-40919784D01*
X30134366Y-40741257D01*
X30137523Y-40736749D01*
X30139846Y-40731767D01*
X30139849Y-40731762D01*
X30231961Y-40534225D01*
X30231961Y-40534224D01*
X30234284Y-40529243D01*
X30293543Y-40308087D01*
X30313498Y-40080000D01*
X30293543Y-39851913D01*
X30234284Y-39630757D01*
X30231961Y-39625775D01*
X30139849Y-39428238D01*
X30139846Y-39428233D01*
X30137523Y-39423251D01*
X30037287Y-39280099D01*
X30009357Y-39240211D01*
X30009355Y-39240208D01*
X30006198Y-39235700D01*
X29844300Y-39073802D01*
X29839792Y-39070645D01*
X29839789Y-39070643D01*
X29761611Y-39015902D01*
X29656749Y-38942477D01*
X29651767Y-38940154D01*
X29651762Y-38940151D01*
X29617543Y-38924195D01*
X29564258Y-38877278D01*
X29544797Y-38809001D01*
X29565339Y-38741041D01*
X29617543Y-38695805D01*
X29651762Y-38679849D01*
X29651767Y-38679846D01*
X29656749Y-38677523D01*
X29761611Y-38604098D01*
X29839789Y-38549357D01*
X29839792Y-38549355D01*
X29844300Y-38546198D01*
X30006198Y-38384300D01*
X30009361Y-38379784D01*
X30134366Y-38201257D01*
X30137523Y-38196749D01*
X30139846Y-38191767D01*
X30139849Y-38191762D01*
X30231961Y-37994225D01*
X30231961Y-37994224D01*
X30234284Y-37989243D01*
X30293543Y-37768087D01*
X30313498Y-37540000D01*
X30293543Y-37311913D01*
X30234284Y-37090757D01*
X30139966Y-36888489D01*
X30139849Y-36888238D01*
X30139846Y-36888233D01*
X30137523Y-36883251D01*
X30009582Y-36700533D01*
X30009357Y-36700211D01*
X30009355Y-36700208D01*
X30006198Y-36695700D01*
X29844300Y-36533802D01*
X29839789Y-36530643D01*
X29835576Y-36527108D01*
X29836527Y-36525974D01*
X29796529Y-36475929D01*
X29789224Y-36405310D01*
X29821258Y-36341951D01*
X29882462Y-36305970D01*
X29899517Y-36302918D01*
X29910316Y-36301745D01*
X30046705Y-36250615D01*
X30163261Y-36163261D01*
X30250615Y-36046705D01*
X30301745Y-35910316D01*
X30308500Y-35848134D01*
X30308500Y-34151866D01*
X30301745Y-34089684D01*
X30250615Y-33953295D01*
X30163261Y-33836739D01*
X30046705Y-33749385D01*
X29910316Y-33698255D01*
X29848134Y-33691500D01*
X28151866Y-33691500D01*
X28089684Y-33698255D01*
X27953295Y-33749385D01*
X27946110Y-33754770D01*
X27946108Y-33754771D01*
X27935066Y-33763047D01*
X27868560Y-33787896D01*
X27799178Y-33772844D01*
X27748947Y-33722670D01*
X27733500Y-33662222D01*
X27733500Y-32856016D01*
X27753502Y-32787895D01*
X27770405Y-32766921D01*
X37766921Y-22770405D01*
X37829233Y-22736379D01*
X37856016Y-22733500D01*
X51434834Y-22733500D01*
X51453784Y-22734933D01*
X51466993Y-22736943D01*
X51466997Y-22736943D01*
X51474227Y-22738043D01*
X51481519Y-22737450D01*
X51481522Y-22737450D01*
X51524979Y-22733915D01*
X51535194Y-22733500D01*
X51542826Y-22733500D01*
X51546445Y-22733078D01*
X51546464Y-22733077D01*
X51570069Y-22730325D01*
X51574435Y-22729893D01*
X51601754Y-22727671D01*
X51637404Y-22724771D01*
X51637406Y-22724771D01*
X51644704Y-22724177D01*
X51651673Y-22721919D01*
X51657193Y-22720816D01*
X51662618Y-22719534D01*
X51669890Y-22718686D01*
X51736210Y-22694613D01*
X51740356Y-22693190D01*
X51800458Y-22673720D01*
X51800462Y-22673718D01*
X51807420Y-22671464D01*
X51813672Y-22667670D01*
X51818788Y-22665328D01*
X51823789Y-22662824D01*
X51830667Y-22660327D01*
X51836784Y-22656317D01*
X51836789Y-22656314D01*
X51889654Y-22621653D01*
X51893376Y-22619305D01*
X51948848Y-22585644D01*
X51948849Y-22585643D01*
X51953645Y-22582733D01*
X51961755Y-22575571D01*
X51961770Y-22575588D01*
X51965080Y-22572654D01*
X51967587Y-22570558D01*
X51973706Y-22566546D01*
X52025166Y-22512224D01*
X52027544Y-22509782D01*
X52785583Y-21751743D01*
X52847895Y-21717717D01*
X52904090Y-21718319D01*
X52948957Y-21729090D01*
X53008476Y-21743380D01*
X53008482Y-21743381D01*
X53013289Y-21744535D01*
X53250000Y-21763165D01*
X53486711Y-21744535D01*
X53491518Y-21743381D01*
X53491524Y-21743380D01*
X53653161Y-21704574D01*
X53717594Y-21689105D01*
X53722167Y-21687211D01*
X53932389Y-21600135D01*
X53932393Y-21600133D01*
X53936963Y-21598240D01*
X53941183Y-21595654D01*
X54135202Y-21476759D01*
X54135208Y-21476755D01*
X54139416Y-21474176D01*
X54319969Y-21319969D01*
X54331790Y-21306129D01*
X54350850Y-21283812D01*
X54474176Y-21139416D01*
X54476755Y-21135208D01*
X54476759Y-21135202D01*
X54595654Y-20941183D01*
X54598240Y-20936963D01*
X54600229Y-20932163D01*
X54687211Y-20722167D01*
X54687212Y-20722165D01*
X54689105Y-20717594D01*
X54718192Y-20596438D01*
X54743380Y-20491524D01*
X54743381Y-20491518D01*
X54744535Y-20486711D01*
X54763165Y-20250000D01*
X54744535Y-20013289D01*
X54732405Y-19962761D01*
X54693302Y-19799889D01*
X54689105Y-19782406D01*
X54678507Y-19756820D01*
X54600135Y-19567611D01*
X54600133Y-19567607D01*
X54598240Y-19563037D01*
X54595654Y-19558817D01*
X54476759Y-19364798D01*
X54476755Y-19364792D01*
X54474176Y-19360584D01*
X54326677Y-19187885D01*
X54323177Y-19183787D01*
X54319969Y-19180031D01*
X54139416Y-19025824D01*
X54097582Y-19000188D01*
X54043665Y-18967147D01*
X53996033Y-18914500D01*
X53983500Y-18859715D01*
X53983500Y-15140285D01*
X54003502Y-15072164D01*
X54043665Y-15032853D01*
X54109403Y-14992568D01*
X54139416Y-14974176D01*
X54319969Y-14819969D01*
X54474176Y-14639416D01*
X54476755Y-14635208D01*
X54476759Y-14635202D01*
X54595654Y-14441183D01*
X54598240Y-14436963D01*
X54600229Y-14432163D01*
X54687211Y-14222167D01*
X54687212Y-14222165D01*
X54689105Y-14217594D01*
X54744535Y-13986711D01*
X54763165Y-13750000D01*
X54744535Y-13513289D01*
X54689105Y-13282406D01*
X54687211Y-13277833D01*
X54600135Y-13067611D01*
X54600133Y-13067607D01*
X54598240Y-13063037D01*
X54595654Y-13058817D01*
X54476759Y-12864798D01*
X54476755Y-12864792D01*
X54474176Y-12860584D01*
X54319969Y-12680031D01*
X54139416Y-12525824D01*
X54135208Y-12523245D01*
X54135202Y-12523241D01*
X53941183Y-12404346D01*
X53936963Y-12401760D01*
X53932393Y-12399867D01*
X53932389Y-12399865D01*
X53722167Y-12312789D01*
X53722165Y-12312788D01*
X53717594Y-12310895D01*
X53637391Y-12291640D01*
X53491524Y-12256620D01*
X53491518Y-12256619D01*
X53486711Y-12255465D01*
X53250000Y-12236835D01*
X53013289Y-12255465D01*
X53008482Y-12256619D01*
X53008476Y-12256620D01*
X52862609Y-12291640D01*
X52782406Y-12310895D01*
X52777835Y-12312788D01*
X52777833Y-12312789D01*
X52567611Y-12399865D01*
X52567607Y-12399867D01*
X52563037Y-12401760D01*
X52558817Y-12404346D01*
X52364798Y-12523241D01*
X52364792Y-12523245D01*
X52360584Y-12525824D01*
X52180031Y-12680031D01*
X52025824Y-12860584D01*
X52023245Y-12864792D01*
X52023241Y-12864798D01*
X51904346Y-13058817D01*
X51901760Y-13063037D01*
X51899867Y-13067607D01*
X51899865Y-13067611D01*
X51812789Y-13277833D01*
X51810895Y-13282406D01*
X51755465Y-13513289D01*
X51736835Y-13750000D01*
X51755465Y-13986711D01*
X51810895Y-14217594D01*
X51812788Y-14222165D01*
X51812789Y-14222167D01*
X51899772Y-14432163D01*
X51901760Y-14436963D01*
X51904346Y-14441183D01*
X52023241Y-14635202D01*
X52023245Y-14635208D01*
X52025824Y-14639416D01*
X52180031Y-14819969D01*
X52360584Y-14974176D01*
X52390597Y-14992568D01*
X52456335Y-15032853D01*
X52503967Y-15085500D01*
X52516500Y-15140285D01*
X52516500Y-18859715D01*
X52496498Y-18927836D01*
X52456335Y-18967147D01*
X52402418Y-19000188D01*
X52360584Y-19025824D01*
X52180031Y-19180031D01*
X52176823Y-19183787D01*
X52173323Y-19187885D01*
X52025824Y-19360584D01*
X52023245Y-19364792D01*
X52023241Y-19364798D01*
X51904346Y-19558817D01*
X51901760Y-19563037D01*
X51899867Y-19567607D01*
X51899865Y-19567611D01*
X51821493Y-19756820D01*
X51810895Y-19782406D01*
X51806698Y-19799889D01*
X51767596Y-19962761D01*
X51755465Y-20013289D01*
X51736835Y-20250000D01*
X51755465Y-20486711D01*
X51756619Y-20491518D01*
X51756620Y-20491524D01*
X51781681Y-20595908D01*
X51778134Y-20666816D01*
X51748257Y-20714417D01*
X51233079Y-21229595D01*
X51170767Y-21263621D01*
X51143984Y-21266500D01*
X50120701Y-21266500D01*
X50052580Y-21246498D01*
X50006087Y-21192842D01*
X49995983Y-21122568D01*
X50013268Y-21074665D01*
X50095210Y-20940948D01*
X50099687Y-20932163D01*
X50186734Y-20722012D01*
X50189783Y-20712627D01*
X50242885Y-20491446D01*
X50244428Y-20481699D01*
X50262275Y-20254930D01*
X50262275Y-20245070D01*
X50244428Y-20018301D01*
X50242885Y-20008554D01*
X50189783Y-19787373D01*
X50186734Y-19777988D01*
X50099687Y-19567837D01*
X50095205Y-19559042D01*
X49992568Y-19391555D01*
X49982110Y-19382093D01*
X49973334Y-19385876D01*
X48839095Y-20520115D01*
X48776783Y-20554141D01*
X48705968Y-20549076D01*
X48660905Y-20520115D01*
X47529710Y-19388920D01*
X47517330Y-19382160D01*
X47509680Y-19387887D01*
X47404795Y-19559042D01*
X47400313Y-19567837D01*
X47313266Y-19777988D01*
X47310217Y-19787373D01*
X47257115Y-20008554D01*
X47255572Y-20018301D01*
X47237725Y-20245070D01*
X47237725Y-20254930D01*
X47255572Y-20481699D01*
X47257115Y-20491446D01*
X47310217Y-20712627D01*
X47313266Y-20722012D01*
X47400313Y-20932163D01*
X47404790Y-20940948D01*
X47486732Y-21074665D01*
X47505270Y-21143198D01*
X47483814Y-21210875D01*
X47429175Y-21256208D01*
X47379299Y-21266500D01*
X37565166Y-21266500D01*
X37546216Y-21265067D01*
X37533007Y-21263057D01*
X37533003Y-21263057D01*
X37525773Y-21261957D01*
X37518481Y-21262550D01*
X37518477Y-21262550D01*
X37475019Y-21266085D01*
X37464805Y-21266500D01*
X37457174Y-21266500D01*
X37453540Y-21266924D01*
X37453534Y-21266924D01*
X37441039Y-21268381D01*
X37429942Y-21269675D01*
X37425594Y-21270105D01*
X37355295Y-21275823D01*
X37348331Y-21278079D01*
X37342835Y-21279177D01*
X37337382Y-21280466D01*
X37330110Y-21281314D01*
X37263798Y-21305384D01*
X37259667Y-21306802D01*
X37239894Y-21313208D01*
X37199538Y-21326281D01*
X37199534Y-21326283D01*
X37192579Y-21328536D01*
X37186329Y-21332328D01*
X37181212Y-21334671D01*
X37176205Y-21337178D01*
X37169333Y-21339673D01*
X37163220Y-21343681D01*
X37163216Y-21343683D01*
X37110337Y-21378353D01*
X37106616Y-21380700D01*
X37046355Y-21417267D01*
X37038245Y-21424430D01*
X37038229Y-21424412D01*
X37034925Y-21427342D01*
X37032414Y-21429441D01*
X37026294Y-21433454D01*
X36985271Y-21476759D01*
X36974816Y-21487795D01*
X36972438Y-21490237D01*
X34918670Y-23544005D01*
X34856358Y-23578031D01*
X34785543Y-23572966D01*
X34728707Y-23530419D01*
X34703896Y-23463899D01*
X34704231Y-23442068D01*
X34708172Y-23403601D01*
X34708500Y-23400400D01*
X34708500Y-22599600D01*
X34705704Y-22572654D01*
X34698238Y-22500692D01*
X34698237Y-22500688D01*
X34697526Y-22493834D01*
X34641550Y-22326054D01*
X34548478Y-22175652D01*
X34461537Y-22088862D01*
X34427458Y-22026579D01*
X34432461Y-21955759D01*
X34461382Y-21910671D01*
X34543739Y-21828171D01*
X34552751Y-21816760D01*
X34637816Y-21678757D01*
X34643963Y-21665576D01*
X34695138Y-21511290D01*
X34698005Y-21497914D01*
X34707672Y-21403562D01*
X34708000Y-21397146D01*
X34708000Y-21272115D01*
X34703525Y-21256876D01*
X34702135Y-21255671D01*
X34694452Y-21254000D01*
X32310116Y-21254000D01*
X32294877Y-21258475D01*
X32293672Y-21259865D01*
X32292001Y-21267548D01*
X32292001Y-21397095D01*
X32292338Y-21403614D01*
X32302257Y-21499206D01*
X32305149Y-21512600D01*
X32356588Y-21666784D01*
X32362761Y-21679962D01*
X32448063Y-21817807D01*
X32457099Y-21829208D01*
X32538462Y-21910430D01*
X32572541Y-21972713D01*
X32567538Y-22043533D01*
X32538617Y-22088620D01*
X32455870Y-22171512D01*
X32455866Y-22171517D01*
X32450695Y-22176697D01*
X32446855Y-22182927D01*
X32446854Y-22182928D01*
X32367769Y-22311228D01*
X32357885Y-22327262D01*
X32302203Y-22495139D01*
X32301503Y-22501975D01*
X32301502Y-22501978D01*
X32300577Y-22511009D01*
X32291500Y-22599600D01*
X32291500Y-23118983D01*
X32271498Y-23187104D01*
X32254596Y-23208078D01*
X31693080Y-23769595D01*
X31630767Y-23803620D01*
X31603984Y-23806500D01*
X31364500Y-23806500D01*
X31296379Y-23786498D01*
X31249886Y-23732842D01*
X31238500Y-23680500D01*
X31238500Y-23539366D01*
X31231745Y-23477184D01*
X31180615Y-23340795D01*
X31093261Y-23224239D01*
X30976705Y-23136885D01*
X30968300Y-23133734D01*
X30968298Y-23133733D01*
X30967067Y-23133272D01*
X30966024Y-23132488D01*
X30960425Y-23129423D01*
X30960867Y-23128615D01*
X30910302Y-23090632D01*
X30885600Y-23024071D01*
X30900806Y-22954722D01*
X30913929Y-22935313D01*
X30969526Y-22867628D01*
X30969528Y-22867625D01*
X30972734Y-22863722D01*
X31050373Y-22730325D01*
X31092299Y-22658290D01*
X31092300Y-22658288D01*
X31094841Y-22653922D01*
X31108129Y-22619305D01*
X31180018Y-22432028D01*
X31180020Y-22432021D01*
X31181833Y-22427298D01*
X31188250Y-22396582D01*
X31192813Y-22380292D01*
X31194870Y-22374485D01*
X31206140Y-22311220D01*
X31206848Y-22307559D01*
X31230439Y-22194634D01*
X31231474Y-22189680D01*
X31232360Y-22170160D01*
X31234182Y-22153791D01*
X31237001Y-22137963D01*
X31238057Y-22051522D01*
X31238146Y-22044274D01*
X31238267Y-22040099D01*
X31242257Y-21952238D01*
X31242257Y-21952231D01*
X31242486Y-21947183D01*
X31240557Y-21930509D01*
X31239731Y-21914489D01*
X31239873Y-21902906D01*
X31239873Y-21902904D01*
X31239936Y-21897737D01*
X31227282Y-21815038D01*
X31226669Y-21810479D01*
X31221194Y-21763165D01*
X31214585Y-21706044D01*
X31208037Y-21682905D01*
X31204729Y-21667663D01*
X31203596Y-21660256D01*
X31189719Y-21617798D01*
X31188253Y-21612990D01*
X31184616Y-21600135D01*
X31148490Y-21472468D01*
X31146356Y-21467892D01*
X31146354Y-21467886D01*
X31048038Y-21257046D01*
X31048036Y-21257042D01*
X31045901Y-21252464D01*
X31041847Y-21246498D01*
X30965294Y-21133855D01*
X30909456Y-21051693D01*
X30742668Y-20875319D01*
X30738368Y-20872031D01*
X30671492Y-20820901D01*
X30629524Y-20763637D01*
X30627332Y-20727885D01*
X32292000Y-20727885D01*
X32296475Y-20743124D01*
X32297865Y-20744329D01*
X32305548Y-20746000D01*
X33227885Y-20746000D01*
X33243124Y-20741525D01*
X33244329Y-20740135D01*
X33246000Y-20732452D01*
X33246000Y-20727885D01*
X33754000Y-20727885D01*
X33758475Y-20743124D01*
X33759865Y-20744329D01*
X33767548Y-20746000D01*
X34689884Y-20746000D01*
X34705123Y-20741525D01*
X34706328Y-20740135D01*
X34707999Y-20732452D01*
X34707999Y-20602905D01*
X34707662Y-20596386D01*
X34697743Y-20500794D01*
X34694851Y-20487400D01*
X34643412Y-20333216D01*
X34637239Y-20320038D01*
X34551937Y-20182193D01*
X34542901Y-20170792D01*
X34428171Y-20056261D01*
X34416760Y-20047249D01*
X34278757Y-19962184D01*
X34265576Y-19956037D01*
X34111290Y-19904862D01*
X34097914Y-19901995D01*
X34003562Y-19892328D01*
X33997145Y-19892000D01*
X33772115Y-19892000D01*
X33756876Y-19896475D01*
X33755671Y-19897865D01*
X33754000Y-19905548D01*
X33754000Y-20727885D01*
X33246000Y-20727885D01*
X33246000Y-19910116D01*
X33241525Y-19894877D01*
X33240135Y-19893672D01*
X33232452Y-19892001D01*
X33002905Y-19892001D01*
X32996386Y-19892338D01*
X32900794Y-19902257D01*
X32887400Y-19905149D01*
X32733216Y-19956588D01*
X32720038Y-19962761D01*
X32582193Y-20048063D01*
X32570792Y-20057099D01*
X32456261Y-20171829D01*
X32447249Y-20183240D01*
X32362184Y-20321243D01*
X32356037Y-20334424D01*
X32304862Y-20488710D01*
X32301995Y-20502086D01*
X32292328Y-20596438D01*
X32292000Y-20602855D01*
X32292000Y-20727885D01*
X30627332Y-20727885D01*
X30625179Y-20692773D01*
X30659835Y-20630810D01*
X30671140Y-20620979D01*
X30675491Y-20617628D01*
X30845480Y-20462950D01*
X30852506Y-20455417D01*
X30994945Y-20275056D01*
X31000650Y-20266469D01*
X31111714Y-20065278D01*
X31115944Y-20055866D01*
X31192659Y-19839232D01*
X31195293Y-19829261D01*
X31212647Y-19731837D01*
X31211187Y-19718540D01*
X31196630Y-19714000D01*
X28261904Y-19714000D01*
X28248560Y-19717918D01*
X28246573Y-19732194D01*
X28256892Y-19799628D01*
X28255184Y-19799889D01*
X28251902Y-19863184D01*
X28210478Y-19920843D01*
X28144457Y-19946954D01*
X28074801Y-19933225D01*
X28043911Y-19910570D01*
X27321504Y-19188163D01*
X28247353Y-19188163D01*
X28248813Y-19201460D01*
X28263370Y-19206000D01*
X29457885Y-19206000D01*
X29473124Y-19201525D01*
X29474329Y-19200135D01*
X29476000Y-19192452D01*
X29476000Y-19187885D01*
X29984000Y-19187885D01*
X29988475Y-19203124D01*
X29989865Y-19204329D01*
X29997548Y-19206000D01*
X31198096Y-19206000D01*
X31211440Y-19202082D01*
X31213427Y-19187806D01*
X31203890Y-19125485D01*
X31201501Y-19115457D01*
X31169611Y-19017890D01*
X47882093Y-19017890D01*
X47885876Y-19026666D01*
X48737188Y-19877978D01*
X48751132Y-19885592D01*
X48752965Y-19885461D01*
X48759580Y-19881210D01*
X49611080Y-19029710D01*
X49617840Y-19017330D01*
X49612113Y-19009680D01*
X49440958Y-18904795D01*
X49432163Y-18900313D01*
X49222012Y-18813266D01*
X49212627Y-18810217D01*
X48991446Y-18757115D01*
X48981699Y-18755572D01*
X48754930Y-18737725D01*
X48745070Y-18737725D01*
X48518301Y-18755572D01*
X48508554Y-18757115D01*
X48287373Y-18810217D01*
X48277988Y-18813266D01*
X48067837Y-18900313D01*
X48059042Y-18904795D01*
X47891555Y-19007432D01*
X47882093Y-19017890D01*
X31169611Y-19017890D01*
X31130102Y-18897012D01*
X31126105Y-18887503D01*
X31019989Y-18683656D01*
X31014495Y-18674931D01*
X30876507Y-18491148D01*
X30869664Y-18483441D01*
X30703509Y-18324661D01*
X30695499Y-18318174D01*
X30505653Y-18188670D01*
X30496679Y-18183571D01*
X30288231Y-18086813D01*
X30278544Y-18083250D01*
X30057092Y-18021835D01*
X30046970Y-18019904D01*
X30002013Y-18015099D01*
X29987392Y-18017747D01*
X29984000Y-18030124D01*
X29984000Y-19187885D01*
X29476000Y-19187885D01*
X29476000Y-18029588D01*
X29471675Y-18014859D01*
X29459889Y-18012798D01*
X29448296Y-18013751D01*
X29438134Y-18015433D01*
X29215229Y-18071422D01*
X29205481Y-18074741D01*
X28994711Y-18166385D01*
X28985636Y-18171251D01*
X28792673Y-18296085D01*
X28784502Y-18302378D01*
X28614520Y-18457050D01*
X28607494Y-18464583D01*
X28465055Y-18644944D01*
X28459350Y-18653531D01*
X28348286Y-18854722D01*
X28344056Y-18864134D01*
X28267341Y-19080768D01*
X28264707Y-19090739D01*
X28247353Y-19188163D01*
X27321504Y-19188163D01*
X23116011Y-14982670D01*
X47882160Y-14982670D01*
X47887887Y-14990320D01*
X48059042Y-15095205D01*
X48067837Y-15099687D01*
X48277988Y-15186734D01*
X48287373Y-15189783D01*
X48508554Y-15242885D01*
X48518301Y-15244428D01*
X48745070Y-15262275D01*
X48754930Y-15262275D01*
X48981699Y-15244428D01*
X48991446Y-15242885D01*
X49212627Y-15189783D01*
X49222012Y-15186734D01*
X49432163Y-15099687D01*
X49440958Y-15095205D01*
X49608445Y-14992568D01*
X49617907Y-14982110D01*
X49614124Y-14973334D01*
X48762812Y-14122022D01*
X48748868Y-14114408D01*
X48747035Y-14114539D01*
X48740420Y-14118790D01*
X47888920Y-14970290D01*
X47882160Y-14982670D01*
X23116011Y-14982670D01*
X21888271Y-13754930D01*
X47237725Y-13754930D01*
X47255572Y-13981699D01*
X47257115Y-13991446D01*
X47310217Y-14212627D01*
X47313266Y-14222012D01*
X47400313Y-14432163D01*
X47404795Y-14440958D01*
X47507432Y-14608445D01*
X47517890Y-14617907D01*
X47526666Y-14614124D01*
X48377978Y-13762812D01*
X48384356Y-13751132D01*
X49114408Y-13751132D01*
X49114539Y-13752965D01*
X49118790Y-13759580D01*
X49970290Y-14611080D01*
X49982670Y-14617840D01*
X49990320Y-14612113D01*
X50095205Y-14440958D01*
X50099687Y-14432163D01*
X50186734Y-14222012D01*
X50189783Y-14212627D01*
X50242885Y-13991446D01*
X50244428Y-13981699D01*
X50262275Y-13754930D01*
X50262275Y-13745070D01*
X50244428Y-13518301D01*
X50242885Y-13508554D01*
X50189783Y-13287373D01*
X50186734Y-13277988D01*
X50099687Y-13067837D01*
X50095205Y-13059042D01*
X49992568Y-12891555D01*
X49982110Y-12882093D01*
X49973334Y-12885876D01*
X49122022Y-13737188D01*
X49114408Y-13751132D01*
X48384356Y-13751132D01*
X48385592Y-13748868D01*
X48385461Y-13747035D01*
X48381210Y-13740420D01*
X47529710Y-12888920D01*
X47517330Y-12882160D01*
X47509680Y-12887887D01*
X47404795Y-13059042D01*
X47400313Y-13067837D01*
X47313266Y-13277988D01*
X47310217Y-13287373D01*
X47257115Y-13508554D01*
X47255572Y-13518301D01*
X47237725Y-13745070D01*
X47237725Y-13754930D01*
X21888271Y-13754930D01*
X20651231Y-12517890D01*
X47882093Y-12517890D01*
X47885876Y-12526666D01*
X48737188Y-13377978D01*
X48751132Y-13385592D01*
X48752965Y-13385461D01*
X48759580Y-13381210D01*
X49611080Y-12529710D01*
X49617840Y-12517330D01*
X49612113Y-12509680D01*
X49440958Y-12404795D01*
X49432163Y-12400313D01*
X49222012Y-12313266D01*
X49212627Y-12310217D01*
X48991446Y-12257115D01*
X48981699Y-12255572D01*
X48754930Y-12237725D01*
X48745070Y-12237725D01*
X48518301Y-12255572D01*
X48508554Y-12257115D01*
X48287373Y-12310217D01*
X48277988Y-12313266D01*
X48067837Y-12400313D01*
X48059042Y-12404795D01*
X47891555Y-12507432D01*
X47882093Y-12517890D01*
X20651231Y-12517890D01*
X15545405Y-7412064D01*
X15511379Y-7349752D01*
X15508500Y-7322969D01*
X15508500Y-6534994D01*
X15528529Y-6466831D01*
X15591269Y-6369291D01*
X15593797Y-6365361D01*
X15704199Y-6120278D01*
X15741209Y-5989051D01*
X15775893Y-5866072D01*
X15775894Y-5866069D01*
X15777163Y-5861568D01*
X15795043Y-5721019D01*
X15810688Y-5598045D01*
X15810688Y-5598041D01*
X15811086Y-5594915D01*
X15813571Y-5500000D01*
X15793650Y-5231937D01*
X15734327Y-4969763D01*
X15636902Y-4719238D01*
X15503518Y-4485864D01*
X15337105Y-4274769D01*
X15141317Y-4090591D01*
X14943407Y-3953295D01*
X14924299Y-3940039D01*
X14924296Y-3940037D01*
X14920457Y-3937374D01*
X14903231Y-3928879D01*
X14683564Y-3820551D01*
X14683561Y-3820550D01*
X14679376Y-3818486D01*
X14631745Y-3803239D01*
X14479490Y-3754502D01*
X14420710Y-3714684D01*
X14392788Y-3649409D01*
X14404589Y-3579400D01*
X14452367Y-3526885D01*
X14517903Y-3508500D01*
X16822969Y-3508500D01*
X16891090Y-3528502D01*
X16912064Y-3545405D01*
X19916325Y-6549666D01*
X19918779Y-6552188D01*
X19987332Y-6624681D01*
X20049769Y-6672418D01*
X20054868Y-6676531D01*
X20114720Y-6727470D01*
X20119046Y-6730090D01*
X20119053Y-6730095D01*
X20130774Y-6737194D01*
X20178679Y-6789592D01*
X20190664Y-6841355D01*
X20191316Y-6841320D01*
X20191500Y-6844717D01*
X20191500Y-6848134D01*
X20198255Y-6910316D01*
X20249385Y-7046705D01*
X20336739Y-7163261D01*
X20453295Y-7250615D01*
X20589684Y-7301745D01*
X20651866Y-7308500D01*
X23348134Y-7308500D01*
X23410316Y-7301745D01*
X23546705Y-7250615D01*
X23663261Y-7163261D01*
X23750615Y-7046705D01*
X23801745Y-6910316D01*
X23808500Y-6848134D01*
X23808500Y-4151866D01*
X23801745Y-4089684D01*
X23750615Y-3953295D01*
X23663261Y-3836739D01*
X23546705Y-3749385D01*
X23410316Y-3698255D01*
X23348134Y-3691500D01*
X21377031Y-3691500D01*
X21308910Y-3671498D01*
X21287936Y-3654595D01*
X18583675Y-950334D01*
X18581221Y-947812D01*
X18516138Y-878988D01*
X18516135Y-878986D01*
X18512668Y-875319D01*
X18450239Y-827589D01*
X18445108Y-823448D01*
X18389133Y-775809D01*
X18389132Y-775808D01*
X18385280Y-772530D01*
X18380955Y-769911D01*
X18380950Y-769907D01*
X18357176Y-755509D01*
X18345918Y-747829D01*
X18343920Y-746301D01*
X18328610Y-734596D01*
X18286642Y-677331D01*
X18282297Y-606468D01*
X18316953Y-544504D01*
X18379608Y-511114D01*
X18405139Y-508500D01*
X32360935Y-508500D01*
X32429056Y-528502D01*
X32475549Y-582158D01*
X32485653Y-652432D01*
X32456159Y-717012D01*
X32434998Y-736435D01*
X32405808Y-757642D01*
X32402644Y-760698D01*
X32402641Y-760700D01*
X32351695Y-809898D01*
X32203748Y-952769D01*
X32030812Y-1174118D01*
X32028616Y-1177922D01*
X32028611Y-1177929D01*
X31914794Y-1375067D01*
X31890364Y-1417381D01*
X31785138Y-1677824D01*
X31784073Y-1682097D01*
X31784072Y-1682099D01*
X31750379Y-1817236D01*
X31717183Y-1950376D01*
X31687822Y-2229733D01*
X31697625Y-2510458D01*
X31698387Y-2514781D01*
X31698388Y-2514788D01*
X31722164Y-2649624D01*
X31746402Y-2787087D01*
X31833203Y-3054235D01*
X31956340Y-3306702D01*
X31958795Y-3310341D01*
X31958798Y-3310347D01*
X32031890Y-3418710D01*
X32113415Y-3539576D01*
X32116360Y-3542847D01*
X32116361Y-3542848D01*
X32118663Y-3545405D01*
X32301371Y-3748322D01*
X32304733Y-3751143D01*
X32304734Y-3751144D01*
X32309885Y-3755466D01*
X32516550Y-3928879D01*
X32754764Y-4077731D01*
X33011375Y-4191982D01*
X33015603Y-4193194D01*
X33015602Y-4193194D01*
X33179491Y-4240188D01*
X33281390Y-4269407D01*
X33285740Y-4270018D01*
X33285743Y-4270019D01*
X33388690Y-4284487D01*
X33559552Y-4308500D01*
X33770146Y-4308500D01*
X33772332Y-4308347D01*
X33772336Y-4308347D01*
X33975827Y-4294118D01*
X33975832Y-4294117D01*
X33980212Y-4293811D01*
X34254970Y-4235409D01*
X34259099Y-4233906D01*
X34259103Y-4233905D01*
X34514781Y-4140846D01*
X34514785Y-4140844D01*
X34518926Y-4139337D01*
X34766942Y-4007464D01*
X34829927Y-3961703D01*
X34990629Y-3844947D01*
X34990632Y-3844944D01*
X34994192Y-3842358D01*
X35196252Y-3647231D01*
X35369188Y-3425882D01*
X35371384Y-3422078D01*
X35371389Y-3422071D01*
X35507435Y-3186431D01*
X35509636Y-3182619D01*
X35614862Y-2922176D01*
X35648544Y-2787087D01*
X35681753Y-2653893D01*
X35681754Y-2653888D01*
X35682817Y-2649624D01*
X35712178Y-2370267D01*
X35702375Y-2089542D01*
X35678608Y-1954749D01*
X35654360Y-1817236D01*
X35653598Y-1812913D01*
X35566797Y-1545765D01*
X35443660Y-1293298D01*
X35441205Y-1289659D01*
X35441202Y-1289653D01*
X35304700Y-1087281D01*
X35286585Y-1060424D01*
X35098629Y-851678D01*
X35069925Y-827592D01*
X34973046Y-746301D01*
X34954837Y-731022D01*
X34915510Y-671912D01*
X34914384Y-600924D01*
X34951815Y-540597D01*
X35015920Y-510083D01*
X35035828Y-508500D01*
X55365500Y-508500D01*
X55433621Y-528502D01*
X55480114Y-582158D01*
X55491500Y-634500D01*
X55491500Y-79365500D01*
X55471498Y-79433621D01*
X55417842Y-79480114D01*
X55365500Y-79491500D01*
X35039065Y-79491500D01*
X34970944Y-79471498D01*
X34924451Y-79417842D01*
X34914347Y-79347568D01*
X34943841Y-79282988D01*
X34965002Y-79263565D01*
X34994192Y-79242358D01*
X35196252Y-79047231D01*
X35369188Y-78825882D01*
X35371384Y-78822078D01*
X35371389Y-78822071D01*
X35507435Y-78586431D01*
X35509636Y-78582619D01*
X35614862Y-78322176D01*
X35648544Y-78187087D01*
X35681753Y-78053893D01*
X35681754Y-78053888D01*
X35682817Y-78049624D01*
X35712178Y-77770267D01*
X35702375Y-77489542D01*
X35678608Y-77354749D01*
X35654360Y-77217236D01*
X35653598Y-77212913D01*
X35566797Y-76945765D01*
X35443660Y-76693298D01*
X35441205Y-76689659D01*
X35441202Y-76689653D01*
X35304700Y-76487281D01*
X35286585Y-76460424D01*
X35098629Y-76251678D01*
X34883450Y-76071121D01*
X34645236Y-75922269D01*
X34388625Y-75808018D01*
X34118610Y-75730593D01*
X34114260Y-75729982D01*
X34114257Y-75729981D01*
X34011310Y-75715513D01*
X33840448Y-75691500D01*
X33629854Y-75691500D01*
X33627668Y-75691653D01*
X33627664Y-75691653D01*
X33424173Y-75705882D01*
X33424168Y-75705883D01*
X33419788Y-75706189D01*
X33145030Y-75764591D01*
X33140901Y-75766094D01*
X33140897Y-75766095D01*
X32885219Y-75859154D01*
X32885215Y-75859156D01*
X32881074Y-75860663D01*
X32633058Y-75992536D01*
X32629499Y-75995122D01*
X32629497Y-75995123D01*
X32524895Y-76071121D01*
X32405808Y-76157642D01*
X32203748Y-76352769D01*
X32030812Y-76574118D01*
X32028616Y-76577922D01*
X32028611Y-76577929D01*
X31914794Y-76775067D01*
X31890364Y-76817381D01*
X31785138Y-77077824D01*
X31784073Y-77082097D01*
X31784072Y-77082099D01*
X31750379Y-77217236D01*
X31717183Y-77350376D01*
X31687822Y-77629733D01*
X31697625Y-77910458D01*
X31698387Y-77914781D01*
X31698388Y-77914788D01*
X31722164Y-78049624D01*
X31746402Y-78187087D01*
X31833203Y-78454235D01*
X31956340Y-78706702D01*
X31958795Y-78710341D01*
X31958798Y-78710347D01*
X32031890Y-78818710D01*
X32113415Y-78939576D01*
X32116360Y-78942847D01*
X32116361Y-78942848D01*
X32128137Y-78955926D01*
X32301371Y-79148322D01*
X32304733Y-79151143D01*
X32304734Y-79151144D01*
X32445163Y-79268978D01*
X32484490Y-79328088D01*
X32485616Y-79399076D01*
X32448185Y-79459403D01*
X32384080Y-79489917D01*
X32364172Y-79491500D01*
X3639065Y-79491500D01*
X3570944Y-79471498D01*
X3524451Y-79417842D01*
X3514347Y-79347568D01*
X3543841Y-79282988D01*
X3565002Y-79263565D01*
X3594192Y-79242358D01*
X3796252Y-79047231D01*
X3969188Y-78825882D01*
X3971384Y-78822078D01*
X3971389Y-78822071D01*
X4107435Y-78586431D01*
X4109636Y-78582619D01*
X4214862Y-78322176D01*
X4248544Y-78187087D01*
X4281753Y-78053893D01*
X4281754Y-78053888D01*
X4282817Y-78049624D01*
X4312178Y-77770267D01*
X4302375Y-77489542D01*
X4278608Y-77354749D01*
X4254360Y-77217236D01*
X4253598Y-77212913D01*
X4166797Y-76945765D01*
X4043660Y-76693298D01*
X4041205Y-76689659D01*
X4041202Y-76689653D01*
X3904700Y-76487281D01*
X3886585Y-76460424D01*
X3698629Y-76251678D01*
X3483450Y-76071121D01*
X3245236Y-75922269D01*
X2988625Y-75808018D01*
X2718610Y-75730593D01*
X2714260Y-75729982D01*
X2714257Y-75729981D01*
X2611310Y-75715513D01*
X2440448Y-75691500D01*
X2229854Y-75691500D01*
X2227668Y-75691653D01*
X2227664Y-75691653D01*
X2024173Y-75705882D01*
X2024168Y-75705883D01*
X2019788Y-75706189D01*
X1745030Y-75764591D01*
X1740901Y-75766094D01*
X1740897Y-75766095D01*
X1485219Y-75859154D01*
X1485215Y-75859156D01*
X1481074Y-75860663D01*
X1233058Y-75992536D01*
X1229499Y-75995122D01*
X1229497Y-75995123D01*
X1124895Y-76071121D01*
X1005808Y-76157642D01*
X803748Y-76352769D01*
X775459Y-76388978D01*
X733790Y-76442312D01*
X676089Y-76483678D01*
X605184Y-76487281D01*
X543586Y-76451978D01*
X510853Y-76388978D01*
X508500Y-76364739D01*
X508500Y-52394669D01*
X1142001Y-52394669D01*
X1142371Y-52401490D01*
X1147895Y-52452352D01*
X1151521Y-52467604D01*
X1196676Y-52588054D01*
X1205214Y-52603649D01*
X1281715Y-52705724D01*
X1294276Y-52718285D01*
X1396351Y-52794786D01*
X1411946Y-52803324D01*
X1532394Y-52848478D01*
X1547649Y-52852105D01*
X1598514Y-52857631D01*
X1605328Y-52858000D01*
X2227885Y-52858000D01*
X2243124Y-52853525D01*
X2244329Y-52852135D01*
X2246000Y-52844452D01*
X2246000Y-52839884D01*
X2754000Y-52839884D01*
X2758475Y-52855123D01*
X2759865Y-52856328D01*
X2767548Y-52857999D01*
X3394669Y-52857999D01*
X3401490Y-52857629D01*
X3452352Y-52852105D01*
X3467604Y-52848479D01*
X3588054Y-52803324D01*
X3603649Y-52794786D01*
X3705724Y-52718285D01*
X3718285Y-52705724D01*
X3794786Y-52603649D01*
X3803324Y-52588054D01*
X3844225Y-52478952D01*
X3886867Y-52422188D01*
X3953428Y-52397488D01*
X4022777Y-52412696D01*
X4057444Y-52440684D01*
X4082865Y-52470031D01*
X4082869Y-52470035D01*
X4086250Y-52473938D01*
X4258126Y-52616632D01*
X4451000Y-52729338D01*
X4659692Y-52809030D01*
X4664760Y-52810061D01*
X4664763Y-52810062D01*
X4750096Y-52827423D01*
X4878597Y-52853567D01*
X4883772Y-52853757D01*
X4883774Y-52853757D01*
X5096673Y-52861564D01*
X5096677Y-52861564D01*
X5101837Y-52861753D01*
X5106957Y-52861097D01*
X5106959Y-52861097D01*
X5318288Y-52834025D01*
X5318289Y-52834025D01*
X5323416Y-52833368D01*
X5343232Y-52827423D01*
X5532429Y-52770661D01*
X5532434Y-52770659D01*
X5537384Y-52769174D01*
X5737994Y-52670896D01*
X5919860Y-52541173D01*
X6078096Y-52383489D01*
X6119568Y-52325775D01*
X6208453Y-52202077D01*
X6209776Y-52203028D01*
X6256645Y-52159857D01*
X6326580Y-52147625D01*
X6392026Y-52175144D01*
X6419875Y-52206994D01*
X6479987Y-52305088D01*
X6626250Y-52473938D01*
X6798126Y-52616632D01*
X6991000Y-52729338D01*
X7199692Y-52809030D01*
X7204754Y-52810060D01*
X7204758Y-52810061D01*
X7252939Y-52819863D01*
X7316914Y-52854239D01*
X8435252Y-53972577D01*
X8447639Y-53986989D01*
X8459900Y-54003651D01*
X8465483Y-54008394D01*
X8498720Y-54036631D01*
X8506236Y-54043561D01*
X8511620Y-54048945D01*
X8514496Y-54051220D01*
X8514500Y-54051224D01*
X8533106Y-54065945D01*
X8536486Y-54068716D01*
X8590251Y-54114392D01*
X8596772Y-54117722D01*
X8601427Y-54120826D01*
X8606195Y-54123771D01*
X8611942Y-54128318D01*
X8671844Y-54156314D01*
X8675817Y-54158171D01*
X8679763Y-54160099D01*
X8742582Y-54192176D01*
X8749693Y-54193916D01*
X8754945Y-54195869D01*
X8760263Y-54197638D01*
X8766895Y-54200738D01*
X8835947Y-54215101D01*
X8840231Y-54216071D01*
X8908721Y-54232830D01*
X8914323Y-54233178D01*
X8914326Y-54233178D01*
X8919520Y-54233500D01*
X8919519Y-54233524D01*
X8923934Y-54233788D01*
X8927184Y-54234078D01*
X8934352Y-54235569D01*
X9009123Y-54233546D01*
X9012531Y-54233500D01*
X10934834Y-54233500D01*
X10953784Y-54234933D01*
X10966993Y-54236943D01*
X10966997Y-54236943D01*
X10974227Y-54238043D01*
X10981519Y-54237450D01*
X10981522Y-54237450D01*
X11024979Y-54233915D01*
X11035194Y-54233500D01*
X11042826Y-54233500D01*
X11046445Y-54233078D01*
X11046464Y-54233077D01*
X11070069Y-54230325D01*
X11074435Y-54229893D01*
X11101754Y-54227671D01*
X11137404Y-54224771D01*
X11137406Y-54224771D01*
X11144704Y-54224177D01*
X11151673Y-54221919D01*
X11157193Y-54220816D01*
X11162618Y-54219534D01*
X11169890Y-54218686D01*
X11236210Y-54194613D01*
X11240356Y-54193190D01*
X11300458Y-54173720D01*
X11300462Y-54173718D01*
X11307420Y-54171464D01*
X11313672Y-54167670D01*
X11318788Y-54165328D01*
X11323789Y-54162824D01*
X11330667Y-54160327D01*
X11336784Y-54156317D01*
X11336789Y-54156314D01*
X11389654Y-54121653D01*
X11393376Y-54119305D01*
X11448848Y-54085644D01*
X11448849Y-54085643D01*
X11453645Y-54082733D01*
X11461755Y-54075571D01*
X11461770Y-54075588D01*
X11465080Y-54072654D01*
X11467587Y-54070558D01*
X11473706Y-54066546D01*
X11525166Y-54012224D01*
X11527544Y-54009782D01*
X11986921Y-53550405D01*
X12049233Y-53516379D01*
X12076016Y-53513500D01*
X12610627Y-53513500D01*
X12678748Y-53533502D01*
X12713840Y-53567229D01*
X12753802Y-53624300D01*
X12915700Y-53786198D01*
X12920208Y-53789355D01*
X12920211Y-53789357D01*
X12998389Y-53844098D01*
X13103251Y-53917523D01*
X13108233Y-53919846D01*
X13108238Y-53919849D01*
X13142457Y-53935805D01*
X13195742Y-53982722D01*
X13215203Y-54050999D01*
X13194661Y-54118959D01*
X13142457Y-54164195D01*
X13108238Y-54180151D01*
X13108233Y-54180154D01*
X13103251Y-54182477D01*
X13034917Y-54230325D01*
X12920211Y-54310643D01*
X12920208Y-54310645D01*
X12915700Y-54313802D01*
X12753802Y-54475700D01*
X12622477Y-54663251D01*
X12620154Y-54668233D01*
X12620151Y-54668238D01*
X12528039Y-54865775D01*
X12525716Y-54870757D01*
X12466457Y-55091913D01*
X12446502Y-55320000D01*
X12466457Y-55548087D01*
X12525716Y-55769243D01*
X12528039Y-55774224D01*
X12528039Y-55774225D01*
X12620151Y-55971762D01*
X12620154Y-55971767D01*
X12622477Y-55976749D01*
X12753802Y-56164300D01*
X12915700Y-56326198D01*
X12920208Y-56329355D01*
X12920211Y-56329357D01*
X12998389Y-56384098D01*
X13103251Y-56457523D01*
X13108233Y-56459846D01*
X13108238Y-56459849D01*
X13142457Y-56475805D01*
X13195742Y-56522722D01*
X13215203Y-56590999D01*
X13194661Y-56658959D01*
X13142457Y-56704195D01*
X13108238Y-56720151D01*
X13108233Y-56720154D01*
X13103251Y-56722477D01*
X12998389Y-56795902D01*
X12920211Y-56850643D01*
X12920208Y-56850645D01*
X12915700Y-56853802D01*
X12753802Y-57015700D01*
X12622477Y-57203251D01*
X12620154Y-57208233D01*
X12620151Y-57208238D01*
X12528039Y-57405775D01*
X12525716Y-57410757D01*
X12466457Y-57631913D01*
X12446502Y-57860000D01*
X12466457Y-58088087D01*
X12525716Y-58309243D01*
X12528039Y-58314224D01*
X12528039Y-58314225D01*
X12620151Y-58511762D01*
X12620154Y-58511767D01*
X12622477Y-58516749D01*
X12625634Y-58521257D01*
X12743033Y-58688920D01*
X12753802Y-58704300D01*
X12915700Y-58866198D01*
X12920208Y-58869355D01*
X12920211Y-58869357D01*
X12973961Y-58906993D01*
X13103251Y-58997523D01*
X13108233Y-58999846D01*
X13108238Y-58999849D01*
X13142457Y-59015805D01*
X13195742Y-59062722D01*
X13215203Y-59130999D01*
X13194661Y-59198959D01*
X13142457Y-59244195D01*
X13108238Y-59260151D01*
X13108233Y-59260154D01*
X13103251Y-59262477D01*
X13030684Y-59313289D01*
X12920211Y-59390643D01*
X12920208Y-59390645D01*
X12915700Y-59393802D01*
X12753802Y-59555700D01*
X12622477Y-59743251D01*
X12620154Y-59748233D01*
X12620151Y-59748238D01*
X12540622Y-59918790D01*
X12525716Y-59950757D01*
X12524294Y-59956065D01*
X12524293Y-59956067D01*
X12467881Y-60166598D01*
X12466457Y-60171913D01*
X12446502Y-60400000D01*
X12466457Y-60628087D01*
X12467881Y-60633400D01*
X12467881Y-60633402D01*
X12509928Y-60790320D01*
X12525716Y-60849243D01*
X12528039Y-60854224D01*
X12528039Y-60854225D01*
X12620151Y-61051762D01*
X12620154Y-61051767D01*
X12622477Y-61056749D01*
X12753802Y-61244300D01*
X12915700Y-61406198D01*
X12920208Y-61409355D01*
X12920211Y-61409357D01*
X12998389Y-61464098D01*
X13103251Y-61537523D01*
X13108233Y-61539846D01*
X13108238Y-61539849D01*
X13142457Y-61555805D01*
X13195742Y-61602722D01*
X13215203Y-61670999D01*
X13194661Y-61738959D01*
X13142457Y-61784195D01*
X13108238Y-61800151D01*
X13108233Y-61800154D01*
X13103251Y-61802477D01*
X12998389Y-61875902D01*
X12920211Y-61930643D01*
X12920208Y-61930645D01*
X12915700Y-61933802D01*
X12753802Y-62095700D01*
X12622477Y-62283251D01*
X12620154Y-62288233D01*
X12620151Y-62288238D01*
X12528039Y-62485775D01*
X12525716Y-62490757D01*
X12466457Y-62711913D01*
X12446502Y-62940000D01*
X12466457Y-63168087D01*
X12525716Y-63389243D01*
X12528039Y-63394224D01*
X12528039Y-63394225D01*
X12620151Y-63591762D01*
X12620154Y-63591767D01*
X12622477Y-63596749D01*
X12753802Y-63784300D01*
X12915700Y-63946198D01*
X12920208Y-63949355D01*
X12920211Y-63949357D01*
X12998389Y-64004098D01*
X13103251Y-64077523D01*
X13108233Y-64079846D01*
X13108238Y-64079849D01*
X13142457Y-64095805D01*
X13195742Y-64142722D01*
X13215203Y-64210999D01*
X13194661Y-64278959D01*
X13142457Y-64324195D01*
X13108238Y-64340151D01*
X13108233Y-64340154D01*
X13103251Y-64342477D01*
X12998389Y-64415902D01*
X12920211Y-64470643D01*
X12920208Y-64470645D01*
X12915700Y-64473802D01*
X12753802Y-64635700D01*
X12622477Y-64823251D01*
X12620154Y-64828233D01*
X12620151Y-64828238D01*
X12549370Y-64980031D01*
X12525716Y-65030757D01*
X12524294Y-65036065D01*
X12524293Y-65036067D01*
X12485165Y-65182093D01*
X12466457Y-65251913D01*
X12446502Y-65480000D01*
X12466457Y-65708087D01*
X12525716Y-65929243D01*
X12528039Y-65934224D01*
X12528039Y-65934225D01*
X12620151Y-66131762D01*
X12620154Y-66131767D01*
X12622477Y-66136749D01*
X12753802Y-66324300D01*
X12915700Y-66486198D01*
X12920208Y-66489355D01*
X12920211Y-66489357D01*
X12967069Y-66522167D01*
X13103251Y-66617523D01*
X13108233Y-66619846D01*
X13108238Y-66619849D01*
X13142457Y-66635805D01*
X13195742Y-66682722D01*
X13215203Y-66750999D01*
X13194661Y-66818959D01*
X13142457Y-66864195D01*
X13108238Y-66880151D01*
X13108233Y-66880154D01*
X13103251Y-66882477D01*
X13066165Y-66908445D01*
X12920211Y-67010643D01*
X12920208Y-67010645D01*
X12915700Y-67013802D01*
X12753802Y-67175700D01*
X12622477Y-67363251D01*
X12620154Y-67368233D01*
X12620151Y-67368238D01*
X12529671Y-67562275D01*
X12525716Y-67570757D01*
X12466457Y-67791913D01*
X12446502Y-68020000D01*
X12466457Y-68248087D01*
X12525716Y-68469243D01*
X12528039Y-68474224D01*
X12528039Y-68474225D01*
X12620151Y-68671762D01*
X12620154Y-68671767D01*
X12622477Y-68676749D01*
X12753802Y-68864300D01*
X12915700Y-69026198D01*
X12920208Y-69029355D01*
X12920211Y-69029357D01*
X12998389Y-69084098D01*
X13103251Y-69157523D01*
X13108233Y-69159846D01*
X13108238Y-69159849D01*
X13142457Y-69175805D01*
X13195742Y-69222722D01*
X13215203Y-69290999D01*
X13194661Y-69358959D01*
X13142457Y-69404195D01*
X13108238Y-69420151D01*
X13108233Y-69420154D01*
X13103251Y-69422477D01*
X12998389Y-69495902D01*
X12920211Y-69550643D01*
X12920208Y-69550645D01*
X12915700Y-69553802D01*
X12753802Y-69715700D01*
X12622477Y-69903251D01*
X12620154Y-69908233D01*
X12620151Y-69908238D01*
X12528039Y-70105775D01*
X12525716Y-70110757D01*
X12466457Y-70331913D01*
X12446502Y-70560000D01*
X12466457Y-70788087D01*
X12525716Y-71009243D01*
X12528039Y-71014224D01*
X12528039Y-71014225D01*
X12620151Y-71211762D01*
X12620154Y-71211767D01*
X12622477Y-71216749D01*
X12753802Y-71404300D01*
X12915700Y-71566198D01*
X12920208Y-71569355D01*
X12920211Y-71569357D01*
X12998389Y-71624098D01*
X13103251Y-71697523D01*
X13108233Y-71699846D01*
X13108238Y-71699849D01*
X13305775Y-71791961D01*
X13310757Y-71794284D01*
X13316065Y-71795706D01*
X13316067Y-71795707D01*
X13526598Y-71852119D01*
X13526600Y-71852119D01*
X13531913Y-71853543D01*
X13760000Y-71873498D01*
X13988087Y-71853543D01*
X13993400Y-71852119D01*
X13993402Y-71852119D01*
X14203933Y-71795707D01*
X14203935Y-71795706D01*
X14209243Y-71794284D01*
X14214225Y-71791961D01*
X14411762Y-71699849D01*
X14411767Y-71699846D01*
X14416749Y-71697523D01*
X14521611Y-71624098D01*
X14599789Y-71569357D01*
X14599792Y-71569355D01*
X14604300Y-71566198D01*
X14766198Y-71404300D01*
X14897523Y-71216749D01*
X14899846Y-71211767D01*
X14899849Y-71211762D01*
X14991961Y-71014225D01*
X14991961Y-71014224D01*
X14994284Y-71009243D01*
X15053543Y-70788087D01*
X15073498Y-70560000D01*
X15053543Y-70331913D01*
X14994284Y-70110757D01*
X14991961Y-70105775D01*
X14899849Y-69908238D01*
X14899846Y-69908233D01*
X14897523Y-69903251D01*
X14766198Y-69715700D01*
X14604300Y-69553802D01*
X14599792Y-69550645D01*
X14599789Y-69550643D01*
X14521611Y-69495902D01*
X14416749Y-69422477D01*
X14411767Y-69420154D01*
X14411762Y-69420151D01*
X14377543Y-69404195D01*
X14324258Y-69357278D01*
X14304797Y-69289001D01*
X14325339Y-69221041D01*
X14377543Y-69175805D01*
X14411762Y-69159849D01*
X14411767Y-69159846D01*
X14416749Y-69157523D01*
X14521611Y-69084098D01*
X14599789Y-69029357D01*
X14599792Y-69029355D01*
X14604300Y-69026198D01*
X14766198Y-68864300D01*
X14897523Y-68676749D01*
X14899846Y-68671767D01*
X14899849Y-68671762D01*
X14991961Y-68474225D01*
X14991961Y-68474224D01*
X14994284Y-68469243D01*
X15053543Y-68248087D01*
X15073498Y-68020000D01*
X15053543Y-67791913D01*
X14994284Y-67570757D01*
X14990329Y-67562275D01*
X14899849Y-67368238D01*
X14899846Y-67368233D01*
X14897523Y-67363251D01*
X14766198Y-67175700D01*
X14604300Y-67013802D01*
X14599792Y-67010645D01*
X14599789Y-67010643D01*
X14453835Y-66908445D01*
X14416749Y-66882477D01*
X14411767Y-66880154D01*
X14411762Y-66880151D01*
X14377543Y-66864195D01*
X14324258Y-66817278D01*
X14304797Y-66749001D01*
X14325339Y-66681041D01*
X14377543Y-66635805D01*
X14411762Y-66619849D01*
X14411767Y-66619846D01*
X14416749Y-66617523D01*
X14552931Y-66522167D01*
X14599789Y-66489357D01*
X14599792Y-66489355D01*
X14604300Y-66486198D01*
X14766198Y-66324300D01*
X14897523Y-66136749D01*
X14899846Y-66131767D01*
X14899849Y-66131762D01*
X14991961Y-65934225D01*
X14991961Y-65934224D01*
X14994284Y-65929243D01*
X15053543Y-65708087D01*
X15073498Y-65480000D01*
X15053543Y-65251913D01*
X15034835Y-65182093D01*
X14995707Y-65036067D01*
X14995706Y-65036065D01*
X14994284Y-65030757D01*
X14970630Y-64980031D01*
X14899849Y-64828238D01*
X14899846Y-64828233D01*
X14897523Y-64823251D01*
X14766198Y-64635700D01*
X14604300Y-64473802D01*
X14599792Y-64470645D01*
X14599789Y-64470643D01*
X14521611Y-64415902D01*
X14416749Y-64342477D01*
X14411767Y-64340154D01*
X14411762Y-64340151D01*
X14377543Y-64324195D01*
X14324258Y-64277278D01*
X14304797Y-64209001D01*
X14325339Y-64141041D01*
X14377543Y-64095805D01*
X14411762Y-64079849D01*
X14411767Y-64079846D01*
X14416749Y-64077523D01*
X14521611Y-64004098D01*
X14599789Y-63949357D01*
X14599792Y-63949355D01*
X14604300Y-63946198D01*
X14766198Y-63784300D01*
X14897523Y-63596749D01*
X14899846Y-63591767D01*
X14899849Y-63591762D01*
X14991961Y-63394225D01*
X14991961Y-63394224D01*
X14994284Y-63389243D01*
X15053543Y-63168087D01*
X15073498Y-62940000D01*
X15053543Y-62711913D01*
X14994284Y-62490757D01*
X14991961Y-62485775D01*
X14899849Y-62288238D01*
X14899846Y-62288233D01*
X14897523Y-62283251D01*
X14766198Y-62095700D01*
X14604300Y-61933802D01*
X14599792Y-61930645D01*
X14599789Y-61930643D01*
X14521611Y-61875902D01*
X14416749Y-61802477D01*
X14411767Y-61800154D01*
X14411762Y-61800151D01*
X14377543Y-61784195D01*
X14324258Y-61737278D01*
X14304797Y-61669001D01*
X14325339Y-61601041D01*
X14377543Y-61555805D01*
X14411762Y-61539849D01*
X14411767Y-61539846D01*
X14416749Y-61537523D01*
X14521611Y-61464098D01*
X14599789Y-61409357D01*
X14599792Y-61409355D01*
X14604300Y-61406198D01*
X14766198Y-61244300D01*
X14897523Y-61056749D01*
X14899846Y-61051767D01*
X14899849Y-61051762D01*
X14991961Y-60854225D01*
X14991961Y-60854224D01*
X14994284Y-60849243D01*
X15010073Y-60790320D01*
X15052119Y-60633402D01*
X15052119Y-60633400D01*
X15053543Y-60628087D01*
X15073498Y-60400000D01*
X15053543Y-60171913D01*
X15052119Y-60166598D01*
X14995707Y-59956067D01*
X14995706Y-59956065D01*
X14994284Y-59950757D01*
X14979378Y-59918790D01*
X14899849Y-59748238D01*
X14899846Y-59748233D01*
X14897523Y-59743251D01*
X14766198Y-59555700D01*
X14604300Y-59393802D01*
X14599792Y-59390645D01*
X14599789Y-59390643D01*
X14489316Y-59313289D01*
X14416749Y-59262477D01*
X14411767Y-59260154D01*
X14411762Y-59260151D01*
X14377543Y-59244195D01*
X14324258Y-59197278D01*
X14304797Y-59129001D01*
X14325339Y-59061041D01*
X14377543Y-59015805D01*
X14411762Y-58999849D01*
X14411767Y-58999846D01*
X14416749Y-58997523D01*
X14546039Y-58906993D01*
X14599789Y-58869357D01*
X14599792Y-58869355D01*
X14604300Y-58866198D01*
X14766198Y-58704300D01*
X14776968Y-58688920D01*
X14894366Y-58521257D01*
X14897523Y-58516749D01*
X14899846Y-58511767D01*
X14899849Y-58511762D01*
X14991961Y-58314225D01*
X14991961Y-58314224D01*
X14994284Y-58309243D01*
X15053543Y-58088087D01*
X15073498Y-57860000D01*
X15053543Y-57631913D01*
X14994284Y-57410757D01*
X14991961Y-57405775D01*
X14899849Y-57208238D01*
X14899846Y-57208233D01*
X14897523Y-57203251D01*
X14766198Y-57015700D01*
X14604300Y-56853802D01*
X14599792Y-56850645D01*
X14599789Y-56850643D01*
X14521611Y-56795902D01*
X14416749Y-56722477D01*
X14411767Y-56720154D01*
X14411762Y-56720151D01*
X14377543Y-56704195D01*
X14324258Y-56657278D01*
X14304797Y-56589001D01*
X14325339Y-56521041D01*
X14377543Y-56475805D01*
X14411762Y-56459849D01*
X14411767Y-56459846D01*
X14416749Y-56457523D01*
X14521611Y-56384098D01*
X14599789Y-56329357D01*
X14599792Y-56329355D01*
X14604300Y-56326198D01*
X14766198Y-56164300D01*
X14897523Y-55976749D01*
X14899846Y-55971767D01*
X14899849Y-55971762D01*
X14991961Y-55774225D01*
X14991961Y-55774224D01*
X14994284Y-55769243D01*
X15053543Y-55548087D01*
X15073498Y-55320000D01*
X15053543Y-55091913D01*
X14994284Y-54870757D01*
X14991961Y-54865775D01*
X14899849Y-54668238D01*
X14899846Y-54668233D01*
X14897523Y-54663251D01*
X14766198Y-54475700D01*
X14604300Y-54313802D01*
X14599792Y-54310645D01*
X14599789Y-54310643D01*
X14485083Y-54230325D01*
X14416749Y-54182477D01*
X14411767Y-54180154D01*
X14411762Y-54180151D01*
X14377543Y-54164195D01*
X14324258Y-54117278D01*
X14304797Y-54049001D01*
X14325339Y-53981041D01*
X14377543Y-53935805D01*
X14411762Y-53919849D01*
X14411767Y-53919846D01*
X14416749Y-53917523D01*
X14521611Y-53844098D01*
X14599789Y-53789357D01*
X14599792Y-53789355D01*
X14604300Y-53786198D01*
X14766198Y-53624300D01*
X14897523Y-53436749D01*
X14899846Y-53431767D01*
X14899849Y-53431762D01*
X14991961Y-53234225D01*
X14991961Y-53234224D01*
X14994284Y-53229243D01*
X15053543Y-53008087D01*
X15073498Y-52780000D01*
X15053543Y-52551913D01*
X14994284Y-52330757D01*
X14984134Y-52308990D01*
X14899849Y-52128238D01*
X14899846Y-52128233D01*
X14897523Y-52123251D01*
X14802595Y-51987680D01*
X14769357Y-51940211D01*
X14769355Y-51940208D01*
X14766198Y-51935700D01*
X14604300Y-51773802D01*
X14599792Y-51770645D01*
X14599789Y-51770643D01*
X14521611Y-51715902D01*
X14416749Y-51642477D01*
X14411767Y-51640154D01*
X14411762Y-51640151D01*
X14377543Y-51624195D01*
X14324258Y-51577278D01*
X14304797Y-51509001D01*
X14325339Y-51441041D01*
X14377543Y-51395805D01*
X14411762Y-51379849D01*
X14411767Y-51379846D01*
X14416749Y-51377523D01*
X14566967Y-51272339D01*
X14599789Y-51249357D01*
X14599792Y-51249355D01*
X14604300Y-51246198D01*
X14766198Y-51084300D01*
X14783736Y-51059254D01*
X14843781Y-50973500D01*
X14897523Y-50896749D01*
X14899846Y-50891767D01*
X14899849Y-50891762D01*
X14991961Y-50694225D01*
X14991961Y-50694224D01*
X14994284Y-50689243D01*
X15000926Y-50664457D01*
X15052119Y-50473402D01*
X15052119Y-50473400D01*
X15053543Y-50468087D01*
X15073498Y-50240000D01*
X15053543Y-50011913D01*
X14994284Y-49790757D01*
X14962470Y-49722531D01*
X14899849Y-49588238D01*
X14899846Y-49588233D01*
X14897523Y-49583251D01*
X14806027Y-49452582D01*
X14769357Y-49400211D01*
X14769355Y-49400208D01*
X14766198Y-49395700D01*
X14604300Y-49233802D01*
X14599792Y-49230645D01*
X14599789Y-49230643D01*
X14477838Y-49145252D01*
X14416749Y-49102477D01*
X14411767Y-49100154D01*
X14411762Y-49100151D01*
X14377543Y-49084195D01*
X14324258Y-49037278D01*
X14304797Y-48969001D01*
X14325339Y-48901041D01*
X14377543Y-48855805D01*
X14411762Y-48839849D01*
X14411767Y-48839846D01*
X14416749Y-48837523D01*
X14586390Y-48718739D01*
X14599789Y-48709357D01*
X14599792Y-48709355D01*
X14604300Y-48706198D01*
X14766198Y-48544300D01*
X14897523Y-48356749D01*
X14899846Y-48351767D01*
X14899849Y-48351762D01*
X14991961Y-48154225D01*
X14991961Y-48154224D01*
X14994284Y-48149243D01*
X15053543Y-47928087D01*
X15073498Y-47700000D01*
X15053543Y-47471913D01*
X14994284Y-47250757D01*
X14980260Y-47220682D01*
X14899849Y-47048238D01*
X14899846Y-47048233D01*
X14897523Y-47043251D01*
X14797287Y-46900099D01*
X14769357Y-46860211D01*
X14769355Y-46860208D01*
X14766198Y-46855700D01*
X14604300Y-46693802D01*
X14599792Y-46690645D01*
X14599789Y-46690643D01*
X14521611Y-46635902D01*
X14416749Y-46562477D01*
X14411767Y-46560154D01*
X14411762Y-46560151D01*
X14377543Y-46544195D01*
X14324258Y-46497278D01*
X14304797Y-46429001D01*
X14325339Y-46361041D01*
X14377543Y-46315805D01*
X14411762Y-46299849D01*
X14411767Y-46299846D01*
X14416749Y-46297523D01*
X14521611Y-46224098D01*
X14599789Y-46169357D01*
X14599792Y-46169355D01*
X14604300Y-46166198D01*
X14766198Y-46004300D01*
X14769361Y-45999784D01*
X14834011Y-45907453D01*
X14897523Y-45816749D01*
X14899846Y-45811767D01*
X14899849Y-45811762D01*
X14991961Y-45614225D01*
X14991961Y-45614224D01*
X14994284Y-45609243D01*
X15053543Y-45388087D01*
X15073498Y-45160000D01*
X15053543Y-44931913D01*
X14994284Y-44710757D01*
X14980260Y-44680682D01*
X14899849Y-44508238D01*
X14899846Y-44508233D01*
X14897523Y-44503251D01*
X14797287Y-44360099D01*
X14769357Y-44320211D01*
X14769355Y-44320208D01*
X14766198Y-44315700D01*
X14604300Y-44153802D01*
X14599792Y-44150645D01*
X14599789Y-44150643D01*
X14521611Y-44095902D01*
X14416749Y-44022477D01*
X14411767Y-44020154D01*
X14411762Y-44020151D01*
X14377543Y-44004195D01*
X14324258Y-43957278D01*
X14304797Y-43889001D01*
X14325339Y-43821041D01*
X14377543Y-43775805D01*
X14411762Y-43759849D01*
X14411767Y-43759846D01*
X14416749Y-43757523D01*
X14521611Y-43684098D01*
X14599789Y-43629357D01*
X14599792Y-43629355D01*
X14604300Y-43626198D01*
X14766198Y-43464300D01*
X14794992Y-43423179D01*
X14894366Y-43281257D01*
X14897523Y-43276749D01*
X14899846Y-43271767D01*
X14899849Y-43271762D01*
X14991961Y-43074225D01*
X14991961Y-43074224D01*
X14994284Y-43069243D01*
X15053543Y-42848087D01*
X15073498Y-42620000D01*
X15053543Y-42391913D01*
X15052119Y-42386598D01*
X14995707Y-42176067D01*
X14995706Y-42176065D01*
X14994284Y-42170757D01*
X14991961Y-42165775D01*
X14899849Y-41968238D01*
X14899846Y-41968233D01*
X14897523Y-41963251D01*
X14824098Y-41858389D01*
X14769357Y-41780211D01*
X14769355Y-41780208D01*
X14766198Y-41775700D01*
X14604300Y-41613802D01*
X14599792Y-41610645D01*
X14599789Y-41610643D01*
X14521611Y-41555902D01*
X14416749Y-41482477D01*
X14411767Y-41480154D01*
X14411762Y-41480151D01*
X14377543Y-41464195D01*
X14324258Y-41417278D01*
X14304797Y-41349001D01*
X14325339Y-41281041D01*
X14377543Y-41235805D01*
X14411762Y-41219849D01*
X14411767Y-41219846D01*
X14416749Y-41217523D01*
X14521611Y-41144098D01*
X14599789Y-41089357D01*
X14599792Y-41089355D01*
X14604300Y-41086198D01*
X14766198Y-40924300D01*
X14769361Y-40919784D01*
X14894366Y-40741257D01*
X14897523Y-40736749D01*
X14899846Y-40731767D01*
X14899849Y-40731762D01*
X14991961Y-40534225D01*
X14991961Y-40534224D01*
X14994284Y-40529243D01*
X15053543Y-40308087D01*
X15073498Y-40080000D01*
X15053543Y-39851913D01*
X14994284Y-39630757D01*
X14991961Y-39625775D01*
X14899849Y-39428238D01*
X14899846Y-39428233D01*
X14897523Y-39423251D01*
X14797287Y-39280099D01*
X14769357Y-39240211D01*
X14769355Y-39240208D01*
X14766198Y-39235700D01*
X14604300Y-39073802D01*
X14599792Y-39070645D01*
X14599789Y-39070643D01*
X14521611Y-39015902D01*
X14416749Y-38942477D01*
X14411767Y-38940154D01*
X14411762Y-38940151D01*
X14376951Y-38923919D01*
X14323666Y-38877002D01*
X14304205Y-38808725D01*
X14324747Y-38740765D01*
X14376951Y-38695529D01*
X14411511Y-38679414D01*
X14421007Y-38673931D01*
X14599467Y-38548972D01*
X14607875Y-38541916D01*
X14761916Y-38387875D01*
X14768972Y-38379467D01*
X14893931Y-38201007D01*
X14899414Y-38191511D01*
X14991490Y-37994053D01*
X14995236Y-37983761D01*
X15041394Y-37811497D01*
X15041058Y-37797401D01*
X15033116Y-37794000D01*
X12492033Y-37794000D01*
X12478502Y-37797973D01*
X12477273Y-37806522D01*
X12524764Y-37983761D01*
X12528510Y-37994053D01*
X12620586Y-38191511D01*
X12626069Y-38201007D01*
X12751028Y-38379467D01*
X12758084Y-38387875D01*
X12912125Y-38541916D01*
X12920533Y-38548972D01*
X13098993Y-38673931D01*
X13108489Y-38679414D01*
X13143049Y-38695529D01*
X13196334Y-38742446D01*
X13215795Y-38810723D01*
X13195253Y-38878683D01*
X13143049Y-38923919D01*
X13108238Y-38940151D01*
X13108233Y-38940154D01*
X13103251Y-38942477D01*
X12998389Y-39015902D01*
X12920211Y-39070643D01*
X12920208Y-39070645D01*
X12915700Y-39073802D01*
X12753802Y-39235700D01*
X12750645Y-39240208D01*
X12750643Y-39240211D01*
X12722713Y-39280099D01*
X12622477Y-39423251D01*
X12620154Y-39428233D01*
X12620151Y-39428238D01*
X12528039Y-39625775D01*
X12525716Y-39630757D01*
X12466457Y-39851913D01*
X12446502Y-40080000D01*
X12466457Y-40308087D01*
X12525716Y-40529243D01*
X12528039Y-40534224D01*
X12528039Y-40534225D01*
X12620151Y-40731762D01*
X12620154Y-40731767D01*
X12622477Y-40736749D01*
X12625634Y-40741257D01*
X12750640Y-40919784D01*
X12753802Y-40924300D01*
X12915700Y-41086198D01*
X12920208Y-41089355D01*
X12920211Y-41089357D01*
X12998389Y-41144098D01*
X13103251Y-41217523D01*
X13108233Y-41219846D01*
X13108238Y-41219849D01*
X13142457Y-41235805D01*
X13195742Y-41282722D01*
X13215203Y-41350999D01*
X13194661Y-41418959D01*
X13142457Y-41464195D01*
X13108238Y-41480151D01*
X13108233Y-41480154D01*
X13103251Y-41482477D01*
X12998389Y-41555902D01*
X12920211Y-41610643D01*
X12920208Y-41610645D01*
X12915700Y-41613802D01*
X12753802Y-41775700D01*
X12750645Y-41780208D01*
X12750643Y-41780211D01*
X12713840Y-41832771D01*
X12658382Y-41877099D01*
X12610627Y-41886500D01*
X11695166Y-41886500D01*
X11676216Y-41885067D01*
X11663007Y-41883057D01*
X11663003Y-41883057D01*
X11655773Y-41881957D01*
X11648481Y-41882550D01*
X11648477Y-41882550D01*
X11605019Y-41886085D01*
X11594805Y-41886500D01*
X11587174Y-41886500D01*
X11583540Y-41886924D01*
X11583534Y-41886924D01*
X11571039Y-41888381D01*
X11559942Y-41889675D01*
X11555594Y-41890105D01*
X11485295Y-41895823D01*
X11478327Y-41898080D01*
X11472828Y-41899179D01*
X11467383Y-41900466D01*
X11460110Y-41901314D01*
X11393791Y-41925387D01*
X11389630Y-41926815D01*
X11329546Y-41946279D01*
X11329543Y-41946280D01*
X11322580Y-41948536D01*
X11316323Y-41952333D01*
X11311198Y-41954679D01*
X11306211Y-41957176D01*
X11299333Y-41959673D01*
X11293216Y-41963683D01*
X11293211Y-41963686D01*
X11240346Y-41998347D01*
X11236624Y-42000695D01*
X11176355Y-42037267D01*
X11168245Y-42044429D01*
X11168230Y-42044412D01*
X11164920Y-42047346D01*
X11162413Y-42049442D01*
X11156294Y-42053454D01*
X11151262Y-42058766D01*
X11104834Y-42107776D01*
X11102456Y-42110218D01*
X4067423Y-49145252D01*
X4053011Y-49157639D01*
X4036349Y-49169900D01*
X4031606Y-49175483D01*
X4003369Y-49208720D01*
X3996439Y-49216236D01*
X3991055Y-49221620D01*
X3988792Y-49224481D01*
X3988787Y-49224486D01*
X3974068Y-49243091D01*
X3971279Y-49246493D01*
X3930347Y-49294672D01*
X3930344Y-49294676D01*
X3925608Y-49300251D01*
X3922279Y-49306772D01*
X3919158Y-49311451D01*
X3916222Y-49316205D01*
X3911682Y-49321943D01*
X3908585Y-49328570D01*
X3908584Y-49328571D01*
X3881811Y-49385854D01*
X3879901Y-49389761D01*
X3847824Y-49452582D01*
X3846084Y-49459694D01*
X3844118Y-49464980D01*
X3842360Y-49470265D01*
X3839261Y-49476895D01*
X3831288Y-49515229D01*
X3824895Y-49545963D01*
X3823925Y-49550247D01*
X3807170Y-49618721D01*
X3806500Y-49629520D01*
X3806476Y-49629519D01*
X3806212Y-49633934D01*
X3805922Y-49637184D01*
X3804431Y-49644352D01*
X3804629Y-49651669D01*
X3806454Y-49719123D01*
X3806500Y-49722531D01*
X3806500Y-50105352D01*
X3786498Y-50173473D01*
X3732842Y-50219966D01*
X3662568Y-50230070D01*
X3611791Y-50209021D01*
X3611517Y-50209522D01*
X3606892Y-50206990D01*
X3604936Y-50206179D01*
X3603648Y-50205214D01*
X3588054Y-50196676D01*
X3467606Y-50151522D01*
X3452351Y-50147895D01*
X3401486Y-50142369D01*
X3394672Y-50142000D01*
X2772115Y-50142000D01*
X2756876Y-50146475D01*
X2755671Y-50147865D01*
X2754000Y-50155548D01*
X2754000Y-52839884D01*
X2246000Y-52839884D01*
X2246000Y-51772115D01*
X2241525Y-51756876D01*
X2240135Y-51755671D01*
X2232452Y-51754000D01*
X1160116Y-51754000D01*
X1144877Y-51758475D01*
X1143672Y-51759865D01*
X1142001Y-51767548D01*
X1142001Y-52394669D01*
X508500Y-52394669D01*
X508500Y-51227885D01*
X1142000Y-51227885D01*
X1146475Y-51243124D01*
X1147865Y-51244329D01*
X1155548Y-51246000D01*
X2227885Y-51246000D01*
X2243124Y-51241525D01*
X2244329Y-51240135D01*
X2246000Y-51232452D01*
X2246000Y-50160116D01*
X2241525Y-50144877D01*
X2240135Y-50143672D01*
X2232452Y-50142001D01*
X1605331Y-50142001D01*
X1598510Y-50142371D01*
X1547648Y-50147895D01*
X1532396Y-50151521D01*
X1411946Y-50196676D01*
X1396351Y-50205214D01*
X1294276Y-50281715D01*
X1281715Y-50294276D01*
X1205214Y-50396351D01*
X1196676Y-50411946D01*
X1151522Y-50532394D01*
X1147895Y-50547649D01*
X1142369Y-50598514D01*
X1142000Y-50605328D01*
X1142000Y-51227885D01*
X508500Y-51227885D01*
X508500Y-3640236D01*
X528502Y-3572115D01*
X582158Y-3525622D01*
X652432Y-3515518D01*
X717012Y-3545012D01*
X728136Y-3555926D01*
X898427Y-3745053D01*
X898431Y-3745057D01*
X901371Y-3748322D01*
X904733Y-3751143D01*
X904734Y-3751144D01*
X909885Y-3755466D01*
X1116550Y-3928879D01*
X1354764Y-4077731D01*
X1611375Y-4191982D01*
X1615603Y-4193194D01*
X1615602Y-4193194D01*
X1779491Y-4240188D01*
X1881390Y-4269407D01*
X1885740Y-4270018D01*
X1885743Y-4270019D01*
X1988690Y-4284487D01*
X2159552Y-4308500D01*
X2370146Y-4308500D01*
X2372332Y-4308347D01*
X2372336Y-4308347D01*
X2575827Y-4294118D01*
X2575832Y-4294117D01*
X2580212Y-4293811D01*
X2854970Y-4235409D01*
X2859099Y-4233906D01*
X2859103Y-4233905D01*
X3114781Y-4140846D01*
X3114785Y-4140844D01*
X3118926Y-4139337D01*
X3366942Y-4007464D01*
X3429927Y-3961703D01*
X3590629Y-3844947D01*
X3590632Y-3844944D01*
X3594192Y-3842358D01*
X3796252Y-3647231D01*
X3969188Y-3425882D01*
X3971384Y-3422078D01*
X3971389Y-3422071D01*
X4107435Y-3186431D01*
X4109636Y-3182619D01*
X4214862Y-2922176D01*
X4248544Y-2787087D01*
X4281753Y-2653893D01*
X4281754Y-2653888D01*
X4282817Y-2649624D01*
X4312178Y-2370267D01*
X4302375Y-2089542D01*
X4278608Y-1954749D01*
X4254360Y-1817236D01*
X4253598Y-1812913D01*
X4166797Y-1545765D01*
X4043660Y-1293298D01*
X4041205Y-1289659D01*
X4041202Y-1289653D01*
X3904700Y-1087281D01*
X3886585Y-1060424D01*
X3698629Y-851678D01*
X3669925Y-827592D01*
X3573046Y-746301D01*
X3554837Y-731022D01*
X3515510Y-671912D01*
X3514384Y-600924D01*
X3551815Y-540597D01*
X3615920Y-510083D01*
X3635828Y-508500D01*
X11600116Y-508500D01*
X11668237Y-528502D01*
G37*
%TD.AperFunction*%
%TD*%
M02*
