%TF.GenerationSoftware,KiCad,Pcbnew,6.0.7-f9a2dced07~116~ubuntu22.04.1*%
%TF.CreationDate,2022-08-01T22:09:32-04:00*%
%TF.ProjectId,UVLEDController,55564c45-4443-46f6-9e74-726f6c6c6572,rev?*%
%TF.SameCoordinates,PXbebc200PY1c9c380*%
%TF.FileFunction,Copper,L1,Top*%
%TF.FilePolarity,Positive*%
%FSLAX46Y46*%
G04 Gerber Fmt 4.6, Leading zero omitted, Abs format (unit mm)*
G04 Created by KiCad (PCBNEW 6.0.7-f9a2dced07~116~ubuntu22.04.1) date 2022-08-01 22:09:32*
%MOMM*%
%LPD*%
G01*
G04 APERTURE LIST*
G04 Aperture macros list*
%AMRoundRect*
0 Rectangle with rounded corners*
0 $1 Rounding radius*
0 $2 $3 $4 $5 $6 $7 $8 $9 X,Y pos of 4 corners*
0 Add a 4 corners polygon primitive as box body*
4,1,4,$2,$3,$4,$5,$6,$7,$8,$9,$2,$3,0*
0 Add four circle primitives for the rounded corners*
1,1,$1+$1,$2,$3*
1,1,$1+$1,$4,$5*
1,1,$1+$1,$6,$7*
1,1,$1+$1,$8,$9*
0 Add four rect primitives between the rounded corners*
20,1,$1+$1,$2,$3,$4,$5,0*
20,1,$1+$1,$4,$5,$6,$7,0*
20,1,$1+$1,$6,$7,$8,$9,0*
20,1,$1+$1,$8,$9,$2,$3,0*%
G04 Aperture macros list end*
%ADD10C,0.300000*%
%TA.AperFunction,NonConductor*%
%ADD11C,0.300000*%
%TD*%
%TA.AperFunction,SMDPad,CuDef*%
%ADD12RoundRect,0.250000X-0.350000X-0.450000X0.350000X-0.450000X0.350000X0.450000X-0.350000X0.450000X0*%
%TD*%
%TA.AperFunction,ComponentPad*%
%ADD13C,2.000000*%
%TD*%
%TA.AperFunction,ComponentPad*%
%ADD14R,2.600000X2.600000*%
%TD*%
%TA.AperFunction,ComponentPad*%
%ADD15C,2.600000*%
%TD*%
%TA.AperFunction,ComponentPad*%
%ADD16R,1.700000X1.700000*%
%TD*%
%TA.AperFunction,ComponentPad*%
%ADD17O,1.700000X1.700000*%
%TD*%
%TA.AperFunction,ComponentPad*%
%ADD18R,1.600000X1.600000*%
%TD*%
%TA.AperFunction,ComponentPad*%
%ADD19O,1.600000X1.600000*%
%TD*%
%TA.AperFunction,ComponentPad*%
%ADD20R,1.905000X2.000000*%
%TD*%
%TA.AperFunction,ComponentPad*%
%ADD21O,1.905000X2.000000*%
%TD*%
%TA.AperFunction,Conductor*%
%ADD22C,0.450000*%
%TD*%
%TA.AperFunction,Conductor*%
%ADD23C,2.000000*%
%TD*%
G04 APERTURE END LIST*
D10*
D11*
X-49285715Y-48294761D02*
X-48619048Y-50294761D01*
X-47952381Y-48294761D01*
X-46428572Y-50294761D02*
X-46428572Y-49247142D01*
X-46523810Y-49056666D01*
X-46714286Y-48961428D01*
X-47095239Y-48961428D01*
X-47285715Y-49056666D01*
X-46428572Y-50199523D02*
X-46619048Y-50294761D01*
X-47095239Y-50294761D01*
X-47285715Y-50199523D01*
X-47380953Y-50009047D01*
X-47380953Y-49818571D01*
X-47285715Y-49628095D01*
X-47095239Y-49532857D01*
X-46619048Y-49532857D01*
X-46428572Y-49437619D01*
X-45476191Y-50294761D02*
X-45476191Y-48961428D01*
X-45476191Y-49342380D02*
X-45380953Y-49151904D01*
X-45285715Y-49056666D01*
X-45095239Y-48961428D01*
X-44904762Y-48961428D01*
X-44238096Y-48961428D02*
X-44238096Y-50294761D01*
X-44238096Y-49151904D02*
X-44142858Y-49056666D01*
X-43952381Y-48961428D01*
X-43666667Y-48961428D01*
X-43476191Y-49056666D01*
X-43380953Y-49247142D01*
X-43380953Y-50294761D01*
X-41666667Y-50199523D02*
X-41857143Y-50294761D01*
X-42238096Y-50294761D01*
X-42428572Y-50199523D01*
X-42523810Y-50009047D01*
X-42523810Y-49247142D01*
X-42428572Y-49056666D01*
X-42238096Y-48961428D01*
X-41857143Y-48961428D01*
X-41666667Y-49056666D01*
X-41571429Y-49247142D01*
X-41571429Y-49437619D01*
X-42523810Y-49628095D01*
X-40714286Y-50294761D02*
X-40714286Y-48961428D01*
X-40714286Y-49342380D02*
X-40619048Y-49151904D01*
X-40523810Y-49056666D01*
X-40333334Y-48961428D01*
X-40142858Y-48961428D01*
X-39476191Y-50294761D02*
X-39476191Y-48961428D01*
X-39476191Y-48294761D02*
X-39571429Y-48390000D01*
X-39476191Y-48485238D01*
X-39380953Y-48390000D01*
X-39476191Y-48294761D01*
X-39476191Y-48485238D01*
X-38714286Y-48961428D02*
X-37666667Y-48961428D01*
X-38714286Y-50294761D01*
X-37666667Y-50294761D01*
X-36142858Y-50199523D02*
X-36333334Y-50294761D01*
X-36714286Y-50294761D01*
X-36904762Y-50199523D01*
X-37000000Y-50009047D01*
X-37000000Y-49247142D01*
X-36904762Y-49056666D01*
X-36714286Y-48961428D01*
X-36333334Y-48961428D01*
X-36142858Y-49056666D01*
X-36047620Y-49247142D01*
X-36047620Y-49437619D01*
X-37000000Y-49628095D01*
X-34333334Y-50294761D02*
X-34333334Y-48294761D01*
X-34333334Y-50199523D02*
X-34523810Y-50294761D01*
X-34904762Y-50294761D01*
X-35095239Y-50199523D01*
X-35190477Y-50104285D01*
X-35285715Y-49913809D01*
X-35285715Y-49342380D01*
X-35190477Y-49151904D01*
X-35095239Y-49056666D01*
X-34904762Y-48961428D01*
X-34523810Y-48961428D01*
X-34333334Y-49056666D01*
X-31857143Y-48294761D02*
X-31857143Y-49913809D01*
X-31761905Y-50104285D01*
X-31666667Y-50199523D01*
X-31476191Y-50294761D01*
X-31095239Y-50294761D01*
X-30904762Y-50199523D01*
X-30809524Y-50104285D01*
X-30714286Y-49913809D01*
X-30714286Y-48294761D01*
X-30047620Y-48294761D02*
X-29380953Y-50294761D01*
X-28714286Y-48294761D01*
X-47142858Y-52467142D02*
X-46476191Y-52467142D01*
X-46190477Y-53514761D02*
X-47142858Y-53514761D01*
X-47142858Y-51514761D01*
X-46190477Y-51514761D01*
X-45523810Y-53514761D02*
X-44476191Y-52181428D01*
X-45523810Y-52181428D02*
X-44476191Y-53514761D01*
X-43714286Y-52181428D02*
X-43714286Y-54181428D01*
X-43714286Y-52276666D02*
X-43523810Y-52181428D01*
X-43142858Y-52181428D01*
X-42952381Y-52276666D01*
X-42857143Y-52371904D01*
X-42761905Y-52562380D01*
X-42761905Y-53133809D01*
X-42857143Y-53324285D01*
X-42952381Y-53419523D01*
X-43142858Y-53514761D01*
X-43523810Y-53514761D01*
X-43714286Y-53419523D01*
X-41619048Y-53514761D02*
X-41809524Y-53419523D01*
X-41904762Y-53324285D01*
X-42000000Y-53133809D01*
X-42000000Y-52562380D01*
X-41904762Y-52371904D01*
X-41809524Y-52276666D01*
X-41619048Y-52181428D01*
X-41333334Y-52181428D01*
X-41142858Y-52276666D01*
X-41047620Y-52371904D01*
X-40952381Y-52562380D01*
X-40952381Y-53133809D01*
X-41047620Y-53324285D01*
X-41142858Y-53419523D01*
X-41333334Y-53514761D01*
X-41619048Y-53514761D01*
X-40190477Y-53419523D02*
X-40000000Y-53514761D01*
X-39619048Y-53514761D01*
X-39428572Y-53419523D01*
X-39333334Y-53229047D01*
X-39333334Y-53133809D01*
X-39428572Y-52943333D01*
X-39619048Y-52848095D01*
X-39904762Y-52848095D01*
X-40095239Y-52752857D01*
X-40190477Y-52562380D01*
X-40190477Y-52467142D01*
X-40095239Y-52276666D01*
X-39904762Y-52181428D01*
X-39619048Y-52181428D01*
X-39428572Y-52276666D01*
X-37619048Y-52181428D02*
X-37619048Y-53514761D01*
X-38476191Y-52181428D02*
X-38476191Y-53229047D01*
X-38380953Y-53419523D01*
X-38190477Y-53514761D01*
X-37904762Y-53514761D01*
X-37714286Y-53419523D01*
X-37619048Y-53324285D01*
X-36666667Y-53514761D02*
X-36666667Y-52181428D01*
X-36666667Y-52562380D02*
X-36571429Y-52371904D01*
X-36476191Y-52276666D01*
X-36285715Y-52181428D01*
X-36095239Y-52181428D01*
X-35428572Y-53514761D02*
X-35428572Y-52181428D01*
X-35428572Y-51514761D02*
X-35523810Y-51610000D01*
X-35428572Y-51705238D01*
X-35333334Y-51610000D01*
X-35428572Y-51514761D01*
X-35428572Y-51705238D01*
X-34666667Y-52181428D02*
X-33619048Y-52181428D01*
X-34666667Y-53514761D01*
X-33619048Y-53514761D01*
X-32095239Y-53419523D02*
X-32285715Y-53514761D01*
X-32666667Y-53514761D01*
X-32857143Y-53419523D01*
X-32952381Y-53229047D01*
X-32952381Y-52467142D01*
X-32857143Y-52276666D01*
X-32666667Y-52181428D01*
X-32285715Y-52181428D01*
X-32095239Y-52276666D01*
X-32000000Y-52467142D01*
X-32000000Y-52657619D01*
X-32952381Y-52848095D01*
X-31142858Y-53514761D02*
X-31142858Y-52181428D01*
X-31142858Y-52562380D02*
X-31047620Y-52371904D01*
X-30952381Y-52276666D01*
X-30761905Y-52181428D01*
X-30571429Y-52181428D01*
D12*
%TO.P,R1,1*%
%TO.N,Net-(A1-Pad12)*%
X-23000000Y-33500000D03*
%TO.P,R1,2*%
%TO.N,GND*%
X-21000000Y-33500000D03*
%TD*%
D13*
%TO.P,SW_DN1,1,1*%
%TO.N,GND*%
X-59550000Y-48750000D03*
X-66050000Y-48750000D03*
%TO.P,SW_DN1,2,2*%
%TO.N,Net-(A1-Pad5)*%
X-66050000Y-53250000D03*
X-59550000Y-53250000D03*
%TD*%
%TO.P,SW_SEL1,1,1*%
%TO.N,GND*%
X-13750000Y-48750000D03*
X-20250000Y-48750000D03*
%TO.P,SW_SEL1,2,2*%
%TO.N,Net-(A1-Pad7)*%
X-20250000Y-53250000D03*
X-13750000Y-53250000D03*
%TD*%
%TO.P,SW_UP1,1,1*%
%TO.N,GND*%
X-59550000Y-38250000D03*
X-66050000Y-38250000D03*
%TO.P,SW_UP1,2,2*%
%TO.N,Net-(A1-Pad6)*%
X-59550000Y-42750000D03*
X-66050000Y-42750000D03*
%TD*%
D14*
%TO.P,J1-LED1,1,Pin_1*%
%TO.N,Net-(A1-Pad30)*%
X-5500000Y-9000000D03*
D15*
%TO.P,J1-LED1,2,Pin_2*%
%TO.N,Net-(J1-LED1-Pad2)*%
X-5500000Y-14000000D03*
%TD*%
D16*
%TO.P,J3,1,Pin_1*%
%TO.N,GND*%
X-51500000Y-2500000D03*
D17*
%TO.P,J3,2,Pin_2*%
%TO.N,Net-(A1-Pad27)*%
X-51500000Y-5040000D03*
%TO.P,J3,3,Pin_3*%
%TO.N,Net-(A1-Pad23)*%
X-51500000Y-7580000D03*
%TO.P,J3,4,Pin_4*%
%TO.N,Net-(A1-Pad24)*%
X-51500000Y-10120000D03*
%TD*%
D14*
%TO.P,J2-PWR1,1,Pin_1*%
%TO.N,Net-(A1-Pad30)*%
X-5500000Y-22000000D03*
D15*
%TO.P,J2-PWR1,2,Pin_2*%
%TO.N,GND*%
X-5500000Y-27000000D03*
%TD*%
D18*
%TO.P,A1,1,D1/TX*%
%TO.N,unconnected-(A1-Pad1)*%
X-35000000Y-29000000D03*
D19*
%TO.P,A1,2,D0/RX*%
%TO.N,unconnected-(A1-Pad2)*%
X-37540000Y-29000000D03*
%TO.P,A1,3,~{RESET}*%
%TO.N,unconnected-(A1-Pad3)*%
X-40080000Y-29000000D03*
%TO.P,A1,4,GND*%
%TO.N,GND*%
X-42620000Y-29000000D03*
%TO.P,A1,5,D2*%
%TO.N,Net-(A1-Pad5)*%
X-45160000Y-29000000D03*
%TO.P,A1,6,D3*%
%TO.N,Net-(A1-Pad6)*%
X-47700000Y-29000000D03*
%TO.P,A1,7,D4*%
%TO.N,Net-(A1-Pad7)*%
X-50240000Y-29000000D03*
%TO.P,A1,8,D5*%
%TO.N,unconnected-(A1-Pad8)*%
X-52780000Y-29000000D03*
%TO.P,A1,9,D6*%
%TO.N,unconnected-(A1-Pad9)*%
X-55320000Y-29000000D03*
%TO.P,A1,10,D7*%
%TO.N,unconnected-(A1-Pad10)*%
X-57860000Y-29000000D03*
%TO.P,A1,11,D8*%
%TO.N,unconnected-(A1-Pad11)*%
X-60400000Y-29000000D03*
%TO.P,A1,12,D9*%
%TO.N,Net-(A1-Pad12)*%
X-62940000Y-29000000D03*
%TO.P,A1,13,D10*%
%TO.N,unconnected-(A1-Pad13)*%
X-65480000Y-29000000D03*
%TO.P,A1,14,D11*%
%TO.N,unconnected-(A1-Pad14)*%
X-68020000Y-29000000D03*
%TO.P,A1,15,D12*%
%TO.N,unconnected-(A1-Pad15)*%
X-70560000Y-29000000D03*
%TO.P,A1,16,D13*%
%TO.N,unconnected-(A1-Pad16)*%
X-70560000Y-13760000D03*
%TO.P,A1,17,3V3*%
%TO.N,unconnected-(A1-Pad17)*%
X-68020000Y-13760000D03*
%TO.P,A1,18,AREF*%
%TO.N,unconnected-(A1-Pad18)*%
X-65480000Y-13760000D03*
%TO.P,A1,19,A0*%
%TO.N,unconnected-(A1-Pad19)*%
X-62940000Y-13760000D03*
%TO.P,A1,20,A1*%
%TO.N,unconnected-(A1-Pad20)*%
X-60400000Y-13760000D03*
%TO.P,A1,21,A2*%
%TO.N,unconnected-(A1-Pad21)*%
X-57860000Y-13760000D03*
%TO.P,A1,22,A3*%
%TO.N,unconnected-(A1-Pad22)*%
X-55320000Y-13760000D03*
%TO.P,A1,23,A4*%
%TO.N,Net-(A1-Pad23)*%
X-52780000Y-13760000D03*
%TO.P,A1,24,A5*%
%TO.N,Net-(A1-Pad24)*%
X-50240000Y-13760000D03*
%TO.P,A1,25,A6*%
%TO.N,unconnected-(A1-Pad25)*%
X-47700000Y-13760000D03*
%TO.P,A1,26,A7*%
%TO.N,unconnected-(A1-Pad26)*%
X-45160000Y-13760000D03*
%TO.P,A1,27,+5V*%
%TO.N,Net-(A1-Pad27)*%
X-42620000Y-13760000D03*
%TO.P,A1,28,~{RESET}*%
%TO.N,unconnected-(A1-Pad28)*%
X-40080000Y-13760000D03*
%TO.P,A1,29,GND*%
%TO.N,GND*%
X-37540000Y-13760000D03*
%TO.P,A1,30,VIN*%
%TO.N,Net-(A1-Pad30)*%
X-35000000Y-13760000D03*
%TD*%
D20*
%TO.P,Q1,1,G*%
%TO.N,Net-(A1-Pad12)*%
X-24540000Y-29730000D03*
D21*
%TO.P,Q1,2,D*%
%TO.N,Net-(J1-LED1-Pad2)*%
X-22000000Y-29730000D03*
%TO.P,Q1,3,S*%
%TO.N,GND*%
X-19460000Y-29730000D03*
%TD*%
D22*
%TO.N,Net-(A1-Pad5)*%
X-45160000Y-38860000D02*
X-59550000Y-53250000D01*
X-66050000Y-53250000D02*
X-59550000Y-53250000D01*
X-45160000Y-29000000D02*
X-45160000Y-38860000D01*
%TO.N,Net-(A1-Pad6)*%
X-66050000Y-42750000D02*
X-59550000Y-42750000D01*
X-47700000Y-29000000D02*
X-47700000Y-30900000D01*
X-47700000Y-30900000D02*
X-59550000Y-42750000D01*
%TO.N,Net-(A1-Pad7)*%
X-20250000Y-53250000D02*
X-13750000Y-53250000D01*
X-48240000Y-27000000D02*
X-32500000Y-27000000D01*
X-32500000Y-27000000D02*
X-22000000Y-37500000D01*
X-22000000Y-37500000D02*
X-22000000Y-51500000D01*
X-50240000Y-29000000D02*
X-48240000Y-27000000D01*
X-22000000Y-51500000D02*
X-20250000Y-53250000D01*
%TO.N,Net-(A1-Pad12)*%
X-24540000Y-29730000D02*
X-29270000Y-25000000D01*
X-24540000Y-31960000D02*
X-23000000Y-33500000D01*
X-62940000Y-29000000D02*
X-58940000Y-25000000D01*
X-24540000Y-29730000D02*
X-24540000Y-31960000D01*
X-29270000Y-25000000D02*
X-58940000Y-25000000D01*
%TO.N,Net-(A1-Pad23)*%
X-53500000Y-11000000D02*
X-53500000Y-9000000D01*
X-52080000Y-7580000D02*
X-51500000Y-7580000D01*
X-53500000Y-9000000D02*
X-52080000Y-7580000D01*
X-52780000Y-11720000D02*
X-53500000Y-11000000D01*
X-52780000Y-13760000D02*
X-52780000Y-11720000D01*
%TO.N,Net-(A1-Pad24)*%
X-50240000Y-10760000D02*
X-50880000Y-10120000D01*
X-50240000Y-13760000D02*
X-50240000Y-10760000D01*
X-50880000Y-10120000D02*
X-51500000Y-10120000D01*
%TO.N,Net-(A1-Pad27)*%
X-42620000Y-11630000D02*
X-42620000Y-13760000D01*
X-51500000Y-5040000D02*
X-51000000Y-4540000D01*
X-51000000Y-4540000D02*
X-49710000Y-4540000D01*
X-49710000Y-4540000D02*
X-42620000Y-11630000D01*
D23*
%TO.N,Net-(A1-Pad30)*%
X-35000000Y-13760000D02*
X-30240000Y-9000000D01*
X-30240000Y-9000000D02*
X-5500000Y-9000000D01*
X-5500000Y-22000000D02*
X-5500000Y-21000000D01*
X-5500000Y-21000000D02*
X-2000000Y-17500000D01*
X-2000000Y-12500000D02*
X-5500000Y-9000000D01*
X-2000000Y-17500000D02*
X-2000000Y-12500000D01*
%TO.N,Net-(J1-LED1-Pad2)*%
X-22000000Y-28000000D02*
X-22000000Y-29730000D01*
X-8000000Y-14000000D02*
X-22000000Y-28000000D01*
X-5500000Y-14000000D02*
X-8000000Y-14000000D01*
%TD*%
%TA.AperFunction,Conductor*%
%TO.N,GND*%
G36*
X-3570944Y-528502D02*
G01*
X-3524451Y-582158D01*
X-3514347Y-652432D01*
X-3543841Y-717012D01*
X-3565002Y-736435D01*
X-3594192Y-757642D01*
X-3796252Y-952769D01*
X-3880361Y-1060424D01*
X-3958248Y-1160116D01*
X-3969188Y-1174118D01*
X-3971384Y-1177922D01*
X-3971389Y-1177929D01*
X-4085206Y-1375067D01*
X-4109636Y-1417381D01*
X-4214862Y-1677824D01*
X-4215927Y-1682097D01*
X-4215928Y-1682099D01*
X-4249621Y-1817236D01*
X-4282817Y-1950376D01*
X-4312178Y-2229733D01*
X-4312025Y-2234121D01*
X-4312025Y-2234127D01*
X-4311668Y-2244329D01*
X-4302375Y-2510458D01*
X-4301613Y-2514781D01*
X-4301612Y-2514788D01*
X-4277836Y-2649624D01*
X-4253598Y-2787087D01*
X-4166797Y-3054235D01*
X-4043660Y-3306702D01*
X-4041205Y-3310341D01*
X-4041202Y-3310347D01*
X-3984326Y-3394669D01*
X-3886585Y-3539576D01*
X-3883640Y-3542847D01*
X-3883639Y-3542848D01*
X-3878980Y-3548022D01*
X-3698629Y-3748322D01*
X-3695267Y-3751143D01*
X-3695266Y-3751144D01*
X-3641048Y-3796638D01*
X-3483450Y-3928879D01*
X-3245236Y-4077731D01*
X-3111516Y-4137267D01*
X-3019128Y-4178401D01*
X-2988625Y-4191982D01*
X-2718610Y-4269407D01*
X-2714260Y-4270018D01*
X-2714257Y-4270019D01*
X-2611310Y-4284487D01*
X-2440448Y-4308500D01*
X-2229854Y-4308500D01*
X-2227668Y-4308347D01*
X-2227664Y-4308347D01*
X-2024173Y-4294118D01*
X-2024168Y-4294117D01*
X-2019788Y-4293811D01*
X-1745030Y-4235409D01*
X-1740901Y-4233906D01*
X-1740897Y-4233905D01*
X-1485219Y-4140846D01*
X-1485215Y-4140844D01*
X-1481074Y-4139337D01*
X-1233058Y-4007464D01*
X-1229497Y-4004877D01*
X-1009371Y-3844947D01*
X-1009368Y-3844944D01*
X-1005808Y-3842358D01*
X-987724Y-3824895D01*
X-806913Y-3650287D01*
X-803748Y-3647231D01*
X-733789Y-3557687D01*
X-676089Y-3516322D01*
X-605184Y-3512719D01*
X-543586Y-3548022D01*
X-510853Y-3611022D01*
X-508500Y-3635261D01*
X-508500Y-11600116D01*
X-528502Y-11668237D01*
X-582158Y-11714730D01*
X-652432Y-11724834D01*
X-717012Y-11695340D01*
X-737458Y-11672750D01*
X-742639Y-11665406D01*
X-746301Y-11659914D01*
X-785471Y-11597714D01*
X-785472Y-11597713D01*
X-788167Y-11593433D01*
X-791508Y-11589644D01*
X-791512Y-11589638D01*
X-809898Y-11568783D01*
X-818344Y-11558088D01*
X-834991Y-11534490D01*
X-837274Y-11531253D01*
X-856909Y-11509750D01*
X-896625Y-11470034D01*
X-902044Y-11464264D01*
X-945350Y-11415142D01*
X-945353Y-11415139D01*
X-948698Y-11411345D01*
X-980989Y-11384821D01*
X-990108Y-11376551D01*
X-3654595Y-8712064D01*
X-3688621Y-8649752D01*
X-3691500Y-8622969D01*
X-3691500Y-7651866D01*
X-3698255Y-7589684D01*
X-3749385Y-7453295D01*
X-3836739Y-7336739D01*
X-3953295Y-7249385D01*
X-4089684Y-7198255D01*
X-4151866Y-7191500D01*
X-6848134Y-7191500D01*
X-6910316Y-7198255D01*
X-7046705Y-7249385D01*
X-7163261Y-7336739D01*
X-7168642Y-7343919D01*
X-7241449Y-7441065D01*
X-7298308Y-7483580D01*
X-7342275Y-7491500D01*
X-30215984Y-7491500D01*
X-30219502Y-7491451D01*
X-30314149Y-7488807D01*
X-30314152Y-7488807D01*
X-30319205Y-7488666D01*
X-30324218Y-7489335D01*
X-30324221Y-7489335D01*
X-30397089Y-7499057D01*
X-30403646Y-7499758D01*
X-30476920Y-7505654D01*
X-30476921Y-7505654D01*
X-30481965Y-7506060D01*
X-30486876Y-7507266D01*
X-30486881Y-7507267D01*
X-30513861Y-7513894D01*
X-30527250Y-7516424D01*
X-30539685Y-7518083D01*
X-30559820Y-7520770D01*
X-30635051Y-7543484D01*
X-30641396Y-7545220D01*
X-30717706Y-7563963D01*
X-30722358Y-7565938D01*
X-30722362Y-7565939D01*
X-30747948Y-7576800D01*
X-30760761Y-7581438D01*
X-30792208Y-7590932D01*
X-30862862Y-7625392D01*
X-30868796Y-7628097D01*
X-30941156Y-7658812D01*
X-30945436Y-7661507D01*
X-30945447Y-7661513D01*
X-30968953Y-7676316D01*
X-30980860Y-7682944D01*
X-30992913Y-7688823D01*
X-31010388Y-7697346D01*
X-31014517Y-7700259D01*
X-31074597Y-7742641D01*
X-31080086Y-7746301D01*
X-31142286Y-7785471D01*
X-31146567Y-7788167D01*
X-31150356Y-7791508D01*
X-31150362Y-7791512D01*
X-31171217Y-7809898D01*
X-31181912Y-7818344D01*
X-31208747Y-7837274D01*
X-31230250Y-7856909D01*
X-31269966Y-7896625D01*
X-31275736Y-7902044D01*
X-31324858Y-7945350D01*
X-31324861Y-7945353D01*
X-31328655Y-7948698D01*
X-31331865Y-7952606D01*
X-31331866Y-7952607D01*
X-31355179Y-7980989D01*
X-31363449Y-7990108D01*
X-36109805Y-12736464D01*
X-36111431Y-12738374D01*
X-36111437Y-12738381D01*
X-36224192Y-12870868D01*
X-36227470Y-12874720D01*
X-36230087Y-12879042D01*
X-36230089Y-12879044D01*
X-36283007Y-12966422D01*
X-36335405Y-13014328D01*
X-36405385Y-13026301D01*
X-36470728Y-12998540D01*
X-36493996Y-12973420D01*
X-36531024Y-12920538D01*
X-36538084Y-12912125D01*
X-36692125Y-12758084D01*
X-36700533Y-12751028D01*
X-36878993Y-12626069D01*
X-36888489Y-12620586D01*
X-37085947Y-12528510D01*
X-37096239Y-12524764D01*
X-37268503Y-12478606D01*
X-37282599Y-12478942D01*
X-37286000Y-12486884D01*
X-37286000Y-15027967D01*
X-37282027Y-15041498D01*
X-37273478Y-15042727D01*
X-37096239Y-14995236D01*
X-37085947Y-14991490D01*
X-36888489Y-14899414D01*
X-36878993Y-14893931D01*
X-36700533Y-14768972D01*
X-36692125Y-14761916D01*
X-36538084Y-14607875D01*
X-36531030Y-14599469D01*
X-36494306Y-14547021D01*
X-36438849Y-14502692D01*
X-36368229Y-14495383D01*
X-36304869Y-14527413D01*
X-36285660Y-14550298D01*
X-36195826Y-14687578D01*
X-36121152Y-14769357D01*
X-36035722Y-14862915D01*
X-36032142Y-14866836D01*
X-35987690Y-14902068D01*
X-35845871Y-15014473D01*
X-35845865Y-15014477D01*
X-35841902Y-15017618D01*
X-35630002Y-15136045D01*
X-35535251Y-15170532D01*
X-35406652Y-15217339D01*
X-35406647Y-15217340D01*
X-35401895Y-15219070D01*
X-35396926Y-15220018D01*
X-35396922Y-15220019D01*
X-35202900Y-15257030D01*
X-35163447Y-15264556D01*
X-35007949Y-15268900D01*
X-34925850Y-15271193D01*
X-34925847Y-15271193D01*
X-34920795Y-15271334D01*
X-34915782Y-15270665D01*
X-34915780Y-15270665D01*
X-34685194Y-15239898D01*
X-34680180Y-15239229D01*
X-34675339Y-15237767D01*
X-34675337Y-15237767D01*
X-34452643Y-15170532D01*
X-34452639Y-15170530D01*
X-34447792Y-15169067D01*
X-34229612Y-15062654D01*
X-34031253Y-14922726D01*
X-34009750Y-14903091D01*
X-32176659Y-13070000D01*
X-24263346Y-13070000D01*
X-24263076Y-13074119D01*
X-24247218Y-13316067D01*
X-24243983Y-13365426D01*
X-24243181Y-13369459D01*
X-24243180Y-13369465D01*
X-24207931Y-13546670D01*
X-24186224Y-13655797D01*
X-24184897Y-13659706D01*
X-24184896Y-13659710D01*
X-24141886Y-13786413D01*
X-24091059Y-13936145D01*
X-23960115Y-14201673D01*
X-23957821Y-14205106D01*
X-23815434Y-14418203D01*
X-23795633Y-14447838D01*
X-23792919Y-14450932D01*
X-23792915Y-14450938D01*
X-23648356Y-14615775D01*
X-23600427Y-14670427D01*
X-23597338Y-14673136D01*
X-23380938Y-14862915D01*
X-23380932Y-14862919D01*
X-23377838Y-14865633D01*
X-23374412Y-14867922D01*
X-23374407Y-14867926D01*
X-23190595Y-14990744D01*
X-23131673Y-15030115D01*
X-23127974Y-15031939D01*
X-23127969Y-15031942D01*
X-23000207Y-15094947D01*
X-22866145Y-15161059D01*
X-22862240Y-15162384D01*
X-22862239Y-15162385D01*
X-22589710Y-15254896D01*
X-22589706Y-15254897D01*
X-22585797Y-15256224D01*
X-22581753Y-15257028D01*
X-22581747Y-15257030D01*
X-22299465Y-15313180D01*
X-22299459Y-15313181D01*
X-22295426Y-15313983D01*
X-22291321Y-15314252D01*
X-22291314Y-15314253D01*
X-22004119Y-15333076D01*
X-22000000Y-15333346D01*
X-21995881Y-15333076D01*
X-21708686Y-15314253D01*
X-21708679Y-15314252D01*
X-21704574Y-15313983D01*
X-21700541Y-15313181D01*
X-21700535Y-15313180D01*
X-21418253Y-15257030D01*
X-21418247Y-15257028D01*
X-21414203Y-15256224D01*
X-21410294Y-15254897D01*
X-21410290Y-15254896D01*
X-21137761Y-15162385D01*
X-21137760Y-15162384D01*
X-21133855Y-15161059D01*
X-20999793Y-15094947D01*
X-20872031Y-15031942D01*
X-20872026Y-15031939D01*
X-20868327Y-15030115D01*
X-20809405Y-14990744D01*
X-20625593Y-14867926D01*
X-20625588Y-14867922D01*
X-20622162Y-14865633D01*
X-20619068Y-14862919D01*
X-20619062Y-14862915D01*
X-20402662Y-14673136D01*
X-20399573Y-14670427D01*
X-20351644Y-14615775D01*
X-20207085Y-14450938D01*
X-20207081Y-14450932D01*
X-20204367Y-14447838D01*
X-20184565Y-14418203D01*
X-20042179Y-14205106D01*
X-20039885Y-14201673D01*
X-19908941Y-13936145D01*
X-19858114Y-13786413D01*
X-19815104Y-13659710D01*
X-19815103Y-13659706D01*
X-19813776Y-13655797D01*
X-19792069Y-13546670D01*
X-19756820Y-13369465D01*
X-19756819Y-13369459D01*
X-19756017Y-13365426D01*
X-19752781Y-13316067D01*
X-19736924Y-13074119D01*
X-19736654Y-13070000D01*
X-19746450Y-12920533D01*
X-19755747Y-12778686D01*
X-19755748Y-12778679D01*
X-19756017Y-12774574D01*
X-19759373Y-12757699D01*
X-19812970Y-12488253D01*
X-19812972Y-12488247D01*
X-19813776Y-12484203D01*
X-19819316Y-12467881D01*
X-19907615Y-12207761D01*
X-19907616Y-12207760D01*
X-19908941Y-12203855D01*
X-19985192Y-12049233D01*
X-20038058Y-11942031D01*
X-20038061Y-11942026D01*
X-20039885Y-11938327D01*
X-20142218Y-11785174D01*
X-20202074Y-11695593D01*
X-20202078Y-11695588D01*
X-20204367Y-11692162D01*
X-20207081Y-11689068D01*
X-20207085Y-11689062D01*
X-20396864Y-11472662D01*
X-20399573Y-11469573D01*
X-20432119Y-11441031D01*
X-20619062Y-11277085D01*
X-20619068Y-11277081D01*
X-20622162Y-11274367D01*
X-20625588Y-11272078D01*
X-20625593Y-11272074D01*
X-20864894Y-11112179D01*
X-20868327Y-11109885D01*
X-20872026Y-11108061D01*
X-20872031Y-11108058D01*
X-21019785Y-11035194D01*
X-21133855Y-10978941D01*
X-21147742Y-10974227D01*
X-21410290Y-10885104D01*
X-21410294Y-10885103D01*
X-21414203Y-10883776D01*
X-21418247Y-10882972D01*
X-21418253Y-10882970D01*
X-21700535Y-10826820D01*
X-21700541Y-10826819D01*
X-21704574Y-10826017D01*
X-21708679Y-10825748D01*
X-21708686Y-10825747D01*
X-21995881Y-10806924D01*
X-22000000Y-10806654D01*
X-22004119Y-10806924D01*
X-22291314Y-10825747D01*
X-22291321Y-10825748D01*
X-22295426Y-10826017D01*
X-22299459Y-10826819D01*
X-22299465Y-10826820D01*
X-22581747Y-10882970D01*
X-22581753Y-10882972D01*
X-22585797Y-10883776D01*
X-22589706Y-10885103D01*
X-22589710Y-10885104D01*
X-22852258Y-10974227D01*
X-22866145Y-10978941D01*
X-22980215Y-11035194D01*
X-23127969Y-11108058D01*
X-23127974Y-11108061D01*
X-23131673Y-11109885D01*
X-23135106Y-11112179D01*
X-23374407Y-11272074D01*
X-23374412Y-11272078D01*
X-23377838Y-11274367D01*
X-23380932Y-11277081D01*
X-23380938Y-11277085D01*
X-23567881Y-11441031D01*
X-23600427Y-11469573D01*
X-23603136Y-11472662D01*
X-23792915Y-11689062D01*
X-23792919Y-11689068D01*
X-23795633Y-11692162D01*
X-23797922Y-11695588D01*
X-23797926Y-11695593D01*
X-23857782Y-11785174D01*
X-23960115Y-11938327D01*
X-23961939Y-11942026D01*
X-23961942Y-11942031D01*
X-24014808Y-12049233D01*
X-24091059Y-12203855D01*
X-24092384Y-12207760D01*
X-24092385Y-12207761D01*
X-24180683Y-12467881D01*
X-24186224Y-12484203D01*
X-24187028Y-12488247D01*
X-24187030Y-12488253D01*
X-24240626Y-12757699D01*
X-24243983Y-12774574D01*
X-24244252Y-12778679D01*
X-24244253Y-12778686D01*
X-24253550Y-12920533D01*
X-24263346Y-13070000D01*
X-32176659Y-13070000D01*
X-29652064Y-10545405D01*
X-29589752Y-10511379D01*
X-29562969Y-10508500D01*
X-7342275Y-10508500D01*
X-7274154Y-10528502D01*
X-7241449Y-10558935D01*
X-7163261Y-10663261D01*
X-7046705Y-10750615D01*
X-6910316Y-10801745D01*
X-6848134Y-10808500D01*
X-5877031Y-10808500D01*
X-5808910Y-10828502D01*
X-5787936Y-10845405D01*
X-4320548Y-12312793D01*
X-4286522Y-12375105D01*
X-4291587Y-12445920D01*
X-4334134Y-12502756D01*
X-4400654Y-12527567D01*
X-4470028Y-12512476D01*
X-4481463Y-12505415D01*
X-4575701Y-12440039D01*
X-4575704Y-12440037D01*
X-4579543Y-12437374D01*
X-4583736Y-12435306D01*
X-4816436Y-12320551D01*
X-4816439Y-12320550D01*
X-4820624Y-12318486D01*
X-4868255Y-12303239D01*
X-4922379Y-12285914D01*
X-5076630Y-12236538D01*
X-5081237Y-12235788D01*
X-5081240Y-12235787D01*
X-5337326Y-12194081D01*
X-5337325Y-12194081D01*
X-5341937Y-12193330D01*
X-5472281Y-12191624D01*
X-5606039Y-12189873D01*
X-5606042Y-12189873D01*
X-5610716Y-12189812D01*
X-5877063Y-12226060D01*
X-6135126Y-12301278D01*
X-6379237Y-12413815D01*
X-6459529Y-12466457D01*
X-6466263Y-12470872D01*
X-6535348Y-12491500D01*
X-7975984Y-12491500D01*
X-7979502Y-12491451D01*
X-8074150Y-12488807D01*
X-8074153Y-12488807D01*
X-8079205Y-12488666D01*
X-8157098Y-12499059D01*
X-8163639Y-12499758D01*
X-8192332Y-12502067D01*
X-8236923Y-12505654D01*
X-8236927Y-12505655D01*
X-8241965Y-12506060D01*
X-8273878Y-12513899D01*
X-8287258Y-12516426D01*
X-8319820Y-12520771D01*
X-8324661Y-12522232D01*
X-8324663Y-12522233D01*
X-8395029Y-12543478D01*
X-8401390Y-12545219D01*
X-8477706Y-12563963D01*
X-8482366Y-12565941D01*
X-8507951Y-12576801D01*
X-8520761Y-12581438D01*
X-8552208Y-12590933D01*
X-8556756Y-12593151D01*
X-8556763Y-12593154D01*
X-8622818Y-12625371D01*
X-8628820Y-12628107D01*
X-8673504Y-12647075D01*
X-8701156Y-12658812D01*
X-8725468Y-12674123D01*
X-8728956Y-12676319D01*
X-8740860Y-12682945D01*
X-8770388Y-12697346D01*
X-8774525Y-12700265D01*
X-8774526Y-12700265D01*
X-8834597Y-12742641D01*
X-8840086Y-12746301D01*
X-8902286Y-12785471D01*
X-8906567Y-12788167D01*
X-8910356Y-12791508D01*
X-8910362Y-12791512D01*
X-8931217Y-12809898D01*
X-8941912Y-12818344D01*
X-8968747Y-12837274D01*
X-8990250Y-12856909D01*
X-9029966Y-12896625D01*
X-9035736Y-12902044D01*
X-9084858Y-12945350D01*
X-9084861Y-12945353D01*
X-9088655Y-12948698D01*
X-9091865Y-12952606D01*
X-9091866Y-12952607D01*
X-9115179Y-12980989D01*
X-9123449Y-12990108D01*
X-23049666Y-26916325D01*
X-23052188Y-26918779D01*
X-23124681Y-26987332D01*
X-23127748Y-26991344D01*
X-23172408Y-27049757D01*
X-23176552Y-27054892D01*
X-23227470Y-27114720D01*
X-23230089Y-27119045D01*
X-23230093Y-27119050D01*
X-23244491Y-27142824D01*
X-23252163Y-27154071D01*
X-23272120Y-27180174D01*
X-23274510Y-27184632D01*
X-23274511Y-27184633D01*
X-23309239Y-27249401D01*
X-23312504Y-27255126D01*
X-23353221Y-27322358D01*
X-23355116Y-27327049D01*
X-23365527Y-27352817D01*
X-23371307Y-27365158D01*
X-23386831Y-27394109D01*
X-23388477Y-27398890D01*
X-23388479Y-27398894D01*
X-23412412Y-27468401D01*
X-23414722Y-27474579D01*
X-23444155Y-27547429D01*
X-23445277Y-27552368D01*
X-23451432Y-27579460D01*
X-23455163Y-27592559D01*
X-23465862Y-27623631D01*
X-23479243Y-27701100D01*
X-23480523Y-27707504D01*
X-23497935Y-27784144D01*
X-23499999Y-27816953D01*
X-23501585Y-27830453D01*
X-23507179Y-27862836D01*
X-23508500Y-27891925D01*
X-23508500Y-27948108D01*
X-23508749Y-27956019D01*
X-23513178Y-28026413D01*
X-23512684Y-28031448D01*
X-23509101Y-28067992D01*
X-23508500Y-28080288D01*
X-23508500Y-28095500D01*
X-23528502Y-28163621D01*
X-23582158Y-28210114D01*
X-23634500Y-28221500D01*
X-24958984Y-28221500D01*
X-25027105Y-28201498D01*
X-25048079Y-28184595D01*
X-28705252Y-24527423D01*
X-28717639Y-24513010D01*
X-28725559Y-24502248D01*
X-28729900Y-24496349D01*
X-28768720Y-24463369D01*
X-28776236Y-24456439D01*
X-28781620Y-24451055D01*
X-28784481Y-24448792D01*
X-28784486Y-24448787D01*
X-28803092Y-24434067D01*
X-28806493Y-24431278D01*
X-28854668Y-24390351D01*
X-28854669Y-24390350D01*
X-28860251Y-24385608D01*
X-28866774Y-24382277D01*
X-28871451Y-24379158D01*
X-28876205Y-24376222D01*
X-28881943Y-24371682D01*
X-28945853Y-24341811D01*
X-28949761Y-24339901D01*
X-29012582Y-24307824D01*
X-29019694Y-24306084D01*
X-29024980Y-24304118D01*
X-29030265Y-24302360D01*
X-29036895Y-24299261D01*
X-29105968Y-24284894D01*
X-29110252Y-24283924D01*
X-29178721Y-24267170D01*
X-29184323Y-24266822D01*
X-29184326Y-24266822D01*
X-29189520Y-24266500D01*
X-29189519Y-24266476D01*
X-29193934Y-24266212D01*
X-29197184Y-24265922D01*
X-29204352Y-24264431D01*
X-29265484Y-24266085D01*
X-29279123Y-24266454D01*
X-29282531Y-24266500D01*
X-58874834Y-24266500D01*
X-58893784Y-24265067D01*
X-58906993Y-24263057D01*
X-58906997Y-24263057D01*
X-58914227Y-24261957D01*
X-58921519Y-24262550D01*
X-58921523Y-24262550D01*
X-58964981Y-24266085D01*
X-58975195Y-24266500D01*
X-58982826Y-24266500D01*
X-58986460Y-24266924D01*
X-58986466Y-24266924D01*
X-58998961Y-24268381D01*
X-59010058Y-24269675D01*
X-59014406Y-24270105D01*
X-59084705Y-24275823D01*
X-59091669Y-24278079D01*
X-59097165Y-24279177D01*
X-59102618Y-24280466D01*
X-59109890Y-24281314D01*
X-59176202Y-24305384D01*
X-59180333Y-24306802D01*
X-59193763Y-24311153D01*
X-59240462Y-24326281D01*
X-59240466Y-24326283D01*
X-59247421Y-24328536D01*
X-59253671Y-24332328D01*
X-59258788Y-24334671D01*
X-59263795Y-24337178D01*
X-59270667Y-24339673D01*
X-59276780Y-24343681D01*
X-59276784Y-24343683D01*
X-59329663Y-24378353D01*
X-59333384Y-24380700D01*
X-59393645Y-24417267D01*
X-59401755Y-24424429D01*
X-59401770Y-24424412D01*
X-59405080Y-24427346D01*
X-59407587Y-24429442D01*
X-59413706Y-24433454D01*
X-59418738Y-24438766D01*
X-59465166Y-24487776D01*
X-59467544Y-24490218D01*
X-62644498Y-27667173D01*
X-62706810Y-27701199D01*
X-62744574Y-27703599D01*
X-62934524Y-27686981D01*
X-62934525Y-27686981D01*
X-62940000Y-27686502D01*
X-63168087Y-27706457D01*
X-63173400Y-27707881D01*
X-63173402Y-27707881D01*
X-63383933Y-27764293D01*
X-63383935Y-27764294D01*
X-63389243Y-27765716D01*
X-63394224Y-27768039D01*
X-63394225Y-27768039D01*
X-63591762Y-27860151D01*
X-63591767Y-27860154D01*
X-63596749Y-27862477D01*
X-63636778Y-27890506D01*
X-63779789Y-27990643D01*
X-63779792Y-27990645D01*
X-63784300Y-27993802D01*
X-63946198Y-28155700D01*
X-63949355Y-28160208D01*
X-63949357Y-28160211D01*
X-63951988Y-28163969D01*
X-64077523Y-28343251D01*
X-64079846Y-28348233D01*
X-64079849Y-28348238D01*
X-64095805Y-28382457D01*
X-64142722Y-28435742D01*
X-64210999Y-28455203D01*
X-64278959Y-28434661D01*
X-64324195Y-28382457D01*
X-64340151Y-28348238D01*
X-64340154Y-28348233D01*
X-64342477Y-28343251D01*
X-64468012Y-28163969D01*
X-64470643Y-28160211D01*
X-64470645Y-28160208D01*
X-64473802Y-28155700D01*
X-64635700Y-27993802D01*
X-64640208Y-27990645D01*
X-64640211Y-27990643D01*
X-64783222Y-27890506D01*
X-64823251Y-27862477D01*
X-64828233Y-27860154D01*
X-64828238Y-27860151D01*
X-65025775Y-27768039D01*
X-65025776Y-27768039D01*
X-65030757Y-27765716D01*
X-65036065Y-27764294D01*
X-65036067Y-27764293D01*
X-65246598Y-27707881D01*
X-65246600Y-27707881D01*
X-65251913Y-27706457D01*
X-65480000Y-27686502D01*
X-65708087Y-27706457D01*
X-65713400Y-27707881D01*
X-65713402Y-27707881D01*
X-65923933Y-27764293D01*
X-65923935Y-27764294D01*
X-65929243Y-27765716D01*
X-65934224Y-27768039D01*
X-65934225Y-27768039D01*
X-66131762Y-27860151D01*
X-66131767Y-27860154D01*
X-66136749Y-27862477D01*
X-66176778Y-27890506D01*
X-66319789Y-27990643D01*
X-66319792Y-27990645D01*
X-66324300Y-27993802D01*
X-66486198Y-28155700D01*
X-66489355Y-28160208D01*
X-66489357Y-28160211D01*
X-66491988Y-28163969D01*
X-66617523Y-28343251D01*
X-66619846Y-28348233D01*
X-66619849Y-28348238D01*
X-66635805Y-28382457D01*
X-66682722Y-28435742D01*
X-66750999Y-28455203D01*
X-66818959Y-28434661D01*
X-66864195Y-28382457D01*
X-66880151Y-28348238D01*
X-66880154Y-28348233D01*
X-66882477Y-28343251D01*
X-67008012Y-28163969D01*
X-67010643Y-28160211D01*
X-67010645Y-28160208D01*
X-67013802Y-28155700D01*
X-67175700Y-27993802D01*
X-67180208Y-27990645D01*
X-67180211Y-27990643D01*
X-67323222Y-27890506D01*
X-67363251Y-27862477D01*
X-67368233Y-27860154D01*
X-67368238Y-27860151D01*
X-67565775Y-27768039D01*
X-67565776Y-27768039D01*
X-67570757Y-27765716D01*
X-67576065Y-27764294D01*
X-67576067Y-27764293D01*
X-67786598Y-27707881D01*
X-67786600Y-27707881D01*
X-67791913Y-27706457D01*
X-68020000Y-27686502D01*
X-68248087Y-27706457D01*
X-68253400Y-27707881D01*
X-68253402Y-27707881D01*
X-68463933Y-27764293D01*
X-68463935Y-27764294D01*
X-68469243Y-27765716D01*
X-68474224Y-27768039D01*
X-68474225Y-27768039D01*
X-68671762Y-27860151D01*
X-68671767Y-27860154D01*
X-68676749Y-27862477D01*
X-68716778Y-27890506D01*
X-68859789Y-27990643D01*
X-68859792Y-27990645D01*
X-68864300Y-27993802D01*
X-69026198Y-28155700D01*
X-69029355Y-28160208D01*
X-69029357Y-28160211D01*
X-69031988Y-28163969D01*
X-69157523Y-28343251D01*
X-69159846Y-28348233D01*
X-69159849Y-28348238D01*
X-69175805Y-28382457D01*
X-69222722Y-28435742D01*
X-69290999Y-28455203D01*
X-69358959Y-28434661D01*
X-69404195Y-28382457D01*
X-69420151Y-28348238D01*
X-69420154Y-28348233D01*
X-69422477Y-28343251D01*
X-69548012Y-28163969D01*
X-69550643Y-28160211D01*
X-69550645Y-28160208D01*
X-69553802Y-28155700D01*
X-69715700Y-27993802D01*
X-69720208Y-27990645D01*
X-69720211Y-27990643D01*
X-69863222Y-27890506D01*
X-69903251Y-27862477D01*
X-69908233Y-27860154D01*
X-69908238Y-27860151D01*
X-70105775Y-27768039D01*
X-70105776Y-27768039D01*
X-70110757Y-27765716D01*
X-70116065Y-27764294D01*
X-70116067Y-27764293D01*
X-70326598Y-27707881D01*
X-70326600Y-27707881D01*
X-70331913Y-27706457D01*
X-70560000Y-27686502D01*
X-70788087Y-27706457D01*
X-70793400Y-27707881D01*
X-70793402Y-27707881D01*
X-71003933Y-27764293D01*
X-71003935Y-27764294D01*
X-71009243Y-27765716D01*
X-71014224Y-27768039D01*
X-71014225Y-27768039D01*
X-71211762Y-27860151D01*
X-71211767Y-27860154D01*
X-71216749Y-27862477D01*
X-71256778Y-27890506D01*
X-71399789Y-27990643D01*
X-71399792Y-27990645D01*
X-71404300Y-27993802D01*
X-71566198Y-28155700D01*
X-71569355Y-28160208D01*
X-71569357Y-28160211D01*
X-71571988Y-28163969D01*
X-71697523Y-28343251D01*
X-71699846Y-28348233D01*
X-71699849Y-28348238D01*
X-71754321Y-28465055D01*
X-71794284Y-28550757D01*
X-71795706Y-28556065D01*
X-71795707Y-28556067D01*
X-71851959Y-28766002D01*
X-71853543Y-28771913D01*
X-71873498Y-29000000D01*
X-71853543Y-29228087D01*
X-71794284Y-29449243D01*
X-71791961Y-29454224D01*
X-71791961Y-29454225D01*
X-71699849Y-29651762D01*
X-71699846Y-29651767D01*
X-71697523Y-29656749D01*
X-71566198Y-29844300D01*
X-71404300Y-30006198D01*
X-71399792Y-30009355D01*
X-71399789Y-30009357D01*
X-71358458Y-30038297D01*
X-71216749Y-30137523D01*
X-71211767Y-30139846D01*
X-71211762Y-30139849D01*
X-71015235Y-30231490D01*
X-71009243Y-30234284D01*
X-71003935Y-30235706D01*
X-71003933Y-30235707D01*
X-70793402Y-30292119D01*
X-70793400Y-30292119D01*
X-70788087Y-30293543D01*
X-70560000Y-30313498D01*
X-70331913Y-30293543D01*
X-70326600Y-30292119D01*
X-70326598Y-30292119D01*
X-70116067Y-30235707D01*
X-70116065Y-30235706D01*
X-70110757Y-30234284D01*
X-70104765Y-30231490D01*
X-69908238Y-30139849D01*
X-69908233Y-30139846D01*
X-69903251Y-30137523D01*
X-69761542Y-30038297D01*
X-69720211Y-30009357D01*
X-69720208Y-30009355D01*
X-69715700Y-30006198D01*
X-69553802Y-29844300D01*
X-69422477Y-29656749D01*
X-69420154Y-29651767D01*
X-69420151Y-29651762D01*
X-69404195Y-29617543D01*
X-69357278Y-29564258D01*
X-69289001Y-29544797D01*
X-69221041Y-29565339D01*
X-69175805Y-29617543D01*
X-69159849Y-29651762D01*
X-69159846Y-29651767D01*
X-69157523Y-29656749D01*
X-69026198Y-29844300D01*
X-68864300Y-30006198D01*
X-68859792Y-30009355D01*
X-68859789Y-30009357D01*
X-68818458Y-30038297D01*
X-68676749Y-30137523D01*
X-68671767Y-30139846D01*
X-68671762Y-30139849D01*
X-68475235Y-30231490D01*
X-68469243Y-30234284D01*
X-68463935Y-30235706D01*
X-68463933Y-30235707D01*
X-68253402Y-30292119D01*
X-68253400Y-30292119D01*
X-68248087Y-30293543D01*
X-68020000Y-30313498D01*
X-67791913Y-30293543D01*
X-67786600Y-30292119D01*
X-67786598Y-30292119D01*
X-67576067Y-30235707D01*
X-67576065Y-30235706D01*
X-67570757Y-30234284D01*
X-67564765Y-30231490D01*
X-67368238Y-30139849D01*
X-67368233Y-30139846D01*
X-67363251Y-30137523D01*
X-67221542Y-30038297D01*
X-67180211Y-30009357D01*
X-67180208Y-30009355D01*
X-67175700Y-30006198D01*
X-67013802Y-29844300D01*
X-66882477Y-29656749D01*
X-66880154Y-29651767D01*
X-66880151Y-29651762D01*
X-66864195Y-29617543D01*
X-66817278Y-29564258D01*
X-66749001Y-29544797D01*
X-66681041Y-29565339D01*
X-66635805Y-29617543D01*
X-66619849Y-29651762D01*
X-66619846Y-29651767D01*
X-66617523Y-29656749D01*
X-66486198Y-29844300D01*
X-66324300Y-30006198D01*
X-66319792Y-30009355D01*
X-66319789Y-30009357D01*
X-66278458Y-30038297D01*
X-66136749Y-30137523D01*
X-66131767Y-30139846D01*
X-66131762Y-30139849D01*
X-65935235Y-30231490D01*
X-65929243Y-30234284D01*
X-65923935Y-30235706D01*
X-65923933Y-30235707D01*
X-65713402Y-30292119D01*
X-65713400Y-30292119D01*
X-65708087Y-30293543D01*
X-65480000Y-30313498D01*
X-65251913Y-30293543D01*
X-65246600Y-30292119D01*
X-65246598Y-30292119D01*
X-65036067Y-30235707D01*
X-65036065Y-30235706D01*
X-65030757Y-30234284D01*
X-65024765Y-30231490D01*
X-64828238Y-30139849D01*
X-64828233Y-30139846D01*
X-64823251Y-30137523D01*
X-64681542Y-30038297D01*
X-64640211Y-30009357D01*
X-64640208Y-30009355D01*
X-64635700Y-30006198D01*
X-64473802Y-29844300D01*
X-64342477Y-29656749D01*
X-64340154Y-29651767D01*
X-64340151Y-29651762D01*
X-64324195Y-29617543D01*
X-64277278Y-29564258D01*
X-64209001Y-29544797D01*
X-64141041Y-29565339D01*
X-64095805Y-29617543D01*
X-64079849Y-29651762D01*
X-64079846Y-29651767D01*
X-64077523Y-29656749D01*
X-63946198Y-29844300D01*
X-63784300Y-30006198D01*
X-63779792Y-30009355D01*
X-63779789Y-30009357D01*
X-63738458Y-30038297D01*
X-63596749Y-30137523D01*
X-63591767Y-30139846D01*
X-63591762Y-30139849D01*
X-63395235Y-30231490D01*
X-63389243Y-30234284D01*
X-63383935Y-30235706D01*
X-63383933Y-30235707D01*
X-63173402Y-30292119D01*
X-63173400Y-30292119D01*
X-63168087Y-30293543D01*
X-62940000Y-30313498D01*
X-62711913Y-30293543D01*
X-62706600Y-30292119D01*
X-62706598Y-30292119D01*
X-62496067Y-30235707D01*
X-62496065Y-30235706D01*
X-62490757Y-30234284D01*
X-62484765Y-30231490D01*
X-62288238Y-30139849D01*
X-62288233Y-30139846D01*
X-62283251Y-30137523D01*
X-62141542Y-30038297D01*
X-62100211Y-30009357D01*
X-62100208Y-30009355D01*
X-62095700Y-30006198D01*
X-61933802Y-29844300D01*
X-61802477Y-29656749D01*
X-61800154Y-29651767D01*
X-61800151Y-29651762D01*
X-61784195Y-29617543D01*
X-61737278Y-29564258D01*
X-61669001Y-29544797D01*
X-61601041Y-29565339D01*
X-61555805Y-29617543D01*
X-61539849Y-29651762D01*
X-61539846Y-29651767D01*
X-61537523Y-29656749D01*
X-61406198Y-29844300D01*
X-61244300Y-30006198D01*
X-61239792Y-30009355D01*
X-61239789Y-30009357D01*
X-61198458Y-30038297D01*
X-61056749Y-30137523D01*
X-61051767Y-30139846D01*
X-61051762Y-30139849D01*
X-60855235Y-30231490D01*
X-60849243Y-30234284D01*
X-60843935Y-30235706D01*
X-60843933Y-30235707D01*
X-60633402Y-30292119D01*
X-60633400Y-30292119D01*
X-60628087Y-30293543D01*
X-60400000Y-30313498D01*
X-60171913Y-30293543D01*
X-60166600Y-30292119D01*
X-60166598Y-30292119D01*
X-59956067Y-30235707D01*
X-59956065Y-30235706D01*
X-59950757Y-30234284D01*
X-59944765Y-30231490D01*
X-59748238Y-30139849D01*
X-59748233Y-30139846D01*
X-59743251Y-30137523D01*
X-59601542Y-30038297D01*
X-59560211Y-30009357D01*
X-59560208Y-30009355D01*
X-59555700Y-30006198D01*
X-59393802Y-29844300D01*
X-59262477Y-29656749D01*
X-59260154Y-29651767D01*
X-59260151Y-29651762D01*
X-59244195Y-29617543D01*
X-59197278Y-29564258D01*
X-59129001Y-29544797D01*
X-59061041Y-29565339D01*
X-59015805Y-29617543D01*
X-58999849Y-29651762D01*
X-58999846Y-29651767D01*
X-58997523Y-29656749D01*
X-58866198Y-29844300D01*
X-58704300Y-30006198D01*
X-58699792Y-30009355D01*
X-58699789Y-30009357D01*
X-58658458Y-30038297D01*
X-58516749Y-30137523D01*
X-58511767Y-30139846D01*
X-58511762Y-30139849D01*
X-58315235Y-30231490D01*
X-58309243Y-30234284D01*
X-58303935Y-30235706D01*
X-58303933Y-30235707D01*
X-58093402Y-30292119D01*
X-58093400Y-30292119D01*
X-58088087Y-30293543D01*
X-57860000Y-30313498D01*
X-57631913Y-30293543D01*
X-57626600Y-30292119D01*
X-57626598Y-30292119D01*
X-57416067Y-30235707D01*
X-57416065Y-30235706D01*
X-57410757Y-30234284D01*
X-57404765Y-30231490D01*
X-57208238Y-30139849D01*
X-57208233Y-30139846D01*
X-57203251Y-30137523D01*
X-57061542Y-30038297D01*
X-57020211Y-30009357D01*
X-57020208Y-30009355D01*
X-57015700Y-30006198D01*
X-56853802Y-29844300D01*
X-56722477Y-29656749D01*
X-56720154Y-29651767D01*
X-56720151Y-29651762D01*
X-56704195Y-29617543D01*
X-56657278Y-29564258D01*
X-56589001Y-29544797D01*
X-56521041Y-29565339D01*
X-56475805Y-29617543D01*
X-56459849Y-29651762D01*
X-56459846Y-29651767D01*
X-56457523Y-29656749D01*
X-56326198Y-29844300D01*
X-56164300Y-30006198D01*
X-56159792Y-30009355D01*
X-56159789Y-30009357D01*
X-56118458Y-30038297D01*
X-55976749Y-30137523D01*
X-55971767Y-30139846D01*
X-55971762Y-30139849D01*
X-55775235Y-30231490D01*
X-55769243Y-30234284D01*
X-55763935Y-30235706D01*
X-55763933Y-30235707D01*
X-55553402Y-30292119D01*
X-55553400Y-30292119D01*
X-55548087Y-30293543D01*
X-55320000Y-30313498D01*
X-55091913Y-30293543D01*
X-55086600Y-30292119D01*
X-55086598Y-30292119D01*
X-54876067Y-30235707D01*
X-54876065Y-30235706D01*
X-54870757Y-30234284D01*
X-54864765Y-30231490D01*
X-54668238Y-30139849D01*
X-54668233Y-30139846D01*
X-54663251Y-30137523D01*
X-54521542Y-30038297D01*
X-54480211Y-30009357D01*
X-54480208Y-30009355D01*
X-54475700Y-30006198D01*
X-54313802Y-29844300D01*
X-54182477Y-29656749D01*
X-54180154Y-29651767D01*
X-54180151Y-29651762D01*
X-54164195Y-29617543D01*
X-54117278Y-29564258D01*
X-54049001Y-29544797D01*
X-53981041Y-29565339D01*
X-53935805Y-29617543D01*
X-53919849Y-29651762D01*
X-53919846Y-29651767D01*
X-53917523Y-29656749D01*
X-53786198Y-29844300D01*
X-53624300Y-30006198D01*
X-53619792Y-30009355D01*
X-53619789Y-30009357D01*
X-53578458Y-30038297D01*
X-53436749Y-30137523D01*
X-53431767Y-30139846D01*
X-53431762Y-30139849D01*
X-53235235Y-30231490D01*
X-53229243Y-30234284D01*
X-53223935Y-30235706D01*
X-53223933Y-30235707D01*
X-53013402Y-30292119D01*
X-53013400Y-30292119D01*
X-53008087Y-30293543D01*
X-52780000Y-30313498D01*
X-52551913Y-30293543D01*
X-52546600Y-30292119D01*
X-52546598Y-30292119D01*
X-52336067Y-30235707D01*
X-52336065Y-30235706D01*
X-52330757Y-30234284D01*
X-52324765Y-30231490D01*
X-52128238Y-30139849D01*
X-52128233Y-30139846D01*
X-52123251Y-30137523D01*
X-51981542Y-30038297D01*
X-51940211Y-30009357D01*
X-51940208Y-30009355D01*
X-51935700Y-30006198D01*
X-51773802Y-29844300D01*
X-51642477Y-29656749D01*
X-51640154Y-29651767D01*
X-51640151Y-29651762D01*
X-51624195Y-29617543D01*
X-51577278Y-29564258D01*
X-51509001Y-29544797D01*
X-51441041Y-29565339D01*
X-51395805Y-29617543D01*
X-51379849Y-29651762D01*
X-51379846Y-29651767D01*
X-51377523Y-29656749D01*
X-51246198Y-29844300D01*
X-51084300Y-30006198D01*
X-51079792Y-30009355D01*
X-51079789Y-30009357D01*
X-51038458Y-30038297D01*
X-50896749Y-30137523D01*
X-50891767Y-30139846D01*
X-50891762Y-30139849D01*
X-50695235Y-30231490D01*
X-50689243Y-30234284D01*
X-50683935Y-30235706D01*
X-50683933Y-30235707D01*
X-50473402Y-30292119D01*
X-50473400Y-30292119D01*
X-50468087Y-30293543D01*
X-50240000Y-30313498D01*
X-50011913Y-30293543D01*
X-50006600Y-30292119D01*
X-50006598Y-30292119D01*
X-49796067Y-30235707D01*
X-49796065Y-30235706D01*
X-49790757Y-30234284D01*
X-49784765Y-30231490D01*
X-49588238Y-30139849D01*
X-49588233Y-30139846D01*
X-49583251Y-30137523D01*
X-49441542Y-30038297D01*
X-49400211Y-30009357D01*
X-49400208Y-30009355D01*
X-49395700Y-30006198D01*
X-49233802Y-29844300D01*
X-49102477Y-29656749D01*
X-49100154Y-29651767D01*
X-49100151Y-29651762D01*
X-49084195Y-29617543D01*
X-49037278Y-29564258D01*
X-48969001Y-29544797D01*
X-48901041Y-29565339D01*
X-48855805Y-29617543D01*
X-48839849Y-29651762D01*
X-48839846Y-29651767D01*
X-48837523Y-29656749D01*
X-48706198Y-29844300D01*
X-48544300Y-30006198D01*
X-48539792Y-30009355D01*
X-48539789Y-30009357D01*
X-48487229Y-30046160D01*
X-48442901Y-30101618D01*
X-48433500Y-30149373D01*
X-48433500Y-30543984D01*
X-48453502Y-30612105D01*
X-48470405Y-30633079D01*
X-59085583Y-41248257D01*
X-59147895Y-41282283D01*
X-59204090Y-41281681D01*
X-59248957Y-41270910D01*
X-59308476Y-41256620D01*
X-59308482Y-41256619D01*
X-59313289Y-41255465D01*
X-59550000Y-41236835D01*
X-59786711Y-41255465D01*
X-59791518Y-41256619D01*
X-59791524Y-41256620D01*
X-59937391Y-41291640D01*
X-60017594Y-41310895D01*
X-60022165Y-41312788D01*
X-60022167Y-41312789D01*
X-60232389Y-41399865D01*
X-60232393Y-41399867D01*
X-60236963Y-41401760D01*
X-60241183Y-41404346D01*
X-60435202Y-41523241D01*
X-60435208Y-41523245D01*
X-60439416Y-41525824D01*
X-60619969Y-41680031D01*
X-60774176Y-41860584D01*
X-60776763Y-41864806D01*
X-60832853Y-41956335D01*
X-60885500Y-42003967D01*
X-60940285Y-42016500D01*
X-64659715Y-42016500D01*
X-64727836Y-41996498D01*
X-64767147Y-41956335D01*
X-64823237Y-41864806D01*
X-64825824Y-41860584D01*
X-64980031Y-41680031D01*
X-65160584Y-41525824D01*
X-65164792Y-41523245D01*
X-65164798Y-41523241D01*
X-65358817Y-41404346D01*
X-65363037Y-41401760D01*
X-65367607Y-41399867D01*
X-65367611Y-41399865D01*
X-65577833Y-41312789D01*
X-65577835Y-41312788D01*
X-65582406Y-41310895D01*
X-65662609Y-41291640D01*
X-65808476Y-41256620D01*
X-65808482Y-41256619D01*
X-65813289Y-41255465D01*
X-66050000Y-41236835D01*
X-66286711Y-41255465D01*
X-66291518Y-41256619D01*
X-66291524Y-41256620D01*
X-66437391Y-41291640D01*
X-66517594Y-41310895D01*
X-66522165Y-41312788D01*
X-66522167Y-41312789D01*
X-66732389Y-41399865D01*
X-66732393Y-41399867D01*
X-66736963Y-41401760D01*
X-66741183Y-41404346D01*
X-66935202Y-41523241D01*
X-66935208Y-41523245D01*
X-66939416Y-41525824D01*
X-67119969Y-41680031D01*
X-67274176Y-41860584D01*
X-67276755Y-41864792D01*
X-67276759Y-41864798D01*
X-67332853Y-41956335D01*
X-67398240Y-42063037D01*
X-67489105Y-42282406D01*
X-67544535Y-42513289D01*
X-67563165Y-42750000D01*
X-67544535Y-42986711D01*
X-67489105Y-43217594D01*
X-67398240Y-43436963D01*
X-67395654Y-43441183D01*
X-67276759Y-43635202D01*
X-67276755Y-43635208D01*
X-67274176Y-43639416D01*
X-67119969Y-43819969D01*
X-66939416Y-43974176D01*
X-66935208Y-43976755D01*
X-66935202Y-43976759D01*
X-66741183Y-44095654D01*
X-66736963Y-44098240D01*
X-66732393Y-44100133D01*
X-66732389Y-44100135D01*
X-66522167Y-44187211D01*
X-66517594Y-44189105D01*
X-66437391Y-44208360D01*
X-66291524Y-44243380D01*
X-66291518Y-44243381D01*
X-66286711Y-44244535D01*
X-66050000Y-44263165D01*
X-65813289Y-44244535D01*
X-65808482Y-44243381D01*
X-65808476Y-44243380D01*
X-65662609Y-44208360D01*
X-65582406Y-44189105D01*
X-65577833Y-44187211D01*
X-65367611Y-44100135D01*
X-65367607Y-44100133D01*
X-65363037Y-44098240D01*
X-65358817Y-44095654D01*
X-65164798Y-43976759D01*
X-65164792Y-43976755D01*
X-65160584Y-43974176D01*
X-64980031Y-43819969D01*
X-64825824Y-43639416D01*
X-64767147Y-43543665D01*
X-64714500Y-43496033D01*
X-64659715Y-43483500D01*
X-60940285Y-43483500D01*
X-60872164Y-43503502D01*
X-60832853Y-43543665D01*
X-60774176Y-43639416D01*
X-60619969Y-43819969D01*
X-60439416Y-43974176D01*
X-60435208Y-43976755D01*
X-60435202Y-43976759D01*
X-60241183Y-44095654D01*
X-60236963Y-44098240D01*
X-60232393Y-44100133D01*
X-60232389Y-44100135D01*
X-60022167Y-44187211D01*
X-60017594Y-44189105D01*
X-59937391Y-44208360D01*
X-59791524Y-44243380D01*
X-59791518Y-44243381D01*
X-59786711Y-44244535D01*
X-59550000Y-44263165D01*
X-59313289Y-44244535D01*
X-59308482Y-44243381D01*
X-59308476Y-44243380D01*
X-59162609Y-44208360D01*
X-59082406Y-44189105D01*
X-59077833Y-44187211D01*
X-58867611Y-44100135D01*
X-58867607Y-44100133D01*
X-58863037Y-44098240D01*
X-58858817Y-44095654D01*
X-58664798Y-43976759D01*
X-58664792Y-43976755D01*
X-58660584Y-43974176D01*
X-58480031Y-43819969D01*
X-58325824Y-43639416D01*
X-58323245Y-43635208D01*
X-58323241Y-43635202D01*
X-58204346Y-43441183D01*
X-58201760Y-43436963D01*
X-58110895Y-43217594D01*
X-58055465Y-42986711D01*
X-58036835Y-42750000D01*
X-58055465Y-42513289D01*
X-58081681Y-42404091D01*
X-58078134Y-42333184D01*
X-58048257Y-42285583D01*
X-47227419Y-31464745D01*
X-47213006Y-31452358D01*
X-47202248Y-31444441D01*
X-47196349Y-31440100D01*
X-47163375Y-31401287D01*
X-47156445Y-31393771D01*
X-47151054Y-31388380D01*
X-47134041Y-31366876D01*
X-47131264Y-31363490D01*
X-47090351Y-31315333D01*
X-47090347Y-31315328D01*
X-47085608Y-31309749D01*
X-47082278Y-31303227D01*
X-47079158Y-31298549D01*
X-47076222Y-31293795D01*
X-47071682Y-31288057D01*
X-47045343Y-31231704D01*
X-47041811Y-31224146D01*
X-47039901Y-31220239D01*
X-47007824Y-31157418D01*
X-47006084Y-31150306D01*
X-47004118Y-31145020D01*
X-47002360Y-31139735D01*
X-46999261Y-31133105D01*
X-46984894Y-31064032D01*
X-46983924Y-31059748D01*
X-46968505Y-30996733D01*
X-46967170Y-30991279D01*
X-46966711Y-30983891D01*
X-46966500Y-30980480D01*
X-46966476Y-30980481D01*
X-46966212Y-30976065D01*
X-46965922Y-30972816D01*
X-46964431Y-30965648D01*
X-46966454Y-30890860D01*
X-46966500Y-30887454D01*
X-46966500Y-30149373D01*
X-46946498Y-30081252D01*
X-46912771Y-30046160D01*
X-46860211Y-30009357D01*
X-46860208Y-30009355D01*
X-46855700Y-30006198D01*
X-46693802Y-29844300D01*
X-46562477Y-29656749D01*
X-46560154Y-29651767D01*
X-46560151Y-29651762D01*
X-46544195Y-29617543D01*
X-46497278Y-29564258D01*
X-46429001Y-29544797D01*
X-46361041Y-29565339D01*
X-46315805Y-29617543D01*
X-46299849Y-29651762D01*
X-46299846Y-29651767D01*
X-46297523Y-29656749D01*
X-46166198Y-29844300D01*
X-46004300Y-30006198D01*
X-45999792Y-30009355D01*
X-45999789Y-30009357D01*
X-45947229Y-30046160D01*
X-45902901Y-30101618D01*
X-45893500Y-30149373D01*
X-45893500Y-38503984D01*
X-45913502Y-38572105D01*
X-45930405Y-38593079D01*
X-59085583Y-51748257D01*
X-59147895Y-51782283D01*
X-59204090Y-51781681D01*
X-59248957Y-51770910D01*
X-59308476Y-51756620D01*
X-59308482Y-51756619D01*
X-59313289Y-51755465D01*
X-59550000Y-51736835D01*
X-59786711Y-51755465D01*
X-59791518Y-51756619D01*
X-59791524Y-51756620D01*
X-59937391Y-51791640D01*
X-60017594Y-51810895D01*
X-60022165Y-51812788D01*
X-60022167Y-51812789D01*
X-60232389Y-51899865D01*
X-60232393Y-51899867D01*
X-60236963Y-51901760D01*
X-60241183Y-51904346D01*
X-60435202Y-52023241D01*
X-60435208Y-52023245D01*
X-60439416Y-52025824D01*
X-60619969Y-52180031D01*
X-60774176Y-52360584D01*
X-60776763Y-52364806D01*
X-60832853Y-52456335D01*
X-60885500Y-52503967D01*
X-60940285Y-52516500D01*
X-64659715Y-52516500D01*
X-64727836Y-52496498D01*
X-64767147Y-52456335D01*
X-64823237Y-52364806D01*
X-64825824Y-52360584D01*
X-64980031Y-52180031D01*
X-65160584Y-52025824D01*
X-65164792Y-52023245D01*
X-65164798Y-52023241D01*
X-65358817Y-51904346D01*
X-65363037Y-51901760D01*
X-65367607Y-51899867D01*
X-65367611Y-51899865D01*
X-65577833Y-51812789D01*
X-65577835Y-51812788D01*
X-65582406Y-51810895D01*
X-65662609Y-51791640D01*
X-65808476Y-51756620D01*
X-65808482Y-51756619D01*
X-65813289Y-51755465D01*
X-66050000Y-51736835D01*
X-66286711Y-51755465D01*
X-66291518Y-51756619D01*
X-66291524Y-51756620D01*
X-66437391Y-51791640D01*
X-66517594Y-51810895D01*
X-66522165Y-51812788D01*
X-66522167Y-51812789D01*
X-66732389Y-51899865D01*
X-66732393Y-51899867D01*
X-66736963Y-51901760D01*
X-66741183Y-51904346D01*
X-66935202Y-52023241D01*
X-66935208Y-52023245D01*
X-66939416Y-52025824D01*
X-67119969Y-52180031D01*
X-67274176Y-52360584D01*
X-67276755Y-52364792D01*
X-67276759Y-52364798D01*
X-67332853Y-52456335D01*
X-67398240Y-52563037D01*
X-67489105Y-52782406D01*
X-67544535Y-53013289D01*
X-67563165Y-53250000D01*
X-67544535Y-53486711D01*
X-67489105Y-53717594D01*
X-67398240Y-53936963D01*
X-67395654Y-53941183D01*
X-67276759Y-54135202D01*
X-67276755Y-54135208D01*
X-67274176Y-54139416D01*
X-67119969Y-54319969D01*
X-66939416Y-54474176D01*
X-66935208Y-54476755D01*
X-66935202Y-54476759D01*
X-66741183Y-54595654D01*
X-66736963Y-54598240D01*
X-66732393Y-54600133D01*
X-66732389Y-54600135D01*
X-66522167Y-54687211D01*
X-66517594Y-54689105D01*
X-66437391Y-54708360D01*
X-66291524Y-54743380D01*
X-66291518Y-54743381D01*
X-66286711Y-54744535D01*
X-66050000Y-54763165D01*
X-65813289Y-54744535D01*
X-65808482Y-54743381D01*
X-65808476Y-54743380D01*
X-65662609Y-54708360D01*
X-65582406Y-54689105D01*
X-65577833Y-54687211D01*
X-65367611Y-54600135D01*
X-65367607Y-54600133D01*
X-65363037Y-54598240D01*
X-65358817Y-54595654D01*
X-65164798Y-54476759D01*
X-65164792Y-54476755D01*
X-65160584Y-54474176D01*
X-64980031Y-54319969D01*
X-64825824Y-54139416D01*
X-64767147Y-54043665D01*
X-64714500Y-53996033D01*
X-64659715Y-53983500D01*
X-60940285Y-53983500D01*
X-60872164Y-54003502D01*
X-60832853Y-54043665D01*
X-60774176Y-54139416D01*
X-60619969Y-54319969D01*
X-60439416Y-54474176D01*
X-60435208Y-54476755D01*
X-60435202Y-54476759D01*
X-60241183Y-54595654D01*
X-60236963Y-54598240D01*
X-60232393Y-54600133D01*
X-60232389Y-54600135D01*
X-60022167Y-54687211D01*
X-60017594Y-54689105D01*
X-59937391Y-54708360D01*
X-59791524Y-54743380D01*
X-59791518Y-54743381D01*
X-59786711Y-54744535D01*
X-59550000Y-54763165D01*
X-59313289Y-54744535D01*
X-59308482Y-54743381D01*
X-59308476Y-54743380D01*
X-59162609Y-54708360D01*
X-59082406Y-54689105D01*
X-59077833Y-54687211D01*
X-58867611Y-54600135D01*
X-58867607Y-54600133D01*
X-58863037Y-54598240D01*
X-58858817Y-54595654D01*
X-58664798Y-54476759D01*
X-58664792Y-54476755D01*
X-58660584Y-54474176D01*
X-58480031Y-54319969D01*
X-58325824Y-54139416D01*
X-58323245Y-54135208D01*
X-58323241Y-54135202D01*
X-58204346Y-53941183D01*
X-58201760Y-53936963D01*
X-58110895Y-53717594D01*
X-58055465Y-53486711D01*
X-58036835Y-53250000D01*
X-58055465Y-53013289D01*
X-58081681Y-52904091D01*
X-58078134Y-52833184D01*
X-58048257Y-52785583D01*
X-44687423Y-39424748D01*
X-44673010Y-39412361D01*
X-44662248Y-39404441D01*
X-44656349Y-39400100D01*
X-44623369Y-39361280D01*
X-44616439Y-39353764D01*
X-44611055Y-39348380D01*
X-44608792Y-39345519D01*
X-44608787Y-39345514D01*
X-44594068Y-39326909D01*
X-44591279Y-39323507D01*
X-44550347Y-39275328D01*
X-44550344Y-39275324D01*
X-44545608Y-39269749D01*
X-44542278Y-39263227D01*
X-44539169Y-39258565D01*
X-44536227Y-39253801D01*
X-44531682Y-39248057D01*
X-44501814Y-39184151D01*
X-44499890Y-39180216D01*
X-44471153Y-39123937D01*
X-44467824Y-39117418D01*
X-44466084Y-39110308D01*
X-44464133Y-39105061D01*
X-44462362Y-39099737D01*
X-44459262Y-39093105D01*
X-44444898Y-39024049D01*
X-44443928Y-39019764D01*
X-44428505Y-38956733D01*
X-44427170Y-38951279D01*
X-44426500Y-38940480D01*
X-44426476Y-38940481D01*
X-44426212Y-38936066D01*
X-44425922Y-38932816D01*
X-44424431Y-38925648D01*
X-44426454Y-38850877D01*
X-44426500Y-38847469D01*
X-44426500Y-30149373D01*
X-44406498Y-30081252D01*
X-44372771Y-30046160D01*
X-44320211Y-30009357D01*
X-44320208Y-30009355D01*
X-44315700Y-30006198D01*
X-44153802Y-29844300D01*
X-44022477Y-29656749D01*
X-44020154Y-29651767D01*
X-44020151Y-29651762D01*
X-44003919Y-29616951D01*
X-43957002Y-29563666D01*
X-43888725Y-29544205D01*
X-43820765Y-29564747D01*
X-43775529Y-29616951D01*
X-43759414Y-29651511D01*
X-43753931Y-29661007D01*
X-43628972Y-29839467D01*
X-43621916Y-29847875D01*
X-43467875Y-30001916D01*
X-43459467Y-30008972D01*
X-43281007Y-30133931D01*
X-43271511Y-30139414D01*
X-43074053Y-30231490D01*
X-43063761Y-30235236D01*
X-42891497Y-30281394D01*
X-42877401Y-30281058D01*
X-42874000Y-30273116D01*
X-42874000Y-28872000D01*
X-42853998Y-28803879D01*
X-42800342Y-28757386D01*
X-42748000Y-28746000D01*
X-42492000Y-28746000D01*
X-42423879Y-28766002D01*
X-42377386Y-28819658D01*
X-42366000Y-28872000D01*
X-42366000Y-30267967D01*
X-42362027Y-30281498D01*
X-42353478Y-30282727D01*
X-42176239Y-30235236D01*
X-42165947Y-30231490D01*
X-41968489Y-30139414D01*
X-41958993Y-30133931D01*
X-41780533Y-30008972D01*
X-41772125Y-30001916D01*
X-41618084Y-29847875D01*
X-41611028Y-29839467D01*
X-41486069Y-29661007D01*
X-41480586Y-29651511D01*
X-41464471Y-29616951D01*
X-41417554Y-29563666D01*
X-41349277Y-29544205D01*
X-41281317Y-29564747D01*
X-41236081Y-29616951D01*
X-41219849Y-29651762D01*
X-41219846Y-29651767D01*
X-41217523Y-29656749D01*
X-41086198Y-29844300D01*
X-40924300Y-30006198D01*
X-40919792Y-30009355D01*
X-40919789Y-30009357D01*
X-40878458Y-30038297D01*
X-40736749Y-30137523D01*
X-40731767Y-30139846D01*
X-40731762Y-30139849D01*
X-40535235Y-30231490D01*
X-40529243Y-30234284D01*
X-40523935Y-30235706D01*
X-40523933Y-30235707D01*
X-40313402Y-30292119D01*
X-40313400Y-30292119D01*
X-40308087Y-30293543D01*
X-40080000Y-30313498D01*
X-39851913Y-30293543D01*
X-39846600Y-30292119D01*
X-39846598Y-30292119D01*
X-39636067Y-30235707D01*
X-39636065Y-30235706D01*
X-39630757Y-30234284D01*
X-39624765Y-30231490D01*
X-39428238Y-30139849D01*
X-39428233Y-30139846D01*
X-39423251Y-30137523D01*
X-39281542Y-30038297D01*
X-39240211Y-30009357D01*
X-39240208Y-30009355D01*
X-39235700Y-30006198D01*
X-39073802Y-29844300D01*
X-38942477Y-29656749D01*
X-38940154Y-29651767D01*
X-38940151Y-29651762D01*
X-38924195Y-29617543D01*
X-38877278Y-29564258D01*
X-38809001Y-29544797D01*
X-38741041Y-29565339D01*
X-38695805Y-29617543D01*
X-38679849Y-29651762D01*
X-38679846Y-29651767D01*
X-38677523Y-29656749D01*
X-38546198Y-29844300D01*
X-38384300Y-30006198D01*
X-38379792Y-30009355D01*
X-38379789Y-30009357D01*
X-38338458Y-30038297D01*
X-38196749Y-30137523D01*
X-38191767Y-30139846D01*
X-38191762Y-30139849D01*
X-37995235Y-30231490D01*
X-37989243Y-30234284D01*
X-37983935Y-30235706D01*
X-37983933Y-30235707D01*
X-37773402Y-30292119D01*
X-37773400Y-30292119D01*
X-37768087Y-30293543D01*
X-37540000Y-30313498D01*
X-37311913Y-30293543D01*
X-37306600Y-30292119D01*
X-37306598Y-30292119D01*
X-37096067Y-30235707D01*
X-37096065Y-30235706D01*
X-37090757Y-30234284D01*
X-37084765Y-30231490D01*
X-36888238Y-30139849D01*
X-36888233Y-30139846D01*
X-36883251Y-30137523D01*
X-36741542Y-30038297D01*
X-36700211Y-30009357D01*
X-36700208Y-30009355D01*
X-36695700Y-30006198D01*
X-36533802Y-29844300D01*
X-36530643Y-29839789D01*
X-36527108Y-29835576D01*
X-36525974Y-29836527D01*
X-36475929Y-29796529D01*
X-36405310Y-29789224D01*
X-36341951Y-29821258D01*
X-36305970Y-29882462D01*
X-36302918Y-29899517D01*
X-36301745Y-29910316D01*
X-36250615Y-30046705D01*
X-36163261Y-30163261D01*
X-36046705Y-30250615D01*
X-35910316Y-30301745D01*
X-35848134Y-30308500D01*
X-34151866Y-30308500D01*
X-34089684Y-30301745D01*
X-33953295Y-30250615D01*
X-33836739Y-30163261D01*
X-33749385Y-30046705D01*
X-33698255Y-29910316D01*
X-33691500Y-29848134D01*
X-33691500Y-28151866D01*
X-33698255Y-28089684D01*
X-33749385Y-27953295D01*
X-33763047Y-27935066D01*
X-33787896Y-27868560D01*
X-33772844Y-27799178D01*
X-33722670Y-27748947D01*
X-33662222Y-27733500D01*
X-32856016Y-27733500D01*
X-32787895Y-27753502D01*
X-32766921Y-27770405D01*
X-22770405Y-37766921D01*
X-22736379Y-37829233D01*
X-22733500Y-37856016D01*
X-22733500Y-51434834D01*
X-22734933Y-51453783D01*
X-22738043Y-51474227D01*
X-22737450Y-51481519D01*
X-22737450Y-51481522D01*
X-22733915Y-51524979D01*
X-22733500Y-51535194D01*
X-22733500Y-51542826D01*
X-22733078Y-51546445D01*
X-22733077Y-51546464D01*
X-22730325Y-51570069D01*
X-22729893Y-51574435D01*
X-22724177Y-51644704D01*
X-22721919Y-51651673D01*
X-22720816Y-51657193D01*
X-22719534Y-51662618D01*
X-22718686Y-51669890D01*
X-22716189Y-51676769D01*
X-22694618Y-51736196D01*
X-22693190Y-51740356D01*
X-22673720Y-51800458D01*
X-22673718Y-51800462D01*
X-22671464Y-51807420D01*
X-22667670Y-51813672D01*
X-22665328Y-51818788D01*
X-22662824Y-51823789D01*
X-22660327Y-51830667D01*
X-22656317Y-51836784D01*
X-22656314Y-51836789D01*
X-22621653Y-51889654D01*
X-22619305Y-51893376D01*
X-22582733Y-51953645D01*
X-22579021Y-51957848D01*
X-22575571Y-51961755D01*
X-22575588Y-51961770D01*
X-22572654Y-51965080D01*
X-22570558Y-51967587D01*
X-22566546Y-51973706D01*
X-22561234Y-51978738D01*
X-22512224Y-52025166D01*
X-22509782Y-52027544D01*
X-21751743Y-52785583D01*
X-21717717Y-52847895D01*
X-21718319Y-52904090D01*
X-21744535Y-53013289D01*
X-21763165Y-53250000D01*
X-21744535Y-53486711D01*
X-21689105Y-53717594D01*
X-21598240Y-53936963D01*
X-21595654Y-53941183D01*
X-21476759Y-54135202D01*
X-21476755Y-54135208D01*
X-21474176Y-54139416D01*
X-21319969Y-54319969D01*
X-21139416Y-54474176D01*
X-21135208Y-54476755D01*
X-21135202Y-54476759D01*
X-20941183Y-54595654D01*
X-20936963Y-54598240D01*
X-20932393Y-54600133D01*
X-20932389Y-54600135D01*
X-20722167Y-54687211D01*
X-20717594Y-54689105D01*
X-20637391Y-54708360D01*
X-20491524Y-54743380D01*
X-20491518Y-54743381D01*
X-20486711Y-54744535D01*
X-20250000Y-54763165D01*
X-20013289Y-54744535D01*
X-20008482Y-54743381D01*
X-20008476Y-54743380D01*
X-19862609Y-54708360D01*
X-19782406Y-54689105D01*
X-19777833Y-54687211D01*
X-19567611Y-54600135D01*
X-19567607Y-54600133D01*
X-19563037Y-54598240D01*
X-19558817Y-54595654D01*
X-19364798Y-54476759D01*
X-19364792Y-54476755D01*
X-19360584Y-54474176D01*
X-19180031Y-54319969D01*
X-19025824Y-54139416D01*
X-18967147Y-54043665D01*
X-18914500Y-53996033D01*
X-18859715Y-53983500D01*
X-15140285Y-53983500D01*
X-15072164Y-54003502D01*
X-15032853Y-54043665D01*
X-14974176Y-54139416D01*
X-14819969Y-54319969D01*
X-14639416Y-54474176D01*
X-14635208Y-54476755D01*
X-14635202Y-54476759D01*
X-14441183Y-54595654D01*
X-14436963Y-54598240D01*
X-14432393Y-54600133D01*
X-14432389Y-54600135D01*
X-14222167Y-54687211D01*
X-14217594Y-54689105D01*
X-14137391Y-54708360D01*
X-13991524Y-54743380D01*
X-13991518Y-54743381D01*
X-13986711Y-54744535D01*
X-13750000Y-54763165D01*
X-13513289Y-54744535D01*
X-13508482Y-54743381D01*
X-13508476Y-54743380D01*
X-13362609Y-54708360D01*
X-13282406Y-54689105D01*
X-13277833Y-54687211D01*
X-13067611Y-54600135D01*
X-13067607Y-54600133D01*
X-13063037Y-54598240D01*
X-13058817Y-54595654D01*
X-12864798Y-54476759D01*
X-12864792Y-54476755D01*
X-12860584Y-54474176D01*
X-12680031Y-54319969D01*
X-12525824Y-54139416D01*
X-12523245Y-54135208D01*
X-12523241Y-54135202D01*
X-12404346Y-53941183D01*
X-12401760Y-53936963D01*
X-12310895Y-53717594D01*
X-12255465Y-53486711D01*
X-12236835Y-53250000D01*
X-12255465Y-53013289D01*
X-12310895Y-52782406D01*
X-12401760Y-52563037D01*
X-12467147Y-52456335D01*
X-12523241Y-52364798D01*
X-12523245Y-52364792D01*
X-12525824Y-52360584D01*
X-12680031Y-52180031D01*
X-12860584Y-52025824D01*
X-12864792Y-52023245D01*
X-12864798Y-52023241D01*
X-13058817Y-51904346D01*
X-13063037Y-51901760D01*
X-13067607Y-51899867D01*
X-13067611Y-51899865D01*
X-13277833Y-51812789D01*
X-13277835Y-51812788D01*
X-13282406Y-51810895D01*
X-13362609Y-51791640D01*
X-13508476Y-51756620D01*
X-13508482Y-51756619D01*
X-13513289Y-51755465D01*
X-13750000Y-51736835D01*
X-13986711Y-51755465D01*
X-13991518Y-51756619D01*
X-13991524Y-51756620D01*
X-14137391Y-51791640D01*
X-14217594Y-51810895D01*
X-14222165Y-51812788D01*
X-14222167Y-51812789D01*
X-14432389Y-51899865D01*
X-14432393Y-51899867D01*
X-14436963Y-51901760D01*
X-14441183Y-51904346D01*
X-14635202Y-52023241D01*
X-14635208Y-52023245D01*
X-14639416Y-52025824D01*
X-14819969Y-52180031D01*
X-14974176Y-52360584D01*
X-14976763Y-52364806D01*
X-15032853Y-52456335D01*
X-15085500Y-52503967D01*
X-15140285Y-52516500D01*
X-18859715Y-52516500D01*
X-18927836Y-52496498D01*
X-18967147Y-52456335D01*
X-19023237Y-52364806D01*
X-19025824Y-52360584D01*
X-19180031Y-52180031D01*
X-19360584Y-52025824D01*
X-19364792Y-52023245D01*
X-19364798Y-52023241D01*
X-19558817Y-51904346D01*
X-19563037Y-51901760D01*
X-19567607Y-51899867D01*
X-19567611Y-51899865D01*
X-19777833Y-51812789D01*
X-19777835Y-51812788D01*
X-19782406Y-51810895D01*
X-19862609Y-51791640D01*
X-20008476Y-51756620D01*
X-20008482Y-51756619D01*
X-20013289Y-51755465D01*
X-20250000Y-51736835D01*
X-20486711Y-51755465D01*
X-20491518Y-51756619D01*
X-20491524Y-51756620D01*
X-20551043Y-51770910D01*
X-20595909Y-51781681D01*
X-20666816Y-51778134D01*
X-20714417Y-51748257D01*
X-21229595Y-51233079D01*
X-21263621Y-51170767D01*
X-21266500Y-51143984D01*
X-21266500Y-50120701D01*
X-21246498Y-50052580D01*
X-21192842Y-50006087D01*
X-21122568Y-49995983D01*
X-21074665Y-50013268D01*
X-20940948Y-50095210D01*
X-20932163Y-50099687D01*
X-20722012Y-50186734D01*
X-20712627Y-50189783D01*
X-20491446Y-50242885D01*
X-20481699Y-50244428D01*
X-20254930Y-50262275D01*
X-20245070Y-50262275D01*
X-20018301Y-50244428D01*
X-20008554Y-50242885D01*
X-19787373Y-50189783D01*
X-19777988Y-50186734D01*
X-19567837Y-50099687D01*
X-19559042Y-50095205D01*
X-19391555Y-49992568D01*
X-19382600Y-49982670D01*
X-14617840Y-49982670D01*
X-14612113Y-49990320D01*
X-14440958Y-50095205D01*
X-14432163Y-50099687D01*
X-14222012Y-50186734D01*
X-14212627Y-50189783D01*
X-13991446Y-50242885D01*
X-13981699Y-50244428D01*
X-13754930Y-50262275D01*
X-13745070Y-50262275D01*
X-13518301Y-50244428D01*
X-13508554Y-50242885D01*
X-13287373Y-50189783D01*
X-13277988Y-50186734D01*
X-13067837Y-50099687D01*
X-13059042Y-50095205D01*
X-12891555Y-49992568D01*
X-12882093Y-49982110D01*
X-12885876Y-49973334D01*
X-13737188Y-49122022D01*
X-13751132Y-49114408D01*
X-13752965Y-49114539D01*
X-13759580Y-49118790D01*
X-14611080Y-49970290D01*
X-14617840Y-49982670D01*
X-19382600Y-49982670D01*
X-19382093Y-49982110D01*
X-19385876Y-49973334D01*
X-20520115Y-48839095D01*
X-20554141Y-48776783D01*
X-20552306Y-48751132D01*
X-19885592Y-48751132D01*
X-19885461Y-48752965D01*
X-19881210Y-48759580D01*
X-19029710Y-49611080D01*
X-19017330Y-49617840D01*
X-19009680Y-49612113D01*
X-18904795Y-49440958D01*
X-18900313Y-49432163D01*
X-18813266Y-49222012D01*
X-18810217Y-49212627D01*
X-18757115Y-48991446D01*
X-18755572Y-48981699D01*
X-18737725Y-48754930D01*
X-15262275Y-48754930D01*
X-15244428Y-48981699D01*
X-15242885Y-48991446D01*
X-15189783Y-49212627D01*
X-15186734Y-49222012D01*
X-15099687Y-49432163D01*
X-15095205Y-49440958D01*
X-14992568Y-49608445D01*
X-14982110Y-49617907D01*
X-14973334Y-49614124D01*
X-14122022Y-48762812D01*
X-14115644Y-48751132D01*
X-13385592Y-48751132D01*
X-13385461Y-48752965D01*
X-13381210Y-48759580D01*
X-12529710Y-49611080D01*
X-12517330Y-49617840D01*
X-12509680Y-49612113D01*
X-12404795Y-49440958D01*
X-12400313Y-49432163D01*
X-12313266Y-49222012D01*
X-12310217Y-49212627D01*
X-12257115Y-48991446D01*
X-12255572Y-48981699D01*
X-12237725Y-48754930D01*
X-12237725Y-48745070D01*
X-12255572Y-48518301D01*
X-12257115Y-48508554D01*
X-12310217Y-48287373D01*
X-12313266Y-48277988D01*
X-12400313Y-48067837D01*
X-12404795Y-48059042D01*
X-12507432Y-47891555D01*
X-12517890Y-47882093D01*
X-12526666Y-47885876D01*
X-13377978Y-48737188D01*
X-13385592Y-48751132D01*
X-14115644Y-48751132D01*
X-14114408Y-48748868D01*
X-14114539Y-48747035D01*
X-14118790Y-48740420D01*
X-14970290Y-47888920D01*
X-14982670Y-47882160D01*
X-14990320Y-47887887D01*
X-15095205Y-48059042D01*
X-15099687Y-48067837D01*
X-15186734Y-48277988D01*
X-15189783Y-48287373D01*
X-15242885Y-48508554D01*
X-15244428Y-48518301D01*
X-15262275Y-48745070D01*
X-15262275Y-48754930D01*
X-18737725Y-48754930D01*
X-18737725Y-48745070D01*
X-18755572Y-48518301D01*
X-18757115Y-48508554D01*
X-18810217Y-48287373D01*
X-18813266Y-48277988D01*
X-18900313Y-48067837D01*
X-18904795Y-48059042D01*
X-19007432Y-47891555D01*
X-19017890Y-47882093D01*
X-19026666Y-47885876D01*
X-19877978Y-48737188D01*
X-19885592Y-48751132D01*
X-20552306Y-48751132D01*
X-20549076Y-48705968D01*
X-20520115Y-48660905D01*
X-19388920Y-47529710D01*
X-19382466Y-47517890D01*
X-14617907Y-47517890D01*
X-14614124Y-47526666D01*
X-13762812Y-48377978D01*
X-13748868Y-48385592D01*
X-13747035Y-48385461D01*
X-13740420Y-48381210D01*
X-12888920Y-47529710D01*
X-12882160Y-47517330D01*
X-12887887Y-47509680D01*
X-13059042Y-47404795D01*
X-13067837Y-47400313D01*
X-13277988Y-47313266D01*
X-13287373Y-47310217D01*
X-13508554Y-47257115D01*
X-13518301Y-47255572D01*
X-13745070Y-47237725D01*
X-13754930Y-47237725D01*
X-13981699Y-47255572D01*
X-13991446Y-47257115D01*
X-14212627Y-47310217D01*
X-14222012Y-47313266D01*
X-14432163Y-47400313D01*
X-14440958Y-47404795D01*
X-14608445Y-47507432D01*
X-14617907Y-47517890D01*
X-19382466Y-47517890D01*
X-19382160Y-47517330D01*
X-19387887Y-47509680D01*
X-19559042Y-47404795D01*
X-19567837Y-47400313D01*
X-19777988Y-47313266D01*
X-19787373Y-47310217D01*
X-20008554Y-47257115D01*
X-20018301Y-47255572D01*
X-20245070Y-47237725D01*
X-20254930Y-47237725D01*
X-20481699Y-47255572D01*
X-20491446Y-47257115D01*
X-20712627Y-47310217D01*
X-20722012Y-47313266D01*
X-20932163Y-47400313D01*
X-20940948Y-47404790D01*
X-21074665Y-47486732D01*
X-21143198Y-47505270D01*
X-21210875Y-47483814D01*
X-21256208Y-47429175D01*
X-21266500Y-47379299D01*
X-21266500Y-37565166D01*
X-21265067Y-37546216D01*
X-21263057Y-37533007D01*
X-21263057Y-37533003D01*
X-21261957Y-37525773D01*
X-21266085Y-37475019D01*
X-21266500Y-37464805D01*
X-21266500Y-37457174D01*
X-21269675Y-37429942D01*
X-21270106Y-37425583D01*
X-21273638Y-37382160D01*
X-21275823Y-37355295D01*
X-21278079Y-37348331D01*
X-21279177Y-37342835D01*
X-21280466Y-37337382D01*
X-21281314Y-37330110D01*
X-21305384Y-37263798D01*
X-21306807Y-37259653D01*
X-21326281Y-37199538D01*
X-21326283Y-37199534D01*
X-21328536Y-37192579D01*
X-21332328Y-37186329D01*
X-21334671Y-37181212D01*
X-21337178Y-37176205D01*
X-21339673Y-37169333D01*
X-21343681Y-37163220D01*
X-21343683Y-37163216D01*
X-21378353Y-37110337D01*
X-21380700Y-37106616D01*
X-21414353Y-37051157D01*
X-21414354Y-37051156D01*
X-21417267Y-37046355D01*
X-21424430Y-37038245D01*
X-21424412Y-37038229D01*
X-21427342Y-37034925D01*
X-21429441Y-37032414D01*
X-21433454Y-37026294D01*
X-21487795Y-36974816D01*
X-21490237Y-36972438D01*
X-23544005Y-34918670D01*
X-23578031Y-34856358D01*
X-23572966Y-34785543D01*
X-23530419Y-34728707D01*
X-23463899Y-34703896D01*
X-23442068Y-34704231D01*
X-23408579Y-34707662D01*
X-23400400Y-34708500D01*
X-22599600Y-34708500D01*
X-22596354Y-34708163D01*
X-22596350Y-34708163D01*
X-22500692Y-34698238D01*
X-22500688Y-34698237D01*
X-22493834Y-34697526D01*
X-22487298Y-34695345D01*
X-22487296Y-34695345D01*
X-22333002Y-34643868D01*
X-22326054Y-34641550D01*
X-22175652Y-34548478D01*
X-22088863Y-34461537D01*
X-22026579Y-34427458D01*
X-21955759Y-34432461D01*
X-21910671Y-34461382D01*
X-21828171Y-34543739D01*
X-21816760Y-34552751D01*
X-21678757Y-34637816D01*
X-21665576Y-34643963D01*
X-21511290Y-34695138D01*
X-21497914Y-34698005D01*
X-21403562Y-34707672D01*
X-21397146Y-34708000D01*
X-21272115Y-34708000D01*
X-21256876Y-34703525D01*
X-21255671Y-34702135D01*
X-21254000Y-34694452D01*
X-21254000Y-34689884D01*
X-20746000Y-34689884D01*
X-20741525Y-34705123D01*
X-20740135Y-34706328D01*
X-20732452Y-34707999D01*
X-20602905Y-34707999D01*
X-20596386Y-34707662D01*
X-20500794Y-34697743D01*
X-20487400Y-34694851D01*
X-20333216Y-34643412D01*
X-20320038Y-34637239D01*
X-20182193Y-34551937D01*
X-20170792Y-34542901D01*
X-20056261Y-34428171D01*
X-20047249Y-34416760D01*
X-19962184Y-34278757D01*
X-19956037Y-34265576D01*
X-19904862Y-34111290D01*
X-19901995Y-34097914D01*
X-19892328Y-34003562D01*
X-19892000Y-33997146D01*
X-19892000Y-33772115D01*
X-19896475Y-33756876D01*
X-19897865Y-33755671D01*
X-19905548Y-33754000D01*
X-20727885Y-33754000D01*
X-20743124Y-33758475D01*
X-20744329Y-33759865D01*
X-20746000Y-33767548D01*
X-20746000Y-34689884D01*
X-21254000Y-34689884D01*
X-21254000Y-33227885D01*
X-20746000Y-33227885D01*
X-20741525Y-33243124D01*
X-20740135Y-33244329D01*
X-20732452Y-33246000D01*
X-19910116Y-33246000D01*
X-19894877Y-33241525D01*
X-19893672Y-33240135D01*
X-19892001Y-33232452D01*
X-19892001Y-33002905D01*
X-19892338Y-32996386D01*
X-19902257Y-32900794D01*
X-19905149Y-32887400D01*
X-19956588Y-32733216D01*
X-19962761Y-32720038D01*
X-20048063Y-32582193D01*
X-20057099Y-32570792D01*
X-20171829Y-32456261D01*
X-20183240Y-32447249D01*
X-20321243Y-32362184D01*
X-20334424Y-32356037D01*
X-20488710Y-32304862D01*
X-20502086Y-32301995D01*
X-20596438Y-32292328D01*
X-20602855Y-32292000D01*
X-20727885Y-32292000D01*
X-20743124Y-32296475D01*
X-20744329Y-32297865D01*
X-20746000Y-32305548D01*
X-20746000Y-33227885D01*
X-21254000Y-33227885D01*
X-21254000Y-32310116D01*
X-21258475Y-32294877D01*
X-21259865Y-32293672D01*
X-21267548Y-32292001D01*
X-21397095Y-32292001D01*
X-21403614Y-32292338D01*
X-21499206Y-32302257D01*
X-21512600Y-32305149D01*
X-21666784Y-32356588D01*
X-21679962Y-32362761D01*
X-21817807Y-32448063D01*
X-21829208Y-32457099D01*
X-21910430Y-32538462D01*
X-21972713Y-32572541D01*
X-22043533Y-32567538D01*
X-22088620Y-32538617D01*
X-22171512Y-32455870D01*
X-22171517Y-32455866D01*
X-22176697Y-32450695D01*
X-22187438Y-32444074D01*
X-22321032Y-32361725D01*
X-22321034Y-32361724D01*
X-22327262Y-32357885D01*
X-22407005Y-32331436D01*
X-22488611Y-32304368D01*
X-22488613Y-32304368D01*
X-22495139Y-32302203D01*
X-22501975Y-32301503D01*
X-22501978Y-32301502D01*
X-22545031Y-32297091D01*
X-22599600Y-32291500D01*
X-23118983Y-32291500D01*
X-23187104Y-32271498D01*
X-23208078Y-32254596D01*
X-23769595Y-31693080D01*
X-23803620Y-31630767D01*
X-23806500Y-31603984D01*
X-23806500Y-31364500D01*
X-23786498Y-31296379D01*
X-23732842Y-31249886D01*
X-23680500Y-31238500D01*
X-23539366Y-31238500D01*
X-23477184Y-31231745D01*
X-23340795Y-31180615D01*
X-23224239Y-31093261D01*
X-23136885Y-30976705D01*
X-23133272Y-30967067D01*
X-23132488Y-30966024D01*
X-23129423Y-30960425D01*
X-23128615Y-30960867D01*
X-23090632Y-30910302D01*
X-23024071Y-30885600D01*
X-22954722Y-30900806D01*
X-22935313Y-30913929D01*
X-22870621Y-30967067D01*
X-22863722Y-30972734D01*
X-22791970Y-31014495D01*
X-22668973Y-31086081D01*
X-22653922Y-31094841D01*
X-22649199Y-31096654D01*
X-22432028Y-31180018D01*
X-22432021Y-31180020D01*
X-22427298Y-31181833D01*
X-22396582Y-31188250D01*
X-22380292Y-31192813D01*
X-22374485Y-31194870D01*
X-22311220Y-31206140D01*
X-22307568Y-31206846D01*
X-22189680Y-31231474D01*
X-22184629Y-31231703D01*
X-22184624Y-31231704D01*
X-22175890Y-31232100D01*
X-22170160Y-31232360D01*
X-22153791Y-31234182D01*
X-22137963Y-31237001D01*
X-22109440Y-31237350D01*
X-22044274Y-31238146D01*
X-22040099Y-31238267D01*
X-21952238Y-31242257D01*
X-21952231Y-31242257D01*
X-21947183Y-31242486D01*
X-21930509Y-31240557D01*
X-21914493Y-31239731D01*
X-21907786Y-31239813D01*
X-21902906Y-31239873D01*
X-21902904Y-31239873D01*
X-21897737Y-31239936D01*
X-21815038Y-31227282D01*
X-21810483Y-31226669D01*
X-21706044Y-31214585D01*
X-21682905Y-31208037D01*
X-21667669Y-31204730D01*
X-21660256Y-31203596D01*
X-21617798Y-31189719D01*
X-21613007Y-31188258D01*
X-21472468Y-31148490D01*
X-21467892Y-31146356D01*
X-21467886Y-31146354D01*
X-21257046Y-31048038D01*
X-21257042Y-31048036D01*
X-21252464Y-31045901D01*
X-21051693Y-30909456D01*
X-20875319Y-30742668D01*
X-20820901Y-30671492D01*
X-20763637Y-30629524D01*
X-20692773Y-30625179D01*
X-20630810Y-30659835D01*
X-20620979Y-30671140D01*
X-20617628Y-30675491D01*
X-20462950Y-30845480D01*
X-20455417Y-30852506D01*
X-20275056Y-30994945D01*
X-20266469Y-31000650D01*
X-20065278Y-31111714D01*
X-20055866Y-31115944D01*
X-19839232Y-31192659D01*
X-19829261Y-31195293D01*
X-19731837Y-31212647D01*
X-19718540Y-31211187D01*
X-19714457Y-31198096D01*
X-19206000Y-31198096D01*
X-19202082Y-31211440D01*
X-19187806Y-31213427D01*
X-19125485Y-31203890D01*
X-19115457Y-31201501D01*
X-18897012Y-31130102D01*
X-18887503Y-31126105D01*
X-18683656Y-31019989D01*
X-18674931Y-31014495D01*
X-18491148Y-30876507D01*
X-18483441Y-30869664D01*
X-18324661Y-30703509D01*
X-18318174Y-30695499D01*
X-18188670Y-30505653D01*
X-18183571Y-30496679D01*
X-18086813Y-30288231D01*
X-18083250Y-30278544D01*
X-18021835Y-30057092D01*
X-18019904Y-30046970D01*
X-18015099Y-30002013D01*
X-18017747Y-29987392D01*
X-18030124Y-29984000D01*
X-19187885Y-29984000D01*
X-19203124Y-29988475D01*
X-19204329Y-29989865D01*
X-19206000Y-29997548D01*
X-19206000Y-31198096D01*
X-19714457Y-31198096D01*
X-19714000Y-31196630D01*
X-19714000Y-29457885D01*
X-19206000Y-29457885D01*
X-19201525Y-29473124D01*
X-19200135Y-29474329D01*
X-19192452Y-29476000D01*
X-18029588Y-29476000D01*
X-18014859Y-29471675D01*
X-18012798Y-29459889D01*
X-18013751Y-29448296D01*
X-18015433Y-29438134D01*
X-18071422Y-29215229D01*
X-18074741Y-29205481D01*
X-18166385Y-28994711D01*
X-18171251Y-28985636D01*
X-18296085Y-28792673D01*
X-18302378Y-28784502D01*
X-18457050Y-28614520D01*
X-18464583Y-28607494D01*
X-18644944Y-28465055D01*
X-18653531Y-28459350D01*
X-18854722Y-28348286D01*
X-18864134Y-28344056D01*
X-19080768Y-28267341D01*
X-19090739Y-28264707D01*
X-19188163Y-28247353D01*
X-19201460Y-28248813D01*
X-19206000Y-28263370D01*
X-19206000Y-29457885D01*
X-19714000Y-29457885D01*
X-19714000Y-28261904D01*
X-19717918Y-28248560D01*
X-19732194Y-28246573D01*
X-19799628Y-28256892D01*
X-19799889Y-28255184D01*
X-19863184Y-28251902D01*
X-19920843Y-28210478D01*
X-19946954Y-28144457D01*
X-19933225Y-28074801D01*
X-19910570Y-28043911D01*
X-7412064Y-15545405D01*
X-7349752Y-15511379D01*
X-7322969Y-15508500D01*
X-6542516Y-15508500D01*
X-6474395Y-15528502D01*
X-6468012Y-15532887D01*
X-6461046Y-15537995D01*
X-6456911Y-15540171D01*
X-6456907Y-15540173D01*
X-6227302Y-15660975D01*
X-6223160Y-15663154D01*
X-5969387Y-15751775D01*
X-5964794Y-15752647D01*
X-5709891Y-15801042D01*
X-5709888Y-15801042D01*
X-5705302Y-15801913D01*
X-5577630Y-15806929D01*
X-5441375Y-15812283D01*
X-5441370Y-15812283D01*
X-5436707Y-15812466D01*
X-5332393Y-15801042D01*
X-5174156Y-15783713D01*
X-5174150Y-15783712D01*
X-5169503Y-15783203D01*
X-5164979Y-15782012D01*
X-4914082Y-15715956D01*
X-4914080Y-15715955D01*
X-4909559Y-15714765D01*
X-4905262Y-15712919D01*
X-4666880Y-15610502D01*
X-4666878Y-15610501D01*
X-4662586Y-15608657D01*
X-4543929Y-15535230D01*
X-4437983Y-15469669D01*
X-4437979Y-15469666D01*
X-4434010Y-15467210D01*
X-4228851Y-15293530D01*
X-4051618Y-15091434D01*
X-4034530Y-15064869D01*
X-3908731Y-14869291D01*
X-3906203Y-14865361D01*
X-3795801Y-14620278D01*
X-3789932Y-14599467D01*
X-3755769Y-14478336D01*
X-3718027Y-14418203D01*
X-3653766Y-14388020D01*
X-3583388Y-14397370D01*
X-3529238Y-14443286D01*
X-3508500Y-14512538D01*
X-3508500Y-16822969D01*
X-3528502Y-16891090D01*
X-3545405Y-16912064D01*
X-6549666Y-19916325D01*
X-6552188Y-19918779D01*
X-6624681Y-19987332D01*
X-6627748Y-19991344D01*
X-6672408Y-20049757D01*
X-6676552Y-20054892D01*
X-6727470Y-20114720D01*
X-6730090Y-20119046D01*
X-6730095Y-20119053D01*
X-6737194Y-20130774D01*
X-6789592Y-20178679D01*
X-6841355Y-20190664D01*
X-6841320Y-20191316D01*
X-6844718Y-20191500D01*
X-6848134Y-20191500D01*
X-6910316Y-20198255D01*
X-7046705Y-20249385D01*
X-7163261Y-20336739D01*
X-7250615Y-20453295D01*
X-7301745Y-20589684D01*
X-7308500Y-20651866D01*
X-7308500Y-23348134D01*
X-7301745Y-23410316D01*
X-7250615Y-23546705D01*
X-7163261Y-23663261D01*
X-7046705Y-23750615D01*
X-6910316Y-23801745D01*
X-6848134Y-23808500D01*
X-4151866Y-23808500D01*
X-4089684Y-23801745D01*
X-3953295Y-23750615D01*
X-3836739Y-23663261D01*
X-3749385Y-23546705D01*
X-3698255Y-23410316D01*
X-3691500Y-23348134D01*
X-3691500Y-21377031D01*
X-3671498Y-21308910D01*
X-3654595Y-21287936D01*
X-950334Y-18583675D01*
X-947812Y-18581221D01*
X-878999Y-18516148D01*
X-875319Y-18512668D01*
X-827582Y-18450231D01*
X-823469Y-18445132D01*
X-772530Y-18385280D01*
X-769911Y-18380955D01*
X-769907Y-18380950D01*
X-755509Y-18357176D01*
X-747829Y-18345918D01*
X-734596Y-18328610D01*
X-677331Y-18286642D01*
X-606468Y-18282297D01*
X-544504Y-18316953D01*
X-511114Y-18379608D01*
X-508500Y-18405139D01*
X-508500Y-32359764D01*
X-528502Y-32427885D01*
X-582158Y-32474378D01*
X-652432Y-32484482D01*
X-717012Y-32454988D01*
X-728136Y-32444074D01*
X-898427Y-32254947D01*
X-898434Y-32254940D01*
X-901371Y-32251678D01*
X-1116550Y-32071121D01*
X-1354764Y-31922269D01*
X-1611375Y-31808018D01*
X-1881390Y-31730593D01*
X-1885740Y-31729982D01*
X-1885743Y-31729981D01*
X-1988690Y-31715513D01*
X-2159552Y-31691500D01*
X-2370146Y-31691500D01*
X-2372332Y-31691653D01*
X-2372336Y-31691653D01*
X-2575827Y-31705882D01*
X-2575832Y-31705883D01*
X-2580212Y-31706189D01*
X-2854970Y-31764591D01*
X-2859099Y-31766094D01*
X-2859103Y-31766095D01*
X-3114781Y-31859154D01*
X-3114785Y-31859156D01*
X-3118926Y-31860663D01*
X-3366942Y-31992536D01*
X-3370501Y-31995122D01*
X-3370503Y-31995123D01*
X-3555994Y-32129890D01*
X-3594192Y-32157642D01*
X-3796252Y-32352769D01*
X-3969188Y-32574118D01*
X-3971384Y-32577922D01*
X-3971389Y-32577929D01*
X-4053435Y-32720038D01*
X-4109636Y-32817381D01*
X-4214862Y-33077824D01*
X-4215927Y-33082097D01*
X-4215928Y-33082099D01*
X-4256376Y-33244329D01*
X-4282817Y-33350376D01*
X-4283276Y-33354744D01*
X-4283277Y-33354749D01*
X-4291062Y-33428825D01*
X-4312178Y-33629733D01*
X-4312025Y-33634121D01*
X-4312025Y-33634127D01*
X-4307365Y-33767548D01*
X-4302375Y-33910458D01*
X-4301613Y-33914781D01*
X-4301612Y-33914788D01*
X-4277836Y-34049624D01*
X-4253598Y-34187087D01*
X-4166797Y-34454235D01*
X-4164869Y-34458188D01*
X-4164867Y-34458193D01*
X-4123359Y-34543296D01*
X-4043660Y-34706702D01*
X-4041205Y-34710341D01*
X-4041202Y-34710347D01*
X-3990481Y-34785543D01*
X-3886585Y-34939576D01*
X-3883640Y-34942847D01*
X-3883639Y-34942848D01*
X-3878980Y-34948022D01*
X-3698629Y-35148322D01*
X-3483450Y-35328879D01*
X-3245236Y-35477731D01*
X-2988625Y-35591982D01*
X-2718610Y-35669407D01*
X-2714260Y-35670018D01*
X-2714257Y-35670019D01*
X-2611310Y-35684487D01*
X-2440448Y-35708500D01*
X-2229854Y-35708500D01*
X-2227668Y-35708347D01*
X-2227664Y-35708347D01*
X-2024173Y-35694118D01*
X-2024168Y-35694117D01*
X-2019788Y-35693811D01*
X-1745030Y-35635409D01*
X-1740901Y-35633906D01*
X-1740897Y-35633905D01*
X-1485219Y-35540846D01*
X-1485215Y-35540844D01*
X-1481074Y-35539337D01*
X-1233058Y-35407464D01*
X-1128104Y-35331211D01*
X-1009371Y-35244947D01*
X-1009368Y-35244944D01*
X-1005808Y-35242358D01*
X-803748Y-35047231D01*
X-733789Y-34957687D01*
X-676089Y-34916322D01*
X-605184Y-34912719D01*
X-543586Y-34948022D01*
X-510853Y-35011022D01*
X-508500Y-35035261D01*
X-508500Y-55365500D01*
X-528502Y-55433621D01*
X-582158Y-55480114D01*
X-634500Y-55491500D01*
X-79365500Y-55491500D01*
X-79433621Y-55471498D01*
X-79480114Y-55417842D01*
X-79491500Y-55365500D01*
X-79491500Y-54953500D01*
X-50134690Y-54953500D01*
X-27865309Y-54953500D01*
X-27865309Y-47046500D01*
X-50134690Y-47046500D01*
X-50134690Y-54953500D01*
X-79491500Y-54953500D01*
X-79491500Y-49982670D01*
X-66917840Y-49982670D01*
X-66912113Y-49990320D01*
X-66740958Y-50095205D01*
X-66732163Y-50099687D01*
X-66522012Y-50186734D01*
X-66512627Y-50189783D01*
X-66291446Y-50242885D01*
X-66281699Y-50244428D01*
X-66054930Y-50262275D01*
X-66045070Y-50262275D01*
X-65818301Y-50244428D01*
X-65808554Y-50242885D01*
X-65587373Y-50189783D01*
X-65577988Y-50186734D01*
X-65367837Y-50099687D01*
X-65359042Y-50095205D01*
X-65191555Y-49992568D01*
X-65182600Y-49982670D01*
X-60417840Y-49982670D01*
X-60412113Y-49990320D01*
X-60240958Y-50095205D01*
X-60232163Y-50099687D01*
X-60022012Y-50186734D01*
X-60012627Y-50189783D01*
X-59791446Y-50242885D01*
X-59781699Y-50244428D01*
X-59554930Y-50262275D01*
X-59545070Y-50262275D01*
X-59318301Y-50244428D01*
X-59308554Y-50242885D01*
X-59087373Y-50189783D01*
X-59077988Y-50186734D01*
X-58867837Y-50099687D01*
X-58859042Y-50095205D01*
X-58691555Y-49992568D01*
X-58682093Y-49982110D01*
X-58685876Y-49973334D01*
X-59537188Y-49122022D01*
X-59551132Y-49114408D01*
X-59552965Y-49114539D01*
X-59559580Y-49118790D01*
X-60411080Y-49970290D01*
X-60417840Y-49982670D01*
X-65182600Y-49982670D01*
X-65182093Y-49982110D01*
X-65185876Y-49973334D01*
X-66037188Y-49122022D01*
X-66051132Y-49114408D01*
X-66052965Y-49114539D01*
X-66059580Y-49118790D01*
X-66911080Y-49970290D01*
X-66917840Y-49982670D01*
X-79491500Y-49982670D01*
X-79491500Y-48754930D01*
X-67562275Y-48754930D01*
X-67544428Y-48981699D01*
X-67542885Y-48991446D01*
X-67489783Y-49212627D01*
X-67486734Y-49222012D01*
X-67399687Y-49432163D01*
X-67395205Y-49440958D01*
X-67292568Y-49608445D01*
X-67282110Y-49617907D01*
X-67273334Y-49614124D01*
X-66422022Y-48762812D01*
X-66415644Y-48751132D01*
X-65685592Y-48751132D01*
X-65685461Y-48752965D01*
X-65681210Y-48759580D01*
X-64829710Y-49611080D01*
X-64817330Y-49617840D01*
X-64809680Y-49612113D01*
X-64704795Y-49440958D01*
X-64700313Y-49432163D01*
X-64613266Y-49222012D01*
X-64610217Y-49212627D01*
X-64557115Y-48991446D01*
X-64555572Y-48981699D01*
X-64537725Y-48754930D01*
X-61062275Y-48754930D01*
X-61044428Y-48981699D01*
X-61042885Y-48991446D01*
X-60989783Y-49212627D01*
X-60986734Y-49222012D01*
X-60899687Y-49432163D01*
X-60895205Y-49440958D01*
X-60792568Y-49608445D01*
X-60782110Y-49617907D01*
X-60773334Y-49614124D01*
X-59922022Y-48762812D01*
X-59915644Y-48751132D01*
X-59185592Y-48751132D01*
X-59185461Y-48752965D01*
X-59181210Y-48759580D01*
X-58329710Y-49611080D01*
X-58317330Y-49617840D01*
X-58309680Y-49612113D01*
X-58204795Y-49440958D01*
X-58200313Y-49432163D01*
X-58113266Y-49222012D01*
X-58110217Y-49212627D01*
X-58057115Y-48991446D01*
X-58055572Y-48981699D01*
X-58037725Y-48754930D01*
X-58037725Y-48745070D01*
X-58055572Y-48518301D01*
X-58057115Y-48508554D01*
X-58110217Y-48287373D01*
X-58113266Y-48277988D01*
X-58200313Y-48067837D01*
X-58204795Y-48059042D01*
X-58307432Y-47891555D01*
X-58317890Y-47882093D01*
X-58326666Y-47885876D01*
X-59177978Y-48737188D01*
X-59185592Y-48751132D01*
X-59915644Y-48751132D01*
X-59914408Y-48748868D01*
X-59914539Y-48747035D01*
X-59918790Y-48740420D01*
X-60770290Y-47888920D01*
X-60782670Y-47882160D01*
X-60790320Y-47887887D01*
X-60895205Y-48059042D01*
X-60899687Y-48067837D01*
X-60986734Y-48277988D01*
X-60989783Y-48287373D01*
X-61042885Y-48508554D01*
X-61044428Y-48518301D01*
X-61062275Y-48745070D01*
X-61062275Y-48754930D01*
X-64537725Y-48754930D01*
X-64537725Y-48745070D01*
X-64555572Y-48518301D01*
X-64557115Y-48508554D01*
X-64610217Y-48287373D01*
X-64613266Y-48277988D01*
X-64700313Y-48067837D01*
X-64704795Y-48059042D01*
X-64807432Y-47891555D01*
X-64817890Y-47882093D01*
X-64826666Y-47885876D01*
X-65677978Y-48737188D01*
X-65685592Y-48751132D01*
X-66415644Y-48751132D01*
X-66414408Y-48748868D01*
X-66414539Y-48747035D01*
X-66418790Y-48740420D01*
X-67270290Y-47888920D01*
X-67282670Y-47882160D01*
X-67290320Y-47887887D01*
X-67395205Y-48059042D01*
X-67399687Y-48067837D01*
X-67486734Y-48277988D01*
X-67489783Y-48287373D01*
X-67542885Y-48508554D01*
X-67544428Y-48518301D01*
X-67562275Y-48745070D01*
X-67562275Y-48754930D01*
X-79491500Y-48754930D01*
X-79491500Y-47517890D01*
X-66917907Y-47517890D01*
X-66914124Y-47526666D01*
X-66062812Y-48377978D01*
X-66048868Y-48385592D01*
X-66047035Y-48385461D01*
X-66040420Y-48381210D01*
X-65188920Y-47529710D01*
X-65182466Y-47517890D01*
X-60417907Y-47517890D01*
X-60414124Y-47526666D01*
X-59562812Y-48377978D01*
X-59548868Y-48385592D01*
X-59547035Y-48385461D01*
X-59540420Y-48381210D01*
X-58688920Y-47529710D01*
X-58682160Y-47517330D01*
X-58687887Y-47509680D01*
X-58859042Y-47404795D01*
X-58867837Y-47400313D01*
X-59077988Y-47313266D01*
X-59087373Y-47310217D01*
X-59308554Y-47257115D01*
X-59318301Y-47255572D01*
X-59545070Y-47237725D01*
X-59554930Y-47237725D01*
X-59781699Y-47255572D01*
X-59791446Y-47257115D01*
X-60012627Y-47310217D01*
X-60022012Y-47313266D01*
X-60232163Y-47400313D01*
X-60240958Y-47404795D01*
X-60408445Y-47507432D01*
X-60417907Y-47517890D01*
X-65182466Y-47517890D01*
X-65182160Y-47517330D01*
X-65187887Y-47509680D01*
X-65359042Y-47404795D01*
X-65367837Y-47400313D01*
X-65577988Y-47313266D01*
X-65587373Y-47310217D01*
X-65808554Y-47257115D01*
X-65818301Y-47255572D01*
X-66045070Y-47237725D01*
X-66054930Y-47237725D01*
X-66281699Y-47255572D01*
X-66291446Y-47257115D01*
X-66512627Y-47310217D01*
X-66522012Y-47313266D01*
X-66732163Y-47400313D01*
X-66740958Y-47404795D01*
X-66908445Y-47507432D01*
X-66917907Y-47517890D01*
X-79491500Y-47517890D01*
X-79491500Y-39482670D01*
X-66917840Y-39482670D01*
X-66912113Y-39490320D01*
X-66740958Y-39595205D01*
X-66732163Y-39599687D01*
X-66522012Y-39686734D01*
X-66512627Y-39689783D01*
X-66291446Y-39742885D01*
X-66281699Y-39744428D01*
X-66054930Y-39762275D01*
X-66045070Y-39762275D01*
X-65818301Y-39744428D01*
X-65808554Y-39742885D01*
X-65587373Y-39689783D01*
X-65577988Y-39686734D01*
X-65367837Y-39599687D01*
X-65359042Y-39595205D01*
X-65191555Y-39492568D01*
X-65182600Y-39482670D01*
X-60417840Y-39482670D01*
X-60412113Y-39490320D01*
X-60240958Y-39595205D01*
X-60232163Y-39599687D01*
X-60022012Y-39686734D01*
X-60012627Y-39689783D01*
X-59791446Y-39742885D01*
X-59781699Y-39744428D01*
X-59554930Y-39762275D01*
X-59545070Y-39762275D01*
X-59318301Y-39744428D01*
X-59308554Y-39742885D01*
X-59087373Y-39689783D01*
X-59077988Y-39686734D01*
X-58867837Y-39599687D01*
X-58859042Y-39595205D01*
X-58691555Y-39492568D01*
X-58682093Y-39482110D01*
X-58685876Y-39473334D01*
X-59537188Y-38622022D01*
X-59551132Y-38614408D01*
X-59552965Y-38614539D01*
X-59559580Y-38618790D01*
X-60411080Y-39470290D01*
X-60417840Y-39482670D01*
X-65182600Y-39482670D01*
X-65182093Y-39482110D01*
X-65185876Y-39473334D01*
X-66037188Y-38622022D01*
X-66051132Y-38614408D01*
X-66052965Y-38614539D01*
X-66059580Y-38618790D01*
X-66911080Y-39470290D01*
X-66917840Y-39482670D01*
X-79491500Y-39482670D01*
X-79491500Y-38254930D01*
X-67562275Y-38254930D01*
X-67544428Y-38481699D01*
X-67542885Y-38491446D01*
X-67489783Y-38712627D01*
X-67486734Y-38722012D01*
X-67399687Y-38932163D01*
X-67395205Y-38940958D01*
X-67292568Y-39108445D01*
X-67282110Y-39117907D01*
X-67273334Y-39114124D01*
X-66422022Y-38262812D01*
X-66415644Y-38251132D01*
X-65685592Y-38251132D01*
X-65685461Y-38252965D01*
X-65681210Y-38259580D01*
X-64829710Y-39111080D01*
X-64817330Y-39117840D01*
X-64809680Y-39112113D01*
X-64704795Y-38940958D01*
X-64700313Y-38932163D01*
X-64613266Y-38722012D01*
X-64610217Y-38712627D01*
X-64557115Y-38491446D01*
X-64555572Y-38481699D01*
X-64537725Y-38254930D01*
X-61062275Y-38254930D01*
X-61044428Y-38481699D01*
X-61042885Y-38491446D01*
X-60989783Y-38712627D01*
X-60986734Y-38722012D01*
X-60899687Y-38932163D01*
X-60895205Y-38940958D01*
X-60792568Y-39108445D01*
X-60782110Y-39117907D01*
X-60773334Y-39114124D01*
X-59922022Y-38262812D01*
X-59915644Y-38251132D01*
X-59185592Y-38251132D01*
X-59185461Y-38252965D01*
X-59181210Y-38259580D01*
X-58329710Y-39111080D01*
X-58317330Y-39117840D01*
X-58309680Y-39112113D01*
X-58204795Y-38940958D01*
X-58200313Y-38932163D01*
X-58113266Y-38722012D01*
X-58110217Y-38712627D01*
X-58057115Y-38491446D01*
X-58055572Y-38481699D01*
X-58037725Y-38254930D01*
X-58037725Y-38245070D01*
X-58055572Y-38018301D01*
X-58057115Y-38008554D01*
X-58110217Y-37787373D01*
X-58113266Y-37777988D01*
X-58200313Y-37567837D01*
X-58204795Y-37559042D01*
X-58307432Y-37391555D01*
X-58317890Y-37382093D01*
X-58326666Y-37385876D01*
X-59177978Y-38237188D01*
X-59185592Y-38251132D01*
X-59915644Y-38251132D01*
X-59914408Y-38248868D01*
X-59914539Y-38247035D01*
X-59918790Y-38240420D01*
X-60770290Y-37388920D01*
X-60782670Y-37382160D01*
X-60790320Y-37387887D01*
X-60895205Y-37559042D01*
X-60899687Y-37567837D01*
X-60986734Y-37777988D01*
X-60989783Y-37787373D01*
X-61042885Y-38008554D01*
X-61044428Y-38018301D01*
X-61062275Y-38245070D01*
X-61062275Y-38254930D01*
X-64537725Y-38254930D01*
X-64537725Y-38245070D01*
X-64555572Y-38018301D01*
X-64557115Y-38008554D01*
X-64610217Y-37787373D01*
X-64613266Y-37777988D01*
X-64700313Y-37567837D01*
X-64704795Y-37559042D01*
X-64807432Y-37391555D01*
X-64817890Y-37382093D01*
X-64826666Y-37385876D01*
X-65677978Y-38237188D01*
X-65685592Y-38251132D01*
X-66415644Y-38251132D01*
X-66414408Y-38248868D01*
X-66414539Y-38247035D01*
X-66418790Y-38240420D01*
X-67270290Y-37388920D01*
X-67282670Y-37382160D01*
X-67290320Y-37387887D01*
X-67395205Y-37559042D01*
X-67399687Y-37567837D01*
X-67486734Y-37777988D01*
X-67489783Y-37787373D01*
X-67542885Y-38008554D01*
X-67544428Y-38018301D01*
X-67562275Y-38245070D01*
X-67562275Y-38254930D01*
X-79491500Y-38254930D01*
X-79491500Y-37017890D01*
X-66917907Y-37017890D01*
X-66914124Y-37026666D01*
X-66062812Y-37877978D01*
X-66048868Y-37885592D01*
X-66047035Y-37885461D01*
X-66040420Y-37881210D01*
X-65188920Y-37029710D01*
X-65182466Y-37017890D01*
X-60417907Y-37017890D01*
X-60414124Y-37026666D01*
X-59562812Y-37877978D01*
X-59548868Y-37885592D01*
X-59547035Y-37885461D01*
X-59540420Y-37881210D01*
X-58688920Y-37029710D01*
X-58682160Y-37017330D01*
X-58687887Y-37009680D01*
X-58859042Y-36904795D01*
X-58867837Y-36900313D01*
X-59077988Y-36813266D01*
X-59087373Y-36810217D01*
X-59308554Y-36757115D01*
X-59318301Y-36755572D01*
X-59545070Y-36737725D01*
X-59554930Y-36737725D01*
X-59781699Y-36755572D01*
X-59791446Y-36757115D01*
X-60012627Y-36810217D01*
X-60022012Y-36813266D01*
X-60232163Y-36900313D01*
X-60240958Y-36904795D01*
X-60408445Y-37007432D01*
X-60417907Y-37017890D01*
X-65182466Y-37017890D01*
X-65182160Y-37017330D01*
X-65187887Y-37009680D01*
X-65359042Y-36904795D01*
X-65367837Y-36900313D01*
X-65577988Y-36813266D01*
X-65587373Y-36810217D01*
X-65808554Y-36757115D01*
X-65818301Y-36755572D01*
X-66045070Y-36737725D01*
X-66054930Y-36737725D01*
X-66281699Y-36755572D01*
X-66291446Y-36757115D01*
X-66512627Y-36810217D01*
X-66522012Y-36813266D01*
X-66732163Y-36900313D01*
X-66740958Y-36904795D01*
X-66908445Y-37007432D01*
X-66917907Y-37017890D01*
X-79491500Y-37017890D01*
X-79491500Y-35040236D01*
X-79471498Y-34972115D01*
X-79417842Y-34925622D01*
X-79347568Y-34915518D01*
X-79282988Y-34945012D01*
X-79271864Y-34955926D01*
X-79101573Y-35145053D01*
X-79101569Y-35145057D01*
X-79098629Y-35148322D01*
X-78883450Y-35328879D01*
X-78645236Y-35477731D01*
X-78388625Y-35591982D01*
X-78118610Y-35669407D01*
X-78114260Y-35670018D01*
X-78114257Y-35670019D01*
X-78011310Y-35684487D01*
X-77840448Y-35708500D01*
X-77629854Y-35708500D01*
X-77627668Y-35708347D01*
X-77627664Y-35708347D01*
X-77424173Y-35694118D01*
X-77424168Y-35694117D01*
X-77419788Y-35693811D01*
X-77145030Y-35635409D01*
X-77140901Y-35633906D01*
X-77140897Y-35633905D01*
X-76885219Y-35540846D01*
X-76885215Y-35540844D01*
X-76881074Y-35539337D01*
X-76633058Y-35407464D01*
X-76528104Y-35331211D01*
X-76409371Y-35244947D01*
X-76409368Y-35244944D01*
X-76405808Y-35242358D01*
X-76203748Y-35047231D01*
X-76030812Y-34825882D01*
X-76028616Y-34822078D01*
X-76028611Y-34822071D01*
X-75892565Y-34586431D01*
X-75890364Y-34582619D01*
X-75785138Y-34322176D01*
X-75751456Y-34187087D01*
X-75718247Y-34053893D01*
X-75718246Y-34053888D01*
X-75717183Y-34049624D01*
X-75712341Y-34003562D01*
X-75688281Y-33774636D01*
X-75688281Y-33774633D01*
X-75687822Y-33770267D01*
X-75688185Y-33759865D01*
X-75697471Y-33493939D01*
X-75697472Y-33493933D01*
X-75697625Y-33489542D01*
X-75721392Y-33354749D01*
X-75745640Y-33217236D01*
X-75746402Y-33212913D01*
X-75833203Y-32945765D01*
X-75858531Y-32893834D01*
X-75943298Y-32720038D01*
X-75956340Y-32693298D01*
X-75958795Y-32689659D01*
X-75958798Y-32689653D01*
X-76041166Y-32567538D01*
X-76113415Y-32460424D01*
X-76118309Y-32454988D01*
X-76287197Y-32267420D01*
X-76301371Y-32251678D01*
X-76516550Y-32071121D01*
X-76754764Y-31922269D01*
X-77011375Y-31808018D01*
X-77281390Y-31730593D01*
X-77285740Y-31729982D01*
X-77285743Y-31729981D01*
X-77388690Y-31715513D01*
X-77559552Y-31691500D01*
X-77770146Y-31691500D01*
X-77772332Y-31691653D01*
X-77772336Y-31691653D01*
X-77975827Y-31705882D01*
X-77975832Y-31705883D01*
X-77980212Y-31706189D01*
X-78254970Y-31764591D01*
X-78259099Y-31766094D01*
X-78259103Y-31766095D01*
X-78514781Y-31859154D01*
X-78514785Y-31859156D01*
X-78518926Y-31860663D01*
X-78766942Y-31992536D01*
X-78770501Y-31995122D01*
X-78770503Y-31995123D01*
X-78955994Y-32129890D01*
X-78994192Y-32157642D01*
X-79196252Y-32352769D01*
X-79266210Y-32442312D01*
X-79323911Y-32483678D01*
X-79394816Y-32487281D01*
X-79456414Y-32451978D01*
X-79489147Y-32388978D01*
X-79491500Y-32364739D01*
X-79491500Y-13760000D01*
X-71873498Y-13760000D01*
X-71853543Y-13988087D01*
X-71852119Y-13993400D01*
X-71852119Y-13993402D01*
X-71796312Y-14201673D01*
X-71794284Y-14209243D01*
X-71791961Y-14214224D01*
X-71791961Y-14214225D01*
X-71699849Y-14411762D01*
X-71699846Y-14411767D01*
X-71697523Y-14416749D01*
X-71566198Y-14604300D01*
X-71404300Y-14766198D01*
X-71399792Y-14769355D01*
X-71399789Y-14769357D01*
X-71321611Y-14824098D01*
X-71216749Y-14897523D01*
X-71211767Y-14899846D01*
X-71211762Y-14899849D01*
X-71015235Y-14991490D01*
X-71009243Y-14994284D01*
X-71003935Y-14995706D01*
X-71003933Y-14995707D01*
X-70793402Y-15052119D01*
X-70793400Y-15052119D01*
X-70788087Y-15053543D01*
X-70560000Y-15073498D01*
X-70331913Y-15053543D01*
X-70326600Y-15052119D01*
X-70326598Y-15052119D01*
X-70116067Y-14995707D01*
X-70116065Y-14995706D01*
X-70110757Y-14994284D01*
X-70104765Y-14991490D01*
X-69908238Y-14899849D01*
X-69908233Y-14899846D01*
X-69903251Y-14897523D01*
X-69798389Y-14824098D01*
X-69720211Y-14769357D01*
X-69720208Y-14769355D01*
X-69715700Y-14766198D01*
X-69553802Y-14604300D01*
X-69422477Y-14416749D01*
X-69420154Y-14411767D01*
X-69420151Y-14411762D01*
X-69404195Y-14377543D01*
X-69357278Y-14324258D01*
X-69289001Y-14304797D01*
X-69221041Y-14325339D01*
X-69175805Y-14377543D01*
X-69159849Y-14411762D01*
X-69159846Y-14411767D01*
X-69157523Y-14416749D01*
X-69026198Y-14604300D01*
X-68864300Y-14766198D01*
X-68859792Y-14769355D01*
X-68859789Y-14769357D01*
X-68781611Y-14824098D01*
X-68676749Y-14897523D01*
X-68671767Y-14899846D01*
X-68671762Y-14899849D01*
X-68475235Y-14991490D01*
X-68469243Y-14994284D01*
X-68463935Y-14995706D01*
X-68463933Y-14995707D01*
X-68253402Y-15052119D01*
X-68253400Y-15052119D01*
X-68248087Y-15053543D01*
X-68020000Y-15073498D01*
X-67791913Y-15053543D01*
X-67786600Y-15052119D01*
X-67786598Y-15052119D01*
X-67576067Y-14995707D01*
X-67576065Y-14995706D01*
X-67570757Y-14994284D01*
X-67564765Y-14991490D01*
X-67368238Y-14899849D01*
X-67368233Y-14899846D01*
X-67363251Y-14897523D01*
X-67258389Y-14824098D01*
X-67180211Y-14769357D01*
X-67180208Y-14769355D01*
X-67175700Y-14766198D01*
X-67013802Y-14604300D01*
X-66882477Y-14416749D01*
X-66880154Y-14411767D01*
X-66880151Y-14411762D01*
X-66864195Y-14377543D01*
X-66817278Y-14324258D01*
X-66749001Y-14304797D01*
X-66681041Y-14325339D01*
X-66635805Y-14377543D01*
X-66619849Y-14411762D01*
X-66619846Y-14411767D01*
X-66617523Y-14416749D01*
X-66486198Y-14604300D01*
X-66324300Y-14766198D01*
X-66319792Y-14769355D01*
X-66319789Y-14769357D01*
X-66241611Y-14824098D01*
X-66136749Y-14897523D01*
X-66131767Y-14899846D01*
X-66131762Y-14899849D01*
X-65935235Y-14991490D01*
X-65929243Y-14994284D01*
X-65923935Y-14995706D01*
X-65923933Y-14995707D01*
X-65713402Y-15052119D01*
X-65713400Y-15052119D01*
X-65708087Y-15053543D01*
X-65480000Y-15073498D01*
X-65251913Y-15053543D01*
X-65246600Y-15052119D01*
X-65246598Y-15052119D01*
X-65036067Y-14995707D01*
X-65036065Y-14995706D01*
X-65030757Y-14994284D01*
X-65024765Y-14991490D01*
X-64828238Y-14899849D01*
X-64828233Y-14899846D01*
X-64823251Y-14897523D01*
X-64718389Y-14824098D01*
X-64640211Y-14769357D01*
X-64640208Y-14769355D01*
X-64635700Y-14766198D01*
X-64473802Y-14604300D01*
X-64342477Y-14416749D01*
X-64340154Y-14411767D01*
X-64340151Y-14411762D01*
X-64324195Y-14377543D01*
X-64277278Y-14324258D01*
X-64209001Y-14304797D01*
X-64141041Y-14325339D01*
X-64095805Y-14377543D01*
X-64079849Y-14411762D01*
X-64079846Y-14411767D01*
X-64077523Y-14416749D01*
X-63946198Y-14604300D01*
X-63784300Y-14766198D01*
X-63779792Y-14769355D01*
X-63779789Y-14769357D01*
X-63701611Y-14824098D01*
X-63596749Y-14897523D01*
X-63591767Y-14899846D01*
X-63591762Y-14899849D01*
X-63395235Y-14991490D01*
X-63389243Y-14994284D01*
X-63383935Y-14995706D01*
X-63383933Y-14995707D01*
X-63173402Y-15052119D01*
X-63173400Y-15052119D01*
X-63168087Y-15053543D01*
X-62940000Y-15073498D01*
X-62711913Y-15053543D01*
X-62706600Y-15052119D01*
X-62706598Y-15052119D01*
X-62496067Y-14995707D01*
X-62496065Y-14995706D01*
X-62490757Y-14994284D01*
X-62484765Y-14991490D01*
X-62288238Y-14899849D01*
X-62288233Y-14899846D01*
X-62283251Y-14897523D01*
X-62178389Y-14824098D01*
X-62100211Y-14769357D01*
X-62100208Y-14769355D01*
X-62095700Y-14766198D01*
X-61933802Y-14604300D01*
X-61802477Y-14416749D01*
X-61800154Y-14411767D01*
X-61800151Y-14411762D01*
X-61784195Y-14377543D01*
X-61737278Y-14324258D01*
X-61669001Y-14304797D01*
X-61601041Y-14325339D01*
X-61555805Y-14377543D01*
X-61539849Y-14411762D01*
X-61539846Y-14411767D01*
X-61537523Y-14416749D01*
X-61406198Y-14604300D01*
X-61244300Y-14766198D01*
X-61239792Y-14769355D01*
X-61239789Y-14769357D01*
X-61161611Y-14824098D01*
X-61056749Y-14897523D01*
X-61051767Y-14899846D01*
X-61051762Y-14899849D01*
X-60855235Y-14991490D01*
X-60849243Y-14994284D01*
X-60843935Y-14995706D01*
X-60843933Y-14995707D01*
X-60633402Y-15052119D01*
X-60633400Y-15052119D01*
X-60628087Y-15053543D01*
X-60400000Y-15073498D01*
X-60171913Y-15053543D01*
X-60166600Y-15052119D01*
X-60166598Y-15052119D01*
X-59956067Y-14995707D01*
X-59956065Y-14995706D01*
X-59950757Y-14994284D01*
X-59944765Y-14991490D01*
X-59748238Y-14899849D01*
X-59748233Y-14899846D01*
X-59743251Y-14897523D01*
X-59638389Y-14824098D01*
X-59560211Y-14769357D01*
X-59560208Y-14769355D01*
X-59555700Y-14766198D01*
X-59393802Y-14604300D01*
X-59262477Y-14416749D01*
X-59260154Y-14411767D01*
X-59260151Y-14411762D01*
X-59244195Y-14377543D01*
X-59197278Y-14324258D01*
X-59129001Y-14304797D01*
X-59061041Y-14325339D01*
X-59015805Y-14377543D01*
X-58999849Y-14411762D01*
X-58999846Y-14411767D01*
X-58997523Y-14416749D01*
X-58866198Y-14604300D01*
X-58704300Y-14766198D01*
X-58699792Y-14769355D01*
X-58699789Y-14769357D01*
X-58621611Y-14824098D01*
X-58516749Y-14897523D01*
X-58511767Y-14899846D01*
X-58511762Y-14899849D01*
X-58315235Y-14991490D01*
X-58309243Y-14994284D01*
X-58303935Y-14995706D01*
X-58303933Y-14995707D01*
X-58093402Y-15052119D01*
X-58093400Y-15052119D01*
X-58088087Y-15053543D01*
X-57860000Y-15073498D01*
X-57631913Y-15053543D01*
X-57626600Y-15052119D01*
X-57626598Y-15052119D01*
X-57416067Y-14995707D01*
X-57416065Y-14995706D01*
X-57410757Y-14994284D01*
X-57404765Y-14991490D01*
X-57208238Y-14899849D01*
X-57208233Y-14899846D01*
X-57203251Y-14897523D01*
X-57098389Y-14824098D01*
X-57020211Y-14769357D01*
X-57020208Y-14769355D01*
X-57015700Y-14766198D01*
X-56853802Y-14604300D01*
X-56722477Y-14416749D01*
X-56720154Y-14411767D01*
X-56720151Y-14411762D01*
X-56704195Y-14377543D01*
X-56657278Y-14324258D01*
X-56589001Y-14304797D01*
X-56521041Y-14325339D01*
X-56475805Y-14377543D01*
X-56459849Y-14411762D01*
X-56459846Y-14411767D01*
X-56457523Y-14416749D01*
X-56326198Y-14604300D01*
X-56164300Y-14766198D01*
X-56159792Y-14769355D01*
X-56159789Y-14769357D01*
X-56081611Y-14824098D01*
X-55976749Y-14897523D01*
X-55971767Y-14899846D01*
X-55971762Y-14899849D01*
X-55775235Y-14991490D01*
X-55769243Y-14994284D01*
X-55763935Y-14995706D01*
X-55763933Y-14995707D01*
X-55553402Y-15052119D01*
X-55553400Y-15052119D01*
X-55548087Y-15053543D01*
X-55320000Y-15073498D01*
X-55091913Y-15053543D01*
X-55086600Y-15052119D01*
X-55086598Y-15052119D01*
X-54876067Y-14995707D01*
X-54876065Y-14995706D01*
X-54870757Y-14994284D01*
X-54864765Y-14991490D01*
X-54668238Y-14899849D01*
X-54668233Y-14899846D01*
X-54663251Y-14897523D01*
X-54558389Y-14824098D01*
X-54480211Y-14769357D01*
X-54480208Y-14769355D01*
X-54475700Y-14766198D01*
X-54313802Y-14604300D01*
X-54182477Y-14416749D01*
X-54180154Y-14411767D01*
X-54180151Y-14411762D01*
X-54164195Y-14377543D01*
X-54117278Y-14324258D01*
X-54049001Y-14304797D01*
X-53981041Y-14325339D01*
X-53935805Y-14377543D01*
X-53919849Y-14411762D01*
X-53919846Y-14411767D01*
X-53917523Y-14416749D01*
X-53786198Y-14604300D01*
X-53624300Y-14766198D01*
X-53619792Y-14769355D01*
X-53619789Y-14769357D01*
X-53541611Y-14824098D01*
X-53436749Y-14897523D01*
X-53431767Y-14899846D01*
X-53431762Y-14899849D01*
X-53235235Y-14991490D01*
X-53229243Y-14994284D01*
X-53223935Y-14995706D01*
X-53223933Y-14995707D01*
X-53013402Y-15052119D01*
X-53013400Y-15052119D01*
X-53008087Y-15053543D01*
X-52780000Y-15073498D01*
X-52551913Y-15053543D01*
X-52546600Y-15052119D01*
X-52546598Y-15052119D01*
X-52336067Y-14995707D01*
X-52336065Y-14995706D01*
X-52330757Y-14994284D01*
X-52324765Y-14991490D01*
X-52128238Y-14899849D01*
X-52128233Y-14899846D01*
X-52123251Y-14897523D01*
X-52018389Y-14824098D01*
X-51940211Y-14769357D01*
X-51940208Y-14769355D01*
X-51935700Y-14766198D01*
X-51773802Y-14604300D01*
X-51642477Y-14416749D01*
X-51640154Y-14411767D01*
X-51640151Y-14411762D01*
X-51624195Y-14377543D01*
X-51577278Y-14324258D01*
X-51509001Y-14304797D01*
X-51441041Y-14325339D01*
X-51395805Y-14377543D01*
X-51379849Y-14411762D01*
X-51379846Y-14411767D01*
X-51377523Y-14416749D01*
X-51246198Y-14604300D01*
X-51084300Y-14766198D01*
X-51079792Y-14769355D01*
X-51079789Y-14769357D01*
X-51001611Y-14824098D01*
X-50896749Y-14897523D01*
X-50891767Y-14899846D01*
X-50891762Y-14899849D01*
X-50695235Y-14991490D01*
X-50689243Y-14994284D01*
X-50683935Y-14995706D01*
X-50683933Y-14995707D01*
X-50473402Y-15052119D01*
X-50473400Y-15052119D01*
X-50468087Y-15053543D01*
X-50240000Y-15073498D01*
X-50011913Y-15053543D01*
X-50006600Y-15052119D01*
X-50006598Y-15052119D01*
X-49796067Y-14995707D01*
X-49796065Y-14995706D01*
X-49790757Y-14994284D01*
X-49784765Y-14991490D01*
X-49588238Y-14899849D01*
X-49588233Y-14899846D01*
X-49583251Y-14897523D01*
X-49478389Y-14824098D01*
X-49400211Y-14769357D01*
X-49400208Y-14769355D01*
X-49395700Y-14766198D01*
X-49233802Y-14604300D01*
X-49102477Y-14416749D01*
X-49100154Y-14411767D01*
X-49100151Y-14411762D01*
X-49084195Y-14377543D01*
X-49037278Y-14324258D01*
X-48969001Y-14304797D01*
X-48901041Y-14325339D01*
X-48855805Y-14377543D01*
X-48839849Y-14411762D01*
X-48839846Y-14411767D01*
X-48837523Y-14416749D01*
X-48706198Y-14604300D01*
X-48544300Y-14766198D01*
X-48539792Y-14769355D01*
X-48539789Y-14769357D01*
X-48461611Y-14824098D01*
X-48356749Y-14897523D01*
X-48351767Y-14899846D01*
X-48351762Y-14899849D01*
X-48155235Y-14991490D01*
X-48149243Y-14994284D01*
X-48143935Y-14995706D01*
X-48143933Y-14995707D01*
X-47933402Y-15052119D01*
X-47933400Y-15052119D01*
X-47928087Y-15053543D01*
X-47700000Y-15073498D01*
X-47471913Y-15053543D01*
X-47466600Y-15052119D01*
X-47466598Y-15052119D01*
X-47256067Y-14995707D01*
X-47256065Y-14995706D01*
X-47250757Y-14994284D01*
X-47244765Y-14991490D01*
X-47048238Y-14899849D01*
X-47048233Y-14899846D01*
X-47043251Y-14897523D01*
X-46938389Y-14824098D01*
X-46860211Y-14769357D01*
X-46860208Y-14769355D01*
X-46855700Y-14766198D01*
X-46693802Y-14604300D01*
X-46562477Y-14416749D01*
X-46560154Y-14411767D01*
X-46560151Y-14411762D01*
X-46544195Y-14377543D01*
X-46497278Y-14324258D01*
X-46429001Y-14304797D01*
X-46361041Y-14325339D01*
X-46315805Y-14377543D01*
X-46299849Y-14411762D01*
X-46299846Y-14411767D01*
X-46297523Y-14416749D01*
X-46166198Y-14604300D01*
X-46004300Y-14766198D01*
X-45999792Y-14769355D01*
X-45999789Y-14769357D01*
X-45921611Y-14824098D01*
X-45816749Y-14897523D01*
X-45811767Y-14899846D01*
X-45811762Y-14899849D01*
X-45615235Y-14991490D01*
X-45609243Y-14994284D01*
X-45603935Y-14995706D01*
X-45603933Y-14995707D01*
X-45393402Y-15052119D01*
X-45393400Y-15052119D01*
X-45388087Y-15053543D01*
X-45160000Y-15073498D01*
X-44931913Y-15053543D01*
X-44926600Y-15052119D01*
X-44926598Y-15052119D01*
X-44716067Y-14995707D01*
X-44716065Y-14995706D01*
X-44710757Y-14994284D01*
X-44704765Y-14991490D01*
X-44508238Y-14899849D01*
X-44508233Y-14899846D01*
X-44503251Y-14897523D01*
X-44398389Y-14824098D01*
X-44320211Y-14769357D01*
X-44320208Y-14769355D01*
X-44315700Y-14766198D01*
X-44153802Y-14604300D01*
X-44022477Y-14416749D01*
X-44020154Y-14411767D01*
X-44020151Y-14411762D01*
X-44004195Y-14377543D01*
X-43957278Y-14324258D01*
X-43889001Y-14304797D01*
X-43821041Y-14325339D01*
X-43775805Y-14377543D01*
X-43759849Y-14411762D01*
X-43759846Y-14411767D01*
X-43757523Y-14416749D01*
X-43626198Y-14604300D01*
X-43464300Y-14766198D01*
X-43459792Y-14769355D01*
X-43459789Y-14769357D01*
X-43381611Y-14824098D01*
X-43276749Y-14897523D01*
X-43271767Y-14899846D01*
X-43271762Y-14899849D01*
X-43075235Y-14991490D01*
X-43069243Y-14994284D01*
X-43063935Y-14995706D01*
X-43063933Y-14995707D01*
X-42853402Y-15052119D01*
X-42853400Y-15052119D01*
X-42848087Y-15053543D01*
X-42620000Y-15073498D01*
X-42391913Y-15053543D01*
X-42386600Y-15052119D01*
X-42386598Y-15052119D01*
X-42176067Y-14995707D01*
X-42176065Y-14995706D01*
X-42170757Y-14994284D01*
X-42164765Y-14991490D01*
X-41968238Y-14899849D01*
X-41968233Y-14899846D01*
X-41963251Y-14897523D01*
X-41858389Y-14824098D01*
X-41780211Y-14769357D01*
X-41780208Y-14769355D01*
X-41775700Y-14766198D01*
X-41613802Y-14604300D01*
X-41482477Y-14416749D01*
X-41480154Y-14411767D01*
X-41480151Y-14411762D01*
X-41464195Y-14377543D01*
X-41417278Y-14324258D01*
X-41349001Y-14304797D01*
X-41281041Y-14325339D01*
X-41235805Y-14377543D01*
X-41219849Y-14411762D01*
X-41219846Y-14411767D01*
X-41217523Y-14416749D01*
X-41086198Y-14604300D01*
X-40924300Y-14766198D01*
X-40919792Y-14769355D01*
X-40919789Y-14769357D01*
X-40841611Y-14824098D01*
X-40736749Y-14897523D01*
X-40731767Y-14899846D01*
X-40731762Y-14899849D01*
X-40535235Y-14991490D01*
X-40529243Y-14994284D01*
X-40523935Y-14995706D01*
X-40523933Y-14995707D01*
X-40313402Y-15052119D01*
X-40313400Y-15052119D01*
X-40308087Y-15053543D01*
X-40080000Y-15073498D01*
X-39851913Y-15053543D01*
X-39846600Y-15052119D01*
X-39846598Y-15052119D01*
X-39636067Y-14995707D01*
X-39636065Y-14995706D01*
X-39630757Y-14994284D01*
X-39624765Y-14991490D01*
X-39428238Y-14899849D01*
X-39428233Y-14899846D01*
X-39423251Y-14897523D01*
X-39318389Y-14824098D01*
X-39240211Y-14769357D01*
X-39240208Y-14769355D01*
X-39235700Y-14766198D01*
X-39073802Y-14604300D01*
X-38942477Y-14416749D01*
X-38940154Y-14411767D01*
X-38940151Y-14411762D01*
X-38923919Y-14376951D01*
X-38877002Y-14323666D01*
X-38808725Y-14304205D01*
X-38740765Y-14324747D01*
X-38695529Y-14376951D01*
X-38679414Y-14411511D01*
X-38673931Y-14421007D01*
X-38548972Y-14599467D01*
X-38541916Y-14607875D01*
X-38387875Y-14761916D01*
X-38379467Y-14768972D01*
X-38201007Y-14893931D01*
X-38191511Y-14899414D01*
X-37994053Y-14991490D01*
X-37983761Y-14995236D01*
X-37811497Y-15041394D01*
X-37797401Y-15041058D01*
X-37794000Y-15033116D01*
X-37794000Y-12492033D01*
X-37797973Y-12478502D01*
X-37806522Y-12477273D01*
X-37983761Y-12524764D01*
X-37994053Y-12528510D01*
X-38191511Y-12620586D01*
X-38201007Y-12626069D01*
X-38379467Y-12751028D01*
X-38387875Y-12758084D01*
X-38541916Y-12912125D01*
X-38548972Y-12920533D01*
X-38673931Y-13098993D01*
X-38679414Y-13108489D01*
X-38695529Y-13143049D01*
X-38742446Y-13196334D01*
X-38810723Y-13215795D01*
X-38878683Y-13195253D01*
X-38923919Y-13143049D01*
X-38940151Y-13108238D01*
X-38940154Y-13108233D01*
X-38942477Y-13103251D01*
X-39073802Y-12915700D01*
X-39235700Y-12753802D01*
X-39240208Y-12750645D01*
X-39240211Y-12750643D01*
X-39367515Y-12661504D01*
X-39423251Y-12622477D01*
X-39428233Y-12620154D01*
X-39428238Y-12620151D01*
X-39625775Y-12528039D01*
X-39625776Y-12528039D01*
X-39630757Y-12525716D01*
X-39636065Y-12524294D01*
X-39636067Y-12524293D01*
X-39846598Y-12467881D01*
X-39846600Y-12467881D01*
X-39851913Y-12466457D01*
X-40080000Y-12446502D01*
X-40308087Y-12466457D01*
X-40313400Y-12467881D01*
X-40313402Y-12467881D01*
X-40523933Y-12524293D01*
X-40523935Y-12524294D01*
X-40529243Y-12525716D01*
X-40534224Y-12528039D01*
X-40534225Y-12528039D01*
X-40731762Y-12620151D01*
X-40731767Y-12620154D01*
X-40736749Y-12622477D01*
X-40792485Y-12661504D01*
X-40919789Y-12750643D01*
X-40919792Y-12750645D01*
X-40924300Y-12753802D01*
X-41086198Y-12915700D01*
X-41217523Y-13103251D01*
X-41219846Y-13108233D01*
X-41219849Y-13108238D01*
X-41235805Y-13142457D01*
X-41282722Y-13195742D01*
X-41350999Y-13215203D01*
X-41418959Y-13194661D01*
X-41464195Y-13142457D01*
X-41480151Y-13108238D01*
X-41480154Y-13108233D01*
X-41482477Y-13103251D01*
X-41613802Y-12915700D01*
X-41775700Y-12753802D01*
X-41780208Y-12750645D01*
X-41780211Y-12750643D01*
X-41832771Y-12713840D01*
X-41877099Y-12658382D01*
X-41886500Y-12610627D01*
X-41886500Y-11695166D01*
X-41885067Y-11676216D01*
X-41883057Y-11663007D01*
X-41883057Y-11663003D01*
X-41881957Y-11655773D01*
X-41886085Y-11605019D01*
X-41886500Y-11594805D01*
X-41886500Y-11587174D01*
X-41889675Y-11559942D01*
X-41890106Y-11555583D01*
X-41892323Y-11528329D01*
X-41895823Y-11485295D01*
X-41898080Y-11478327D01*
X-41899179Y-11472828D01*
X-41900466Y-11467383D01*
X-41901314Y-11460110D01*
X-41925389Y-11393785D01*
X-41926815Y-11389630D01*
X-41946279Y-11329546D01*
X-41946280Y-11329543D01*
X-41948536Y-11322580D01*
X-41952333Y-11316323D01*
X-41954679Y-11311198D01*
X-41957176Y-11306211D01*
X-41959673Y-11299333D01*
X-41963683Y-11293216D01*
X-41963686Y-11293211D01*
X-41998347Y-11240346D01*
X-42000695Y-11236624D01*
X-42034356Y-11181152D01*
X-42034357Y-11181151D01*
X-42037267Y-11176355D01*
X-42044429Y-11168245D01*
X-42044412Y-11168230D01*
X-42047346Y-11164920D01*
X-42049442Y-11162413D01*
X-42053454Y-11156294D01*
X-42107776Y-11104834D01*
X-42110218Y-11102456D01*
X-45623206Y-7589468D01*
X-49145252Y-4067423D01*
X-49157639Y-4053010D01*
X-49165559Y-4042248D01*
X-49169900Y-4036349D01*
X-49208720Y-4003369D01*
X-49216236Y-3996439D01*
X-49221620Y-3991055D01*
X-49224481Y-3988792D01*
X-49224486Y-3988787D01*
X-49243091Y-3974068D01*
X-49246493Y-3971279D01*
X-49294672Y-3930347D01*
X-49294676Y-3930344D01*
X-49300251Y-3925608D01*
X-49306772Y-3922279D01*
X-49311451Y-3919158D01*
X-49316205Y-3916222D01*
X-49321943Y-3911682D01*
X-49385853Y-3881811D01*
X-49389761Y-3879901D01*
X-49452582Y-3847824D01*
X-49459694Y-3846084D01*
X-49464980Y-3844118D01*
X-49470265Y-3842360D01*
X-49476895Y-3839261D01*
X-49545968Y-3824894D01*
X-49550252Y-3823924D01*
X-49618721Y-3807170D01*
X-49624323Y-3806822D01*
X-49624326Y-3806822D01*
X-49629520Y-3806500D01*
X-49629519Y-3806476D01*
X-49633934Y-3806212D01*
X-49637184Y-3805922D01*
X-49644352Y-3804431D01*
X-49710149Y-3806211D01*
X-49719123Y-3806454D01*
X-49722531Y-3806500D01*
X-50105352Y-3806500D01*
X-50173473Y-3786498D01*
X-50219966Y-3732842D01*
X-50230070Y-3662568D01*
X-50209021Y-3611791D01*
X-50209522Y-3611517D01*
X-50206990Y-3606892D01*
X-50206179Y-3604936D01*
X-50205214Y-3603648D01*
X-50196676Y-3588054D01*
X-50151522Y-3467606D01*
X-50147895Y-3452351D01*
X-50142369Y-3401486D01*
X-50142000Y-3394672D01*
X-50142000Y-2772115D01*
X-50146475Y-2756876D01*
X-50147865Y-2755671D01*
X-50155548Y-2754000D01*
X-52839884Y-2754000D01*
X-52855123Y-2758475D01*
X-52856328Y-2759865D01*
X-52857999Y-2767548D01*
X-52857999Y-3394669D01*
X-52857629Y-3401490D01*
X-52852105Y-3452352D01*
X-52848479Y-3467604D01*
X-52803324Y-3588054D01*
X-52794786Y-3603649D01*
X-52718285Y-3705724D01*
X-52705724Y-3718285D01*
X-52603649Y-3794786D01*
X-52588054Y-3803324D01*
X-52479173Y-3844142D01*
X-52422409Y-3886784D01*
X-52397709Y-3953345D01*
X-52412917Y-4022694D01*
X-52432309Y-4049175D01*
X-52555800Y-4178401D01*
X-52559371Y-4182138D01*
X-52685257Y-4366680D01*
X-52779312Y-4569305D01*
X-52839011Y-4784570D01*
X-52862749Y-5006695D01*
X-52849890Y-5229715D01*
X-52848753Y-5234761D01*
X-52848752Y-5234767D01*
X-52835898Y-5291801D01*
X-52800778Y-5447639D01*
X-52716734Y-5654616D01*
X-52600013Y-5845088D01*
X-52453750Y-6013938D01*
X-52281874Y-6156632D01*
X-52211405Y-6197811D01*
X-52208555Y-6199476D01*
X-52159831Y-6251114D01*
X-52146760Y-6320897D01*
X-52173491Y-6386669D01*
X-52213945Y-6420027D01*
X-52226393Y-6426507D01*
X-52230526Y-6429610D01*
X-52230529Y-6429612D01*
X-52254753Y-6447800D01*
X-52405035Y-6560635D01*
X-52559371Y-6722138D01*
X-52685257Y-6906680D01*
X-52779312Y-7109305D01*
X-52780694Y-7114290D01*
X-52780696Y-7114294D01*
X-52821364Y-7260937D01*
X-52853686Y-7316360D01*
X-53972577Y-8435252D01*
X-53986989Y-8447639D01*
X-54003651Y-8459900D01*
X-54008394Y-8465483D01*
X-54036631Y-8498720D01*
X-54043561Y-8506236D01*
X-54048945Y-8511620D01*
X-54051208Y-8514481D01*
X-54051213Y-8514486D01*
X-54065932Y-8533091D01*
X-54068721Y-8536493D01*
X-54109653Y-8584672D01*
X-54109656Y-8584676D01*
X-54114392Y-8590251D01*
X-54117721Y-8596772D01*
X-54120842Y-8601451D01*
X-54123778Y-8606205D01*
X-54128318Y-8611943D01*
X-54131415Y-8618570D01*
X-54131416Y-8618571D01*
X-54158189Y-8675854D01*
X-54160099Y-8679761D01*
X-54192176Y-8742582D01*
X-54193916Y-8749694D01*
X-54195882Y-8754980D01*
X-54197640Y-8760265D01*
X-54200739Y-8766895D01*
X-54202229Y-8774060D01*
X-54215105Y-8835963D01*
X-54216075Y-8840247D01*
X-54232830Y-8908721D01*
X-54233500Y-8919520D01*
X-54233524Y-8919519D01*
X-54233788Y-8923934D01*
X-54234078Y-8927184D01*
X-54235569Y-8934352D01*
X-54235371Y-8941669D01*
X-54233546Y-9009123D01*
X-54233500Y-9012531D01*
X-54233500Y-10934834D01*
X-54234933Y-10953783D01*
X-54238043Y-10974227D01*
X-54237450Y-10981519D01*
X-54237450Y-10981522D01*
X-54233915Y-11024979D01*
X-54233500Y-11035194D01*
X-54233500Y-11042826D01*
X-54233078Y-11046445D01*
X-54233077Y-11046464D01*
X-54230325Y-11070069D01*
X-54229893Y-11074435D01*
X-54224177Y-11144704D01*
X-54221919Y-11151673D01*
X-54220816Y-11157193D01*
X-54219534Y-11162618D01*
X-54218686Y-11169890D01*
X-54216189Y-11176769D01*
X-54194618Y-11236196D01*
X-54193190Y-11240356D01*
X-54173720Y-11300458D01*
X-54173718Y-11300462D01*
X-54171464Y-11307420D01*
X-54167670Y-11313672D01*
X-54165328Y-11318788D01*
X-54162824Y-11323789D01*
X-54160327Y-11330667D01*
X-54156317Y-11336784D01*
X-54156314Y-11336789D01*
X-54148086Y-11349338D01*
X-54121863Y-11389333D01*
X-54121653Y-11389654D01*
X-54119305Y-11393376D01*
X-54090387Y-11441031D01*
X-54082733Y-11453645D01*
X-54079021Y-11457848D01*
X-54075571Y-11461755D01*
X-54075588Y-11461770D01*
X-54072654Y-11465080D01*
X-54070558Y-11467587D01*
X-54066546Y-11473706D01*
X-54058051Y-11481753D01*
X-54012224Y-11525166D01*
X-54009782Y-11527544D01*
X-53550405Y-11986921D01*
X-53516379Y-12049233D01*
X-53513500Y-12076016D01*
X-53513500Y-12610627D01*
X-53533502Y-12678748D01*
X-53567229Y-12713840D01*
X-53619789Y-12750643D01*
X-53619792Y-12750645D01*
X-53624300Y-12753802D01*
X-53786198Y-12915700D01*
X-53917523Y-13103251D01*
X-53919846Y-13108233D01*
X-53919849Y-13108238D01*
X-53935805Y-13142457D01*
X-53982722Y-13195742D01*
X-54050999Y-13215203D01*
X-54118959Y-13194661D01*
X-54164195Y-13142457D01*
X-54180151Y-13108238D01*
X-54180154Y-13108233D01*
X-54182477Y-13103251D01*
X-54313802Y-12915700D01*
X-54475700Y-12753802D01*
X-54480208Y-12750645D01*
X-54480211Y-12750643D01*
X-54607515Y-12661504D01*
X-54663251Y-12622477D01*
X-54668233Y-12620154D01*
X-54668238Y-12620151D01*
X-54865775Y-12528039D01*
X-54865776Y-12528039D01*
X-54870757Y-12525716D01*
X-54876065Y-12524294D01*
X-54876067Y-12524293D01*
X-55086598Y-12467881D01*
X-55086600Y-12467881D01*
X-55091913Y-12466457D01*
X-55320000Y-12446502D01*
X-55548087Y-12466457D01*
X-55553400Y-12467881D01*
X-55553402Y-12467881D01*
X-55763933Y-12524293D01*
X-55763935Y-12524294D01*
X-55769243Y-12525716D01*
X-55774224Y-12528039D01*
X-55774225Y-12528039D01*
X-55971762Y-12620151D01*
X-55971767Y-12620154D01*
X-55976749Y-12622477D01*
X-56032485Y-12661504D01*
X-56159789Y-12750643D01*
X-56159792Y-12750645D01*
X-56164300Y-12753802D01*
X-56326198Y-12915700D01*
X-56457523Y-13103251D01*
X-56459846Y-13108233D01*
X-56459849Y-13108238D01*
X-56475805Y-13142457D01*
X-56522722Y-13195742D01*
X-56590999Y-13215203D01*
X-56658959Y-13194661D01*
X-56704195Y-13142457D01*
X-56720151Y-13108238D01*
X-56720154Y-13108233D01*
X-56722477Y-13103251D01*
X-56853802Y-12915700D01*
X-57015700Y-12753802D01*
X-57020208Y-12750645D01*
X-57020211Y-12750643D01*
X-57147515Y-12661504D01*
X-57203251Y-12622477D01*
X-57208233Y-12620154D01*
X-57208238Y-12620151D01*
X-57405775Y-12528039D01*
X-57405776Y-12528039D01*
X-57410757Y-12525716D01*
X-57416065Y-12524294D01*
X-57416067Y-12524293D01*
X-57626598Y-12467881D01*
X-57626600Y-12467881D01*
X-57631913Y-12466457D01*
X-57860000Y-12446502D01*
X-58088087Y-12466457D01*
X-58093400Y-12467881D01*
X-58093402Y-12467881D01*
X-58303933Y-12524293D01*
X-58303935Y-12524294D01*
X-58309243Y-12525716D01*
X-58314224Y-12528039D01*
X-58314225Y-12528039D01*
X-58511762Y-12620151D01*
X-58511767Y-12620154D01*
X-58516749Y-12622477D01*
X-58572485Y-12661504D01*
X-58699789Y-12750643D01*
X-58699792Y-12750645D01*
X-58704300Y-12753802D01*
X-58866198Y-12915700D01*
X-58997523Y-13103251D01*
X-58999846Y-13108233D01*
X-58999849Y-13108238D01*
X-59015805Y-13142457D01*
X-59062722Y-13195742D01*
X-59130999Y-13215203D01*
X-59198959Y-13194661D01*
X-59244195Y-13142457D01*
X-59260151Y-13108238D01*
X-59260154Y-13108233D01*
X-59262477Y-13103251D01*
X-59393802Y-12915700D01*
X-59555700Y-12753802D01*
X-59560208Y-12750645D01*
X-59560211Y-12750643D01*
X-59687515Y-12661504D01*
X-59743251Y-12622477D01*
X-59748233Y-12620154D01*
X-59748238Y-12620151D01*
X-59945775Y-12528039D01*
X-59945776Y-12528039D01*
X-59950757Y-12525716D01*
X-59956065Y-12524294D01*
X-59956067Y-12524293D01*
X-60166598Y-12467881D01*
X-60166600Y-12467881D01*
X-60171913Y-12466457D01*
X-60400000Y-12446502D01*
X-60628087Y-12466457D01*
X-60633400Y-12467881D01*
X-60633402Y-12467881D01*
X-60843933Y-12524293D01*
X-60843935Y-12524294D01*
X-60849243Y-12525716D01*
X-60854224Y-12528039D01*
X-60854225Y-12528039D01*
X-61051762Y-12620151D01*
X-61051767Y-12620154D01*
X-61056749Y-12622477D01*
X-61112485Y-12661504D01*
X-61239789Y-12750643D01*
X-61239792Y-12750645D01*
X-61244300Y-12753802D01*
X-61406198Y-12915700D01*
X-61537523Y-13103251D01*
X-61539846Y-13108233D01*
X-61539849Y-13108238D01*
X-61555805Y-13142457D01*
X-61602722Y-13195742D01*
X-61670999Y-13215203D01*
X-61738959Y-13194661D01*
X-61784195Y-13142457D01*
X-61800151Y-13108238D01*
X-61800154Y-13108233D01*
X-61802477Y-13103251D01*
X-61933802Y-12915700D01*
X-62095700Y-12753802D01*
X-62100208Y-12750645D01*
X-62100211Y-12750643D01*
X-62227515Y-12661504D01*
X-62283251Y-12622477D01*
X-62288233Y-12620154D01*
X-62288238Y-12620151D01*
X-62485775Y-12528039D01*
X-62485776Y-12528039D01*
X-62490757Y-12525716D01*
X-62496065Y-12524294D01*
X-62496067Y-12524293D01*
X-62706598Y-12467881D01*
X-62706600Y-12467881D01*
X-62711913Y-12466457D01*
X-62940000Y-12446502D01*
X-63168087Y-12466457D01*
X-63173400Y-12467881D01*
X-63173402Y-12467881D01*
X-63383933Y-12524293D01*
X-63383935Y-12524294D01*
X-63389243Y-12525716D01*
X-63394224Y-12528039D01*
X-63394225Y-12528039D01*
X-63591762Y-12620151D01*
X-63591767Y-12620154D01*
X-63596749Y-12622477D01*
X-63652485Y-12661504D01*
X-63779789Y-12750643D01*
X-63779792Y-12750645D01*
X-63784300Y-12753802D01*
X-63946198Y-12915700D01*
X-64077523Y-13103251D01*
X-64079846Y-13108233D01*
X-64079849Y-13108238D01*
X-64095805Y-13142457D01*
X-64142722Y-13195742D01*
X-64210999Y-13215203D01*
X-64278959Y-13194661D01*
X-64324195Y-13142457D01*
X-64340151Y-13108238D01*
X-64340154Y-13108233D01*
X-64342477Y-13103251D01*
X-64473802Y-12915700D01*
X-64635700Y-12753802D01*
X-64640208Y-12750645D01*
X-64640211Y-12750643D01*
X-64767515Y-12661504D01*
X-64823251Y-12622477D01*
X-64828233Y-12620154D01*
X-64828238Y-12620151D01*
X-65025775Y-12528039D01*
X-65025776Y-12528039D01*
X-65030757Y-12525716D01*
X-65036065Y-12524294D01*
X-65036067Y-12524293D01*
X-65246598Y-12467881D01*
X-65246600Y-12467881D01*
X-65251913Y-12466457D01*
X-65480000Y-12446502D01*
X-65708087Y-12466457D01*
X-65713400Y-12467881D01*
X-65713402Y-12467881D01*
X-65923933Y-12524293D01*
X-65923935Y-12524294D01*
X-65929243Y-12525716D01*
X-65934224Y-12528039D01*
X-65934225Y-12528039D01*
X-66131762Y-12620151D01*
X-66131767Y-12620154D01*
X-66136749Y-12622477D01*
X-66192485Y-12661504D01*
X-66319789Y-12750643D01*
X-66319792Y-12750645D01*
X-66324300Y-12753802D01*
X-66486198Y-12915700D01*
X-66617523Y-13103251D01*
X-66619846Y-13108233D01*
X-66619849Y-13108238D01*
X-66635805Y-13142457D01*
X-66682722Y-13195742D01*
X-66750999Y-13215203D01*
X-66818959Y-13194661D01*
X-66864195Y-13142457D01*
X-66880151Y-13108238D01*
X-66880154Y-13108233D01*
X-66882477Y-13103251D01*
X-67013802Y-12915700D01*
X-67175700Y-12753802D01*
X-67180208Y-12750645D01*
X-67180211Y-12750643D01*
X-67307515Y-12661504D01*
X-67363251Y-12622477D01*
X-67368233Y-12620154D01*
X-67368238Y-12620151D01*
X-67565775Y-12528039D01*
X-67565776Y-12528039D01*
X-67570757Y-12525716D01*
X-67576065Y-12524294D01*
X-67576067Y-12524293D01*
X-67786598Y-12467881D01*
X-67786600Y-12467881D01*
X-67791913Y-12466457D01*
X-68020000Y-12446502D01*
X-68248087Y-12466457D01*
X-68253400Y-12467881D01*
X-68253402Y-12467881D01*
X-68463933Y-12524293D01*
X-68463935Y-12524294D01*
X-68469243Y-12525716D01*
X-68474224Y-12528039D01*
X-68474225Y-12528039D01*
X-68671762Y-12620151D01*
X-68671767Y-12620154D01*
X-68676749Y-12622477D01*
X-68732485Y-12661504D01*
X-68859789Y-12750643D01*
X-68859792Y-12750645D01*
X-68864300Y-12753802D01*
X-69026198Y-12915700D01*
X-69157523Y-13103251D01*
X-69159846Y-13108233D01*
X-69159849Y-13108238D01*
X-69175805Y-13142457D01*
X-69222722Y-13195742D01*
X-69290999Y-13215203D01*
X-69358959Y-13194661D01*
X-69404195Y-13142457D01*
X-69420151Y-13108238D01*
X-69420154Y-13108233D01*
X-69422477Y-13103251D01*
X-69553802Y-12915700D01*
X-69715700Y-12753802D01*
X-69720208Y-12750645D01*
X-69720211Y-12750643D01*
X-69847515Y-12661504D01*
X-69903251Y-12622477D01*
X-69908233Y-12620154D01*
X-69908238Y-12620151D01*
X-70105775Y-12528039D01*
X-70105776Y-12528039D01*
X-70110757Y-12525716D01*
X-70116065Y-12524294D01*
X-70116067Y-12524293D01*
X-70326598Y-12467881D01*
X-70326600Y-12467881D01*
X-70331913Y-12466457D01*
X-70560000Y-12446502D01*
X-70788087Y-12466457D01*
X-70793400Y-12467881D01*
X-70793402Y-12467881D01*
X-71003933Y-12524293D01*
X-71003935Y-12524294D01*
X-71009243Y-12525716D01*
X-71014224Y-12528039D01*
X-71014225Y-12528039D01*
X-71211762Y-12620151D01*
X-71211767Y-12620154D01*
X-71216749Y-12622477D01*
X-71272485Y-12661504D01*
X-71399789Y-12750643D01*
X-71399792Y-12750645D01*
X-71404300Y-12753802D01*
X-71566198Y-12915700D01*
X-71697523Y-13103251D01*
X-71699846Y-13108233D01*
X-71699849Y-13108238D01*
X-71753639Y-13223592D01*
X-71794284Y-13310757D01*
X-71853543Y-13531913D01*
X-71873498Y-13760000D01*
X-79491500Y-13760000D01*
X-79491500Y-3640236D01*
X-79471498Y-3572115D01*
X-79417842Y-3525622D01*
X-79347568Y-3515518D01*
X-79282988Y-3545012D01*
X-79271864Y-3555926D01*
X-79101573Y-3745053D01*
X-79101569Y-3745057D01*
X-79098629Y-3748322D01*
X-79095267Y-3751143D01*
X-79095266Y-3751144D01*
X-79041048Y-3796638D01*
X-78883450Y-3928879D01*
X-78645236Y-4077731D01*
X-78511516Y-4137267D01*
X-78419128Y-4178401D01*
X-78388625Y-4191982D01*
X-78118610Y-4269407D01*
X-78114260Y-4270018D01*
X-78114257Y-4270019D01*
X-78011310Y-4284487D01*
X-77840448Y-4308500D01*
X-77629854Y-4308500D01*
X-77627668Y-4308347D01*
X-77627664Y-4308347D01*
X-77424173Y-4294118D01*
X-77424168Y-4294117D01*
X-77419788Y-4293811D01*
X-77145030Y-4235409D01*
X-77140901Y-4233906D01*
X-77140897Y-4233905D01*
X-76885219Y-4140846D01*
X-76885215Y-4140844D01*
X-76881074Y-4139337D01*
X-76633058Y-4007464D01*
X-76629497Y-4004877D01*
X-76409371Y-3844947D01*
X-76409368Y-3844944D01*
X-76405808Y-3842358D01*
X-76387724Y-3824895D01*
X-76206913Y-3650287D01*
X-76203748Y-3647231D01*
X-76061657Y-3465362D01*
X-76033519Y-3429347D01*
X-76033518Y-3429346D01*
X-76030812Y-3425882D01*
X-76028616Y-3422078D01*
X-76028611Y-3422071D01*
X-75892565Y-3186431D01*
X-75890364Y-3182619D01*
X-75785138Y-2922176D01*
X-75751456Y-2787087D01*
X-75718247Y-2653893D01*
X-75718246Y-2653888D01*
X-75717183Y-2649624D01*
X-75687822Y-2370267D01*
X-75692161Y-2246000D01*
X-75692794Y-2227885D01*
X-52858000Y-2227885D01*
X-52853525Y-2243124D01*
X-52852135Y-2244329D01*
X-52844452Y-2246000D01*
X-51772115Y-2246000D01*
X-51756876Y-2241525D01*
X-51755671Y-2240135D01*
X-51754000Y-2232452D01*
X-51754000Y-2227885D01*
X-51246000Y-2227885D01*
X-51241525Y-2243124D01*
X-51240135Y-2244329D01*
X-51232452Y-2246000D01*
X-50160116Y-2246000D01*
X-50144877Y-2241525D01*
X-50143672Y-2240135D01*
X-50142001Y-2232452D01*
X-50142001Y-1605331D01*
X-50142371Y-1598510D01*
X-50147895Y-1547648D01*
X-50151521Y-1532396D01*
X-50196676Y-1411946D01*
X-50205214Y-1396351D01*
X-50281715Y-1294276D01*
X-50294276Y-1281715D01*
X-50396351Y-1205214D01*
X-50411946Y-1196676D01*
X-50532394Y-1151522D01*
X-50547649Y-1147895D01*
X-50598514Y-1142369D01*
X-50605328Y-1142000D01*
X-51227885Y-1142000D01*
X-51243124Y-1146475D01*
X-51244329Y-1147865D01*
X-51246000Y-1155548D01*
X-51246000Y-2227885D01*
X-51754000Y-2227885D01*
X-51754000Y-1160116D01*
X-51758475Y-1144877D01*
X-51759865Y-1143672D01*
X-51767548Y-1142001D01*
X-52394669Y-1142001D01*
X-52401490Y-1142371D01*
X-52452352Y-1147895D01*
X-52467604Y-1151521D01*
X-52588054Y-1196676D01*
X-52603649Y-1205214D01*
X-52705724Y-1281715D01*
X-52718285Y-1294276D01*
X-52794786Y-1396351D01*
X-52803324Y-1411946D01*
X-52848478Y-1532394D01*
X-52852105Y-1547649D01*
X-52857631Y-1598514D01*
X-52858000Y-1605328D01*
X-52858000Y-2227885D01*
X-75692794Y-2227885D01*
X-75697471Y-2093939D01*
X-75697472Y-2093933D01*
X-75697625Y-2089542D01*
X-75721392Y-1954749D01*
X-75745640Y-1817236D01*
X-75746402Y-1812913D01*
X-75833203Y-1545765D01*
X-75839723Y-1532396D01*
X-75898471Y-1411946D01*
X-75956340Y-1293298D01*
X-75958795Y-1289659D01*
X-75958798Y-1289653D01*
X-76051969Y-1151522D01*
X-76113415Y-1060424D01*
X-76118309Y-1054988D01*
X-76298434Y-854940D01*
X-76301371Y-851678D01*
X-76445163Y-731022D01*
X-76484490Y-671912D01*
X-76485616Y-600924D01*
X-76448185Y-540597D01*
X-76384080Y-510083D01*
X-76364172Y-508500D01*
X-3639065Y-508500D01*
X-3570944Y-528502D01*
G37*
%TD.AperFunction*%
%TD*%
M02*
