%TF.GenerationSoftware,KiCad,Pcbnew,6.0.6-3a73a75311~116~ubuntu22.04.1*%
%TF.CreationDate,2022-07-23T23:19:18-04:00*%
%TF.ProjectId,CalibrationMilling,43616c69-6272-4617-9469-6f6e4d696c6c,rev?*%
%TF.SameCoordinates,PX2d4cae0PY230c2b0*%
%TF.FileFunction,Copper,L1,Top*%
%TF.FilePolarity,Positive*%
%FSLAX46Y46*%
G04 Gerber Fmt 4.6, Leading zero omitted, Abs format (unit mm)*
G04 Created by KiCad (PCBNEW 6.0.6-3a73a75311~116~ubuntu22.04.1) date 2022-07-23 23:19:18*
%MOMM*%
%LPD*%
G01*
G04 APERTURE LIST*
%TA.AperFunction,SMDPad,CuDef*%
%ADD10R,1.000000X1.000000*%
%TD*%
%TA.AperFunction,Conductor*%
%ADD11C,0.050800*%
%TD*%
%TA.AperFunction,Conductor*%
%ADD12C,0.279400*%
%TD*%
%TA.AperFunction,Conductor*%
%ADD13C,0.254000*%
%TD*%
%TA.AperFunction,Conductor*%
%ADD14C,0.127000*%
%TD*%
%TA.AperFunction,Conductor*%
%ADD15C,0.381000*%
%TD*%
%TA.AperFunction,Conductor*%
%ADD16C,0.025400*%
%TD*%
%TA.AperFunction,Conductor*%
%ADD17C,0.177800*%
%TD*%
%TA.AperFunction,Conductor*%
%ADD18C,0.152400*%
%TD*%
%TA.AperFunction,Conductor*%
%ADD19C,0.101600*%
%TD*%
%TA.AperFunction,Conductor*%
%ADD20C,0.228600*%
%TD*%
%TA.AperFunction,Conductor*%
%ADD21C,0.355600*%
%TD*%
%TA.AperFunction,Conductor*%
%ADD22C,0.304800*%
%TD*%
%TA.AperFunction,Conductor*%
%ADD23C,0.203200*%
%TD*%
%TA.AperFunction,Conductor*%
%ADD24C,0.076200*%
%TD*%
%TA.AperFunction,Conductor*%
%ADD25C,0.330200*%
%TD*%
G04 APERTURE END LIST*
D10*
%TO.P,TP1,1,1*%
%TO.N,GND*%
X17000000Y2500000D03*
%TD*%
D11*
%TO.N,GND*%
X14500000Y3747262D02*
X14500000Y7747262D01*
D12*
X5500000Y3750000D02*
X5500000Y7750000D01*
D13*
X6500000Y3747262D02*
X6500000Y9747262D01*
D14*
X11500000Y3747262D02*
X11500000Y9747262D01*
D15*
X1500000Y3750000D02*
X1500000Y9750000D01*
D16*
X15500000Y3747262D02*
X15500000Y7747262D01*
D17*
X9500000Y3747262D02*
X9500000Y7747262D01*
D18*
X10500000Y3747262D02*
X10500000Y7747262D01*
D19*
X12500000Y3747262D02*
X12500000Y7747262D01*
D20*
X7500000Y3747262D02*
X7500000Y7747262D01*
D21*
X2500000Y3750000D02*
X2500000Y7750000D01*
D22*
X4500000Y3750000D02*
X4500000Y7750000D01*
D23*
X8500000Y3747262D02*
X8500000Y7747262D01*
D24*
X13500000Y3747262D02*
X13500000Y7747262D01*
D25*
X3500000Y3750000D02*
X3500000Y7750000D01*
%TD*%
%TA.AperFunction,Conductor*%
%TO.N,GND*%
G36*
X11436500Y511700D02*
G01*
X11433073Y503427D01*
X11424800Y500000D01*
X11011700Y500000D01*
X11003427Y503427D01*
X11000000Y511700D01*
X11000000Y1750000D01*
X11436500Y1750000D01*
X11436500Y511700D01*
G37*
%TD.AperFunction*%
%TA.AperFunction,Conductor*%
G36*
X12000000Y511700D02*
G01*
X11996573Y503427D01*
X11988300Y500000D01*
X11575200Y500000D01*
X11566927Y503427D01*
X11563500Y511700D01*
X11563500Y1750000D01*
X12000000Y1750000D01*
X12000000Y511700D01*
G37*
%TD.AperFunction*%
%TD*%
%TA.AperFunction,Conductor*%
%TO.N,GND*%
G36*
X18246573Y3746573D02*
G01*
X18250000Y3738300D01*
X18250000Y1261700D01*
X18246573Y1253427D01*
X18238300Y1250000D01*
X15524400Y1250000D01*
X15516127Y1253427D01*
X15512700Y1261700D01*
X15512700Y3250000D01*
X15487300Y3250000D01*
X15487300Y1261700D01*
X15483873Y1253427D01*
X15475600Y1250000D01*
X14537100Y1250000D01*
X14528827Y1253427D01*
X14525400Y1261700D01*
X14525400Y3250000D01*
X14474600Y3250000D01*
X14474600Y1261700D01*
X14471173Y1253427D01*
X14462900Y1250000D01*
X13549800Y1250000D01*
X13541527Y1253427D01*
X13538100Y1261700D01*
X13538100Y3250000D01*
X13461900Y3250000D01*
X13461900Y1261700D01*
X13458473Y1253427D01*
X13450200Y1250000D01*
X12562500Y1250000D01*
X12554227Y1253427D01*
X12550800Y1261700D01*
X12550800Y3250000D01*
X12449200Y3250000D01*
X12449200Y1261700D01*
X12445773Y1253427D01*
X12437500Y1250000D01*
X11575200Y1250000D01*
X11566927Y1253427D01*
X11563500Y1261700D01*
X11563500Y3250000D01*
X11436500Y3250000D01*
X11436500Y1261700D01*
X11433073Y1253427D01*
X11424800Y1250000D01*
X10587900Y1250000D01*
X10579627Y1253427D01*
X10576200Y1261700D01*
X10576200Y3250000D01*
X10423800Y3250000D01*
X10423800Y1261700D01*
X10420373Y1253427D01*
X10412100Y1250000D01*
X9600600Y1250000D01*
X9592327Y1253427D01*
X9588900Y1261700D01*
X9588900Y3250000D01*
X9411100Y3250000D01*
X9411100Y1261700D01*
X9407673Y1253427D01*
X9399400Y1250000D01*
X8613300Y1250000D01*
X8605027Y1253427D01*
X8601600Y1261700D01*
X8601600Y3250000D01*
X8398400Y3250000D01*
X8398400Y1261700D01*
X8394973Y1253427D01*
X8386700Y1250000D01*
X7626000Y1250000D01*
X7617727Y1253427D01*
X7614300Y1261700D01*
X7614300Y3250000D01*
X7385700Y3250000D01*
X7385700Y1261700D01*
X7382273Y1253427D01*
X7374000Y1250000D01*
X6638700Y1250000D01*
X6630427Y1253427D01*
X6627000Y1261700D01*
X6627000Y3250000D01*
X6373000Y3250000D01*
X6373000Y1261700D01*
X6369573Y1253427D01*
X6361300Y1250000D01*
X5651400Y1250000D01*
X5643127Y1253427D01*
X5639700Y1261700D01*
X5639700Y3250000D01*
X5360300Y3250000D01*
X5360300Y1261700D01*
X5356873Y1253427D01*
X5348600Y1250000D01*
X4664100Y1250000D01*
X4655827Y1253427D01*
X4652400Y1261700D01*
X4652400Y3250000D01*
X4347600Y3250000D01*
X4347600Y1261700D01*
X4344173Y1253427D01*
X4335900Y1250000D01*
X3676800Y1250000D01*
X3668527Y1253427D01*
X3665100Y1261700D01*
X3665100Y3250000D01*
X3334900Y3250000D01*
X3334900Y1261700D01*
X3331473Y1253427D01*
X3323200Y1250000D01*
X2689500Y1250000D01*
X2681227Y1253427D01*
X2677800Y1261700D01*
X2677800Y3250000D01*
X2322200Y3250000D01*
X2322200Y1261700D01*
X2318773Y1253427D01*
X2310500Y1250000D01*
X1702200Y1250000D01*
X1693927Y1253427D01*
X1690500Y1261700D01*
X1690500Y3250000D01*
X1309500Y3250000D01*
X1309500Y1261700D01*
X1306073Y1253427D01*
X1297800Y1250000D01*
X511700Y1250000D01*
X503427Y1253427D01*
X500000Y1261700D01*
X500000Y3738300D01*
X503427Y3746573D01*
X511700Y3750000D01*
X18238300Y3750000D01*
X18246573Y3746573D01*
G37*
%TD.AperFunction*%
%TD*%
%TA.AperFunction,Conductor*%
%TO.N,GND*%
G36*
X1309500Y511700D02*
G01*
X1306073Y503427D01*
X1297800Y500000D01*
X1011700Y500000D01*
X1003427Y503427D01*
X1000000Y511700D01*
X1000000Y1750000D01*
X1309500Y1750000D01*
X1309500Y511700D01*
G37*
%TD.AperFunction*%
%TA.AperFunction,Conductor*%
G36*
X2000000Y511700D02*
G01*
X1996573Y503427D01*
X1988300Y500000D01*
X1702200Y500000D01*
X1693927Y503427D01*
X1690500Y511700D01*
X1690500Y1750000D01*
X2000000Y1750000D01*
X2000000Y511700D01*
G37*
%TD.AperFunction*%
%TD*%
%TA.AperFunction,Conductor*%
%TO.N,GND*%
G36*
X6373000Y511700D02*
G01*
X6369573Y503427D01*
X6361300Y500000D01*
X6011700Y500000D01*
X6003427Y503427D01*
X6000000Y511700D01*
X6000000Y1750000D01*
X6373000Y1750000D01*
X6373000Y511700D01*
G37*
%TD.AperFunction*%
%TA.AperFunction,Conductor*%
G36*
X7000000Y511700D02*
G01*
X6996573Y503427D01*
X6988300Y500000D01*
X6638700Y500000D01*
X6630427Y503427D01*
X6627000Y511700D01*
X6627000Y1750000D01*
X7000000Y1750000D01*
X7000000Y511700D01*
G37*
%TD.AperFunction*%
%TD*%
M02*
